<svg width="359" height="298" viewBox="0 0 359 298" fill="none" xmlns="http://www.w3.org/2000/svg">
<path d="M273.334 67.4072H270.784C270.281 67.4072 269.874 67.8148 269.874 68.3176V102.516C269.874 103.019 270.281 103.427 270.784 103.427H273.334C273.837 103.427 274.244 103.019 274.244 102.516V68.3176C274.244 67.8148 273.837 67.4072 273.334 67.4072Z" fill="#3F3D56"/>
<path d="M256.731 0H141.523C132.962 0 126.022 6.93975 126.022 15.5004V281.648C126.022 290.209 132.962 297.149 141.523 297.149H256.731C265.292 297.149 272.232 290.209 272.232 281.648V15.5004C272.232 6.93975 265.292 0 256.731 0Z" fill="#3F3D56"/>
<path d="M251.881 7.73999H235.11V9.75754C235.11 11.0134 234.862 12.2569 234.382 13.4171C233.901 14.5773 233.196 15.6314 232.308 16.5192C231.42 17.407 230.365 18.111 229.205 18.5911C228.044 19.0713 226.801 19.318 225.545 19.3174H172.206C170.95 19.318 169.707 19.0713 168.546 18.5911C167.386 18.111 166.331 17.407 165.443 16.5192C164.555 15.6314 163.85 14.5773 163.369 13.4171C162.889 12.2569 162.641 11.0134 162.641 9.75754V7.73999H146.938C143.858 7.73999 140.905 8.96339 138.727 11.1411C136.55 13.3187 135.326 16.2723 135.326 19.3519V277.817C135.326 280.897 136.55 283.85 138.727 286.028C140.905 288.206 143.858 289.429 146.938 289.429H251.881C254.961 289.429 257.915 288.206 260.092 286.028C262.27 283.85 263.493 280.897 263.493 277.817V19.3718C263.496 17.8452 263.198 16.3331 262.615 14.922C262.033 13.5109 261.178 12.2285 260.099 11.1481C259.021 10.0677 257.74 9.21059 256.33 8.6258C254.92 8.041 253.408 7.73999 251.881 7.73999Z" fill="white"/>
<path d="M203.902 8.87402H186.562C185.713 8.87402 185.024 9.56284 185.024 10.4125V11.4791C185.024 12.3288 185.713 13.0177 186.562 13.0177H203.902C204.752 13.0177 205.441 12.3288 205.441 11.4791V10.4125C205.441 9.56284 204.752 8.87402 203.902 8.87402Z" fill="#E6E8EC"/>
<path d="M210.882 13.2992C212.181 13.2992 213.235 12.2457 213.235 10.9461C213.235 9.64653 212.181 8.59302 210.882 8.59302C209.582 8.59302 208.529 9.64653 208.529 10.9461C208.529 12.2457 209.582 13.2992 210.882 13.2992Z" fill="#E6E8EC"/>
<path d="M200.02 179.881C215.295 179.881 227.678 167.498 227.678 152.222C227.678 136.947 215.295 124.564 200.02 124.564C184.744 124.564 172.361 136.947 172.361 152.222C172.361 167.498 184.744 179.881 200.02 179.881Z" fill="white"/>
<path d="M236.399 148.36C236.398 155.671 234.23 162.818 230.168 168.897C226.106 174.976 220.332 179.714 213.577 182.512C206.822 185.31 199.39 186.042 192.219 184.615C185.048 183.188 178.461 179.667 173.292 174.497C168.122 169.327 164.601 162.74 163.175 155.569C161.749 148.399 162.481 140.966 165.279 134.211C168.078 127.456 172.816 121.683 178.895 117.621C184.974 113.56 192.122 111.392 199.433 111.392C204.288 111.392 209.095 112.349 213.579 114.206C218.064 116.064 222.139 118.787 225.572 122.22C229.005 125.653 231.727 129.728 233.585 134.213C235.443 138.698 236.399 143.505 236.399 148.36ZM195.16 167.927L222.581 140.506C222.803 140.284 222.979 140.021 223.1 139.732C223.22 139.442 223.282 139.132 223.282 138.819C223.282 138.505 223.22 138.195 223.1 137.905C222.979 137.616 222.803 137.353 222.581 137.132L219.207 133.782C218.986 133.561 218.724 133.385 218.435 133.265C218.146 133.144 217.836 133.083 217.523 133.083C217.21 133.083 216.9 133.144 216.611 133.265C216.322 133.385 216.059 133.561 215.838 133.782L193.473 156.148L183.03 145.681C182.582 145.235 181.975 144.985 181.343 144.985C180.711 144.985 180.105 145.235 179.656 145.681L176.282 149.074C175.836 149.523 175.586 150.129 175.586 150.761C175.586 151.394 175.836 152 176.282 152.448L191.787 167.947C192.008 168.169 192.271 168.345 192.56 168.465C192.85 168.585 193.16 168.647 193.474 168.647C193.787 168.647 194.097 168.585 194.387 168.465C194.676 168.345 194.939 168.169 195.161 167.947L195.16 167.927Z" fill="#F47920"/>
<path d="M327.961 296.41C337.84 296.41 345.849 295.056 345.849 293.386C345.849 291.715 337.84 290.361 327.961 290.361C318.082 290.361 310.073 291.715 310.073 293.386C310.073 295.056 318.082 296.41 327.961 296.41Z" fill="#F47920"/>
<path d="M335.359 288.439C336.175 287.772 336.769 286.874 337.063 285.863C337.285 284.845 336.85 283.637 335.87 283.243C334.776 282.825 333.604 283.585 332.721 284.35C331.837 285.115 330.817 285.992 329.656 285.827C330.253 285.287 330.701 284.601 330.955 283.836C331.208 283.071 331.26 282.254 331.103 281.463C331.051 281.136 330.911 280.828 330.698 280.574C330.093 279.924 328.989 280.2 328.265 280.716C325.952 282.34 325.307 285.487 325.293 288.309C325.058 287.291 325.258 286.227 325.249 285.195C325.24 284.163 324.96 282.969 324.074 282.424C323.528 282.131 322.915 281.986 322.295 282.006C321.254 281.966 320.097 282.072 319.386 282.833C318.496 283.776 318.736 285.36 319.501 286.392C320.267 287.424 321.437 288.086 322.513 288.803C323.374 289.317 324.108 290.018 324.66 290.854C324.726 290.971 324.78 291.095 324.819 291.223H331.319C332.784 290.481 334.143 289.545 335.358 288.44L335.359 288.439Z" fill="#F47920"/>
<path d="M84.7618 297.745C91.2814 297.745 96.5666 296.851 96.5666 295.749C96.5666 294.646 91.2814 293.752 84.7618 293.752C78.2422 293.752 72.957 294.646 72.957 295.749C72.957 296.851 78.2422 297.745 84.7618 297.745Z" fill="#EFEFEF"/>
<path d="M89.6442 292.484C90.1821 292.044 90.5741 291.451 90.7684 290.784C90.854 290.449 90.8227 290.095 90.6796 289.781C90.5365 289.466 90.2903 289.21 89.9817 289.055C89.2593 288.779 88.4873 289.281 87.9033 289.786C87.3193 290.291 86.6467 290.869 85.8806 290.761C86.2749 290.404 86.5701 289.951 86.7373 289.446C86.9045 288.942 86.9381 288.402 86.8347 287.881C86.8003 287.665 86.708 287.462 86.5676 287.294C86.17 286.865 85.4401 287.047 84.9619 287.387C83.4353 288.461 83.0095 290.534 83.0008 292.399C82.8453 291.727 82.9773 291.025 82.9713 290.344C82.9654 289.663 82.7805 288.876 82.1961 288.515C81.8357 288.322 81.4306 288.227 81.0218 288.239C80.3348 288.213 79.5715 288.283 79.1016 288.786C78.5145 289.408 78.6731 290.453 79.1779 291.134C79.6828 291.815 80.4549 292.253 81.1657 292.725C81.7339 293.063 82.2185 293.525 82.5837 294.076C82.6277 294.153 82.6632 294.235 82.6895 294.32H86.9786C87.9457 293.83 88.8423 293.212 89.6442 292.482V292.484Z" fill="#EFEFEF"/>
<path d="M18.0008 297.745C24.5204 297.745 29.8056 296.851 29.8056 295.749C29.8056 294.646 24.5204 293.752 18.0008 293.752C11.4812 293.752 6.19604 294.646 6.19604 295.749C6.19604 296.851 11.4812 297.745 18.0008 297.745Z" fill="#EFEFEF"/>
<path d="M22.8832 292.484C23.4211 292.044 23.8131 291.451 24.0075 290.784C24.093 290.449 24.0617 290.095 23.9186 289.781C23.7755 289.466 23.5293 289.21 23.2207 289.055C22.4984 288.779 21.7263 289.281 21.1423 289.786C20.5583 290.291 19.8857 290.869 19.1196 290.761C19.5139 290.404 19.8091 289.951 19.9763 289.446C20.1435 288.942 20.1771 288.402 20.0737 287.881C20.0393 287.665 19.947 287.462 19.8066 287.294C19.409 286.865 18.6791 287.047 18.2009 287.387C16.6743 288.461 16.2485 290.534 16.2398 292.399C16.0843 291.727 16.2163 291.025 16.2103 290.344C16.2044 289.663 16.0195 288.876 15.4351 288.515C15.0747 288.322 14.6697 288.227 14.2608 288.239C13.5738 288.213 12.8105 288.283 12.3406 288.786C11.7535 289.408 11.9121 290.453 12.417 291.134C12.9218 291.815 13.6939 292.253 14.4047 292.725C14.9729 293.063 15.4576 293.525 15.8227 294.076C15.8667 294.153 15.9022 294.235 15.9285 294.32H20.2176C21.1847 293.83 22.0814 293.212 22.8832 292.482V292.484Z" fill="#EFEFEF"/>
<path d="M358.813 296.605H0V297.329H358.813V296.605Z" fill="#2F2E41"/>
<path d="M358.294 20.0856C358.294 20.0856 320.837 17.8256 325.25 44.0724C325.25 44.0724 324.36 48.7122 328.577 50.8164C328.577 50.8164 328.644 48.8724 332.421 49.5351C333.765 49.758 335.131 49.8236 336.491 49.7307C338.326 49.6101 340.071 48.8965 341.465 47.6977C341.465 47.6977 351.994 43.3469 356.087 26.1399C356.087 26.1399 359.116 22.3855 358.996 21.4198L352.675 24.12C352.675 24.12 354.837 28.6798 353.12 32.4684C353.12 32.4684 352.916 24.283 351.701 24.4611C351.457 24.4968 348.418 26.0401 348.418 26.0401C348.418 26.0401 352.133 33.9807 349.33 39.7555C349.33 39.7555 350.393 29.9687 347.257 26.6142L342.808 29.2121C342.808 29.2121 347.15 37.4155 344.205 44.1106C344.205 44.1106 344.961 33.8432 341.87 29.8438L337.839 32.9888C337.839 32.9888 341.919 41.0718 339.432 46.6247C339.432 46.6247 339.107 34.6756 336.967 33.7728C336.967 33.7728 333.439 36.8868 332.901 38.1589C332.901 38.1589 335.695 44.0311 333.96 47.1272C333.96 47.1272 332.897 39.1643 332.024 39.1198C332.024 39.1198 328.51 44.3956 328.145 48.0169C328.145 48.0169 328.297 42.6385 331.175 38.6217C331.175 38.6217 327.776 39.2045 325.792 41.4045C325.792 41.4045 326.339 37.6767 332.042 37.3475C332.042 37.3475 334.947 33.3438 335.721 33.1037C335.721 33.1037 330.053 32.6267 326.615 34.1536C326.615 34.1536 329.64 30.635 336.762 32.2363L340.743 28.9843C340.743 28.9843 333.279 27.9654 330.111 29.0913C330.111 29.0913 333.755 25.9773 341.816 28.2461L346.149 25.6569C346.149 25.6569 339.783 24.2865 335.993 24.7672C335.993 24.7672 339.996 22.6097 347.421 24.9496L350.535 23.5582C350.535 23.5582 345.873 22.6419 344.507 22.4952C343.141 22.3485 343.07 21.9748 343.07 21.9748C346.024 21.4823 349.056 21.8197 351.829 22.9492C351.829 22.9492 358.405 20.4995 358.294 20.0856Z" fill="#F47920"/>
<path d="M306.972 6.19012C306.972 6.19012 290.067 5.17121 292.042 17.0312C292.042 17.0312 291.645 19.1267 293.546 20.0784C293.546 20.0784 293.577 19.1887 295.285 19.4956C295.892 19.5978 296.508 19.6276 297.122 19.5847C297.952 19.5298 298.741 19.2047 299.369 18.6592C299.369 18.6592 304.129 16.6929 305.979 8.9169C305.979 8.9169 307.345 7.22215 307.291 6.78605L304.435 8.00492C304.435 8.00492 305.409 10.0646 304.644 11.7772C304.644 11.7772 304.551 8.08006 304.004 8.16513C303.892 8.16513 302.518 8.88072 302.518 8.88072C302.518 8.88072 304.199 12.4706 302.932 15.0777C302.932 15.0777 303.412 10.6558 301.993 9.13873L299.982 10.3314C299.982 10.3314 301.944 14.0369 300.614 17.0622C300.614 17.0622 300.957 12.4225 299.56 10.6164L297.74 12.04C297.74 12.04 299.582 15.6923 298.461 18.202C298.461 18.202 298.31 12.8013 297.344 12.3923C297.344 12.3923 295.751 13.798 295.507 14.3764C295.507 14.3764 296.77 17.0455 295.987 18.429C295.987 18.429 295.507 14.83 295.097 14.8113C295.097 14.8113 293.509 17.1966 293.345 18.815C293.424 17.3052 293.897 15.8424 294.715 14.5712C293.799 14.7448 292.953 15.1824 292.282 15.8302C292.282 15.8302 292.531 14.1442 295.107 13.9975C295.107 13.9975 296.441 12.1871 296.77 12.0758C296.77 12.0758 294.208 11.8623 292.655 12.5529C292.655 12.5529 294.021 10.9647 297.237 11.6854L299.017 10.2173C299.017 10.2173 295.642 9.76804 294.211 10.2634C294.211 10.2634 295.856 8.85766 299.5 9.88094L301.457 8.71097C301.457 8.71097 298.579 8.09278 296.867 8.31342C296.867 8.31342 298.677 7.33903 302.031 8.39293L303.433 7.7656C303.433 7.7656 301.326 7.35175 300.706 7.28496C300.086 7.21818 300.056 7.04922 300.056 7.04922C301.392 6.82706 302.762 6.9811 304.015 7.49407C304.015 7.49407 307.024 6.37538 306.972 6.19012Z" fill="#023E88"/>
<path d="M31.7867 222.251C31.7867 222.251 14.8823 221.232 16.8573 233.092C16.8573 233.092 16.4597 235.187 18.3608 236.139C18.3608 236.139 18.3918 235.249 20.1001 235.556C20.7068 235.658 21.3234 235.688 21.9371 235.645C22.7669 235.59 23.556 235.265 24.1837 234.72C24.1837 234.72 28.9435 232.753 30.7941 224.977C30.7941 224.977 32.1597 223.283 32.106 222.847L29.25 224.065C29.25 224.065 30.2244 226.125 29.4591 227.838C29.4591 227.838 29.3657 224.141 28.8187 224.226C28.7073 224.226 27.3326 224.941 27.3326 224.941C27.3326 224.941 29.0143 228.531 27.7465 231.138C27.7465 231.138 28.2267 226.716 26.8079 225.199L24.7971 226.392C24.7971 226.392 26.759 230.097 25.4288 233.123C25.4288 233.123 25.7715 228.483 24.3745 226.677L22.5549 228.101C22.5549 228.101 24.3967 231.753 23.2757 234.263C23.2757 234.263 23.1246 228.862 22.159 228.453C22.159 228.453 20.5664 229.859 20.3215 230.437C20.3215 230.437 21.5849 233.106 20.8021 234.49C20.8021 234.49 20.3215 230.891 19.9124 230.872C19.9124 230.872 18.3242 233.257 18.1596 234.876C18.2392 233.366 18.7115 231.903 19.53 230.632C18.6135 230.805 17.7677 231.243 17.0966 231.891C17.0966 231.891 17.3459 230.205 19.9216 230.058C19.9216 230.058 21.2561 228.248 21.5853 228.136C21.5853 228.136 19.0231 227.923 17.4703 228.613C17.4703 228.613 18.8359 227.025 22.0524 227.746L23.8318 226.278C23.8318 226.278 20.4567 225.829 19.0255 226.324C19.0255 226.324 20.6713 224.918 24.3149 225.941L26.2724 224.772C26.2724 224.772 23.3941 224.153 21.6815 224.374C21.6815 224.374 23.4919 223.4 26.8464 224.453L28.2478 223.826C28.2478 223.826 26.1408 223.412 25.5206 223.346C24.9004 223.279 24.871 223.11 24.871 223.11C26.2064 222.888 27.5774 223.042 28.8302 223.555C28.8302 223.555 31.8388 222.436 31.7867 222.251Z" fill="#023E88"/>
<g opacity="0.6">
<path opacity="0.5" d="M125.398 117.167C125.237 116.967 125.006 116.837 124.752 116.802C124.498 116.767 124.24 116.831 124.031 116.98C123.822 117.129 123.679 117.352 123.629 117.604C123.579 117.855 123.628 118.116 123.764 118.334C123.95 118.62 124.156 118.892 124.353 119.153C126.711 122.341 127.933 126.193 128.989 130.035C129.245 130.971 129.492 131.976 129.2 132.902C129.564 130.398 129.393 127.846 128.697 125.414C128.008 122.987 127.121 120.621 126.047 118.339C125.872 117.927 125.655 117.534 125.398 117.167Z" fill="#0256BD"/>
<path opacity="0.6" d="M110.081 123.87C108.487 123.82 108.286 126.239 109.87 126.385C110.287 126.42 110.705 126.425 111.107 126.44C115.985 126.571 120.591 128.341 125.022 130.242C126.113 130.709 127.254 131.248 127.888 132.228C125.829 129.953 123.295 128.157 120.466 126.968C117.632 125.773 114.703 124.816 111.711 124.107C111.177 123.971 110.631 123.892 110.081 123.87Z" fill="#0256BD"/>
<path opacity="0.2" d="M110.524 129.809C109.518 129.844 109.744 131.272 110.76 131.283C111.022 131.283 111.263 131.283 111.54 131.283C114.617 131.157 117.765 132.007 120.823 132.942C121.594 133.112 122.311 133.472 122.91 133.988C121.286 132.737 119.447 131.794 117.484 131.207C115.554 130.623 113.584 130.181 111.59 129.885C111.238 129.823 110.881 129.798 110.524 129.809Z" fill="#0256BD"/>
<path opacity="0.5" d="M131.101 156.376C131.388 157.341 132.715 156.763 132.474 155.782C132.409 155.526 132.333 155.28 132.258 155.028C131.378 152.081 131.418 148.818 131.564 145.629C131.539 144.838 131.712 144.054 132.067 143.346C131.252 145.228 130.789 147.242 130.699 149.29C130.622 151.304 130.69 153.321 130.905 155.325C130.937 155.681 131.003 156.032 131.101 156.376Z" fill="#0256BD"/>
<path opacity="0.2" d="M112.359 115.829C111.751 115.724 111.705 116.604 112.309 116.74C112.47 116.775 112.626 116.8 112.777 116.825C114.632 117.142 116.402 118.052 118.112 118.997C118.551 119.197 118.933 119.503 119.223 119.887C118.414 118.934 117.435 118.138 116.337 117.539C115.256 116.954 114.133 116.45 112.978 116.03C112.779 115.944 112.571 115.876 112.359 115.829Z" fill="#0256BD"/>
<path opacity="0.6" d="M103.011 139.193C101.477 139.982 102.774 142.155 104.353 141.431C104.766 141.244 105.168 141.033 105.55 140.832C110.247 138.398 115.698 137.503 121.059 136.809C122.376 136.638 123.779 136.487 124.996 137.01C121.646 136.142 118.158 135.932 114.728 136.392C111.337 136.857 107.987 137.578 104.705 138.549C104.12 138.703 103.552 138.919 103.011 139.193Z" fill="#0256BD"/>
<path opacity="0.5" d="M107.401 147.646C106.295 148.652 108.019 149.889 109.176 148.898C109.478 148.642 109.769 148.37 110.041 148.109C113.405 144.951 117.851 142.703 122.276 140.636C123.362 140.133 127.807 139.605 129.029 139.63C125.912 139.907 119.54 140.882 116.709 142.17C113.929 143.497 111.241 145.009 108.663 146.696C108.214 146.973 107.792 147.291 107.401 147.646Z" fill="#0256BD"/>
<path opacity="0.6" d="M115.271 161.128C114.949 162.601 117.056 162.637 117.448 161.128C117.549 160.746 117.634 160.354 117.715 159.986C118.685 155.461 121.064 151.101 123.528 146.882C124.131 145.846 127.516 142.859 128.516 142.22C126.108 144.231 121.421 148.647 119.827 151.312C118.301 153.977 116.956 156.742 115.804 159.589C115.58 160.085 115.402 160.6 115.271 161.128Z" fill="#0256BD"/>
<path opacity="0.6" d="M131.122 109.367C130.367 107.834 128.22 109.096 128.904 110.665C129.08 111.077 129.281 111.479 129.472 111.862C131.785 116.548 132.585 121.959 133.178 127.285C133.324 128.592 133.45 129.985 132.917 131.187C133.824 127.878 134.083 124.426 133.681 121.019C133.276 117.645 132.615 114.306 131.705 111.032C131.566 110.459 131.371 109.901 131.122 109.367Z" fill="#0256BD"/>
<path opacity="0.6" d="M119.133 111.972C119.17 111.998 119.214 112.012 119.259 112.012C119.3 112.004 119.338 111.985 119.369 111.956C119.4 111.928 119.423 111.892 119.435 111.852C119.626 111.444 119.515 110.916 119.807 110.574C120.098 110.927 120.334 111.322 120.506 111.746L121.612 111.409C121.663 111.623 121.67 111.845 121.634 112.061C121.598 112.278 121.519 112.486 121.401 112.671C121.588 112.757 121.759 112.876 121.904 113.023C121.977 113.099 122.028 113.194 122.051 113.296C122.074 113.399 122.068 113.507 122.034 113.607C121.779 113.669 121.517 113.696 121.255 113.687C121.298 114.171 121.271 114.659 121.174 115.135C121.172 115.17 121.162 115.205 121.146 115.236C121.129 115.267 121.106 115.294 121.079 115.316C120.998 115.372 120.893 115.316 120.812 115.276C120.43 115.039 120.116 114.706 119.902 114.311L119.495 115.316C119.464 115.418 119.398 115.506 119.309 115.563C119.246 115.583 119.179 115.583 119.117 115.561C119.055 115.539 119.002 115.497 118.967 115.442C118.898 115.329 118.857 115.202 118.846 115.07L118.69 114.14C118.691 114.091 118.673 114.044 118.64 114.009C118.595 113.972 118.537 113.954 118.479 113.959C118.087 113.959 117.7 113.959 117.312 113.959C117.242 113.752 117.448 113.561 117.649 113.456C117.85 113.35 118.082 113.305 118.182 113.109C118.389 112.716 117.861 112.168 118.087 111.826C118.313 111.484 118.806 111.806 119.133 111.972Z" fill="#0256BD"/>
<path opacity="0.5" d="M140.435 117.167C140.589 116.949 140.824 116.802 141.087 116.758C141.35 116.714 141.62 116.776 141.838 116.931C142.055 117.085 142.202 117.32 142.246 117.583C142.291 117.846 142.229 118.116 142.074 118.334C141.883 118.62 141.682 118.892 141.486 119.153C139.127 122.341 137.9 126.193 136.849 130.035C136.588 130.971 136.346 131.976 136.633 132.902C136.269 130.398 136.44 127.846 137.136 125.414C137.823 122.987 138.71 120.62 139.786 118.339C139.961 117.927 140.178 117.534 140.435 117.167Z" fill="#0256BD"/>
<path opacity="0.6" d="M155.752 123.87C157.341 123.82 157.547 126.239 155.958 126.385C155.546 126.42 155.123 126.425 154.726 126.44C149.848 126.571 145.237 128.341 140.807 130.242C139.72 130.709 138.579 131.248 137.945 132.228C140.005 129.953 142.538 128.157 145.368 126.968C148.202 125.774 151.13 124.817 154.123 124.107C154.656 123.972 155.202 123.892 155.752 123.87Z" fill="#0256BD"/>
<path opacity="0.5" d="M155.34 129.809C156.346 129.845 156.114 131.273 155.104 131.283C154.837 131.283 154.575 131.283 154.324 131.283C151.246 131.157 148.099 132.007 145.041 132.942C144.269 133.112 143.552 133.471 142.954 133.988C144.577 132.736 146.416 131.793 148.38 131.207C150.314 130.63 152.287 130.195 154.284 129.905C154.632 129.838 154.986 129.806 155.34 129.809Z" fill="#0256BD"/>
<path opacity="0.2" d="M153.479 115.829C154.087 115.724 154.133 116.604 153.529 116.74C153.368 116.775 153.212 116.8 153.057 116.825C151.206 117.142 149.431 118.052 147.726 118.997C147.287 119.197 146.905 119.503 146.615 119.887C147.423 118.934 148.4 118.138 149.496 117.539C150.579 116.955 151.704 116.451 152.86 116.03C153.059 115.943 153.267 115.875 153.479 115.829Z" fill="#0256BD"/>
<path opacity="0.2" d="M137.739 158.201C137.603 158.805 136.774 158.503 136.884 157.895C136.884 157.739 136.95 157.578 136.985 157.432C137.407 155.597 137.251 153.61 137.04 151.674C137.023 151.191 136.887 150.719 136.643 150.301C137.211 151.417 137.569 152.627 137.699 153.872C137.825 155.098 137.864 156.331 137.815 157.563C137.812 157.778 137.787 157.992 137.739 158.201Z" fill="#0256BD"/>
<path opacity="0.5" d="M153.092 154.219C153.565 155.018 152.403 154.968 151.895 154.163C151.76 153.952 151.639 153.746 151.518 153.545C150.08 151.091 147.887 148.672 145.68 146.328C145.159 145.722 144.55 145.197 143.875 144.77C145.598 145.944 147.188 147.303 148.617 148.823C150.035 150.331 151.282 151.84 152.509 153.389C152.721 153.653 152.915 153.93 153.092 154.219Z" fill="#0256BD"/>
<path opacity="0.2" d="M111.032 154.219C110.559 155.018 111.721 154.968 112.234 154.163C112.364 153.952 112.49 153.746 112.606 153.545C114.044 151.091 116.236 148.672 118.444 146.328C118.967 145.722 119.577 145.197 120.254 144.77C118.529 145.944 116.937 147.303 115.507 148.823C114.094 150.331 112.842 151.84 111.615 153.389C111.403 153.653 111.208 153.93 111.032 154.219Z" fill="#0256BD"/>
<path opacity="0.2" d="M126.414 158.201C126.55 158.805 127.38 158.503 127.274 157.895C127.244 157.739 127.209 157.578 127.174 157.432C126.751 155.597 126.902 153.61 127.118 151.674C127.131 151.191 127.266 150.718 127.511 150.301C126.943 151.417 126.585 152.627 126.455 153.872C126.327 155.098 126.291 156.331 126.344 157.563C126.347 157.777 126.371 157.991 126.414 158.201Z" fill="#0256BD"/>
<path opacity="0.2" d="M148.637 121.844C149.24 121.743 149.285 122.623 148.682 122.754L148.214 122.844C146.359 123.161 144.588 124.066 142.879 125.012C142.439 125.213 142.057 125.521 141.767 125.907C142.577 124.952 143.555 124.154 144.654 123.553C145.735 122.968 146.858 122.464 148.013 122.045C148.214 121.957 148.423 121.89 148.637 121.844Z" fill="#0256BD"/>
<path opacity="0.2" d="M142.979 110.026C143.482 109.704 143.874 110.504 143.366 110.856L142.964 111.112C141.365 112.118 140.057 113.602 138.825 115.135C138.493 115.484 138.254 115.912 138.131 116.377C138.526 115.191 139.134 114.086 139.927 113.119C140.709 112.169 141.56 111.276 142.471 110.449C142.627 110.292 142.797 110.151 142.979 110.026Z" fill="#0256BD"/>
<path opacity="0.6" d="M162.827 139.193C164.361 139.982 163.064 142.155 161.485 141.431C161.072 141.245 160.67 141.033 160.283 140.832C155.591 138.398 150.14 137.503 144.779 136.809C143.462 136.638 142.059 136.487 140.842 137.01C144.191 136.142 147.676 135.932 151.105 136.392C154.498 136.856 157.85 137.577 161.133 138.549C161.718 138.705 162.286 138.921 162.827 139.193Z" fill="#0256BD"/>
<path opacity="0.5" d="M158.437 147.646C159.544 148.652 157.819 149.889 156.662 148.898C156.361 148.642 156.069 148.37 155.792 148.109C152.428 144.951 147.988 142.703 143.557 140.636C142.476 140.133 138.001 139.605 136.809 139.63C139.927 139.907 146.293 140.882 149.124 142.17C151.905 143.496 154.593 145.008 157.17 146.696C157.621 146.973 158.045 147.291 158.437 147.646Z" fill="#0256BD"/>
<path opacity="0.6" d="M145.433 162.828C145.569 164.337 143.472 164.09 143.271 162.576C143.22 162.184 143.185 161.787 143.15 161.41C142.753 156.814 140.937 152.177 139.021 147.681C138.554 146.58 135.567 143.211 134.661 142.431C136.799 144.719 140.892 149.693 142.144 152.544C143.331 155.379 144.325 158.291 145.121 161.259C145.275 161.771 145.379 162.296 145.433 162.828Z" fill="#0256BD"/>
<path opacity="0.6" d="M146.69 111.972C146.651 111.997 146.606 112.011 146.56 112.012C146.479 112.012 146.419 111.927 146.384 111.852C146.197 111.444 146.303 110.916 146.016 110.574C145.723 110.927 145.486 111.322 145.312 111.746L144.211 111.409C144.159 111.623 144.151 111.845 144.187 112.062C144.224 112.279 144.303 112.486 144.422 112.671C144.235 112.757 144.064 112.876 143.919 113.023C143.846 113.099 143.794 113.193 143.77 113.296C143.746 113.399 143.751 113.506 143.784 113.607C144.039 113.668 144.301 113.695 144.563 113.687C144.524 114.171 144.552 114.659 144.649 115.135C144.651 115.17 144.661 115.205 144.678 115.236C144.694 115.267 144.717 115.294 144.744 115.316C144.825 115.372 144.93 115.316 145.011 115.276C145.393 115.039 145.707 114.706 145.921 114.311L146.328 115.316C146.359 115.417 146.422 115.504 146.509 115.563C146.572 115.584 146.641 115.583 146.703 115.561C146.766 115.539 146.82 115.498 146.856 115.442C146.925 115.329 146.966 115.202 146.977 115.07L147.133 114.14C147.132 114.091 147.15 114.044 147.183 114.009C147.229 113.972 147.286 113.954 147.344 113.959C147.731 113.959 148.123 113.959 148.511 113.959C148.581 113.752 148.37 113.561 148.174 113.456C147.978 113.35 147.736 113.305 147.636 113.109C147.435 112.716 147.963 112.168 147.736 111.826C147.51 111.484 147.032 111.806 146.69 111.972Z" fill="#0256BD"/>
<path opacity="0.2" d="M150.019 157.402C149.98 157.426 149.935 157.438 149.889 157.437C149.803 157.437 149.748 157.351 149.713 157.276C149.526 156.869 149.632 156.341 149.345 155.999C149.049 156.351 148.812 156.748 148.641 157.175L147.54 156.834C147.488 157.047 147.48 157.269 147.515 157.486C147.55 157.702 147.629 157.91 147.746 158.096C147.559 158.183 147.389 158.302 147.243 158.448C147.17 158.523 147.118 158.618 147.094 158.72C147.07 158.823 147.075 158.931 147.108 159.031C147.362 159.095 147.625 159.122 147.887 159.112C147.846 159.596 147.873 160.083 147.968 160.56C147.974 160.632 148.009 160.698 148.063 160.746C148.144 160.796 148.249 160.746 148.335 160.701C148.714 160.462 149.026 160.13 149.24 159.735L149.652 160.716C149.681 160.817 149.745 160.905 149.833 160.962C149.895 160.985 149.963 160.985 150.026 160.963C150.088 160.941 150.141 160.898 150.175 160.841C150.245 160.729 150.288 160.601 150.301 160.469L150.452 159.539C150.457 159.492 150.474 159.447 150.502 159.408C150.55 159.373 150.609 159.355 150.668 159.358C151.055 159.358 151.447 159.358 151.835 159.358C151.9 159.152 151.694 158.961 151.498 158.855C151.302 158.749 151.06 158.704 150.96 158.513C150.759 158.116 151.281 157.568 151.06 157.231C150.839 156.894 150.361 157.231 150.019 157.402Z" fill="#0256BD"/>
<path opacity="0.6" d="M159.363 126.953C159.323 126.976 159.278 126.988 159.232 126.988C159.146 126.988 159.091 126.903 159.056 126.827C158.865 126.42 158.975 125.892 158.684 125.55C158.391 125.904 158.155 126.301 157.985 126.727L156.878 126.385C156.827 126.599 156.82 126.821 156.856 127.037C156.892 127.254 156.972 127.461 157.09 127.647C156.902 127.733 156.731 127.852 156.587 127.999C156.513 128.075 156.461 128.169 156.437 128.272C156.413 128.375 156.418 128.482 156.451 128.582C156.705 128.647 156.968 128.674 157.23 128.663C157.189 129.147 157.216 129.634 157.311 130.111C157.318 130.183 157.352 130.25 157.406 130.297C157.451 130.315 157.499 130.32 157.546 130.312C157.593 130.304 157.637 130.283 157.673 130.252C158.055 130.015 158.369 129.682 158.583 129.286L158.995 130.267C159.024 130.368 159.088 130.456 159.177 130.513C159.239 130.536 159.307 130.536 159.369 130.514C159.431 130.492 159.484 130.449 159.518 130.393C159.589 130.281 159.631 130.153 159.639 130.021L159.795 129.09C159.795 129.042 159.813 128.995 159.845 128.96C159.892 128.925 159.948 128.907 160.006 128.909C160.398 128.909 160.786 128.909 161.178 128.909C161.243 128.703 161.037 128.512 160.836 128.406C160.635 128.301 160.404 128.256 160.303 128.064C160.097 127.667 160.625 127.119 160.404 126.782C160.182 126.445 159.705 126.782 159.363 126.953Z" fill="#0256BD"/>
<path opacity="0.6" d="M121.994 161.958C121.939 161.99 121.877 162.007 121.813 162.008C121.698 162.008 121.617 161.893 121.567 161.787C121.305 161.219 121.456 160.479 121.064 160.002C120.655 160.494 120.326 161.047 120.088 161.641L118.55 161.163C118.478 161.461 118.466 161.771 118.516 162.073C118.566 162.375 118.677 162.665 118.841 162.923C118.572 163.047 118.327 163.217 118.117 163.426C118.014 163.532 117.942 163.663 117.908 163.807C117.874 163.951 117.881 164.101 117.926 164.241C118.282 164.325 118.647 164.362 119.012 164.352C118.958 165.024 118.997 165.701 119.128 166.363C119.126 166.422 119.143 166.48 119.175 166.53C119.208 166.579 119.255 166.617 119.31 166.638C119.365 166.66 119.426 166.664 119.483 166.649C119.54 166.635 119.592 166.604 119.631 166.559C120.162 166.229 120.599 165.766 120.898 165.216L121.466 166.584C121.509 166.725 121.6 166.846 121.723 166.926C121.813 166.961 121.912 166.964 122.004 166.933C122.095 166.903 122.174 166.842 122.226 166.76C122.32 166.608 122.379 166.436 122.397 166.257L122.608 164.955C122.614 164.888 122.64 164.825 122.683 164.774C122.714 164.748 122.751 164.729 122.79 164.718C122.828 164.707 122.869 164.703 122.909 164.709C123.453 164.709 123.991 164.709 124.534 164.709C124.629 164.417 124.338 164.15 124.061 164.03C123.784 163.909 123.458 163.813 123.317 163.527C123.035 162.979 123.764 162.214 123.453 161.742C123.06 161.173 122.472 161.722 121.994 161.958Z" fill="#0256BD"/>
<path opacity="0.6" d="M106.445 127.858C106.392 127.894 106.329 127.913 106.264 127.913C106.149 127.913 106.068 127.798 106.018 127.692C105.757 127.124 105.907 126.384 105.515 125.907C105.106 126.398 104.776 126.952 104.54 127.546L103.001 127.068C102.929 127.366 102.917 127.676 102.968 127.978C103.018 128.28 103.128 128.57 103.292 128.828C103.022 128.95 102.777 129.12 102.568 129.331C102.465 129.437 102.393 129.569 102.36 129.712C102.328 129.856 102.335 130.006 102.382 130.146C102.736 130.231 103.1 130.267 103.463 130.252C103.41 130.924 103.449 131.601 103.579 132.263C103.589 132.363 103.638 132.455 103.715 132.52C103.777 132.544 103.844 132.551 103.909 132.541C103.975 132.53 104.036 132.502 104.087 132.459C104.619 132.129 105.055 131.666 105.354 131.117L105.922 132.479C105.965 132.62 106.056 132.741 106.179 132.821C106.266 132.852 106.36 132.853 106.447 132.823C106.534 132.793 106.608 132.733 106.657 132.655C106.752 132.503 106.811 132.331 106.828 132.152L107.039 130.855C107.046 130.787 107.072 130.722 107.114 130.669C107.179 130.621 107.26 130.599 107.341 130.609C107.884 130.609 108.422 130.609 108.965 130.609C109.06 130.322 108.774 130.055 108.492 129.93C108.211 129.804 107.889 129.719 107.748 129.452C107.466 128.899 108.195 128.134 107.889 127.662C107.582 127.189 106.923 127.627 106.445 127.858Z" fill="#0256BD"/>
<path opacity="0.2" d="M153.625 148.974C153.596 148.991 153.563 149.002 153.529 149.004C153.469 149.004 153.424 148.938 153.399 148.883C153.263 148.581 153.343 148.189 153.127 147.938C152.915 148.2 152.746 148.493 152.624 148.808L151.804 148.556C151.767 148.715 151.762 148.879 151.788 149.04C151.815 149.2 151.874 149.354 151.96 149.492C151.816 149.551 151.686 149.64 151.578 149.753C151.523 149.808 151.485 149.877 151.467 149.953C151.449 150.028 151.453 150.107 151.478 150.181C151.665 150.228 151.858 150.248 152.051 150.241C152.02 150.599 152.042 150.96 152.116 151.312C152.118 151.338 152.125 151.364 152.137 151.387C152.149 151.411 152.166 151.431 152.187 151.448C152.242 151.488 152.322 151.448 152.383 151.418C152.666 151.242 152.898 150.996 153.057 150.704L153.358 151.428C153.379 151.503 153.428 151.567 153.494 151.609C153.54 151.627 153.591 151.628 153.638 151.612C153.685 151.597 153.725 151.565 153.751 151.523C153.793 151.442 153.821 151.353 153.831 151.262L153.942 150.573C153.942 150.553 153.947 150.534 153.955 150.516C153.964 150.498 153.977 150.483 153.992 150.47C154.007 150.458 154.025 150.449 154.044 150.444C154.063 150.439 154.083 150.438 154.103 150.442C154.389 150.442 154.676 150.442 154.963 150.442C155.013 150.291 154.862 150.145 154.716 150.08C154.57 150.015 154.389 149.969 154.319 149.824C154.168 149.532 154.555 149.13 154.389 148.878C154.223 148.627 153.881 148.848 153.625 148.974Z" fill="#0256BD"/>
<path opacity="0.2" d="M132.504 161.168C132.475 161.186 132.442 161.196 132.409 161.198C132.348 161.198 132.303 161.133 132.278 161.078C132.142 160.776 132.222 160.384 132.006 160.132C131.793 160.394 131.624 160.687 131.503 161.002L130.684 160.746C130.646 160.904 130.64 161.069 130.667 161.229C130.694 161.39 130.753 161.544 130.84 161.681C130.697 161.745 130.568 161.833 130.457 161.943C130.403 161.999 130.364 162.069 130.347 162.145C130.329 162.221 130.332 162.301 130.357 162.375C130.544 162.42 130.737 162.441 130.93 162.435C130.899 162.794 130.921 163.155 130.995 163.507C130.999 163.558 131.023 163.607 131.061 163.642C131.121 163.683 131.202 163.642 131.262 163.612C131.545 163.437 131.777 163.191 131.936 162.898L132.238 163.622C132.259 163.697 132.307 163.762 132.373 163.803C132.419 163.82 132.47 163.821 132.517 163.806C132.563 163.79 132.603 163.759 132.63 163.718C132.678 163.633 132.708 163.539 132.715 163.441L132.831 162.752C132.834 162.715 132.848 162.68 132.871 162.652C132.888 162.639 132.908 162.63 132.929 162.624C132.949 162.619 132.971 162.618 132.992 162.622C133.279 162.622 133.565 162.622 133.852 162.622C133.902 162.466 133.751 162.325 133.605 162.259C133.46 162.194 133.279 162.149 133.208 162.003C133.057 161.711 133.444 161.309 133.279 161.058C133.113 160.806 132.756 161.043 132.504 161.168Z" fill="#0256BD"/>
<path opacity="0.5" d="M112.093 118.49C112.064 118.507 112.031 118.516 111.997 118.515C111.932 118.515 111.892 118.454 111.867 118.399C111.726 118.097 111.806 117.705 111.59 117.449C111.379 117.712 111.21 118.005 111.087 118.319L110.272 118.067C110.233 118.225 110.225 118.39 110.251 118.55C110.277 118.711 110.336 118.865 110.423 119.003C110.281 119.065 110.151 119.154 110.041 119.264C109.986 119.32 109.947 119.39 109.929 119.466C109.912 119.542 109.916 119.622 109.941 119.697C110.13 119.743 110.324 119.762 110.519 119.752C110.488 120.112 110.509 120.474 110.579 120.828C110.584 120.881 110.609 120.93 110.65 120.964C110.682 120.977 110.718 120.98 110.753 120.974C110.787 120.968 110.819 120.952 110.846 120.929C111.128 120.755 111.361 120.511 111.52 120.22L111.821 120.944C111.844 121.018 111.892 121.082 111.957 121.125C112.004 121.14 112.054 121.14 112.101 121.124C112.147 121.107 112.187 121.076 112.214 121.034C112.264 120.952 112.295 120.859 112.304 120.763L112.415 120.069C112.419 120.034 112.432 120 112.455 119.973C112.489 119.946 112.532 119.933 112.576 119.938H113.441C113.486 119.787 113.335 119.646 113.189 119.581C113.043 119.516 112.867 119.465 112.792 119.324C112.641 119.033 113.028 118.625 112.867 118.374C112.706 118.123 112.319 118.364 112.093 118.49Z" fill="#0256BD"/>
<path opacity="0.5" d="M122.945 142.537C122.917 142.557 122.883 142.567 122.849 142.567C122.819 142.561 122.791 142.547 122.769 142.527C122.746 142.506 122.728 142.48 122.719 142.451C122.578 142.15 122.658 141.757 122.447 141.501C122.235 141.763 122.065 142.056 121.944 142.371L121.129 142.12C121.091 142.278 121.084 142.442 121.111 142.603C121.138 142.764 121.197 142.918 121.285 143.055C121.141 143.118 121.01 143.206 120.898 143.316C120.844 143.373 120.806 143.443 120.788 143.519C120.77 143.595 120.774 143.674 120.798 143.749C120.987 143.795 121.181 143.814 121.376 143.804C121.346 144.164 121.366 144.526 121.436 144.88C121.434 144.913 121.442 144.945 121.46 144.973C121.478 145 121.504 145.021 121.534 145.032C121.565 145.044 121.598 145.045 121.63 145.035C121.661 145.026 121.688 145.007 121.708 144.981C121.989 144.807 122.22 144.563 122.377 144.272L122.683 144.996C122.706 145.07 122.754 145.134 122.819 145.177C122.865 145.192 122.915 145.192 122.96 145.175C123.006 145.159 123.045 145.128 123.071 145.086C123.124 145.005 123.155 144.912 123.161 144.815L123.277 144.121C123.278 144.086 123.29 144.053 123.312 144.025C123.346 143.999 123.389 143.986 123.433 143.99C123.719 143.99 124.011 143.99 124.298 143.99C124.348 143.839 124.192 143.699 124.046 143.633C123.9 143.568 123.724 143.518 123.649 143.377C123.503 143.085 123.89 142.678 123.724 142.426C123.558 142.175 123.196 142.416 122.945 142.537Z" fill="#0256BD"/>
<path opacity="0.5" d="M115.05 133.158C115.021 133.176 114.988 133.186 114.954 133.188C114.894 133.188 114.848 133.123 114.823 133.068C114.683 132.766 114.763 132.374 114.552 132.122C114.337 132.383 114.167 132.677 114.049 132.992L113.234 132.736C113.195 132.894 113.189 133.059 113.216 133.22C113.243 133.38 113.302 133.534 113.39 133.671C113.247 133.736 113.116 133.824 113.003 133.933C112.949 133.989 112.911 134.059 112.894 134.135C112.876 134.211 112.879 134.291 112.902 134.365C113.092 134.41 113.286 134.431 113.481 134.425C113.45 134.784 113.471 135.144 113.541 135.497C113.543 135.523 113.55 135.548 113.562 135.572C113.574 135.595 113.591 135.616 113.611 135.632C113.672 135.673 113.752 135.632 113.813 135.602C114.094 135.427 114.325 135.18 114.481 134.888L114.788 135.612C114.809 135.687 114.858 135.752 114.924 135.793C114.969 135.811 115.019 135.812 115.065 135.796C115.111 135.781 115.15 135.749 115.175 135.708C115.226 135.623 115.257 135.529 115.266 135.431L115.382 134.742C115.383 134.706 115.395 134.671 115.417 134.642C115.452 134.617 115.495 134.606 115.537 134.612C115.824 134.612 116.116 134.612 116.402 134.612C116.453 134.456 116.297 134.315 116.151 134.249C116.005 134.184 115.829 134.139 115.754 133.993C115.603 133.701 115.995 133.299 115.829 133.048C115.663 132.796 115.301 133.038 115.05 133.158Z" fill="#0256BD"/>
<path opacity="0.5" d="M148.963 135.371C148.934 135.388 148.901 135.398 148.868 135.401C148.802 135.401 148.762 135.336 148.737 135.28C148.596 134.979 148.677 134.586 148.46 134.335C148.247 134.596 148.078 134.89 147.957 135.205L147.143 134.948C147.103 135.106 147.096 135.271 147.122 135.432C147.148 135.593 147.206 135.746 147.294 135.884C147.152 135.948 147.023 136.037 146.912 136.145C146.857 136.201 146.818 136.271 146.801 136.347C146.783 136.424 146.786 136.503 146.811 136.578C147 136.623 147.195 136.643 147.389 136.638C147.359 136.996 147.379 137.357 147.45 137.709C147.451 137.735 147.458 137.761 147.471 137.784C147.483 137.808 147.5 137.828 147.52 137.845C147.58 137.885 147.656 137.845 147.716 137.815C147.999 137.64 148.231 137.393 148.39 137.101L148.692 137.825C148.713 137.9 148.761 137.965 148.827 138.006C148.873 138.024 148.924 138.025 148.971 138.01C149.018 137.994 149.058 137.962 149.084 137.92C149.134 137.836 149.165 137.742 149.174 137.644L149.285 136.955C149.288 136.918 149.302 136.883 149.325 136.854C149.342 136.842 149.362 136.832 149.383 136.827C149.403 136.822 149.425 136.821 149.446 136.824C149.733 136.824 150.019 136.824 150.311 136.824C150.356 136.668 150.205 136.527 150.059 136.462C149.914 136.397 149.738 136.351 149.662 136.206C149.511 135.914 149.899 135.512 149.738 135.26C149.577 135.009 149.215 135.245 148.963 135.371Z" fill="#0256BD"/>
<path opacity="0.2" d="M132.504 133.525C132.475 133.543 132.442 133.553 132.408 133.556C132.348 133.556 132.303 133.49 132.278 133.435C132.142 133.133 132.222 132.741 132.006 132.49C131.794 132.752 131.625 133.045 131.503 133.359L130.684 133.108C130.646 133.266 130.641 133.431 130.668 133.591C130.694 133.752 130.753 133.906 130.84 134.043C130.695 134.103 130.565 134.192 130.457 134.305C130.403 134.36 130.364 134.429 130.346 134.504C130.329 134.58 130.332 134.659 130.357 134.732C130.544 134.78 130.737 134.8 130.93 134.793C130.899 135.151 130.921 135.512 130.995 135.864C130.999 135.916 131.023 135.964 131.061 136C131.121 136.04 131.202 136 131.262 135.969C131.545 135.794 131.777 135.548 131.936 135.255L132.238 135.979C132.257 136.055 132.306 136.12 132.373 136.16C132.419 136.177 132.47 136.178 132.517 136.163C132.563 136.147 132.603 136.116 132.63 136.075C132.678 135.99 132.708 135.896 132.715 135.798L132.831 135.109C132.831 135.09 132.836 135.07 132.845 135.053C132.853 135.035 132.866 135.019 132.881 135.007C132.896 134.994 132.914 134.985 132.933 134.981C132.952 134.976 132.972 134.975 132.992 134.979C133.278 134.979 133.565 134.979 133.852 134.979C133.902 134.828 133.751 134.682 133.605 134.617C133.46 134.551 133.278 134.506 133.208 134.36C133.057 134.069 133.444 133.666 133.278 133.415C133.113 133.163 132.755 133.4 132.504 133.525Z" fill="#0256BD"/>
<path opacity="0.3" d="M127.345 135.773C127.313 135.79 127.279 135.8 127.244 135.803C127.184 135.803 127.143 135.738 127.113 135.683C126.977 135.381 127.058 134.989 126.842 134.732C126.63 134.996 126.46 135.291 126.339 135.607L125.519 135.351C125.481 135.509 125.476 135.673 125.503 135.834C125.529 135.995 125.588 136.148 125.675 136.286C125.533 136.349 125.403 136.438 125.293 136.548C125.238 136.603 125.199 136.673 125.181 136.749C125.163 136.826 125.167 136.906 125.192 136.98C125.38 137.025 125.573 137.045 125.766 137.04C125.737 137.399 125.759 137.759 125.831 138.111C125.836 138.164 125.861 138.213 125.901 138.247C125.962 138.287 126.037 138.247 126.097 138.217C126.38 138.042 126.613 137.796 126.771 137.503L127.073 138.227C127.094 138.302 127.142 138.367 127.209 138.408C127.255 138.423 127.305 138.423 127.351 138.408C127.397 138.393 127.437 138.363 127.465 138.323C127.513 138.237 127.544 138.143 127.556 138.046L127.666 137.357C127.669 137.32 127.683 137.285 127.707 137.257C127.742 137.232 127.784 137.219 127.827 137.221C128.114 137.221 128.401 137.221 128.692 137.221C128.738 137.065 128.587 136.925 128.441 136.859C128.295 136.794 128.119 136.749 128.044 136.603C127.893 136.311 128.28 135.904 128.114 135.652C127.948 135.401 127.596 135.673 127.345 135.773Z" fill="#0256BD"/>
<path opacity="0.2" d="M122.527 122.176C122.498 122.193 122.466 122.203 122.432 122.206C122.401 122.199 122.373 122.184 122.35 122.163C122.327 122.142 122.31 122.115 122.301 122.085C122.165 121.783 122.246 121.396 122.029 121.14C121.818 121.402 121.648 121.695 121.527 122.01L120.707 121.758C120.67 121.917 120.664 122.081 120.691 122.242C120.718 122.402 120.776 122.556 120.863 122.694C120.72 122.755 120.59 122.844 120.481 122.955C120.425 123.011 120.387 123.081 120.369 123.157C120.351 123.233 120.355 123.313 120.38 123.387C120.567 123.433 120.761 123.452 120.953 123.443C120.922 123.801 120.944 124.162 121.019 124.514C121.022 124.567 121.046 124.617 121.084 124.655C121.144 124.69 121.225 124.655 121.285 124.62C121.569 124.446 121.802 124.199 121.959 123.905L122.261 124.635C122.283 124.709 122.331 124.773 122.397 124.816C122.443 124.83 122.494 124.83 122.54 124.813C122.586 124.797 122.626 124.766 122.653 124.725C122.702 124.642 122.731 124.55 122.738 124.454L122.854 123.76C122.855 123.74 122.859 123.72 122.868 123.703C122.877 123.685 122.889 123.669 122.904 123.657C122.92 123.644 122.937 123.636 122.957 123.631C122.976 123.626 122.996 123.625 123.015 123.629C123.302 123.629 123.588 123.629 123.875 123.629C123.925 123.478 123.774 123.332 123.629 123.272C123.483 123.211 123.302 123.156 123.231 123.015C123.08 122.724 123.468 122.316 123.302 122.065C123.136 121.813 122.779 122.055 122.527 122.176Z" fill="#0256BD"/>
<path opacity="0.3" d="M132.011 139.917C131.982 139.934 131.949 139.944 131.916 139.947C131.85 139.947 131.81 139.882 131.785 139.827C131.644 139.525 131.725 139.133 131.508 138.881C131.297 139.143 131.127 139.437 131.006 139.751L130.191 139.5C130.153 139.658 130.147 139.822 130.172 139.982C130.198 140.143 130.256 140.297 130.342 140.435C130.199 140.497 130.069 140.586 129.96 140.696C129.904 140.752 129.866 140.822 129.848 140.898C129.83 140.975 129.834 141.055 129.859 141.129C130.048 141.175 130.243 141.194 130.437 141.184C130.407 141.542 130.427 141.903 130.498 142.255C130.499 142.282 130.506 142.308 130.518 142.331C130.53 142.355 130.547 142.375 130.568 142.391C130.628 142.431 130.704 142.391 130.764 142.361C131.047 142.186 131.279 141.94 131.438 141.647L131.74 142.371C131.759 142.447 131.808 142.512 131.876 142.552C131.922 142.57 131.972 142.571 132.019 142.556C132.066 142.54 132.106 142.509 132.132 142.467C132.174 142.387 132.2 142.3 132.207 142.21L132.318 141.521C132.323 141.486 132.337 141.454 132.358 141.426C132.392 141.399 132.436 141.386 132.479 141.39C132.766 141.39 133.057 141.39 133.344 141.39C133.394 141.24 133.238 141.094 133.092 141.028C132.947 140.963 132.771 140.918 132.695 140.777C132.544 140.48 132.937 140.078 132.771 139.827C132.605 139.575 132.263 139.791 132.011 139.917Z" fill="#0256BD"/>
</g>
<path d="M134.361 132.374C133.644 131.817 132.802 131.446 131.907 131.292C130.967 131.076 130.006 130.94 129.051 130.79L116.67 129.004C115.42 128.772 114.146 128.705 112.879 128.803C112.244 128.855 111.627 129.031 111.061 129.323C110.496 129.615 109.994 130.016 109.585 130.503C109.215 130.96 109.013 131.529 109.011 132.117C109.081 132.705 109.273 133.272 109.575 133.782C109.694 134.022 109.796 134.271 109.881 134.526C110.057 135.079 110.093 135.672 110.324 136.21C110.38 136.328 110.451 136.438 110.535 136.537C110.537 136.567 110.537 136.598 110.535 136.628C110.399 137.317 110.837 138.041 110.641 138.715C110.47 139.283 109.912 139.63 109.56 140.108C109.324 140.447 109.194 140.849 109.185 141.262C109.176 141.675 109.289 142.081 109.509 142.431C109.886 143.014 110.57 143.407 110.766 144.075C111.023 144.96 110.329 145.805 109.71 146.484C108.574 147.735 107.522 149.06 106.562 150.452C106.295 150.796 106.122 151.203 106.06 151.634C106.004 152.509 106.844 153.283 106.698 154.148C106.583 154.832 105.914 155.254 105.335 155.657C103.198 157.07 101.483 159.333 101.312 161.887C100.766 157.814 99.078 153.979 96.4446 150.824C95.7255 149.954 94.936 149.089 94.6393 147.988C94.5287 147.55 94.5086 147.088 94.3577 146.665C93.8548 145.328 92.2557 144.759 91.5567 143.527C91.0538 142.667 91.0538 141.551 90.4303 140.797C89.8067 140.042 88.8261 139.861 88.288 139.127C88.0184 138.63 87.7897 138.112 87.6041 137.578C87.3784 137.145 87.061 136.765 86.6738 136.467C86.5997 136.406 86.5225 136.349 86.4425 136.296C86.526 136.221 86.5929 136.13 86.6388 136.028C86.6848 135.925 86.7087 135.815 86.709 135.703C86.709 135.114 86.1257 134.727 85.6178 134.44C84.964 134.065 84.3254 133.668 83.7018 133.249C84.3821 132.93 84.9717 132.446 85.4166 131.841C85.9813 130.933 86.2124 129.857 86.0704 128.798C86.0361 127.95 85.7193 127.137 85.1702 126.49C84.8534 126.158 84.4562 125.912 84.1243 125.595C83.2644 124.76 82.9727 123.513 82.6156 122.366C82.1429 120.858 81.4037 119.279 80.0258 118.474C79.362 118.092 78.5876 117.911 77.9389 117.504C77.2902 117.096 76.7471 116.322 76.9734 115.583C77.1243 115.08 77.5919 114.738 77.9088 114.31C78.287 113.758 78.4321 113.078 78.3125 112.419C78.1929 111.76 77.8184 111.175 77.2701 110.79C76.898 110.554 76.4404 110.348 76.3649 109.91C76.0733 109.836 75.8088 109.68 75.6022 109.461C75.3957 109.242 75.2556 108.969 75.1983 108.673C75.0852 108.082 75.0852 107.474 75.1983 106.883C75.329 105.953 75.4598 105.017 75.5855 104.087C75.8067 104.18 76.0444 104.228 76.2845 104.228C76.5246 104.228 76.7622 104.18 76.9835 104.087C77.4211 104.791 77.9264 105.452 78.4921 106.058C80.0233 107.865 81.2158 109.933 82.0122 112.163C82.2988 112.973 82.5905 113.873 83.3347 114.295C83.5912 114.441 83.8829 114.517 84.1343 114.672C84.4444 114.889 84.7106 115.162 84.9188 115.477L86.7241 117.871L86.7543 117.996C86.7715 118.065 86.7986 118.131 86.8347 118.193C86.9461 118.318 87.1004 118.397 87.2672 118.414C89.1178 118.841 91.1946 119.234 92.7988 118.228C94.2471 117.318 94.8807 115.532 96.1077 114.33C96.9777 113.481 98.2097 112.822 98.4561 111.63C98.1625 111.538 97.8737 111.43 97.5912 111.308C97.8426 111.057 98.0941 110.77 98.436 110.433C98.9328 109.949 99.3808 109.416 99.7737 108.844C100.196 108.135 100.534 107.379 100.779 106.591C101.748 103.825 102.72 101.061 103.696 98.2989C104.159 96.9864 104.621 95.6739 105.205 94.4016C105.808 93.0238 106.522 91.6962 107.181 90.3435C108.876 86.8414 110.186 83.1657 111.088 79.3809C111.247 78.8602 111.3 78.3131 111.244 77.7717C111.103 76.9017 110.445 76.2228 109.816 75.5992C109.184 74.915 108.464 74.318 107.674 73.8241C107.277 73.5775 106.836 73.4123 106.375 73.338C105.914 73.2638 105.442 73.282 104.988 73.3916C103.701 73.7738 102.891 75.0913 102.595 76.4089C102.298 77.7264 102.409 79.0942 102.283 80.4319C102.102 82.3679 101.438 84.2336 101.277 86.1747C101.192 87.3011 101.277 88.4376 101.141 89.554C100.895 91.0234 100.384 92.4358 99.6328 93.7228C98.0019 96.7871 95.794 99.5072 93.1307 101.734C92.8239 101.995 92.5071 102.236 92.2054 102.518C92.2054 102.297 92.2406 102.081 92.2708 101.864C92.052 101.92 91.8383 101.994 91.6321 102.086C91.6578 101.833 91.6321 101.578 91.5567 101.336C91.1544 100.134 89.3642 99.8277 89.0423 98.6006C88.9885 98.2985 88.9599 97.9923 88.9569 97.6854C88.8513 96.6143 88.1221 95.7091 87.8707 94.6682C87.6192 93.6272 87.8154 92.6567 87.3678 91.7616C86.9851 91.206 86.5359 90.6994 86.0301 90.253C85.4259 89.5628 84.9904 88.7416 84.7579 87.8543C84.6925 87.6078 84.6322 87.3514 84.5618 87.105C84.6384 86.5486 84.5762 85.982 84.3807 85.4556C83.9231 84.314 82.7414 83.5849 82.3139 82.4383C81.982 81.5482 82.1278 80.4268 81.4993 79.7329C81.1662 79.4012 80.757 79.156 80.3074 79.0188C78.0067 78.123 75.5908 77.5575 73.1315 77.3392C71.7536 77.2135 70.2349 77.138 69.2493 76.1725C68.0977 75.0461 68.0424 73.0195 66.6947 72.1495C65.5079 71.3801 63.8283 71.9534 62.9081 73.0296C62.7698 73.1886 62.6421 73.3566 62.5259 73.5324C62.3581 72.8601 62.3222 72.1617 62.4203 71.4757C62.4203 71.2997 62.4555 71.1237 62.4706 70.9728C64.738 70.2359 66.6699 68.7175 67.9217 66.6884V66.7135L67.9821 66.8694C68.1279 67.2365 68.3592 67.5935 68.7012 67.6287C68.9292 67.6293 69.1501 67.5491 69.3247 67.4024C69.6292 67.1931 69.9093 66.9502 70.1595 66.6783C70.2852 66.5425 70.4059 66.3967 70.5216 66.2458C71.1037 65.4589 71.4868 64.5427 71.6379 63.5756C71.7284 62.9922 71.7385 62.3888 71.8391 61.8105C71.933 61.3573 72.0556 60.9105 72.2062 60.4728C72.2565 60.327 72.3067 60.1812 72.352 60.0353C72.3973 59.8895 72.4626 59.6934 72.5129 59.5325C72.828 58.4983 72.9973 57.4252 73.0158 56.3443C73.0158 56.1632 73.0158 55.9822 73.0158 55.8012C72.9969 55.0958 72.8378 54.4013 72.5477 53.758C72.2576 53.1148 71.8424 52.5358 71.3261 52.0548C70.4612 51.3507 69.3147 51.049 68.681 50.0936C68.2687 49.4449 68.1782 48.6151 67.9368 47.8658C67.6767 46.9622 67.1685 46.1496 66.4698 45.5202C65.7712 44.8909 64.91 44.47 63.9842 44.3055C62.8693 44.1827 61.7498 44.4923 60.8563 45.1704L60.7859 45.2207C60.2873 45.6015 59.8643 46.0723 59.5388 46.6086C58.8744 46.4256 58.266 46.08 57.7687 45.6029C57.2658 45.1352 56.8786 44.5469 56.3707 44.0943C55.8961 43.6596 55.3134 43.3603 54.6836 43.2276C54.0538 43.0949 53.4 43.1337 52.7903 43.34C52.1623 43.5915 51.6028 43.9884 51.1579 44.498C50.713 45.0077 50.3952 45.6155 50.2306 46.2717C49.9541 47.3127 50.0044 48.4994 49.4261 49.3694C48.9785 50.0382 48.2443 50.3752 47.7314 50.9887C47.4116 51.3765 47.1938 51.838 47.0978 52.3313C47.0365 52.6053 47.0078 52.8854 47.0123 53.1661C47.0123 53.2868 47.0123 53.4125 47.0424 53.5382C47.0424 53.5382 47.0424 53.5785 47.0424 53.5935C47.0608 53.7329 47.0893 53.8707 47.1279 54.0059C47.2709 54.5157 47.527 54.9867 47.8772 55.3838C48.2107 55.7611 48.625 56.0584 49.0891 56.2537C49.2795 56.3278 49.4743 56.39 49.6725 56.4398L50.2709 56.5756L50.4821 56.6259C49.7613 57.9831 49.3612 59.4875 49.3124 61.0235C49.2636 62.5595 49.5673 64.0862 50.2005 65.4865C50.2005 65.6223 50.1653 65.7631 50.1502 65.9039C50.0684 67.8857 50.1559 69.8708 50.4117 71.8378C50.4821 72.6122 50.5223 73.4771 50.0446 74.0906C49.8271 74.3355 49.5825 74.5548 49.3154 74.7444C49.587 74.3924 49.8636 74.0403 50.1452 73.6934C49.4361 72.9793 48.3147 72.8888 47.309 72.9642C45.3616 73.1049 43.4709 73.6824 41.7774 74.6539C40.6509 75.2975 39.4943 76.1625 38.207 76.0066C37.4476 75.9261 36.6983 75.5037 35.9591 75.7049C35.5437 75.8748 35.1556 76.1053 34.8075 76.3888C34.5319 76.5856 34.2008 76.6895 33.8621 76.6855C33.0726 75.7099 31.8507 75.0511 30.9053 74.2616C29.8281 73.305 28.8432 72.2494 27.9635 71.1086C26.3342 69.1474 24.7099 67.1761 23.1107 65.1898C21.763 63.5202 20.3801 61.7099 20.1438 59.5727C20.1195 59.3624 20.1078 59.1508 20.1086 58.9391C20.1417 57.9236 20.2696 56.9135 20.4908 55.9218C20.551 55.6842 20.551 55.4353 20.4908 55.1977C20.3399 54.6948 19.7616 54.5037 19.2638 54.3931C19.3286 54.0084 19.3739 53.6207 19.3995 53.2315C19.6811 48.9068 19.3744 44.5117 20.2896 40.2775C20.6366 38.6532 21.2049 36.9987 22.3766 35.817C24.212 33.9664 27.2846 33.5189 28.6926 31.2911C29.8694 29.4607 29.4017 26.8709 27.9232 25.2567C26.4448 23.6425 24.1668 22.9837 21.9994 23.0642C21.391 23.0475 20.7912 23.2101 20.2745 23.5318C19.7923 23.9584 19.4315 24.5049 19.2286 25.1159L17.0511 30.3307C16.4257 31.6962 15.898 33.1044 15.4721 34.5447C14.8686 36.7523 14.7329 39.0706 14.2551 41.2933C14.2551 43.0031 13.1539 45.1352 12.5504 46.7092C11.8766 48.4844 11.1474 50.2293 10.5389 52.0346C10.3881 52.4923 9.86004 53.8349 9.53317 55.0519C9.40972 55.122 9.29495 55.2064 9.19122 55.3033C8.92859 55.6398 8.68999 55.9944 8.47715 56.3644C8.01954 56.9728 7.27528 57.2947 6.7724 57.873C6.26953 58.4513 6.16392 59.5274 6.86292 59.8191C7.00483 59.8668 7.15153 59.8989 7.30041 59.9147C7.39201 59.9224 7.48284 59.9375 7.57198 59.9599C8.32629 60.1711 8.62299 61.1266 8.51235 61.906C8.40172 62.6855 8.00948 63.4146 7.94411 64.1991C7.80833 65.5921 8.62297 66.8794 9.40745 68.0461C10.2196 69.3124 11.1167 70.5221 12.0928 71.6668C12.8019 72.4563 13.6014 73.1754 14.3155 73.9398C17.036 76.7307 19.1984 80.0044 21.6423 83.0367C22.5215 84.1847 23.5212 85.235 24.6244 86.1696C25.346 86.7298 26.0999 87.247 26.8823 87.7185C28.2803 88.6136 29.6833 89.4986 31.0863 90.3887C31.5633 90.7366 32.1028 90.9893 32.6754 91.133C32.8621 91.1606 33.0519 91.1606 33.2386 91.133C33.2637 91.2537 33.2839 91.3794 33.314 91.5001C33.6409 92.8176 34.36 94.0144 34.4405 95.3571C34.5209 96.6998 34.4002 98.0777 34.4958 99.4304C34.5863 100.688 34.8629 101.945 34.9333 103.182C35.0741 105.55 34.4907 107.899 33.9275 110.222C33.0777 113.616 32.5647 117.091 30.9103 120.169C30.4476 121.019 29.9045 121.889 29.9045 122.854C29.9045 122.975 29.9045 123.091 29.9347 123.206L29.1804 123.629C28.9591 123.759 28.7379 123.885 28.5367 124.016C27.5813 124.634 26.5604 125.323 26.1682 126.399C25.8514 127.269 25.9972 128.27 25.6151 129.11C25.598 129.148 25.5777 129.185 25.5547 129.221C25.1524 130.005 24.3528 130.588 24.1718 131.448C24.036 132.112 24.2975 132.806 24.1718 133.46C24.1718 133.46 24.1718 133.46 24.1718 133.485C24.0579 133.813 23.9672 134.149 23.9002 134.491C23.8948 134.602 23.905 134.714 23.9304 134.823C24.025 135.204 24.2359 135.547 24.5339 135.803C24.715 135.977 24.9119 136.134 25.1222 136.271C25.3385 136.412 25.5597 136.542 25.786 136.668L25.9168 136.738C26.1079 136.839 26.299 136.93 26.4951 137.02L26.6258 137.08C26.8521 137.176 27.0834 137.267 27.3147 137.347L27.4757 137.397C27.6567 137.458 27.8428 137.513 28.0288 137.563L28.1546 137.598L28.2702 137.624L28.7731 137.729L28.9591 137.764C29.1804 137.805 29.4067 137.835 29.638 137.855C29.7034 137.855 29.7738 137.855 29.8392 137.855C30.0101 137.855 30.1761 137.88 30.342 137.885H30.5784C30.7544 137.885 30.9254 137.885 31.0813 137.885H31.2623C31.4987 137.885 31.735 137.85 31.9713 137.82H32.0468C32.258 137.789 32.4692 137.754 32.6804 137.709L32.8413 137.674C33.0375 137.634 33.2336 137.583 33.4297 137.528L33.5353 137.498C33.7716 137.427 34.008 137.347 34.2393 137.261C35.0388 136.93 35.815 136.546 36.5626 136.11C37.0654 135.828 37.5683 135.547 38.0712 135.29C38.4441 135.102 38.8268 134.934 39.2178 134.787C40.1682 134.379 41.2034 134.206 42.235 134.284C42.7441 134.356 43.248 134.46 43.7436 134.596C43.7464 134.65 43.7464 134.704 43.7436 134.757C44.1526 137.178 44.5566 139.593 44.9555 142.004C45.6127 141.528 46.3091 141.109 47.0374 140.751C46.9015 141.114 46.8119 141.493 46.7709 141.878C46.7406 142.179 46.7406 142.482 46.7709 142.783C46.8161 143.256 46.9167 143.789 46.6301 144.161C46.4541 144.397 46.1272 144.528 46.0317 144.789C45.9618 145.055 45.9448 145.332 45.9814 145.604C45.9609 145.917 45.8289 146.213 45.6094 146.437C45.3898 146.661 45.0972 146.799 44.7846 146.826C44.9276 147.231 44.9305 147.672 44.7928 148.079C44.6551 148.486 44.3848 148.834 44.0252 149.069C43.816 149.17 43.6201 149.297 43.4419 149.446C43.2699 149.668 43.1543 149.929 43.1049 150.205C42.4417 152.696 41.0746 154.943 39.1674 156.677C38.4535 157.241 37.8012 157.878 37.2213 158.578C36.8657 159.123 36.5706 159.705 36.3413 160.313C35.0003 163.595 33.6392 166.877 32.258 170.159C31.4936 171.995 30.7494 173.861 30.508 175.837C29.9045 181.253 25.077 185.849 25.9821 191.23C26.1659 192.575 26.7078 193.847 27.5511 194.911C28.5568 196.118 30.0655 196.817 31.5741 197.38C35.4512 198.889 39.5396 199.708 43.6129 200.538L50.0094 201.85C51.2645 202.139 52.5382 202.341 53.8212 202.454C55.365 202.559 56.949 202.414 58.4526 202.806C59.3829 203.052 60.273 203.5 61.2335 203.55C62.0582 203.595 63.074 203.419 63.5618 204.088C64.0496 204.757 63.6724 205.657 64.1351 206.251C64.8793 207.206 66.6947 206.251 67.5043 207.151C67.7255 207.493 67.895 207.866 68.0072 208.257C68.1302 208.5 68.3013 208.716 68.5101 208.891C68.5593 209.176 68.5795 209.466 68.5704 209.756C68.4649 210.922 68.2219 212.071 67.8463 213.18C67.2428 215.222 66.641 217.265 66.041 219.31C65.8124 220.033 65.6442 220.773 65.5381 221.523C65.5004 221.887 65.5004 222.255 65.5381 222.619C65.6437 223.73 66.2823 224.877 67.3434 225.239C68.1665 225.457 69.0419 225.349 69.7874 224.937C70.5078 224.564 71.1828 224.108 71.7989 223.58C72.9123 222.737 73.8907 221.73 74.7004 220.592C77.2148 216.831 76.4001 211.747 78.1652 207.588C79.3369 204.807 81.6199 202.559 82.3793 199.628C82.5572 199.071 82.5781 198.476 82.4397 197.908C82.1228 196.902 81.0517 196.329 80.051 195.967H80.0057C79.1843 195.674 78.3443 195.435 77.4914 195.253C77.2802 195.208 77.0639 195.167 76.8477 195.137C76.3705 194.744 75.9903 194.247 75.7364 193.684C75.6969 193.386 75.6174 193.095 75.5 192.819C75.4203 192.698 75.313 192.599 75.1871 192.528C75.0612 192.457 74.9202 192.417 74.7758 192.412C74.273 192.361 73.5991 192.547 73.051 192.507C71.9296 192.422 71.1854 191.32 70.1796 190.817C69.1739 190.315 68.0826 190.435 67.0115 190.511C66.6284 190.563 66.2388 190.539 65.865 190.44C65.4191 190.231 65.0113 189.949 64.6581 189.605C64.0387 189.125 63.3161 188.795 62.5472 188.641C61.7784 188.487 60.9843 188.515 60.2277 188.72C59.7463 188.913 59.2369 189.027 58.7191 189.057C57.7385 189.007 57.0446 188.127 56.3204 187.463C54.3391 185.648 51.518 185.17 49.1143 183.978C48.7464 183.841 48.4396 183.577 48.2493 183.234C47.9727 182.555 48.5963 181.866 49.1595 181.399L53.2931 177.969C57.819 174.208 63.4763 171.371 65.5783 165.86C65.7955 165.119 66.1354 164.421 66.5841 163.793C66.7467 163.601 66.9345 163.432 67.1422 163.29C68.0552 162.694 69.1641 162.476 70.2349 162.682C71.5381 162.976 72.7736 163.516 73.8757 164.271C75.676 165.367 77.426 166.529 79.1307 167.791C80.8199 168.992 82.4245 170.307 83.9332 171.728C86.5732 174.243 88.7708 177.22 91.2299 179.93C93.6889 182.641 96.5 185.17 99.9145 186.468C103.329 187.765 107.458 187.705 110.389 185.527C113.774 183.013 114.86 178.522 115.715 174.399C117.6 172.573 118.169 169.807 119.089 167.358C119.667 165.81 120.407 164.341 121.03 162.792C121.774 160.972 122.358 159.096 122.941 157.221C123.602 155.337 124.051 153.385 124.279 151.402C124.52 148.264 123.68 144.935 124.56 141.988C125.722 141.732 126.778 141.078 127.919 140.701C129.619 140.138 131.44 140.228 133.24 140.244H133.355C133.976 140.308 134.601 140.159 135.126 139.821C135.729 139.318 135.825 138.463 135.855 137.679C135.925 135.778 135.804 133.616 134.361 132.374ZM61.5 46.5885C61.0843 46.6914 60.6539 46.722 60.2277 46.679L61.5 46.5885Z" fill="url(#paint0_linear)"/>
<path d="M63.4803 78.4056C62.8714 78.9227 62.1577 79.3019 61.3883 79.5169L57.823 80.7942C55.8869 81.4882 53.8654 82.1872 51.8237 81.9357C50.6822 81.7949 45.7892 81.0758 45.05 80.1857C43.9236 78.8079 47.8711 76.7813 49.2188 75.6196C49.5243 75.4 49.8073 75.1507 50.0636 74.8754C50.5665 74.2619 50.5011 73.402 50.4307 72.6276C50.175 70.6657 50.0875 68.6855 50.1692 66.7087C50.2084 66.2375 50.2756 65.769 50.3704 65.3057C50.8733 62.9925 53.0255 63.8373 54.7253 64.4508C56.7713 65.1155 58.7497 65.9725 60.634 67.0105C61.208 67.3064 61.7068 67.7295 62.0923 68.2475C62.8366 69.374 62.5399 70.8524 62.4192 72.2705C62.3136 73.3718 62.3186 74.4278 63.0076 75.2274C63.3543 75.5331 63.6724 75.8697 63.958 76.2331C64.119 76.5991 64.1594 77.0068 64.0735 77.3973C63.9877 77.7878 63.7799 78.1409 63.4803 78.4056Z" fill="#FFA667"/>
<path d="M14.2287 42.1635C14.7316 39.9308 14.8422 37.6377 15.4457 35.4301C15.8798 33.9924 16.4159 32.5875 17.0498 31.2261L19.2424 26.0465C19.4454 25.437 19.8063 24.8921 20.2883 24.4675C20.805 24.1458 21.4048 23.9831 22.0132 23.9998C24.1806 23.9193 26.4586 24.5982 27.937 26.1873C29.4155 27.7764 29.8831 30.3661 28.7064 32.1916C27.2984 34.3841 24.2258 34.8317 22.3903 36.6822C21.2187 37.8589 20.6504 39.5033 20.3034 41.1276C19.3882 45.3518 19.695 49.7368 19.4134 54.0514C19.3228 55.3891 19.0613 56.9228 17.9047 57.6218C17.2049 57.9621 16.4281 58.113 15.6518 58.0593L12.353 58.1096C11.7998 58.1096 9.79341 58.4566 9.42631 58.0443C8.78263 57.3101 10.251 53.6843 10.5175 52.8747C11.1109 51.0744 11.8401 49.3295 12.529 47.5594C13.1274 45.9954 14.2287 43.8683 14.2287 42.1635Z" fill="#FFA667"/>
<path d="M82.3429 200.146C81.5836 203.053 79.3005 205.315 78.1288 208.086C76.3638 212.235 77.1583 217.309 74.664 221.06C73.8542 222.196 72.8757 223.202 71.7625 224.042C71.145 224.568 70.4702 225.021 69.751 225.395C69.0055 225.806 68.1301 225.914 67.307 225.697C66.2459 225.335 65.6073 224.188 65.5017 223.082C65.464 222.719 65.464 222.353 65.5017 221.991C65.6073 221.242 65.7755 220.504 66.0046 219.783C66.608 217.745 67.2098 215.706 67.8099 213.668C68.1854 212.561 68.4285 211.413 68.534 210.249C68.5994 208.981 67.7948 207.332 68.1368 206.15C68.2926 205.617 68.876 205.144 69.1425 204.697C69.5209 204.053 69.8117 203.361 70.0074 202.64C70.4198 201.237 70.7014 199.739 71.5663 198.557C72.1307 197.856 72.7909 197.238 73.5275 196.721C74.0712 196.245 74.7084 195.887 75.3982 195.67C76.0675 195.553 76.7546 195.585 77.4097 195.766C78.2627 195.948 79.1027 196.187 79.9241 196.48H79.9693C80.9751 196.842 82.0412 197.4 82.358 198.416C82.5138 198.983 82.5086 199.582 82.3429 200.146Z" fill="#13263D"/>
<path d="M135.849 138.322C135.818 139.102 135.723 139.972 135.119 140.46C134.594 140.796 133.97 140.943 133.349 140.877H133.214C131.418 140.877 129.593 140.776 127.893 141.335C126.601 141.762 125.414 142.547 124.066 142.702C122.211 142.914 120.466 141.898 118.821 141.013C117.273 140.179 115.684 139.423 114.059 138.75C112.993 138.312 110.816 138.031 110.303 136.864C110.127 136.312 109.979 135.752 109.86 135.185C109.776 134.931 109.673 134.684 109.553 134.445C109.252 133.936 109.06 133.369 108.99 132.781C108.992 132.195 109.194 131.627 109.563 131.172C109.974 130.686 110.476 130.286 111.041 129.995C111.606 129.705 112.224 129.528 112.857 129.477C114.125 129.378 115.399 129.446 116.649 129.678L129.03 131.458C129.985 131.594 130.946 131.73 131.886 131.961C132.779 132.116 133.621 132.485 134.34 133.037C135.803 134.264 135.924 136.422 135.849 138.322Z" fill="#13263D"/>
<path d="M124.966 141.541C123.457 144.724 124.544 148.491 124.272 152.011C124.043 153.984 123.594 155.925 122.934 157.799C122.351 159.67 121.768 161.545 121.024 163.361C120.4 164.869 119.661 166.378 119.082 167.917C118.162 170.371 117.574 173.131 115.708 174.957C114.853 179.07 113.767 183.566 110.383 186.06C107.441 188.233 103.343 188.308 99.908 186.996C96.4733 185.683 93.6824 183.169 91.2233 180.458C88.7643 177.748 86.5667 174.806 83.9317 172.282C82.4187 170.861 80.8108 169.546 79.1192 168.344C77.4128 167.107 75.6645 165.939 73.8742 164.839C72.7721 164.085 71.5365 163.547 70.2334 163.255C69.1633 163.05 68.0552 163.266 67.1408 163.858C66.933 164 66.7453 164.169 66.5826 164.361C66.135 164.988 65.795 165.685 65.5768 166.423C63.4748 171.925 57.8276 174.751 53.2917 178.492L49.1329 181.937C48.5697 182.404 47.9461 183.088 48.2227 183.767C48.4129 184.111 48.7198 184.375 49.0877 184.511C51.4914 185.698 54.3125 186.176 56.2938 187.986C57.0179 188.65 57.7119 189.525 58.6925 189.575C59.2102 189.545 59.7197 189.431 60.2011 189.238C60.9578 189.034 61.7516 189.007 62.5202 189.161C63.2889 189.314 64.0115 189.644 64.6314 190.124C64.9776 190.479 65.3825 190.771 65.8283 190.988C66.2021 191.087 66.5918 191.111 66.9748 191.059C68.046 190.983 69.1824 190.888 70.1429 191.366C71.1034 191.843 71.8929 192.97 73.0143 193.05C73.5624 193.09 74.2162 192.909 74.7392 192.96C74.8832 192.964 75.024 193.003 75.15 193.073C75.2759 193.143 75.3833 193.242 75.4633 193.362C75.5807 193.638 75.6602 193.929 75.6997 194.227C75.9058 194.936 76.5998 195.368 77.0524 195.952C77.7464 196.847 77.8469 198.064 77.7765 199.195C77.5425 202.724 75.9662 206.03 73.3714 208.433C72.633 209.188 71.6914 209.712 70.6609 209.942C70.1448 210.05 69.6079 209.993 69.126 209.779C68.6442 209.565 68.2417 209.205 67.9756 208.75C67.8633 208.358 67.6939 207.986 67.4727 207.644C66.6631 206.754 64.8477 207.699 64.1034 206.748C63.6408 206.155 63.9727 205.205 63.5301 204.591C63.0876 203.978 62.0215 204.088 61.2018 204.053C60.2414 204.003 59.3513 203.55 58.421 203.314C56.9124 202.922 55.3333 203.067 53.7895 202.962C52.5065 202.849 51.2329 202.647 49.9777 202.358L43.5661 201.046C39.4928 200.216 35.4045 199.376 31.5273 197.893C30.0439 197.33 28.5503 196.636 27.5043 195.429C26.6612 194.368 26.1192 193.1 25.9354 191.758C25.0252 186.392 29.8528 181.806 30.4612 176.4C30.6775 174.429 31.467 172.568 32.2113 170.738C33.5757 167.466 34.9368 164.192 36.2946 160.917C36.5229 160.309 36.818 159.729 37.1746 159.187C37.7532 158.487 38.4057 157.851 39.1207 157.291C41.0263 155.562 42.3933 153.32 43.0582 150.834C43.1075 150.557 43.2232 150.297 43.3951 150.075C43.5733 149.926 43.7692 149.799 43.9785 149.698C44.3376 149.464 44.6078 149.116 44.7455 148.71C44.8832 148.304 44.8805 147.864 44.7378 147.46C45.05 147.434 45.3426 147.297 45.5622 147.074C45.7819 146.85 45.914 146.555 45.9346 146.243C45.898 145.971 45.9151 145.694 45.9849 145.428C46.1056 145.167 46.4073 145.036 46.5833 144.805C46.87 144.427 46.7694 143.899 46.7242 143.427C46.694 143.127 46.694 142.826 46.7242 142.527C46.8342 141.462 47.3106 140.468 48.0718 139.716C49.2737 138.534 50.9835 138.841 52.643 138.559C54.2983 138.202 55.9151 137.685 57.4705 137.015C61.8339 135.296 66.4282 134.233 71.1034 133.862C75.7939 133.498 80.5038 134.251 84.8469 136.06C85.48 136.316 86.0767 136.654 86.622 137.065C87.0092 137.364 87.3267 137.743 87.5524 138.177C87.738 138.709 87.9667 139.225 88.2363 139.721C88.7743 140.455 89.7902 140.691 90.3785 141.385C90.9669 142.079 91.0172 143.251 91.5049 144.111C92.2039 145.338 93.8232 145.906 94.3059 147.239C94.4568 147.661 94.4769 148.124 94.5876 148.561C94.8591 149.657 95.6738 150.522 96.3929 151.387C99.0291 154.54 100.717 158.377 101.261 162.45C101.422 159.901 103.136 157.643 105.284 156.235C105.862 155.858 106.531 155.44 106.646 154.756C106.792 153.892 105.952 153.122 106.008 152.242C106.069 151.812 106.242 151.407 106.511 151.065C107.469 149.676 108.521 148.354 109.659 147.108C110.277 146.429 110.971 145.599 110.715 144.704C110.519 144.035 109.835 143.643 109.457 143.06C109.237 142.712 109.125 142.307 109.134 141.895C109.143 141.484 109.273 141.084 109.508 140.746C109.86 140.269 110.418 139.922 110.589 139.354C110.785 138.685 110.348 137.961 110.483 137.272C110.667 136.72 111.032 136.247 111.519 135.929C112.186 135.321 112.945 134.823 113.767 134.451C115.095 133.948 116.573 134.134 117.981 134.33C120.335 134.657 122.975 135.16 124.302 137.131C125.167 138.353 125.6 140.223 124.966 141.541Z" fill="#023E88"/>
<path opacity="0.1" d="M135.849 138.322C135.818 139.102 135.723 139.972 135.119 140.46C134.594 140.796 133.97 140.943 133.349 140.877H133.214C133.42 139.831 134.692 139.233 134.913 138.172C134.951 137.846 134.922 137.515 134.826 137.201C134.731 136.887 134.573 136.596 134.36 136.346C133.284 134.893 131.554 134.088 129.834 133.5C124.976 131.834 119.77 131.445 114.718 132.368C113.344 132.592 112.007 133.003 110.745 133.59C110.327 133.852 109.924 134.138 109.538 134.445C109.237 133.936 109.045 133.369 108.975 132.781C108.977 132.195 109.179 131.627 109.548 131.172C109.959 130.686 110.461 130.286 111.026 129.995C111.591 129.705 112.209 129.528 112.842 129.477C114.109 129.378 115.384 129.446 116.634 129.678L129.015 131.458C129.97 131.594 130.931 131.73 131.871 131.961C132.764 132.116 133.606 132.485 134.325 133.037C135.803 134.264 135.924 136.422 135.849 138.322Z" fill="#13263D"/>
<path opacity="0.1" d="M82.3429 200.146C81.5836 203.052 79.3005 205.315 78.1288 208.086C76.3638 212.235 77.1583 217.309 74.664 221.06C73.8542 222.196 72.8757 223.202 71.7625 224.042C71.145 224.567 70.4702 225.021 69.751 225.395C69.0055 225.806 68.1301 225.914 67.307 225.697C66.2459 225.335 65.6073 224.188 65.5017 223.082C65.464 222.719 65.464 222.353 65.5017 221.991L65.5319 222.071C65.9694 223.127 66.6834 224.233 67.8099 224.419C68.2327 224.45 68.6572 224.393 69.057 224.252C69.4567 224.111 69.8231 223.889 70.1331 223.6C71.7926 222.267 72.7581 220.281 73.6784 218.365C74.3986 216.983 74.9684 215.528 75.3781 214.025C75.5793 213.17 75.6748 212.295 75.881 211.44C76.8364 207.287 80.09 203.897 80.8091 199.688C80.8676 199.399 80.8812 199.102 80.8494 198.808C80.7545 198.425 80.6091 198.056 80.4169 197.712C80.2421 197.323 80.1139 196.914 80.0347 196.495C81.0405 196.857 82.1065 197.415 82.4234 198.431C82.5551 198.999 82.5273 199.592 82.3429 200.146Z" fill="#13263D"/>
<path opacity="0.1" d="M74.7495 192.935C74.2841 194.151 73.5009 195.221 72.4816 196.032C71.05 197.123 69.3739 197.848 67.5987 198.144C66.7725 198.355 65.9053 198.345 65.0844 198.114C63.968 197.727 63.1634 196.681 62.0218 196.379C61.2072 196.158 60.3322 196.354 59.5075 196.233C58.024 196.027 56.8724 194.896 55.6756 193.991C52.0097 191.235 47.1972 190.345 43.5312 187.589C43.368 187.489 43.233 187.349 43.139 187.182C43.0688 187.001 43.0429 186.806 43.0635 186.614C43.0771 184.942 43.4528 183.293 44.1648 181.781C44.7479 180.726 45.4425 179.736 46.2367 178.829C49.5204 174.806 52.8193 170.753 56.7517 167.359C58.4012 165.935 60.2015 164.608 62.2833 163.964C63.44 163.607 65.723 163.27 67.131 163.874C66.9233 164.015 66.7355 164.185 66.5728 164.377C66.1252 165.003 65.7853 165.7 65.5671 166.438C63.4651 171.94 57.8178 174.766 53.2819 178.507L49.1332 181.937C48.57 182.405 47.9464 183.088 48.223 183.767C48.4133 184.111 48.7201 184.375 49.088 184.512C51.4917 185.698 54.3128 186.176 56.2941 187.986C57.0183 188.65 57.7122 189.525 58.6928 189.575C59.2106 189.545 59.72 189.431 60.2014 189.239C60.9581 189.034 61.7519 189.007 62.5205 189.161C63.2892 189.314 64.0118 189.644 64.6318 190.124C64.978 190.479 65.3829 190.771 65.8286 190.989C66.2024 191.087 66.5921 191.111 66.9752 191.059C68.0463 190.984 69.1828 190.888 70.1432 191.366C71.1037 191.843 71.8932 192.97 73.0146 193.05C73.5728 193.065 74.2266 192.884 74.7495 192.935Z" fill="black"/>
<path d="M28.5001 124.68C27.5447 125.298 26.5289 125.987 26.1366 127.058C25.8148 127.923 25.9657 128.924 25.5784 129.764C25.1912 130.604 24.3213 131.197 24.1302 132.102C23.9944 132.761 24.2609 133.455 24.1302 134.114C24.0157 134.454 23.9233 134.802 23.8536 135.155C23.8033 135.909 24.447 136.517 25.0756 136.93C26.4159 137.796 27.9407 138.336 29.5276 138.506C31.1144 138.677 32.7191 138.473 34.2128 137.91C35.5554 137.407 36.7674 136.593 38.0547 135.944C39.3111 135.224 40.7464 134.875 42.1933 134.938C43.0231 135.029 43.8176 135.336 44.6474 135.441C45.0567 135.525 45.4803 135.506 45.881 135.388C46.2816 135.27 46.6472 135.055 46.9455 134.762C47.2009 134.406 47.3728 133.997 47.4484 133.566C48.1474 130.805 47.8306 127.878 47.1668 125.107C46.503 122.336 45.4972 119.656 44.7882 116.895C44.2853 114.854 43.8981 112.752 43.0583 110.816C42.2185 108.88 40.8054 107.079 38.8291 106.34C38.6735 106.263 38.4958 106.241 38.3263 106.28C38.1984 106.331 38.0859 106.414 37.9994 106.521C36.4353 108.175 35.2571 110.155 34.5497 112.319C33.7602 114.728 33.5439 117.283 32.8198 119.706C32.508 120.712 32.1057 122.06 31.3112 122.824C30.5166 123.589 29.4003 124.107 28.5001 124.68Z" fill="#13263D"/>
<path opacity="0.1" d="M47.4637 133.585C47.3793 134.017 47.1989 134.425 46.9357 134.777C46.6376 135.07 46.2721 135.285 45.8713 135.404C45.4706 135.522 45.0469 135.54 44.6375 135.456C43.8128 135.356 43.0183 135.049 42.1885 134.953C40.7412 134.886 39.3051 135.235 38.0499 135.959C36.7626 136.603 35.5355 137.402 34.2029 137.92C32.2535 138.659 30.1238 138.781 28.1031 138.267C27.0299 137.997 26.0098 137.549 25.0858 136.94C24.4522 136.527 23.8136 135.934 23.8639 135.164C23.9342 134.812 24.0266 134.464 24.1404 134.124C24.2712 133.465 24.0097 132.771 24.1404 132.112C24.3315 131.207 25.2065 130.603 25.5887 129.769C25.9709 128.934 25.8251 127.933 26.1419 127.063C26.5341 125.992 27.555 125.303 28.5104 124.685C29.4659 124.066 30.6024 123.593 31.3667 122.844C31.4748 122.737 31.574 122.621 31.6634 122.497C32.2146 121.647 32.6192 120.71 32.8603 119.726C33.5995 117.302 33.8006 114.753 34.5851 112.339C35.2966 110.176 36.4762 108.196 38.0398 106.541C38.1235 106.433 38.2347 106.35 38.3617 106.3C38.5314 106.265 38.7078 106.286 38.8646 106.36C40.8358 107.104 42.2489 108.904 43.0937 110.841C43.9385 112.777 44.2956 114.864 44.8236 116.915C45.5276 119.676 46.5384 122.356 47.2022 125.127C47.866 127.898 48.1627 130.82 47.4637 133.585Z" fill="#13263D"/>
<path opacity="0.1" d="M62.4189 72.2552C60.0543 73.0066 57.4955 72.8573 55.2342 71.8362C52.973 70.8152 51.1689 68.9943 50.1689 66.7236C50.2081 66.2524 50.2753 65.7839 50.3701 65.3206C50.873 63.0074 53.0253 63.8522 54.725 64.4657C56.771 65.1304 58.7494 65.9874 60.6337 67.0254C61.2077 67.3213 61.7065 67.7444 62.0921 68.2624C62.8363 69.3738 62.5396 70.8522 62.4189 72.2552Z" fill="black"/>
<path d="M59.3819 72.2201C64.9365 72.2201 69.4394 67.7173 69.4394 62.1627C69.4394 56.6081 64.9365 52.1052 59.3819 52.1052C53.8273 52.1052 49.3245 56.6081 49.3245 62.1627C49.3245 67.7173 53.8273 72.2201 59.3819 72.2201Z" fill="#FFA667"/>
<path opacity="0.1" d="M86.6724 137.327C86.6724 138.162 85.5409 138.428 84.7011 138.383C81.6839 138.207 78.732 137.377 75.7449 137.629C71.9684 137.971 68.4986 140.057 64.7119 140.249C63.2536 140.324 61.7701 140.108 60.3319 140.374C58.4713 140.721 56.8118 141.853 54.916 142.014C53.2716 142.154 51.6473 141.536 50.0029 141.601C48.8601 141.673 47.7464 141.992 46.7393 142.537C46.8494 141.472 47.3257 140.478 48.087 139.726C49.2888 138.544 50.9986 138.851 52.6581 138.569C54.3134 138.212 55.9302 137.695 57.4856 137.025C61.849 135.306 66.4433 134.243 71.1185 133.872C75.809 133.508 80.5189 134.261 84.862 136.07C85.4951 136.326 86.0919 136.664 86.6372 137.075C86.6624 137.157 86.6743 137.242 86.6724 137.327Z" fill="black"/>
<path d="M54.7304 80.5276L50.6571 79.0189L48.9373 78.3903C48.2367 78.095 47.499 77.897 46.7448 77.802C44.7735 77.6511 42.9179 78.9636 41.8669 80.6382C40.8159 82.3128 40.4186 84.3092 40.0817 86.2603C39.6191 88.9222 39.2268 91.5941 38.905 94.2761C38.5586 96.6963 38.3821 99.1379 38.377 101.583C38.4926 107.813 39.8102 113.953 41.2584 120.013C41.9678 122.698 42.5036 125.426 42.8626 128.18C42.9833 129.316 43.0386 130.463 43.1593 131.599C43.29 132.882 43.5012 134.154 43.7125 135.421L44.9244 142.647C46.433 141.576 48.1478 140.636 50.0034 140.581C51.6478 140.52 53.2771 141.134 54.9164 140.998C56.8022 140.837 58.4718 139.706 60.3324 139.359C61.7706 139.092 63.2541 139.303 64.7174 139.233C68.499 139.042 71.9739 136.955 75.7454 136.613C78.7375 136.346 81.7095 137.191 84.7066 137.362C85.5414 137.412 86.6729 137.146 86.6729 136.306C86.6729 135.723 86.0895 135.336 85.5816 135.049C83.1897 133.604 80.9117 131.978 78.7677 130.186C76.7864 128.617 74.7749 127.008 73.4121 124.886C70.1283 119.782 71.2548 112.872 68.4538 107.492C66.1757 103.112 68.4538 97.3788 68.4538 92.4507C68.4538 89.9916 68.4538 87.5024 67.8755 85.1087C67.514 83.7727 67.0637 82.4624 66.5278 81.1863L64.5716 76.233C64.531 76.0883 64.4509 75.9577 64.3403 75.8559C64.2082 75.767 64.0519 75.7214 63.8927 75.7251C62.7186 75.6533 61.56 76.0227 60.6442 76.761C59.7239 77.5103 59.1356 78.5865 58.2304 79.3709C57.2397 80.2459 55.9624 80.9801 54.7304 80.5276Z" fill="#E3E8F4"/>
<path d="M61.3027 77.6763C61.6246 76.2984 61.9715 74.8602 62.8918 73.7841C63.8121 72.7079 65.4917 72.1397 66.6785 72.9091C68.0261 73.7841 68.0815 75.8056 69.2331 76.9321C70.2388 77.8976 71.7474 77.968 73.1152 78.0937C75.5746 78.3175 77.9903 78.8863 80.2912 79.7834C80.74 79.9224 81.1487 80.1673 81.483 80.4974C82.1116 81.2115 81.9859 82.3078 82.2977 83.1979C82.7251 84.3444 83.9069 85.0736 84.3645 86.2151C84.8673 87.4823 84.3645 88.9004 83.9421 90.2029C83.1827 92.5463 82.705 94.9751 81.9658 97.3235C81.2266 99.672 80.1756 101.985 78.4457 103.75C77.6813 104.54 76.5448 105.259 75.5391 104.796L75.1518 107.582C75.0388 108.172 75.0388 108.778 75.1518 109.367C75.2092 109.663 75.3492 109.936 75.5558 110.155C75.7623 110.374 76.0268 110.53 76.3185 110.604C76.3939 111.037 76.8515 111.243 77.2237 111.479C77.4984 111.667 77.7331 111.908 77.9141 112.187C78.0952 112.466 78.219 112.779 78.2784 113.106C78.3378 113.433 78.3316 113.769 78.2602 114.094C78.1888 114.42 78.0535 114.727 77.8623 115C77.5455 115.427 77.0779 115.764 76.927 116.272C76.7007 117.011 77.2388 117.78 77.8925 118.188C78.5462 118.595 79.3156 118.771 79.9794 119.158C81.3573 119.958 82.0965 121.517 82.5692 123.04C82.9212 124.187 83.2129 125.424 84.0778 126.259C84.4097 126.581 84.807 126.822 85.1238 127.154C85.6728 127.799 85.9897 128.61 86.0239 129.457C86.1617 130.508 85.9307 131.575 85.3702 132.474C84.3645 133.918 82.4888 134.34 80.8444 134.989C78.1741 136.085 75.9766 138.046 73.6231 139.716C72.6647 140.488 71.5352 141.019 70.3293 141.265C68.7 141.486 67.0958 140.762 65.4565 140.701C64.4757 140.706 63.4994 140.833 62.5499 141.078L59.5326 141.732C59.6935 139.394 58.4062 137.056 57.6871 134.828C56.3293 130.634 56.0779 126.143 56.3997 121.753C56.7216 117.363 57.6167 113.023 58.5017 108.704C59.1203 105.686 59.0599 102.533 60.0104 99.6016C60.9004 96.7804 62.1727 94.07 62.6404 91.1382C63.4047 86.3911 60.2266 82.3681 61.3027 77.6763Z" fill="#13263D"/>
<path d="M84.1784 86.9693C84.4559 87.4803 84.6511 88.0318 84.7567 88.6036C84.9892 89.4895 85.4248 90.309 86.029 90.9973C86.5337 91.4447 86.9828 91.9512 87.3666 92.5059C87.8293 93.3809 87.6533 94.447 87.8695 95.4075C88.1209 96.4484 88.8501 97.3536 88.9557 98.4247C88.9588 98.7316 88.9873 99.0378 89.0412 99.34C89.368 100.562 91.1583 100.849 91.5555 102.066C91.8221 102.86 91.3645 103.715 91.45 104.545C91.5124 104.801 91.5277 105.067 91.4952 105.329C91.3828 105.626 91.183 105.882 90.9219 106.063C89.2594 107.657 88.1077 109.708 87.613 111.957C87.1282 114.191 86.8738 116.47 86.8537 118.756L84.8875 116.156C84.6779 115.842 84.4119 115.569 84.103 115.351C83.8516 115.201 83.5599 115.125 83.3034 114.979C82.5592 114.557 82.2675 113.657 81.9809 112.852C81.1832 110.626 79.9908 108.561 78.4608 106.757C77.6612 105.822 76.7309 104.872 76.5549 103.65C76.5021 103.09 76.5326 102.526 76.6454 101.975C77.1483 98.6762 77.6863 95.3069 79.2905 92.3802C80.0398 91.0124 81.0103 89.7753 81.7294 88.3874C82.2122 87.4621 82.8911 85.0684 84.1784 86.9693Z" fill="#13263D"/>
<path d="M34.5699 90.1374C34.5791 90.5607 34.4712 90.9784 34.2581 91.3443C34.0686 91.5715 33.8195 91.7413 33.5388 91.8346C33.258 91.9279 32.9568 91.9409 32.669 91.8723C32.0965 91.7286 31.5569 91.4759 31.08 91.128C29.6786 90.243 28.2773 89.3563 26.8759 88.4679C26.0935 87.9963 25.3396 87.4792 24.618 86.919C23.515 85.9879 22.5153 84.9409 21.636 83.7962C19.192 80.7789 17.0297 77.5052 14.3091 74.7193C13.5699 73.965 12.8005 73.2409 12.0865 72.4514C11.1105 71.3101 10.2133 70.1038 9.4011 68.8407C8.61662 67.6791 7.80198 66.3918 7.93776 65.0038C8.01822 64.2193 8.39537 63.4952 8.50601 62.7158C8.61664 61.9363 8.31995 60.9859 7.56564 60.7747C7.47649 60.7523 7.38566 60.7371 7.29407 60.7294C7.14518 60.7136 6.99848 60.6816 6.85657 60.6339C6.15758 60.3422 6.26318 59.261 6.76606 58.6928C7.26893 58.1245 8.01319 57.8077 8.4708 57.1842C8.68364 56.8142 8.92225 56.4596 9.18487 56.1231C9.52163 55.8344 9.92388 55.6324 10.3566 55.5347C13.2573 54.6799 16.3257 54.5641 19.2826 55.1978C19.7854 55.3084 20.3587 55.5096 20.5096 55.9974C20.5698 56.235 20.5698 56.4839 20.5096 56.7215C20.2878 57.713 20.1598 58.7232 20.1274 59.7387C20.1266 59.9505 20.1383 60.162 20.1626 60.3724C20.3989 62.5045 21.7818 64.3099 23.1295 65.9744C24.7287 67.9557 26.3529 69.9219 27.9823 71.8831C28.8634 73.0196 29.8483 74.0718 30.9241 75.0261C31.9298 75.8608 33.2322 76.5347 34.0167 77.6058C34.6554 78.4707 34.4492 79.6525 34.5196 80.6934C34.7535 83.8365 34.7703 86.992 34.5699 90.1374Z" fill="#13263D"/>
<path d="M98.4347 111.117C98.9305 110.63 99.3784 110.096 99.7723 109.523C100.196 108.817 100.534 108.062 100.778 107.275L103.695 99.003C104.157 97.6955 104.62 96.383 105.203 95.1158C105.807 93.7379 106.521 92.4204 107.18 91.0677C108.873 87.5823 110.183 83.9234 111.087 80.1553C111.247 79.6366 111.3 79.0909 111.243 78.5512C111.102 77.6862 110.443 77.0073 109.815 76.3888C109.183 75.7045 108.462 75.1076 107.672 74.6137C106.87 74.1203 105.904 73.9649 104.987 74.1812C103.7 74.5634 102.89 75.8759 102.593 77.1984C102.297 78.521 102.407 79.8737 102.282 81.2214C102.101 83.1525 101.437 85.0131 101.276 86.9491C101.19 88.0705 101.276 89.207 101.14 90.3234C100.893 91.7878 100.381 93.1952 99.6315 94.4771C98.0073 97.5387 95.8062 100.257 93.1495 102.483C92.4206 103.021 91.7647 103.651 91.1983 104.359C90.7262 105.066 90.406 105.864 90.258 106.702C89.9235 107.98 90.0684 109.336 90.6653 110.514C91.485 111.907 93.059 112.525 94.5625 112.837C96.574 113.254 97.0417 112.54 98.4347 111.117Z" fill="#FFA667"/>
<path d="M59.4422 47.5894C59.8762 46.7767 60.5393 46.1095 61.3493 45.6705C62.1593 45.2316 63.0804 45.0402 63.9982 45.1203C64.9228 45.284 65.783 45.7034 66.4816 46.3308C67.1802 46.9583 67.6891 47.7688 67.9507 48.6706C68.1871 49.4198 68.2827 50.2496 68.695 50.8933C69.3186 51.8638 70.4752 52.1454 71.3401 52.8494C71.8562 53.3295 72.2714 53.9077 72.5615 54.5501C72.8516 55.1925 73.0108 55.8862 73.0298 56.5908C73.0776 58.0319 72.8506 59.4688 72.361 60.825C72.1531 61.4029 71.9851 61.9943 71.8581 62.5951C71.7575 63.1734 71.7475 63.7718 71.6569 64.3552C71.5467 65.1139 71.2851 65.8427 70.8878 66.4984C70.4904 67.154 69.9653 67.7232 69.3437 68.172C69.1691 68.3187 68.9482 68.3988 68.7202 68.3983C68.3279 68.358 68.0865 67.8954 67.9407 67.4881C67.1411 65.1799 67.3322 62.3537 65.8588 60.5182C65.1892 59.7681 64.3751 59.1609 63.4651 58.733C63.0976 58.4939 62.6823 58.3377 62.2482 58.2754C61.61 58.3073 60.9963 58.5317 60.4881 58.9191C59.4246 59.627 58.2476 60.1475 57.0083 60.4579C56.389 60.6024 55.7453 60.6079 55.1236 60.474C54.5019 60.3401 53.9176 60.0701 53.4127 59.6835C52.7188 59.1052 52.2109 58.2453 51.4415 57.7977C50.6721 57.3501 49.8675 57.3803 49.1081 57.0685C48.6244 56.8608 48.1945 56.5451 47.8516 56.1456C47.5087 55.7461 47.2618 55.2734 47.1298 54.7638C46.9977 54.2541 46.9841 53.721 47.0899 53.2053C47.1958 52.6895 47.4183 52.2049 47.7403 51.7884C48.2432 51.1799 48.9875 50.843 49.435 50.1741C50.0133 49.3042 49.963 48.1174 50.2396 47.0815C50.4052 46.4269 50.7235 45.8209 51.1684 45.3131C51.6133 44.8053 52.1722 44.41 52.7992 44.1598C53.4086 43.954 54.0619 43.9149 54.6915 44.0467C55.3211 44.1784 55.904 44.4762 56.3797 44.9091C56.8825 45.3617 57.2848 45.95 57.7776 46.4177C58.2642 46.8834 58.8598 47.2196 59.51 47.3953C60.1602 47.571 60.844 47.5807 61.4989 47.4234" fill="#13263D"/>
<path opacity="0.1" d="M67.7095 121.592C67.4167 121.853 67.2092 122.196 67.1142 122.576C67.0191 122.956 67.0408 123.356 67.1764 123.724C67.287 123.961 72.4767 122.965 73.0248 122.884C74.3926 122.688 76.7913 122.784 77.7116 121.537C79.351 119.319 74.2719 119.807 73.3416 119.887C71.5715 120.083 69.0572 120.3 67.7095 121.592Z" fill="black"/>
<path d="M20.4995 56.7216C20.2777 57.7131 20.1497 58.7233 20.1173 59.7388C18.6087 60.0456 17.0397 59.5427 15.5914 59.0399L11.4327 57.6217C11.1797 57.4601 10.8746 57.4008 10.5795 57.4559C10.2843 57.511 10.0212 57.6764 9.84359 57.9184C9.17476 58.6124 8.25451 59.9299 7.32922 60.7094C7.18034 60.6936 7.03364 60.6616 6.89173 60.6138C6.19273 60.3222 6.29834 59.241 6.80121 58.6728C7.30409 58.1045 8.04834 57.7877 8.50596 57.1641C8.7188 56.7941 8.9574 56.4396 9.22003 56.1031C9.55679 55.8144 9.95904 55.6124 10.3917 55.5147C13.2924 54.6599 16.3608 54.5441 19.3177 55.1778C19.8206 55.2884 20.3939 55.4896 20.5447 55.9774C20.5937 56.2252 20.5781 56.4815 20.4995 56.7216Z" fill="#13263D"/>
<path opacity="0.1" d="M20.4995 56.7216C20.2777 57.7131 20.1497 58.7233 20.1173 59.7388C18.6087 60.0456 17.0397 59.5427 15.5914 59.0399L11.4327 57.6217C11.1797 57.4601 10.8746 57.4008 10.5795 57.4559C10.2843 57.511 10.0212 57.6764 9.84359 57.9184C9.17476 58.6124 8.25451 59.9299 7.32922 60.7094C7.18034 60.6936 7.03364 60.6616 6.89173 60.6138C6.19273 60.3222 6.29834 59.241 6.80121 58.6728C7.30409 58.1045 8.04834 57.7877 8.50596 57.1641C8.7188 56.7941 8.9574 56.4396 9.22003 56.1031C9.55679 55.8144 9.95904 55.6124 10.3917 55.5147C13.2924 54.6599 16.3608 54.5441 19.3177 55.1778C19.8206 55.2884 20.3939 55.4896 20.5447 55.9774C20.5937 56.2252 20.5781 56.4815 20.4995 56.7216Z" fill="#13263D"/>
<path opacity="0.1" d="M58.5419 152.212C59.2661 152.448 60.0505 152.8 60.297 153.53L54.4737 152.046L51.4564 151.282C50.9234 151.146 49.0125 150.985 48.6605 150.568C48.1576 149.954 49.9428 150.382 50.2646 150.427C51.2402 150.568 52.2158 150.719 53.1863 150.895C55.0168 151.226 56.7768 151.765 58.5419 152.212Z" fill="black"/>
<path opacity="0.1" d="M60.7999 157.361C60.297 157.024 58.8538 157.07 58.2352 156.919C57.3301 156.703 56.44 156.416 55.5499 156.139C53.7446 155.551 51.9543 154.882 50.0987 154.455C49.7568 154.374 48.5901 154.359 48.6455 153.922C48.7008 153.484 49.8121 153.338 50.0887 153.318C51.7331 153.198 53.7848 153.972 55.3136 154.52C57.2609 155.218 59.106 156.174 60.7999 157.361Z" fill="black"/>
<path opacity="0.1" d="M57.1088 147.596C55.2633 147.093 53.5887 145.951 51.6879 145.73C51.1932 145.744 50.7075 145.596 50.305 145.308C50.0814 145.086 49.9261 144.805 49.8574 144.498C51.1297 144.433 52.6081 144.976 53.7648 145.479C54.3994 145.756 55.0114 146.082 55.5952 146.454C56.0176 146.736 56.6512 147.47 57.1088 147.596Z" fill="black"/>
<path d="M92.2896 102.583C91.9776 104.674 92.429 106.807 93.5612 108.592C94.6934 110.377 96.4306 111.695 98.4548 112.304C98.2084 113.496 96.9764 114.155 96.1064 115.004C94.8794 116.201 94.2458 117.981 92.7975 118.887C91.1833 119.892 89.1064 119.5 87.2659 119.078C87.0991 119.061 86.9448 118.982 86.8334 118.856C86.7973 118.795 86.7701 118.729 86.7529 118.66C86.1445 116.428 85.7472 114.049 86.3708 111.821C86.8736 109.915 88.0805 108.301 89.046 106.617C90.0116 104.932 90.1021 103.137 92.2896 102.583Z" fill="#13263D"/>
<path d="M47.3277 73.7488C45.3815 73.8923 43.4919 74.4678 41.7961 75.4334C40.6697 76.0821 39.513 76.942 38.2257 76.7861C37.4663 76.7056 36.7171 76.2832 35.9778 76.4844C35.5624 76.6544 35.1743 76.8848 34.8263 77.1683C34.6504 77.3084 34.4412 77.4005 34.2191 77.4357C33.9971 77.471 33.7697 77.4481 33.559 77.3694L33.0562 84.3292C32.8651 86.9793 32.679 89.6798 33.3126 92.2595C33.6395 93.572 34.3586 94.7739 34.4391 96.1065C34.5195 97.4391 34.3988 98.8169 34.4944 100.17C34.5849 101.422 34.8615 102.654 34.9319 103.911C35.0727 106.275 34.4893 108.613 33.9261 110.911C33.0763 114.3 32.5633 117.765 30.9089 120.838C30.4462 121.683 29.9031 122.553 29.9031 123.518C29.9031 123.634 29.9031 123.754 29.9333 123.87C29.4304 124.147 28.9628 124.403 28.5353 124.68C27.5799 125.298 26.559 125.987 26.1668 127.058C25.85 127.928 25.9958 128.924 25.6137 129.764C25.2315 130.604 24.3565 131.202 24.1654 132.107C24.0296 132.766 24.2911 133.46 24.1654 134.119C24.0515 134.459 23.9591 134.807 23.8888 135.16C23.8385 135.914 24.4772 136.522 25.1108 136.935C26.0347 137.544 27.0548 137.993 28.128 138.262L31.1754 126.344C33.904 121.285 36.1743 115.992 37.9592 110.529C38.4703 108.743 39.1279 107.002 39.9254 105.324C40.4936 104.371 40.9976 103.382 41.434 102.362C41.8916 101.095 41.9369 99.7221 42.1581 98.3895C42.4214 96.8268 42.8168 95.2892 43.3399 93.7933C43.883 92.1841 44.5116 90.5698 44.6222 88.8752C44.7882 86.4513 43.9082 83.8967 44.8435 81.6489C45.2405 80.8094 45.7572 80.0319 46.3772 79.3407C47.6747 77.7516 48.8564 76.0921 50.1538 74.498C49.4548 73.7638 48.3334 73.6784 47.3277 73.7488Z" fill="#13263D"/>
<g opacity="0.1">
<path opacity="0.1" d="M61.499 45.9348L60.8704 45.9801L60.7949 46.0354C61.0325 46.0269 61.2685 45.9932 61.499 45.9348Z" fill="black"/>
<path opacity="0.1" d="M73.0047 56.3796C72.8992 57.3793 72.6833 58.3642 72.361 59.3163C72.1532 59.8942 71.9851 60.4856 71.8581 61.0864C71.7576 61.6647 71.7475 62.2632 71.657 62.8465C71.5468 63.6052 71.2852 64.334 70.8878 64.9897C70.4904 65.6454 69.9654 66.2145 69.3438 66.6633C69.1692 66.81 68.9483 66.8902 68.7202 66.8896C68.328 66.8494 68.0866 66.3867 67.9408 65.9794C67.1412 63.6712 67.3323 60.8451 65.8589 59.0096C65.1893 58.2594 64.3751 57.6522 63.4652 57.2244C63.0976 56.9852 62.6823 56.8291 62.2483 56.7668C61.61 56.7986 60.9964 57.023 60.4882 57.4104C59.4246 58.1184 58.2477 58.6388 57.0083 58.9492C56.389 59.0938 55.7454 59.0993 55.1237 58.9654C54.502 58.8315 53.9177 58.5615 53.4128 58.1748C52.7188 57.5965 52.2109 56.7366 51.4415 56.289C50.6721 55.8415 49.8675 55.8717 49.1082 55.5599C48.6335 55.3579 48.2105 55.0513 47.8709 54.6629C47.5313 54.2746 47.2838 53.8145 47.147 53.3171C47.1283 53.2546 47.1148 53.1907 47.1068 53.126C46.9811 53.6873 46.9949 54.2709 47.147 54.8257C47.2838 55.3231 47.5313 55.7832 47.8709 56.1715C48.2105 56.5599 48.6335 56.8665 49.1082 57.0685C49.8675 57.3803 50.7224 57.3803 51.4415 57.7977C52.1606 58.215 52.7188 59.1051 53.4128 59.6834C53.9177 60.0701 54.502 60.3401 55.1237 60.474C55.7454 60.6079 56.389 60.6024 57.0083 60.4579C58.2477 60.1475 59.4246 59.627 60.4882 58.9191C60.9964 58.5316 61.61 58.3072 62.2483 58.2754C62.6823 58.3377 63.0976 58.4938 63.4652 58.733C64.3706 59.159 65.1812 59.7627 65.8488 60.5081C67.3222 62.3436 67.1311 65.1698 67.9307 67.478C68.0765 67.8903 68.3179 68.3479 68.7102 68.3882C68.9382 68.3887 69.1591 68.3086 69.3337 68.1619C69.9553 67.7131 70.4804 67.1439 70.8777 66.4883C71.2751 65.8326 71.5367 65.1038 71.6469 64.3451C71.7375 63.7617 71.7475 63.1633 71.8481 62.585C71.9751 61.9842 72.1431 61.3928 72.3509 60.8149C72.8406 59.4587 73.0676 58.0218 73.0198 56.5807C73.0248 56.5204 73.0148 56.45 73.0047 56.3796Z" fill="black"/>
</g>
<defs>
<linearGradient id="paint0_linear" x1="71.1149" y1="225.395" x2="71.1149" y2="23.0893" gradientUnits="userSpaceOnUse">
<stop stop-color="#808080" stop-opacity="0.25"/>
<stop offset="0.54" stop-color="#808080" stop-opacity="0.12"/>
<stop offset="1" stop-color="#808080" stop-opacity="0.1"/>
</linearGradient>
</defs>
</svg>
