<svg width="477" height="416" viewBox="0 0 477 416" fill="none" xmlns="http://www.w3.org/2000/svg">
<g opacity="0.2">
<path opacity="0.2" d="M57.4715 95.8472H40.1322V103.751H57.4715V95.8472Z" fill="#6C63FF"/>
</g>
<g opacity="0.2">
<path opacity="0.2" d="M57.4715 111.136H40.1322V119.04H57.4715V111.136Z" fill="#6C63FF"/>
</g>
<g opacity="0.2">
<path opacity="0.2" d="M57.4715 126.419H40.1322V134.323H57.4715V126.419Z" fill="#6C63FF"/>
</g>
<g opacity="0.2">
<path opacity="0.2" d="M57.4715 141.701H40.1322V149.605H57.4715V141.701Z" fill="#6C63FF"/>
</g>
<g opacity="0.2">
<path opacity="0.2" d="M57.4715 156.99H40.1322V164.894H57.4715V156.99Z" fill="#6C63FF"/>
</g>
<g opacity="0.2">
<path opacity="0.2" d="M57.4715 172.273H40.1322V180.177H57.4715V172.273Z" fill="#6C63FF"/>
</g>
<g opacity="0.2">
<path opacity="0.2" d="M57.4715 187.556H40.1322V195.46H57.4715V187.556Z" fill="#6C63FF"/>
</g>
<g opacity="0.2">
<path opacity="0.2" d="M57.4715 202.838H40.1322V210.743H57.4715V202.838Z" fill="#6C63FF"/>
</g>
<g opacity="0.2">
<path opacity="0.2" d="M90.1163 210.749H72.777V218.653H90.1163V210.749Z" fill="#6C63FF"/>
</g>
<g opacity="0.2">
<path opacity="0.2" d="M120.66 210.749H103.32V218.653H120.66V210.749Z" fill="#6C63FF"/>
</g>
<g opacity="0.2">
<path opacity="0.2" d="M151.197 210.749H133.858V218.653H151.197V210.749Z" fill="#6C63FF"/>
</g>
<path d="M465.493 161.17C438.317 69.1618 344.415 2.745 234.196 0.081076C175.926 -1.32725 114.609 15.312 69.9665 73.5388C-9.83723 177.625 74.8707 249.553 133.927 283.731C162.458 300.277 188.166 320.171 210.307 342.839C250.197 383.595 326.938 434.241 418.332 354.887C484.574 297.371 483.595 222.456 465.493 161.17Z" fill="white" fill-opacity="0.3"/>
<path d="M109.619 217.702H95.525V413.45H109.619V217.702Z" fill="#3F3D56"/>
<path d="M208.276 213.072V218.246L0 220.834V215.659L0.293955 215.465L37.0554 191.08H191.665L208.276 213.072Z" fill="#3F3D56"/>
<path d="M173.824 183.25C173.824 183.25 124.8 187.04 141.142 198.409C157.483 209.778 173.824 190.829 173.824 190.829V183.25Z" fill="#FFA667"/>
<path opacity="0.1" d="M208.276 214.57V218.703L0 220.834V216.572L0.293955 216.412L208.276 214.57Z" fill="black"/>
<path d="M242.317 120.068L243.435 115.913C243.435 115.913 228.268 142.851 226.991 145.383C225.713 147.915 204.001 169.432 201.447 173.23C199.706 175.691 197.545 177.833 195.061 179.558H170.794C170.794 179.558 165.686 196.013 173.349 197.279C181.012 198.545 205.278 203.608 210.387 203.608C215.496 203.608 247.425 174.495 247.425 174.495L242.317 120.068Z" fill="#13263D"/>
<path d="M247.546 304.85L239.596 413.45H247.546L256.821 302.265L247.546 304.85Z" fill="#3F3D56"/>
<path d="M341.505 293.852L333.555 400.922H341.505L350.781 291.303L341.505 293.852Z" fill="#3F3D56"/>
<path d="M354.876 304.85L347.649 413.45H354.876L363.308 302.265L354.876 304.85Z" fill="#3F3D56"/>
<path d="M235.861 296.984L228.634 404.054H235.861L244.294 294.435L235.861 296.984Z" fill="#3F3D56"/>
<path d="M383.666 158.194L361.782 313.227L231.766 308.144L232.641 293.835L234.34 266.209L334.749 271.292L351.484 158.194H383.666Z" fill="#3F3D56"/>
<path opacity="0.1" d="M383.666 158.194L361.782 313.227L231.766 308.144L232.641 293.835C259.777 294.864 351.484 289.082 351.484 289.082C351.484 268.801 369.532 189.404 376.818 158.194L383.666 158.194Z" fill="black"/>
<path d="M157.294 349.244C157.294 349.244 153.234 377.258 145.114 382.13C136.994 387.002 178.948 393.092 178.948 393.092L181.654 356.552L157.294 349.244Z" fill="#FFA667"/>
<path d="M286.575 360.728C286.575 360.728 292.982 368.166 294.263 373.125C295.544 378.084 314.763 380.564 314.763 380.564L328.857 365.687C328.857 365.687 310.919 350.81 305.794 350.81C300.669 350.81 286.575 360.728 286.575 360.728Z" fill="#FFA667"/>
<path d="M252.123 95.5549C269.421 95.5549 283.443 81.5326 283.443 64.2352C283.443 46.9378 269.421 32.9155 252.123 32.9155C234.826 32.9155 220.804 46.9378 220.804 64.2352C220.804 81.5326 234.826 95.5549 252.123 95.5549Z" fill="#FFA667"/>
<path d="M244.294 85.2385C244.294 85.2385 259.953 114.858 257.343 120.009C254.733 125.16 291.273 95.5409 291.273 95.5409C291.273 95.5409 278.223 74.9361 278.223 68.4972C278.223 62.0582 244.294 85.2385 244.294 85.2385Z" fill="#FFA667"/>
<path d="M258.764 236.75C258.764 236.75 159.478 221.101 155.61 257.615C151.742 294.129 137.558 341.076 136.269 344.988C134.979 348.9 178.82 371.069 183.977 363.245C189.135 355.42 198.161 292.825 195.582 287.609C193.003 282.393 191.714 275.872 196.872 277.176C202.029 278.48 258.764 290.217 270.369 286.305C281.974 282.393 311.631 230.23 311.631 230.23L258.764 236.75Z" fill="#023E88"/>
<path opacity="0.1" d="M258.764 236.75C258.764 236.75 159.478 221.101 155.61 257.615C151.742 294.129 137.558 341.076 136.269 344.988C134.979 348.9 178.82 371.069 183.977 363.245C189.135 355.42 198.161 292.825 195.582 287.609C193.003 282.393 191.714 275.872 196.872 277.176C202.029 278.48 258.764 290.217 270.369 286.305C281.974 282.393 311.631 230.23 311.631 230.23L258.764 236.75Z" fill="#023E88"/>
<path d="M256.264 229.339L260.146 261.652C260.146 261.652 198.042 284.917 221.331 322.4C244.62 359.884 270.497 380.564 270.497 380.564C270.497 380.564 311.899 357.298 311.899 350.836C311.899 344.373 261.44 308.183 267.909 308.183C274.378 308.183 367.533 303.012 348.126 251.312C328.719 199.611 256.264 229.339 256.264 229.339Z" fill="#023E88"/>
<path d="M155.907 383.684C155.907 383.684 145.639 372.099 145.639 374.673C145.639 377.248 116.117 392.695 110.983 393.982C105.849 395.269 98.1481 397.844 108.416 401.706C118.684 405.568 184.144 406.855 184.144 404.28C184.144 401.706 186.711 377.248 181.577 379.822C176.443 382.397 157.19 388.833 155.907 383.684Z" fill="#2F2E41"/>
<path d="M308.69 375.68C308.69 375.68 294.692 371.908 293.42 375.68C292.147 379.453 290.874 394.545 279.421 399.576C267.968 404.606 264.151 412.152 279.421 413.41C294.692 414.668 336.687 385.742 336.687 380.711C336.687 375.68 331.596 360.589 329.051 361.846C326.506 363.104 320.143 374.423 308.69 375.68Z" fill="#2F2E41"/>
<path d="M131.543 391.526H72.0352V415.016H131.543V391.526Z" fill="#3F3D56"/>
<path d="M291.778 87.5416C291.778 87.5416 286.96 74.6198 278.427 82.3717C269.894 90.1235 253.16 109.488 253.16 109.488C253.16 109.488 242.862 113.36 239 119.815C235.138 126.27 235.138 168.871 242.862 183.071C250.586 197.271 250.586 221.799 253.16 228.254C255.735 234.709 253.16 241.163 262.171 241.163C271.182 241.163 257.022 230.836 286.629 241.163C316.236 251.491 349.704 264.4 352.279 255.364C354.853 246.327 348.417 241.163 352.279 237.291C356.14 233.418 352.279 232.127 349.704 223.09C347.13 214.054 344.555 212.763 343.268 201.144C341.981 189.526 343.268 177.907 340.693 172.744C338.119 167.58 338.119 159.834 338.119 146.925C338.119 134.015 330.395 108.197 316.236 100.451C302.076 92.7053 291.778 87.5416 291.778 87.5416Z" fill="#13263D"/>
<path d="M222.806 29.8035C230.033 22.8157 237.629 15.6029 247.249 12.5594C260.09 8.49718 274.406 12.7598 285.46 20.4001C287.845 22.0483 290.181 23.9145 291.614 26.4209C292.928 28.72 293.388 31.3881 293.805 33.9979C295.272 43.1882 296.475 52.5013 295.758 61.7787C295.04 71.0562 292.278 80.381 286.51 87.7249C281.397 82.313 277.472 75.9089 274.985 68.9176C274.328 67.0674 273.739 65.1179 272.412 63.662C271.086 62.206 268.751 61.4226 267.087 62.484C264.774 63.9588 265.064 67.8972 262.622 69.1511C261.786 69.5268 260.849 69.624 259.953 69.4283C253.586 68.3416 251.368 60.6148 247.225 55.7049C241.117 48.4678 232.566 48.9258 224.219 46.846C214.533 44.4324 216.932 35.4836 222.806 29.8035Z" fill="#13263D"/>
<path d="M216.938 193.675C216.938 193.675 174.378 181.962 170.907 192.037C167.436 202.112 207.243 211.438 207.243 211.438H223.936L216.938 193.675Z" fill="#FFA667"/>
<path d="M306.929 108.083C306.929 108.083 287.383 122.265 282.171 142.894C276.959 163.523 273.05 185.441 273.05 185.441L213.11 193.177C213.11 193.177 207.898 213.806 215.716 215.095C223.534 216.385 282.171 220.253 291.292 215.095C300.413 209.938 331.686 145.473 330.383 139.026C329.08 132.58 326.474 109.372 306.929 108.083Z" fill="#13263D"/>
<path d="M75.4179 201.827L95.9713 203.608L125.279 201.553L124.769 201.5L97.6206 198.675C91.4039 196.209 95.7175 181.684 95.7175 181.684L74.9155 182.827L73.2611 182.917C65.9025 201.552 75.4179 201.827 75.4179 201.827Z" fill="#D1D9EC"/>
<path opacity="0.1" d="M75.4179 201.863L95.9713 203.608L125.279 201.594L124.769 201.543L95.1466 202.668L75.2911 200.386C69.6579 198.818 72.883 188.469 74.9155 183.25L73.2611 183.338C65.9025 201.594 75.4179 201.863 75.4179 201.863Z" fill="black"/>
<path d="M41.3208 75.0119L47.5826 166.239V177.249C47.7736 180.016 49.0832 184.834 51.8451 184.816L56.9753 180.395H149.337C150.927 180.385 145.581 178.053 145.424 176.463L151.9 173.065L145.122 106.172C145.015 105.115 144.61 104.112 143.954 103.279C143.298 102.446 142.419 101.818 141.421 101.47L49.6614 69.5447C46.5381 68.4581 43.3606 68.8445 41.3731 70.5043C40.0102 71.6428 41.1634 72.7401 41.3208 75.0119Z" fill="#4C4C56"/>
<path d="M45.4136 167.59L46.2608 179.858C46.3535 181.21 46.9536 182.475 47.9388 183.396C48.924 184.318 50.2202 184.825 51.5634 184.816L53.5238 184.803L150.757 184.208C151.137 184.206 151.512 184.123 151.858 183.966C152.204 183.809 152.514 183.581 152.767 183.296C153.021 183.012 153.213 182.677 153.331 182.313C153.449 181.949 153.491 181.564 153.453 181.183L152.616 172.898L45.4136 167.59Z" fill="#DFE6F5"/>
<path d="M110.402 180.118C110.834 180.118 111.185 179.066 111.185 177.769C111.185 176.472 110.834 175.42 110.402 175.42C109.969 175.42 109.619 176.472 109.619 177.769C109.619 179.066 109.969 180.118 110.402 180.118Z" fill="white"/>
<path d="M62.6394 203.681C62.6394 203.681 36.8332 194.809 29.8756 201.261C29.8756 201.261 28.7371 203.22 33.4177 203.681L52.3303 205.063C52.3303 205.063 60.1093 205.755 62.6394 203.681Z" fill="#D1D9EC"/>
<path d="M61.6127 201.041C56.5096 199.221 41.1478 194.512 31.3197 199.722C31.3197 199.722 42.1951 198.67 48.1712 201.686C54.1473 204.701 62.306 203.267 62.306 203.267L62.4281 203.078C62.5427 202.9 62.6125 202.702 62.633 202.499C62.6536 202.296 62.6243 202.091 62.5472 201.898C62.47 201.706 62.3468 201.53 62.1857 201.382C62.0246 201.234 61.8293 201.118 61.6127 201.041V201.041Z" fill="#DFE6F5"/>
<path d="M39.1883 75.6475L46.2347 179.927C46.3242 181.26 46.9032 182.508 47.8539 183.416C48.8047 184.325 50.0555 184.825 51.3517 184.816L53.2435 184.803C51.9462 183.524 50.8407 182.053 49.963 180.438C49.963 180.438 43.0449 75.6579 42.5417 73.0643C42.3213 72.0902 41.8371 71.2007 41.1455 70.4993C40.4344 71.1258 39.8838 71.9232 39.5425 72.8211C39.2011 73.719 39.0795 74.6897 39.1883 75.6475V75.6475Z" fill="#DFE6F5"/>
<path opacity="0.1" d="M39.1883 75.6475L46.2347 179.927C46.3242 181.26 46.9032 182.508 47.8539 183.416C48.8047 184.325 50.0555 184.825 51.3517 184.816L53.2435 184.803C51.9462 183.524 50.8407 182.053 49.963 180.438C49.963 180.438 43.0449 75.6579 42.5417 73.0643C42.3213 72.0902 41.8371 71.2007 41.1455 70.4993C40.4344 71.1258 39.8838 71.9232 39.5425 72.8211C39.2011 73.719 39.0795 74.6897 39.1883 75.6475V75.6475Z" fill="black"/>
</svg>
