<svg width="42" height="42" viewBox="0 0 42 42" fill="none" xmlns="http://www.w3.org/2000/svg">
<rect width="42" height="42" rx="8" fill="url(#paint0_linear_1336_9)"/>
<path d="M25.5 20.25C25.5 20.0511 25.579 19.8603 25.7197 19.7197C25.8603 19.579 26.0511 19.5 26.25 19.5H27.75C27.9489 19.5 28.1397 19.579 28.2803 19.7197C28.421 19.8603 28.5 20.0511 28.5 20.25V21.75C28.5 21.9489 28.421 22.1397 28.2803 22.2803C28.1397 22.421 27.9489 22.5 27.75 22.5H26.25C26.0511 22.5 25.8603 22.421 25.7197 22.2803C25.579 22.1397 25.5 21.9489 25.5 21.75V20.25Z" fill="white"/>
<path d="M14.25 9C14.4489 9 14.6397 9.07902 14.7803 9.21967C14.921 9.36032 15 9.55109 15 9.75V10.5H27V9.75C27 9.55109 27.079 9.36032 27.2197 9.21967C27.3603 9.07902 27.5511 9 27.75 9C27.9489 9 28.1397 9.07902 28.2803 9.21967C28.421 9.36032 28.5 9.55109 28.5 9.75V10.5H30C30.7956 10.5 31.5587 10.8161 32.1213 11.3787C32.6839 11.9413 33 12.7044 33 13.5V30C33 30.7956 32.6839 31.5587 32.1213 32.1213C31.5587 32.6839 30.7956 33 30 33H12C11.2044 33 10.4413 32.6839 9.87868 32.1213C9.31607 31.5587 9 30.7956 9 30V13.5C9 12.7044 9.31607 11.9413 9.87868 11.3787C10.4413 10.8161 11.2044 10.5 12 10.5H13.5V9.75C13.5 9.55109 13.579 9.36032 13.7197 9.21967C13.8603 9.07902 14.0511 9 14.25 9V9ZM12 12C11.6022 12 11.2206 12.158 10.9393 12.4393C10.658 12.7206 10.5 13.1022 10.5 13.5V30C10.5 30.3978 10.658 30.7794 10.9393 31.0607C11.2206 31.342 11.6022 31.5 12 31.5H30C30.3978 31.5 30.7794 31.342 31.0607 31.0607C31.342 30.7794 31.5 30.3978 31.5 30V13.5C31.5 13.1022 31.342 12.7206 31.0607 12.4393C30.7794 12.158 30.3978 12 30 12H12Z" fill="white"/>
<path d="M12.75 15C12.75 14.8011 12.829 14.6103 12.9697 14.4697C13.1103 14.329 13.3011 14.25 13.5 14.25H28.5C28.6989 14.25 28.8897 14.329 29.0303 14.4697C29.171 14.6103 29.25 14.8011 29.25 15V16.5C29.25 16.6989 29.171 16.8897 29.0303 17.0303C28.8897 17.171 28.6989 17.25 28.5 17.25H13.5C13.3011 17.25 13.1103 17.171 12.9697 17.0303C12.829 16.8897 12.75 16.6989 12.75 16.5V15Z" fill="white"/>
<defs>
<linearGradient id="paint0_linear_1336_9" x1="10.2906" y1="1.97525" x2="39.0437" y2="24.6287" gradientUnits="userSpaceOnUse">
<stop offset="0.237423" stop-color="#023E88"/>
<stop offset="1" stop-color="#0256BD"/>
</linearGradient>
</defs>
</svg>
