<svg width="54" height="65" viewBox="0 0 54 65" fill="none" xmlns="http://www.w3.org/2000/svg">
<path d="M6.1869 43.2053C4.3904 43.7293 2.81957 44.7843 1.70574 46.2149C0.591923 47.6455 -0.00599817 49.3762 4.53667e-05 51.1519V63.4897C4.53667e-05 63.7658 0.116153 64.0305 0.322826 64.2257C0.529498 64.4209 0.809806 64.5305 1.10209 64.5305H35.2653V62.4489H11.0204C11.0204 60.2268 11.0204 55.1632 11.0204 55.1632H8.81636V57.2448H2.20412V51.1519C2.19973 49.8201 2.64814 48.5222 3.48337 47.4491C4.31859 46.376 5.4965 45.5846 6.84371 45.1912L18.0316 41.8897C18.544 43.047 19.4072 44.0353 20.5127 44.7305C21.6183 45.4256 22.9168 45.7965 24.2449 45.7965C25.5731 45.7965 26.8716 45.4256 27.9771 44.7305C29.0826 44.0353 29.9459 43.047 30.4582 41.8897L36.3674 43.6331V45.7959C36.3674 47.4521 37.064 49.0405 38.304 50.2117C39.5441 51.3828 41.2259 52.0408 42.9796 52.0408C44.7333 52.0408 46.4151 51.3828 47.6552 50.2117C48.8952 49.0405 49.5918 47.4521 49.5918 45.7959V39.551C49.5918 37.8947 48.8952 36.3063 47.6552 35.1352C46.4151 33.964 44.7333 33.3061 42.9796 33.3061C41.2259 33.3061 39.5441 33.964 38.304 35.1352C37.064 36.3063 36.3674 37.8947 36.3674 39.551V41.4536L30.8572 39.8268V38.0116C33.8307 36.5453 36.1692 34.1449 37.4694 31.2245H41.8776C42.7544 31.2245 43.5953 30.8955 44.2153 30.3099C44.8353 29.7243 45.1837 28.9301 45.1837 28.102V21.8571C45.1808 21.2136 44.9676 20.5867 44.573 20.062C44.1785 19.5374 43.622 19.1407 42.9796 18.9262V17.6939C42.9796 13.0012 41.0058 8.50065 37.4923 5.18241C33.9789 1.86417 29.2137 0 24.2449 0C19.2762 0 14.5109 1.86417 10.9975 5.18241C7.48407 8.50065 5.51024 13.0012 5.51024 17.6939V18.9262C4.86786 19.1407 4.31133 19.5374 3.91679 20.062C3.52226 20.5867 3.30899 21.2136 3.30616 21.8571V28.102C3.30616 28.9301 3.65449 29.7243 4.2745 30.3099C4.89452 30.8955 5.73545 31.2245 6.61228 31.2245H11.0204C12.3206 34.1449 14.6591 36.5453 17.6327 38.0116V39.8268L6.1869 43.2053ZM8.81636 59.3265V62.1887V62.4489H2.20412V59.3265H8.81636ZM42.9796 49.9591C41.8105 49.9591 40.6892 49.5205 39.8626 48.7397C39.0359 47.959 38.5714 46.9 38.5714 45.7959H47.3878C47.3878 46.9 46.9233 47.959 46.0966 48.7397C45.2699 49.5205 44.1487 49.9591 42.9796 49.9591ZM42.9796 35.3877C43.7499 35.39 44.5061 35.5835 45.1722 35.9489C45.8384 36.3143 46.3911 36.8386 46.775 37.4693H45.1837V39.551H47.3878V40.5918H45.1837V42.6734H47.3878V43.7142H38.5714V42.6734H40.7755V40.5918H38.5714V39.551H40.7755V37.4693H39.1842C39.5681 36.8386 40.1208 36.3143 40.787 35.9489C41.4531 35.5835 42.2093 35.39 42.9796 35.3877ZM32.3835 17.6939C30.8507 17.6986 29.352 17.267 28.0828 16.4553C26.8136 15.6436 25.833 14.4894 25.2687 13.1434C25.1871 12.9499 25.0459 12.784 24.8634 12.6671C24.6809 12.5503 24.4654 12.4878 24.2449 12.4878C24.0244 12.4878 23.809 12.5503 23.6264 12.6671C23.4439 12.784 23.3027 12.9499 23.2211 13.1434C22.6569 14.4894 21.6762 15.6436 20.407 16.4553C19.1379 17.267 17.6391 17.6986 16.1064 17.6939H12.1225C12.1225 14.6574 13.3997 11.7453 15.6731 9.59822C17.9465 7.45112 21.0298 6.24489 24.2449 6.24489C27.46 6.24489 30.5434 7.45112 32.8168 9.59822C35.0902 11.7453 36.3674 14.6574 36.3674 17.6939H32.3835ZM42.9796 28.102C42.9796 28.3781 42.8635 28.6428 42.6568 28.838C42.4501 29.0332 42.1698 29.1428 41.8776 29.1428H38.1714C38.4332 28.1203 38.5675 27.0724 38.5714 26.0204V20.8163H41.8776C42.1698 20.8163 42.4501 20.926 42.6568 21.1212C42.8635 21.3163 42.9796 21.5811 42.9796 21.8571V28.102ZM24.2449 2.08163C28.6276 2.08631 32.8293 3.73267 35.9283 6.65952C39.0274 9.58636 40.7706 13.5547 40.7755 17.6939V18.7347H38.5714V17.6939C38.5714 14.1053 37.062 10.6638 34.3753 8.12628C31.6886 5.5888 28.0445 4.16326 24.2449 4.16326C20.4453 4.16326 16.8013 5.5888 14.1145 8.12628C11.4278 10.6638 9.9184 14.1053 9.9184 17.6939V18.7347H7.71432V17.6939C7.71928 13.5547 9.46248 9.58636 12.5615 6.65952C15.6605 3.73267 19.8623 2.08631 24.2449 2.08163V2.08163ZM6.61228 29.1428C6.32 29.1428 6.0397 29.0332 5.83302 28.838C5.62635 28.6428 5.51024 28.3781 5.51024 28.102V21.8571C5.51024 21.5811 5.62635 21.3163 5.83302 21.1212C6.0397 20.926 6.32 20.8163 6.61228 20.8163H9.9184V26.0204C9.92238 27.0724 10.0566 28.1203 10.3184 29.1428H6.61228ZM12.1225 26.0204V19.7755H16.1064C17.7095 19.781 19.2897 19.4153 20.7085 18.7104C22.1273 18.0054 23.3416 16.9828 24.2449 15.7319C25.1483 16.9828 26.3625 18.0054 27.7813 18.7104C29.2002 19.4153 30.7803 19.781 32.3835 19.7755H36.3674V26.0204C36.3674 29.0568 35.0902 31.9689 32.8168 34.116C30.5434 36.2631 27.46 37.4693 24.2449 37.4693C21.0298 37.4693 17.9465 36.2631 15.6731 34.116C13.3997 31.9689 12.1225 29.0568 12.1225 26.0204V26.0204ZM24.2449 39.551C25.742 39.5502 27.2296 39.3268 28.6531 38.889V40.4638C28.4082 41.393 27.8413 42.2182 27.0424 42.8079C26.2436 43.3976 25.2588 43.718 24.2449 43.718C23.231 43.718 22.2463 43.3976 21.4474 42.8079C20.6486 42.2182 20.0816 41.393 19.8368 40.4638V38.889C21.2602 39.3268 22.7479 39.5502 24.2449 39.551V39.551Z" fill="#F47920"/>
<path d="M17.6328 21.8572H19.8368V26.0204H17.6328V21.8572Z" fill="#F47920"/>
<path d="M28.6531 21.8572H30.8572V26.0204H28.6531V21.8572Z" fill="#F47920"/>
<path d="M29.7551 30.1836H27.5511C27.5511 31.0117 27.2027 31.8059 26.5827 32.3915C25.9627 32.9771 25.1218 33.306 24.2449 33.306C23.3681 33.306 22.5272 32.9771 21.9072 32.3915C21.2871 31.8059 20.9388 31.0117 20.9388 30.1836H18.7347C18.7347 31.5638 19.3153 32.8875 20.3486 33.8634C21.382 34.8394 22.7835 35.3877 24.2449 35.3877C25.7063 35.3877 27.1079 34.8394 28.1412 33.8634C29.1746 32.8875 29.7551 31.5638 29.7551 30.1836Z" fill="#F47920"/>
<path d="M54 45.7959V44.7551H51.7959V45.7959C51.7959 48.0043 50.8671 50.1222 49.2137 51.6837C47.5603 53.2452 45.3178 54.1225 42.9796 54.1225C40.6414 54.1225 38.3989 53.2452 36.7455 51.6837C35.0921 50.1222 34.1633 48.0043 34.1633 45.7959V44.7551H31.9592V45.7959C31.9626 48.3751 32.9786 50.8615 34.8107 52.7742C36.6427 54.6869 39.1607 55.8901 41.8776 56.151V58.2857H40.7755C39.8987 58.2857 39.0578 58.6147 38.4377 59.2003C37.8177 59.7858 37.4694 60.58 37.4694 61.4082V63.4898C37.4694 63.7658 37.5855 64.0306 37.7922 64.2258C37.9988 64.421 38.2792 64.5306 38.5714 64.5306H47.3878C47.68 64.5306 47.9603 64.421 48.167 64.2258C48.3737 64.0306 48.4898 63.7658 48.4898 63.4898V61.4082C48.4898 60.58 48.1415 59.7858 47.5215 59.2003C46.9014 58.6147 46.0605 58.2857 45.1837 58.2857H44.0816V56.151C46.7985 55.8901 49.3165 54.6869 51.1485 52.7742C52.9806 50.8615 53.9966 48.3751 54 45.7959V45.7959ZM46.2857 61.4082V62.449H39.6735V61.4082C39.6735 61.1321 39.7896 60.8674 39.9963 60.6722C40.2029 60.477 40.4832 60.3674 40.7755 60.3674H45.1837C45.476 60.3674 45.7563 60.477 45.9629 60.6722C46.1696 60.8674 46.2857 61.1321 46.2857 61.4082Z" fill="#F47920"/>
</svg>
