<svg width="417" height="402" viewBox="0 0 417 402" fill="none" xmlns="http://www.w3.org/2000/svg">
<path d="M1.44531 19V4.78125H5.64453C6.90104 4.78125 8.01432 5.0612 8.98438 5.62109C9.96094 6.18099 10.7161 6.97526 11.25 8.00391C11.7839 9.03255 12.0508 10.2109 12.0508 11.5391V12.252C12.0508 13.5996 11.7806 14.7845 11.2402 15.8066C10.7064 16.8288 9.94141 17.6165 8.94531 18.1699C7.95573 18.7233 6.81966 19 5.53711 19H1.44531ZM3.91602 6.77344V17.0273H5.52734C6.82292 17.0273 7.81576 16.6237 8.50586 15.8164C9.20247 15.0026 9.55729 13.8372 9.57031 12.3203V11.5293C9.57031 9.98633 9.23503 8.80794 8.56445 7.99414C7.89388 7.18034 6.92057 6.77344 5.64453 6.77344H3.91602Z" fill="black"/>
<path d="M13.8379 13.6191C13.8379 12.584 14.043 11.653 14.4531 10.8262C14.8633 9.99284 15.4395 9.35482 16.1816 8.91211C16.9238 8.46289 17.7767 8.23828 18.7402 8.23828C20.166 8.23828 21.3216 8.69727 22.207 9.61523C23.099 10.5332 23.5807 11.7507 23.6523 13.2676L23.6621 13.8242C23.6621 14.8659 23.4603 15.7969 23.0566 16.6172C22.6595 17.4375 22.0866 18.0723 21.3379 18.5215C20.5957 18.9707 19.7363 19.1953 18.7598 19.1953C17.2689 19.1953 16.0742 18.7005 15.1758 17.7109C14.2839 16.7148 13.8379 15.39 13.8379 13.7363V13.6191ZM16.2109 13.8242C16.2109 14.9115 16.4355 15.7643 16.8848 16.3828C17.334 16.9948 17.959 17.3008 18.7598 17.3008C19.5605 17.3008 20.1823 16.9883 20.625 16.3633C21.0742 15.7383 21.2988 14.8236 21.2988 13.6191C21.2988 12.5514 21.0677 11.7051 20.6055 11.0801C20.1497 10.4551 19.528 10.1426 18.7402 10.1426C17.9655 10.1426 17.3503 10.4518 16.8945 11.0703C16.4388 11.6823 16.2109 12.6003 16.2109 13.8242Z" fill="black"/>
<path d="M34.9512 15.7285L36.6309 8.43359H38.9453L36.0645 19H34.1113L31.8457 11.7441L29.6191 19H27.666L24.7754 8.43359H27.0898L28.7988 15.6504L30.9668 8.43359H32.7539L34.9512 15.7285Z" fill="black"/>
<path d="M42.7344 8.43359L42.8027 9.6543C43.584 8.71029 44.6094 8.23828 45.8789 8.23828C48.0794 8.23828 49.1992 9.49805 49.2383 12.0176V19H46.8652V12.1543C46.8652 11.4837 46.7188 10.9889 46.4258 10.6699C46.1393 10.3444 45.6673 10.1816 45.0098 10.1816C44.0527 10.1816 43.3398 10.6146 42.8711 11.4805V19H40.498V8.43359H42.7344Z" fill="black"/>
<path d="M54.1895 19H51.8164V4H54.1895V19Z" fill="black"/>
<path d="M56.3379 13.6191C56.3379 12.584 56.543 11.653 56.9531 10.8262C57.3633 9.99284 57.9395 9.35482 58.6816 8.91211C59.4238 8.46289 60.2767 8.23828 61.2402 8.23828C62.666 8.23828 63.8216 8.69727 64.707 9.61523C65.599 10.5332 66.0807 11.7507 66.1523 13.2676L66.1621 13.8242C66.1621 14.8659 65.9603 15.7969 65.5566 16.6172C65.1595 17.4375 64.5866 18.0723 63.8379 18.5215C63.0957 18.9707 62.2363 19.1953 61.2598 19.1953C59.7689 19.1953 58.5742 18.7005 57.6758 17.7109C56.7839 16.7148 56.3379 15.39 56.3379 13.7363V13.6191ZM58.7109 13.8242C58.7109 14.9115 58.9355 15.7643 59.3848 16.3828C59.834 16.9948 60.459 17.3008 61.2598 17.3008C62.0605 17.3008 62.6823 16.9883 63.125 16.3633C63.5742 15.7383 63.7988 14.8236 63.7988 13.6191C63.7988 12.5514 63.5677 11.7051 63.1055 11.0801C62.6497 10.4551 62.028 10.1426 61.2402 10.1426C60.4655 10.1426 59.8503 10.4518 59.3945 11.0703C58.9388 11.6823 58.7109 12.6003 58.7109 13.8242Z" fill="black"/>
<path d="M74.4824 19C74.3783 18.7982 74.2871 18.4694 74.209 18.0137C73.4538 18.8014 72.5293 19.1953 71.4355 19.1953C70.3744 19.1953 69.5085 18.8926 68.8379 18.2871C68.1673 17.6816 67.832 16.9329 67.832 16.041C67.832 14.9147 68.2487 14.0521 69.082 13.4531C69.9219 12.8477 71.1198 12.5449 72.6758 12.5449H74.1309V11.8516C74.1309 11.3047 73.9779 10.8685 73.6719 10.543C73.3659 10.2109 72.9004 10.0449 72.2754 10.0449C71.735 10.0449 71.2923 10.1816 70.9473 10.4551C70.6022 10.722 70.4297 11.0638 70.4297 11.4805H68.0566C68.0566 10.901 68.2487 10.3607 68.6328 9.85938C69.0169 9.35156 69.5378 8.95443 70.1953 8.66797C70.8594 8.38151 71.5983 8.23828 72.4121 8.23828C73.6491 8.23828 74.6354 8.55078 75.3711 9.17578C76.1068 9.79427 76.4844 10.6667 76.5039 11.793V16.5586C76.5039 17.5091 76.6374 18.2676 76.9043 18.834V19H74.4824ZM71.875 17.291C72.3438 17.291 72.7832 17.1771 73.1934 16.9492C73.61 16.7214 73.9225 16.4154 74.1309 16.0312V14.0391H72.8516C71.9727 14.0391 71.3119 14.1921 70.8691 14.498C70.4264 14.804 70.2051 15.237 70.2051 15.7969C70.2051 16.2526 70.3548 16.6172 70.6543 16.8906C70.9603 17.1576 71.3672 17.291 71.875 17.291Z" fill="black"/>
<path d="M78.5449 13.6387C78.5449 12.0111 78.9225 10.7057 79.6777 9.72266C80.4329 8.73307 81.4453 8.23828 82.7148 8.23828C83.8346 8.23828 84.7396 8.62891 85.4297 9.41016V4H87.8027V19H85.6543L85.5371 17.9062C84.8275 18.7656 83.8802 19.1953 82.6953 19.1953C81.4583 19.1953 80.4557 18.6973 79.6875 17.7012C78.9258 16.7051 78.5449 15.3509 78.5449 13.6387ZM80.918 13.8438C80.918 14.918 81.123 15.7578 81.5332 16.3633C81.9499 16.9622 82.5391 17.2617 83.3008 17.2617C84.2708 17.2617 84.9805 16.8288 85.4297 15.9629V11.4512C84.9935 10.6048 84.2904 10.1816 83.3203 10.1816C82.5521 10.1816 81.9596 10.4876 81.543 11.0996C81.1263 11.7051 80.918 12.6198 80.918 13.8438Z" fill="black"/>
<path d="M1.44531 42V27.7812H6.31836C7.92643 27.7812 9.15039 28.1035 9.99023 28.748C10.8301 29.3926 11.25 30.3529 11.25 31.6289C11.25 32.2799 11.0742 32.8659 10.7227 33.3867C10.3711 33.9076 9.85677 34.3112 9.17969 34.5977C9.94792 34.806 10.5404 35.1999 10.957 35.7793C11.3802 36.3522 11.5918 37.0423 11.5918 37.8496C11.5918 39.1842 11.1621 40.2096 10.3027 40.9258C9.44987 41.6419 8.22591 42 6.63086 42H1.44531ZM3.91602 35.584V40.0273H6.66016C7.4349 40.0273 8.04036 39.8353 8.47656 39.4512C8.91276 39.0671 9.13086 38.5332 9.13086 37.8496C9.13086 36.3717 8.37565 35.6165 6.86523 35.584H3.91602ZM3.91602 33.7676H6.33789C7.10612 33.7676 7.70508 33.5951 8.13477 33.25C8.57096 32.8984 8.78906 32.4036 8.78906 31.7656C8.78906 31.0625 8.58724 30.5547 8.18359 30.2422C7.78646 29.9297 7.16471 29.7734 6.31836 29.7734H3.91602V33.7676Z" fill="black"/>
<path d="M19.3652 33.6016C19.0527 33.5495 18.7305 33.5234 18.3984 33.5234C17.3112 33.5234 16.5788 33.9401 16.2012 34.7734V42H13.8281V31.4336H16.0938L16.1523 32.6152C16.7253 31.6973 17.5195 31.2383 18.5352 31.2383C18.8737 31.2383 19.1536 31.2839 19.375 31.375L19.3652 33.6016Z" fill="black"/>
<path d="M20.0684 36.6191C20.0684 35.584 20.2734 34.653 20.6836 33.8262C21.0938 32.9928 21.6699 32.3548 22.4121 31.9121C23.1543 31.4629 24.0072 31.2383 24.9707 31.2383C26.3965 31.2383 27.5521 31.6973 28.4375 32.6152C29.3294 33.5332 29.8112 34.7507 29.8828 36.2676L29.8926 36.8242C29.8926 37.8659 29.6908 38.7969 29.2871 39.6172C28.89 40.4375 28.3171 41.0723 27.5684 41.5215C26.8262 41.9707 25.9668 42.1953 24.9902 42.1953C23.4993 42.1953 22.3047 41.7005 21.4062 40.7109C20.5143 39.7148 20.0684 38.39 20.0684 36.7363V36.6191ZM22.4414 36.8242C22.4414 37.9115 22.666 38.7643 23.1152 39.3828C23.5645 39.9948 24.1895 40.3008 24.9902 40.3008C25.791 40.3008 26.4128 39.9883 26.8555 39.3633C27.3047 38.7383 27.5293 37.8236 27.5293 36.6191C27.5293 35.5514 27.2982 34.7051 26.8359 34.0801C26.3802 33.4551 25.7585 33.1426 24.9707 33.1426C24.196 33.1426 23.5807 33.4518 23.125 34.0703C22.6693 34.6823 22.4414 35.6003 22.4414 36.8242Z" fill="black"/>
<path d="M37.8223 39.1289C37.8223 38.7057 37.6465 38.3835 37.2949 38.1621C36.9499 37.9408 36.3737 37.7454 35.5664 37.5762C34.7591 37.4069 34.0853 37.1921 33.5449 36.9316C32.36 36.3587 31.7676 35.5286 31.7676 34.4414C31.7676 33.5299 32.1517 32.7682 32.9199 32.1562C33.6882 31.5443 34.6647 31.2383 35.8496 31.2383C37.1126 31.2383 38.1315 31.5508 38.9062 32.1758C39.6875 32.8008 40.0781 33.6113 40.0781 34.6074H37.7051C37.7051 34.1517 37.5358 33.7741 37.1973 33.4746C36.8587 33.1686 36.4095 33.0156 35.8496 33.0156C35.3288 33.0156 34.9023 33.1361 34.5703 33.377C34.2448 33.6178 34.082 33.9401 34.082 34.3438C34.082 34.7083 34.235 34.9915 34.541 35.1934C34.847 35.3952 35.4655 35.6003 36.3965 35.8086C37.3275 36.0104 38.0566 36.2546 38.584 36.541C39.1178 36.821 39.5117 37.1595 39.7656 37.5566C40.026 37.9538 40.1562 38.4355 40.1562 39.002C40.1562 39.9525 39.7624 40.724 38.9746 41.3164C38.1868 41.9023 37.1549 42.1953 35.8789 42.1953C35.013 42.1953 34.2415 42.0391 33.5645 41.7266C32.8874 41.4141 32.36 40.9844 31.9824 40.4375C31.6048 39.8906 31.416 39.3014 31.416 38.6699H33.7207C33.7533 39.2298 33.9648 39.6628 34.3555 39.9688C34.7461 40.2682 35.2637 40.418 35.9082 40.418C36.5332 40.418 37.0085 40.3008 37.334 40.0664C37.6595 39.8255 37.8223 39.513 37.8223 39.1289Z" fill="black"/>
<path d="M48.6328 40.9648C47.9362 41.7852 46.9466 42.1953 45.6641 42.1953C44.5182 42.1953 43.6491 41.86 43.0566 41.1895C42.4707 40.5189 42.1777 39.5488 42.1777 38.2793V31.4336H44.5508V38.25C44.5508 39.5911 45.1074 40.2617 46.2207 40.2617C47.373 40.2617 48.151 39.8483 48.5547 39.0215V31.4336H50.9277V42H48.6914L48.6328 40.9648Z" fill="black"/>
<path d="M58.877 33.6016C58.5645 33.5495 58.2422 33.5234 57.9102 33.5234C56.8229 33.5234 56.0905 33.9401 55.7129 34.7734V42H53.3398V31.4336H55.6055L55.6641 32.6152C56.237 31.6973 57.0312 31.2383 58.0469 31.2383C58.3854 31.2383 58.6654 31.2839 58.8867 31.375L58.877 33.6016Z" fill="black"/>
<rect y="57" width="44" height="8" fill="#F47920"/>
<path d="M392.829 37.425V383.971C392.829 388.1 391.18 392.06 388.246 394.979C385.313 397.898 381.335 399.537 377.187 399.537H235.85C231.702 399.537 227.724 397.898 224.79 394.979C221.857 392.06 220.208 388.1 220.207 383.971V37.425C220.207 35.3801 220.612 33.3551 221.398 31.4659C222.184 29.5766 223.336 27.8599 224.789 26.414C226.241 24.968 227.966 23.821 229.864 23.0386C231.762 22.2561 233.796 21.8535 235.85 21.8536H257V24.5577C257.001 27.958 258.358 31.2187 260.773 33.623C263.189 36.0274 266.464 37.3786 269.88 37.3795H341.758C345.175 37.3795 348.451 36.0287 350.866 33.6241C353.282 31.2196 354.639 27.9583 354.639 24.5577V21.8536H377.187C379.241 21.8535 381.275 22.2561 383.173 23.0386C385.071 23.821 386.796 24.968 388.248 26.414C389.701 27.8599 390.853 29.5766 391.639 31.4659C392.425 33.3551 392.83 35.3801 392.829 37.425Z" fill="#F2F2F2"/>
<path d="M413.683 91.3658H414.881C415.178 91.3658 415.463 91.504 415.672 91.75C415.882 91.996 416 92.3296 416 92.6774V138.713C416 139.061 415.882 139.394 415.672 139.64C415.463 139.886 415.178 140.024 414.881 140.024H413.683" stroke="#3F3D56" stroke-miterlimit="10"/>
<path d="M216.732 69.3536H215.477C215.195 69.3536 214.925 69.2684 214.726 69.1167C214.527 68.965 214.415 68.7593 214.415 68.5447V55.1016C214.415 54.887 214.527 54.6813 214.726 54.5296C214.925 54.3779 215.195 54.2927 215.477 54.2927H216.732" stroke="#3F3D56" stroke-miterlimit="10"/>
<path d="M216.546 109.902H215.54C215.242 109.902 214.955 109.805 214.744 109.631C214.533 109.457 214.415 109.221 214.415 108.976V84.183C214.415 84.0612 214.444 83.9407 214.5 83.8283C214.557 83.7158 214.64 83.6136 214.744 83.5276C214.849 83.4415 214.973 83.3732 215.11 83.3267C215.246 83.2801 215.392 83.2561 215.54 83.2561H216.732" stroke="#3F3D56" stroke-miterlimit="10"/>
<path d="M216.732 148.134H215.618C215.299 148.134 214.993 148.038 214.767 147.867C214.541 147.696 214.415 147.464 214.415 147.222V121.242C214.415 121 214.541 120.768 214.767 120.597C214.993 120.425 215.299 120.329 215.618 120.329H216.732" stroke="#3F3D56" stroke-miterlimit="10"/>
<path d="M393.312 1H237.102C225.852 1 216.732 10.0806 216.732 21.2821V379.254C216.732 390.456 225.852 399.537 237.102 399.537H393.312C404.563 399.537 413.683 390.456 413.683 379.254V21.2821C413.683 10.0806 404.563 1 393.312 1Z" stroke="#3F3D56" stroke-miterlimit="10"/>
<path d="M320.692 14.9025H295.82C295.01 14.9025 294.354 15.4414 294.354 16.1062V18.3329C294.354 18.9977 295.01 19.5366 295.82 19.5366H320.692C321.502 19.5366 322.159 18.9977 322.159 18.3329V16.1062C322.159 15.4414 321.502 14.9025 320.692 14.9025Z" fill="#F2F2F2"/>
<path d="M329.11 21.8537C331.029 21.8537 332.585 20.2976 332.585 18.3781C332.585 16.4585 331.029 14.9025 329.11 14.9025C327.19 14.9025 325.634 16.4585 325.634 18.3781C325.634 20.2976 327.19 21.8537 329.11 21.8537Z" fill="#F2F2F2"/>
<path d="M321.912 13.7439H298.076C297.3 13.7439 296.671 14.2828 296.671 14.9476V17.1743C296.671 17.8391 297.3 18.378 298.076 18.378H321.912C322.688 18.378 323.317 17.8391 323.317 17.1743V14.9476C323.317 14.2828 322.688 13.7439 321.912 13.7439Z" stroke="#3F3D56" stroke-miterlimit="10"/>
<path d="M330.848 18.378C332.447 18.378 333.744 16.822 333.744 14.9024C333.744 12.9829 332.447 11.4268 330.848 11.4268C329.248 11.4268 327.951 12.9829 327.951 14.9024C327.951 16.822 329.248 18.378 330.848 18.378Z" stroke="#3F3D56" stroke-miterlimit="10"/>
<path d="M400.939 25.9352V374.607C400.938 378.761 399.301 382.745 396.387 385.682C393.473 388.619 389.522 390.269 385.402 390.268H245.013C240.893 390.269 236.942 388.619 234.028 385.682C231.114 382.745 229.477 378.761 229.476 374.607V25.9352C229.476 23.8777 229.877 21.8404 230.658 19.9395C231.439 18.0386 232.583 16.3115 234.026 14.8566C235.469 13.4018 237.182 12.2478 239.067 11.4605C240.952 10.6732 242.973 10.2681 245.013 10.2683H266.021V12.989C266.022 16.4101 267.37 19.6908 269.769 22.1099C272.169 24.529 275.422 25.8885 278.815 25.8894H350.211C353.604 25.8894 356.858 24.5303 359.258 22.111C361.657 19.6917 363.005 16.4104 363.005 12.989V10.2683H385.402C387.442 10.2681 389.463 10.6732 391.348 11.4605C393.233 12.2478 394.946 13.4018 396.389 14.8566C397.831 16.3115 398.976 18.0386 399.757 19.9395C400.538 21.8404 400.939 23.8777 400.939 25.9352V25.9352Z" stroke="#3F3D56" stroke-miterlimit="10"/>
<path d="M251.488 45.0244H232.951V47.3415H251.488V45.0244Z" stroke="#3F3D56" stroke-miterlimit="10"/>
<path d="M251.488 48.5H232.951V50.8171H251.488V48.5Z" stroke="#3F3D56" stroke-miterlimit="10"/>
<path d="M251.488 53.1342H232.951V54.2927H251.488V53.1342Z" stroke="#3F3D56" stroke-miterlimit="10"/>
<path d="M392.146 49.9683H391.671L391.493 49.8019C392.087 49.0094 392.413 48.0084 392.414 46.9744C392.409 46.1253 392.178 45.297 391.752 44.594C391.325 43.8909 390.722 43.3448 390.018 43.0246C389.313 42.7043 388.54 42.6243 387.795 42.7947C387.05 42.965 386.367 43.378 385.832 43.9816C385.297 44.5851 384.935 45.3522 384.79 46.1858C384.645 47.0194 384.725 47.8821 385.019 48.6651C385.313 49.4481 385.809 50.1162 386.443 50.5849C387.077 51.0537 387.821 51.3021 388.581 51.2988C389.505 51.2925 390.397 50.928 391.106 50.2677L391.285 50.4341V50.9662L394.255 54.2927L395.146 53.2948L392.146 49.9683ZM388.581 49.9683C388.051 49.9699 387.532 49.7958 387.09 49.4678C386.648 49.1399 386.303 48.6729 386.099 48.126C385.895 47.5791 385.841 46.9769 385.943 46.3956C386.046 45.8143 386.301 45.28 386.675 44.8605C387.05 44.4409 387.528 44.1549 388.048 44.0387C388.568 43.9225 389.108 43.9813 389.598 44.2076C390.088 44.434 390.508 44.8177 390.803 45.3102C391.098 45.8027 391.255 46.3819 391.255 46.9744C391.257 47.3675 391.189 47.7571 391.056 48.1207C390.922 48.4844 390.725 48.8149 390.477 49.0933C390.228 49.3716 389.933 49.5922 389.607 49.7424C389.282 49.8926 388.933 49.9693 388.581 49.9683V49.9683Z" stroke="#3F3D56" stroke-miterlimit="10"/>
<path d="M362.574 102.951H242.353C238.44 102.951 235.268 106.156 235.268 110.109V171.098C235.268 175.051 238.44 178.256 242.353 178.256H362.574C366.486 178.256 369.659 175.051 369.659 171.098V110.109C369.659 106.156 366.486 102.951 362.574 102.951Z" fill="#F47920"/>
<path d="M370.622 87.8903H249.366C245.419 87.8903 242.22 91.095 242.22 95.0484V156.037C242.22 159.99 245.419 163.195 249.366 163.195H370.622C374.569 163.195 377.768 159.99 377.768 156.037V95.0484C377.768 91.095 374.569 87.8903 370.622 87.8903Z" stroke="#3F3D56" stroke-miterlimit="10"/>
<path d="M288.253 143.168L300.413 155.443C300.678 155.705 300.995 155.911 301.345 156.049C301.694 156.186 302.069 156.252 302.445 156.243H302.482C302.858 156.252 303.233 156.186 303.582 156.049C303.932 155.911 304.249 155.705 304.514 155.443L316.674 143.168C316.942 142.922 317.156 142.624 317.303 142.294C317.449 141.964 317.524 141.608 317.524 141.248C317.524 140.888 317.449 140.531 317.303 140.201C317.156 139.871 316.942 139.574 316.674 139.328C316.118 138.818 315.385 138.534 314.623 138.534C313.861 138.534 313.128 138.818 312.572 139.328L305.367 146.705V127.683C305.334 126.951 305.013 126.26 304.472 125.753C303.931 125.246 303.212 124.963 302.463 124.963C301.715 124.963 300.995 125.246 300.455 125.753C299.914 126.26 299.593 126.951 299.56 127.683V146.705L292.355 139.328C291.799 138.818 291.066 138.534 290.304 138.534C289.542 138.534 288.809 138.818 288.253 139.328C287.985 139.574 287.771 139.871 287.624 140.201C287.478 140.531 287.402 140.888 287.402 141.248C287.402 141.608 287.478 141.964 287.624 142.294C287.771 142.624 287.985 142.922 288.253 143.168H288.253Z" fill="white"/>
<path d="M257.414 305.695H377.635C381.547 305.695 384.72 302.54 384.72 298.647V238.597C384.72 234.704 381.547 231.549 377.635 231.549H257.414C253.501 231.549 250.329 234.704 250.329 238.597V298.647C250.329 302.54 253.501 305.695 257.414 305.695Z" fill="#F47920"/>
<path d="M249.366 292.951H370.622C374.569 292.951 377.768 289.697 377.768 285.683V223.756C377.768 219.742 374.569 216.488 370.622 216.488H249.366C245.419 216.488 242.22 219.742 242.22 223.756V285.683C242.22 289.697 245.419 292.951 249.366 292.951Z" stroke="#3F3D56" stroke-miterlimit="10"/>
<path d="M330.576 271.281C330.845 271.026 331.059 270.718 331.205 270.375C331.351 270.033 331.427 269.663 331.427 269.29C331.427 268.916 331.351 268.547 331.205 268.205C331.059 267.862 330.845 267.554 330.576 267.299C330.02 266.77 329.287 266.476 328.525 266.476C327.764 266.476 327.031 266.77 326.475 267.299L319.27 274.95V255.223C319.236 254.464 318.916 253.747 318.375 253.221C317.834 252.696 317.114 252.402 316.366 252.402C315.618 252.402 314.898 252.696 314.357 253.221C313.816 253.747 313.496 254.464 313.462 255.223V274.95L306.257 267.299C305.701 266.77 304.968 266.476 304.206 266.476C303.445 266.476 302.712 266.77 302.156 267.299C301.887 267.554 301.673 267.862 301.527 268.205C301.38 268.547 301.305 268.916 301.305 269.29C301.305 269.663 301.38 270.033 301.527 270.375C301.673 270.718 301.887 271.026 302.156 271.281L314.315 284.011C314.58 284.283 314.898 284.496 315.247 284.639C315.597 284.782 315.971 284.85 316.348 284.841H316.384C316.761 284.85 317.135 284.782 317.485 284.639C317.834 284.496 318.151 284.283 318.417 284.011L330.576 271.281H330.576Z" fill="white"/>
<path d="M77.5209 320.126C73.2753 332.464 78.2293 352.491 80.5298 361.431C82.8278 370.373 83.5362 381.102 83.5362 381.102C92.558 382.532 99.104 380.743 99.104 380.743L95.3892 362.327C98.0427 351.419 95.3892 322.272 95.3892 322.272C95.3892 322.272 101.402 311.007 101.933 293.841C102.455 276.943 106.576 271.482 106.706 271.313L106.709 271.311C115.2 275.782 125.992 323.704 125.992 323.704C125.108 335.326 126.169 353.208 129.706 362.863C131.852 368.996 132.754 375.503 132.36 381.995C133.596 383.052 135.316 383.232 137.173 382.929C142.225 382.102 148.281 377.704 148.281 377.704C148.281 377.704 146.336 325.49 144.919 323.524C143.504 321.558 144.919 310.293 144.919 310.293L142.621 292.055C142.621 292.055 142.974 261.119 139.612 255.754C136.711 251.122 136.043 242.982 135.913 240.844C135.894 240.506 135.886 240.319 135.886 240.319L130.768 234.12C130.768 234.12 81.2357 230.365 77.5209 234.12C76.6081 235.043 76.0455 237.138 75.7112 239.777C74.6896 247.888 75.8598 261.119 75.8598 261.119C75.8598 261.119 77.3457 270.954 79.4685 280.967C80.7442 286.978 80.7442 293.194 79.4685 299.205C80.1668 306.24 79.5054 313.346 77.5209 320.126Z" fill="#023E88"/>
<path d="M82.0112 398.654C84.0971 401.507 96.3667 400.296 98.455 399.406C99.7296 398.862 99.6344 396.377 99.2889 393.816C99.071 392.187 98.7505 390.527 98.6203 389.316C98.2873 386.203 99.6219 379.89 99.6219 379.89C99.6219 379.89 96.8675 382.917 96.2014 379.89C95.9089 378.566 94.8817 377.888 93.8186 377.544C92.388 377.097 90.8501 377.196 89.4847 377.825C87.3169 378.799 83.6985 380.877 84.3474 383.687C85.2664 387.658 82.0112 393.292 82.0112 393.292C81.7583 393.622 81.5533 393.988 81.4027 394.379C81.1159 395.081 81.0209 395.851 81.1282 396.605C81.2356 397.359 81.541 398.068 82.0112 398.654Z" fill="#CBCEDA"/>
<path opacity="0.1" d="M82.0166 398.566C84.1148 401.56 96.4571 400.289 98.5577 399.355C99.8398 398.783 99.7441 396.175 99.3965 393.488C98.0715 394.158 95.8173 394.715 92.0599 394.339C91.1828 394.251 90.3015 394.222 89.421 394.252C86.7482 394.382 84.0704 394.324 81.4046 394.079C81.1161 394.815 81.0205 395.623 81.1285 396.415C81.2364 397.206 81.5437 397.95 82.0166 398.566Z" fill="black"/>
<path opacity="0.1" d="M126.372 323.96C125.465 335.531 126.555 353.336 130.187 362.95C132.39 369.057 133.316 375.535 132.911 382C134.181 383.052 135.947 383.231 137.854 382.929C136.758 375.419 132.089 343.065 129.097 317.505C125.691 288.395 109.753 268.366 109.753 268.366L106.573 271.792C115.292 276.244 126.372 323.96 126.372 323.96Z" fill="black"/>
<path d="M85.7195 136.751L87.9407 147.407L98.8173 165.256L112.234 159.662C112.234 159.662 130.471 141.014 119.01 138.35C117.637 138.063 116.34 137.499 115.203 136.695C112.955 135.038 112.245 132.63 112.234 130.272C112.324 127.629 112.957 125.03 114.098 122.632L90.6312 115.439C91.5999 118.449 92.1658 121.569 92.3148 124.72C92.4949 130.96 90.1209 134.034 88.1726 135.499C87.4477 136.071 86.6139 136.496 85.7195 136.751Z" fill="#FFA667"/>
<path opacity="0.1" d="M91.5122 115.439C92.4209 118.323 92.9517 121.313 93.0914 124.333C93.4926 124.808 93.9199 125.262 94.3712 125.691C96.6441 127.856 99.4619 129.367 102.526 130.064C105.59 130.762 108.787 130.62 111.776 129.652C111.86 127.12 112.454 124.63 113.524 122.331L91.5122 115.439Z" fill="black"/>
<path d="M86.8782 111.964C86.8783 115.63 87.9995 119.214 90.1001 122.262C92.2006 125.31 95.1861 127.686 98.679 129.089C102.172 130.492 106.015 130.859 109.723 130.144C113.431 129.429 116.838 127.663 119.511 125.071C122.184 122.478 124.005 119.176 124.742 115.58C125.48 111.984 125.102 108.257 123.655 104.87C122.208 101.483 119.758 98.5881 116.615 96.5513C113.471 94.5144 109.775 93.4271 105.995 93.427C103.482 93.4179 100.992 93.8912 98.668 94.8196C96.3445 95.7479 94.2334 97.113 92.4564 98.8362C90.6794 100.559 89.2716 102.606 88.3143 104.86C87.3569 107.113 86.8688 109.527 86.8782 111.964Z" fill="#FFA667"/>
<path opacity="0.1" d="M85.7195 137.511L87.9407 147.883L98.8173 165.256L112.234 159.811C112.234 159.811 130.471 141.66 119.01 139.067C117.637 138.788 116.34 138.24 115.203 137.457C117.274 142.861 108.731 154.106 108.731 154.106C107.738 155.496 105.456 154.625 105.456 154.625C99.9552 153.834 89.8235 138.795 88.1725 136.293C87.4477 136.849 86.6139 137.263 85.7195 137.511Z" fill="black"/>
<path opacity="0.1" d="M75.2927 239.32C78.4944 239.996 96.2212 243.645 102.941 242.732C110.338 241.726 124.719 241.057 124.719 241.057C124.719 241.057 133.878 241.518 136.695 240.321C136.676 240.004 136.668 239.828 136.668 239.828L131.447 234.016C131.447 234.016 80.9274 230.495 77.1385 234.016C76.2075 234.881 75.6337 236.845 75.2927 239.32Z" fill="black"/>
<path d="M108.019 154.779C108.019 154.779 117.432 141.922 113.885 136.917L129.785 143.346C129.785 143.346 139.354 142.202 142.808 156.282C143.361 158.623 143.561 161.031 143.399 163.429C143.274 165.552 143.566 169.29 146.019 174.127C149.944 181.866 149.052 199.631 141.024 201.39C132.996 203.149 130.141 202.27 130.141 202.27C130.141 202.27 131.212 234.458 135.85 238.152C140.489 241.846 124.024 240.966 124.024 240.966C124.024 240.966 109.803 241.67 102.489 242.725C95.1742 243.78 74.6578 239.031 74.6578 239.031C74.6578 239.031 77.6906 225.488 78.7611 216.869C79.8315 208.25 82.3291 189.898 82.3291 189.898L64.1319 165.596C64.1319 165.596 60.9206 150.909 72.1601 144.401C83.3996 137.893 87.6293 136.293 87.6293 136.293C87.6293 136.293 98.9207 154.427 104.808 155.306C104.808 155.306 107.045 156.192 108.019 154.779Z" fill="#13263D"/>
<path opacity="0.1" d="M129.304 160.622C129.304 160.622 129.466 166.459 128.493 168.758C127.519 171.058 123.951 183.793 123.951 183.793H132.061C132.061 183.793 127.682 178.663 128.006 176.187C128.33 173.711 129.304 160.622 129.304 160.622Z" fill="black"/>
<path d="M102.037 203.488C102.037 203.488 122.037 198.801 123.901 194.809C125.765 190.817 130.902 181.883 130.902 181.883L128.791 179.159L119.063 186.478C119.063 186.478 107.471 195.33 102.037 196.198C96.6032 197.066 102.037 203.488 102.037 203.488Z" fill="#FFA667"/>
<path opacity="0.05" d="M102.037 203.488C102.037 203.488 122.037 198.801 123.901 194.809C125.765 190.817 130.902 181.883 130.902 181.883L128.791 179.159L119.063 186.478C119.063 186.478 107.471 195.33 102.037 196.198C96.6032 197.066 102.037 203.488 102.037 203.488Z" fill="#FFA667"/>
<path d="M85.7195 180.395V191.295H87.4531C96.0181 191.295 104.442 193.498 111.932 197.698L115.18 199.521L116.055 200.012L121.634 187.308L116.414 182.578C116.414 182.578 116.32 182.589 116.147 182.603C114.87 182.728 109.348 183.195 107.006 182.395C104.784 181.634 102.021 179.213 95.4731 180.905C92.2489 181.738 89.4946 185.392 86.3649 184.251L85.7195 180.395Z" fill="#FFA667"/>
<path opacity="0.1" d="M69.5329 161.24L66.0244 165.276V175.051C66.0244 175.051 69.0066 205.9 78.4796 209.308C87.9526 212.716 104.863 207.335 104.863 207.335C104.863 207.335 109.231 195.498 107.187 194.78C105.144 194.063 89.1295 189.738 89.1295 189.738C89.1295 189.738 89.356 171.643 85.8475 166.262C85.8475 166.262 88.128 149.403 80.2339 149.044C72.3397 148.685 69.5329 161.24 69.5329 161.24Z" fill="black"/>
<path d="M67.3132 161.24L63.7073 165.276V175.051C63.7073 175.051 66.7723 205.9 76.5085 209.308C86.2446 212.716 103.625 207.335 103.625 207.335C103.625 207.335 108.114 195.498 106.014 194.78C103.914 194.063 87.4542 189.738 87.4542 189.738C87.4542 189.738 87.687 171.643 84.081 166.262C84.081 166.262 86.4249 149.403 78.3115 149.044C70.198 148.685 67.3132 161.24 67.3132 161.24Z" fill="#13263D"/>
<path opacity="0.1" d="M92.007 119.298C91.8475 118.127 91.9912 116.936 92.425 115.833C92.942 114.77 94.152 113.932 95.3318 114.202C96.9021 114.557 97.5786 116.54 99.1159 117.016C100.411 117.416 101.827 116.524 102.446 115.347C103.065 114.172 103.081 112.795 103.084 111.476C103.087 109.989 103.091 108.502 103.095 107.015C103.098 105.397 103.147 103.648 104.176 102.377C105.455 100.794 108.458 100.103 110.463 100.167C111.798 100.181 113.079 100.682 114.051 101.571C115.127 102.457 116.367 103.109 117.83 102.877C118.439 102.787 119.009 102.532 119.475 102.14C119.941 101.749 120.283 101.238 120.462 100.666C120.468 100.648 120.472 100.629 120.476 100.61C118.916 98.6134 116.947 96.9521 114.694 95.7305C112.44 94.5089 109.95 93.7534 107.381 93.5116C104.812 93.2698 102.22 93.547 99.7663 94.3257C97.313 95.1043 95.0524 96.3676 93.1266 98.036C91.2009 99.7045 89.6518 101.742 88.5769 104.02C87.5019 106.298 86.9244 108.767 86.8807 111.273C86.837 113.778 87.3281 116.265 88.323 118.577C89.3178 120.889 90.795 122.977 92.6615 124.707C92.3403 122.918 92.1218 121.112 92.007 119.298Z" fill="black"/>
<path d="M117.909 103.187C118.495 103.096 119.045 102.838 119.493 102.443C119.942 102.047 120.271 101.531 120.444 100.954C120.592 100.373 120.553 99.754 120.721 99.1791C121.133 97.7668 122.614 97.0303 123.607 95.9582C125.596 93.8092 125.467 90.2736 124.059 87.6918C122.922 85.6081 120.717 83.8487 118.411 84.256C116.983 84.5082 115.748 85.5446 114.302 85.6379C112.909 85.7277 111.635 84.9336 110.365 84.3438C107.304 82.9334 103.864 82.6225 100.607 83.4619C99.6051 83.6648 98.6769 84.1415 97.9214 84.8409C97.408 85.4975 96.9299 86.1819 96.4891 86.891C94.8421 89.0266 91.8967 89.4437 89.2729 89.9284C86.6491 90.4132 83.6796 91.4675 82.8173 94.037C82.2455 95.7407 82.8001 97.591 83.1287 99.3601C83.2369 99.7229 83.212 100.113 83.0587 100.459C82.6494 101.148 81.6247 100.86 80.8504 101.025C79.3618 101.343 78.9792 103.296 78.9244 104.844C78.8617 106.616 78.8144 108.388 78.7826 110.16C78.7402 110.822 78.7921 111.487 78.9367 112.133C79.2608 113.056 79.7724 113.899 80.4381 114.607L86.2678 121.739C88.8525 124.9 91.5975 128.586 91.0766 132.666C92.3018 133.225 93.7566 132.148 94.1584 130.844C94.5602 129.539 94.2357 128.133 93.9635 126.794C93.493 124.479 93.185 122.133 93.0418 119.774C92.8879 118.591 93.0268 117.388 93.4461 116.274C93.9425 115.199 95.1091 114.354 96.2448 114.625C97.757 114.985 98.4077 116.987 99.8874 117.467C101.135 117.872 102.5 116.97 103.095 115.783C103.69 114.595 103.706 113.205 103.709 111.872L103.719 107.366C103.723 105.733 103.77 103.966 104.76 102.681C105.991 101.083 108.884 100.384 110.815 100.448C112.101 100.464 113.334 100.97 114.27 101.867C115.306 102.763 116.499 103.421 117.909 103.187Z" fill="#13263D"/>
<path opacity="0.1" d="M113.524 159.463L108.586 182.634C108.586 182.634 104.694 182.608 113.524 159.463Z" fill="black"/>
<path opacity="0.1" d="M93.8293 155.988C93.8293 155.988 102.103 167.901 98.8743 180.218L97.3328 180.317C97.3328 180.317 100.085 174.616 93.8293 155.988Z" fill="black"/>
<path opacity="0.1" d="M90.3537 223.668C90.3537 223.668 82.793 221.404 82.2439 226.658C82.2439 226.658 83.6706 223.056 90.3537 223.668Z" fill="black"/>
<path opacity="0.1" d="M116.063 183.793C116.063 183.793 117.789 196.281 114.683 201.276C114.683 201.276 121 203.952 129.867 203.417L130.902 183.793L116.063 183.793Z" fill="black"/>
<path opacity="0.1" d="M114.683 199.555L115.625 200.012L121.634 188.193L116.012 183.793H115.721C115.722 183.8 115.722 183.808 115.724 183.816C115.811 184.361 117.379 194.538 114.683 199.555Z" fill="black"/>
<path d="M116.19 183.793C116.19 183.793 118.074 195.546 114.683 200.248C114.683 200.248 121.58 202.766 131.26 202.263L137.854 183.793H116.19Z" fill="#13263D"/>
<path d="M130.928 396.081C131.03 396.967 131.421 397.793 132.039 398.43C132.657 399.067 133.467 399.478 134.342 399.599C139.116 400.32 150.615 398.181 153.519 399.576C157.211 401.353 171.802 400.109 172.506 398.335C172.605 397.979 172.634 397.608 172.59 397.241C172.547 396.874 172.432 396.52 172.253 396.198C171.753 395.115 170.928 394.219 169.895 393.638C169.559 393.445 169.205 393.286 168.838 393.164C166.09 392.237 160.898 390.271 159.497 388.211C159.497 388.211 153.027 382.492 151.181 379.399C150.834 378.791 150.344 378.279 149.754 377.908C149.165 377.537 148.494 377.319 147.801 377.272C146.261 377.203 144.545 377.985 143.844 381.394C143.844 381.394 135.411 386.256 133.127 381.993C133.127 381.993 132.776 392.519 131.376 394.309C131.374 394.312 131.371 394.317 131.368 394.32C131.183 394.569 131.049 394.854 130.974 395.156C130.898 395.458 130.882 395.773 130.928 396.081Z" fill="#CBCEDA"/>
<path opacity="0.1" d="M130.928 395.242C131.03 396.299 131.421 397.284 132.039 398.044C132.657 398.803 133.467 399.294 134.342 399.438C139.116 400.297 150.615 397.746 153.519 399.41C157.211 401.529 171.802 400.046 172.506 397.93C172.605 397.506 172.634 397.063 172.59 396.626C172.547 396.188 172.432 395.766 172.253 395.382C171.753 394.091 170.928 393.022 169.895 392.329C167.516 394.229 162.235 396.091 150.618 393.905C139.538 391.821 134.053 394.521 131.376 393.129C131.374 393.132 131.371 393.139 131.368 393.142C131.183 393.44 131.049 393.779 130.974 394.139C130.898 394.5 130.882 394.875 130.928 395.242Z" fill="black"/>
<g opacity="0.1">
<path opacity="0.1" d="M83.2726 99.7993C83.2676 99.7707 83.2627 99.742 83.2574 99.7139C83.0052 98.3803 82.6223 97.0003 82.7079 95.6731C82.8225 96.7636 83.006 97.8458 83.2574 98.9131C83.3312 99.2033 83.3364 99.5067 83.2726 99.7993Z" fill="black"/>
<path opacity="0.1" d="M93.6565 116.456C93.3754 117.097 93.2268 117.789 93.2196 118.489C93.139 117.523 93.2887 116.552 93.6565 115.655C94.1569 114.591 95.3327 113.755 96.4774 114.022C98.0016 114.379 98.6575 116.361 100.149 116.837C101.406 117.237 102.782 116.344 103.382 115.169C103.981 113.993 103.997 112.617 104.001 111.298C104.004 109.811 104.008 108.324 104.011 106.838C104.015 105.221 104.063 103.472 105.06 102.2C106.301 100.618 109.217 99.927 111.163 99.9903C112.459 100.005 113.702 100.507 114.645 101.395C115.69 102.281 116.892 102.933 118.314 102.701C118.904 102.611 119.458 102.355 119.91 101.964C120.362 101.573 120.694 101.062 120.869 100.49C121.018 99.9159 120.979 99.303 121.148 98.7339C121.563 97.3359 123.056 96.607 124.056 95.5457C124.99 94.5119 125.523 93.1775 125.557 91.7847C125.631 92.6072 125.536 93.436 125.277 94.2204C125.019 95.0048 124.604 95.7283 124.056 96.3465C123.056 97.4077 121.563 98.1367 121.148 99.5347C120.979 100.104 121.018 100.717 120.869 101.291C120.694 101.863 120.362 102.374 119.91 102.765C119.458 103.156 118.904 103.412 118.314 103.502C116.892 103.733 115.69 103.082 114.645 102.196C113.702 101.307 112.459 100.806 111.163 100.791C109.217 100.728 106.301 101.419 105.06 103.001C104.063 104.273 104.015 106.022 104.011 107.638C104.008 109.125 104.004 110.612 104.001 112.099C103.997 113.418 103.981 114.794 103.382 115.97C102.782 117.145 101.406 118.038 100.149 117.637C98.6575 117.162 98.0017 115.18 96.4774 114.823C95.3327 114.555 94.1569 115.392 93.6565 116.456Z" fill="black"/>
<path opacity="0.1" d="M79.0323 111.556C79.3589 112.47 79.8746 113.305 80.5456 114.005C82.5042 116.358 84.4628 118.711 86.4214 121.064C88.8949 124.036 91.512 127.475 91.321 131.271C91.1426 127.791 88.7199 124.626 86.4214 121.865C84.4628 119.512 82.5042 117.159 80.5456 114.806C79.8746 114.105 79.3589 113.271 79.0323 112.357C78.8866 111.717 78.8343 111.06 78.877 110.405C78.8823 110.794 78.9345 111.18 79.0323 111.556Z" fill="black"/>
<path opacity="0.1" d="M94.3748 130.077C94.47 129.767 94.529 129.448 94.5505 129.125C94.6013 129.715 94.5417 130.309 94.3748 130.878C93.9698 132.169 92.5035 133.235 91.2686 132.681C91.3019 132.423 91.3223 132.163 91.3295 131.902C92.5513 132.396 93.9764 131.347 94.3748 130.077Z" fill="black"/>
</g>
<path opacity="0.1" d="M152.915 379.585C152.915 379.585 150.911 384.395 143.646 380.156L152.915 379.585Z" fill="black"/>
<path opacity="0.1" d="M97.3049 379.585C97.3049 379.585 91.1528 389.926 83.4025 382.976L97.3049 379.585Z" fill="black"/>
<path opacity="0.1" d="M78.7683 299.646C78.7683 299.646 83.2506 302.294 83.3962 303.809C83.5419 305.323 81.0823 302.707 81.0823 302.707L78.7683 299.646Z" fill="black"/>
<path opacity="0.1" d="M77.6097 318.183C79.1807 319.524 81.134 320.306 83.1757 320.41C86.5518 320.561 86.2708 325.077 84.0627 323.722C81.8546 322.367 77.6097 318.183 77.6097 318.183Z" fill="black"/>
<path opacity="0.1" d="M76.4512 322.817C76.4512 322.817 79.6477 329.781 82.2439 328.438L76.4512 322.817Z" fill="black"/>
<path d="M29.6296 311.658C31.3156 312.302 33.1209 312.526 34.9032 312.312C36.6856 312.098 38.3962 311.452 39.9003 310.425C41.4044 309.398 42.6608 308.019 43.5706 306.395C44.4804 304.771 45.0186 302.948 45.1429 301.068C45.2672 299.189 44.9741 297.305 44.2867 295.565C43.5993 293.825 42.5365 292.276 41.182 291.041C39.8274 289.805 38.2182 288.917 36.4812 288.447C34.7441 287.976 32.9267 287.936 31.1722 288.328L31.4621 294.589L28.6414 289.224C25.873 290.59 23.7343 293.054 22.6953 296.075C22.3263 297.134 22.1019 298.242 22.029 299.366C21.8509 302.004 22.4966 304.631 23.8681 306.849C25.2397 309.068 27.2623 310.756 29.6296 311.658Z" fill="#FFA667"/>
<path d="M44.9125 381.902C43.973 376.755 48.0439 372.192 52.065 369.227C56.0861 366.261 60.7846 363.347 62.1566 358.313C64.1284 351.079 58.255 344.455 53.6835 338.742C50.2919 334.502 47.3793 329.845 45.0067 324.868C44.0557 322.872 43.1816 320.786 42.9313 318.559C42.5709 315.353 43.5283 312.162 44.493 309.103C47.7064 298.914 51.1421 288.811 54.8002 278.793" stroke="#3F3D56" stroke-miterlimit="10"/>
<path d="M30.0111 310.5C31.7814 311.143 33.677 311.367 35.5484 311.153C37.4198 310.939 39.216 310.293 40.7953 309.266C42.3746 308.24 43.6939 306.86 44.6492 305.236C45.6044 303.613 46.1696 301.789 46.3001 299.91C46.4305 298.03 46.1228 296.146 45.401 294.406C44.6793 292.666 43.5633 291.117 42.1411 289.882C40.7188 288.647 39.0291 287.759 37.2052 287.288C35.3813 286.818 33.4731 286.777 31.6308 287.17L31.9352 293.431L28.9735 288.065C26.0667 289.431 23.821 291.896 22.73 294.917C22.3426 295.975 22.107 297.083 22.0304 298.207C21.8435 300.846 22.5214 303.473 23.9615 305.691C25.4017 307.909 27.5255 309.597 30.0111 310.5V310.5Z" stroke="#3F3D56" stroke-miterlimit="10"/>
<path d="M43.5484 276.38C44.2103 274.463 45.3211 272.751 46.7785 271.403C48.2359 270.054 49.9931 269.113 51.8881 268.665L52.8421 274.618L54.6108 268.366C57.0666 268.404 59.4472 269.261 61.409 270.812C63.3709 272.364 64.8124 274.53 65.5254 276.998C66.2384 279.466 66.1861 282.108 65.376 284.543C64.5658 286.977 63.0398 289.079 61.0182 290.543C58.9967 292.008 56.5842 292.76 54.129 292.691C51.6738 292.622 49.3031 291.735 47.359 290.159C45.415 288.583 43.9982 286.399 43.3133 283.922C42.6283 281.446 42.7107 278.805 43.5484 276.38H43.5484Z" fill="#FFA667"/>
<path d="M43.5832 275.999C44.2781 274.172 45.4445 272.542 46.9748 271.258C48.5051 269.974 50.3501 269.077 52.3398 268.651L53.3415 274.321L55.1986 268.366C57.7772 268.402 60.2769 269.218 62.3368 270.696C64.3967 272.174 65.9103 274.237 66.659 276.587C67.4077 278.937 67.3527 281.454 66.5021 283.772C65.6514 286.091 64.0491 288.092 61.9265 289.487C59.8038 290.882 57.2707 291.598 54.6928 291.532C52.1148 291.467 49.6256 290.622 47.5843 289.121C45.543 287.62 44.0554 285.54 43.3362 283.182C42.6171 280.823 42.7035 278.308 43.5832 275.999H43.5832Z" stroke="#3F3D56" stroke-miterlimit="10"/>
<path d="M52.0335 339.501C54.8409 340.471 57.925 340.423 60.6978 339.366C63.4705 338.31 65.7382 336.318 67.0684 333.771C68.3987 331.224 68.6985 328.3 67.9108 325.556C67.1231 322.812 65.303 320.44 62.7973 318.893L61.3707 323.468L60.3591 317.732C60.3491 317.728 60.3387 317.724 60.3281 317.721C58.8265 317.201 57.2321 316.968 55.6359 317.036C54.0398 317.103 52.4732 317.469 51.0257 318.114C49.5782 318.758 48.2781 319.667 47.1998 320.79C46.1215 321.913 45.2861 323.228 44.7412 324.658C44.1964 326.089 43.9528 327.608 44.0244 329.128C44.0961 330.648 44.4815 332.14 45.1587 333.519C45.8359 334.897 46.7916 336.135 47.9712 337.161C49.1508 338.188 50.5312 338.983 52.0334 339.501H52.0335Z" fill="#FFA667"/>
<path d="M52.0335 337.184C54.8409 338.154 57.925 338.106 60.6978 337.049C63.4705 335.992 65.7382 334.001 67.0684 331.454C68.3987 328.907 68.6985 325.983 67.9108 323.239C67.1231 320.495 65.303 318.123 62.7973 316.576L61.3707 321.151L60.3591 315.415C60.3491 315.411 60.3387 315.407 60.3281 315.404C58.8265 314.884 57.2321 314.651 55.6359 314.719C54.0398 314.786 52.4732 315.152 51.0257 315.796C49.5782 316.441 48.2781 317.35 47.1998 318.473C46.1215 319.596 45.2861 320.91 44.7412 322.341C44.1964 323.772 43.9528 325.291 44.0244 326.811C44.0961 328.331 44.4815 329.823 45.1587 331.202C45.8359 332.58 46.7916 333.818 47.9712 334.844C49.1508 335.871 50.5312 336.666 52.0334 337.184H52.0335Z" stroke="#3F3D56" stroke-miterlimit="10"/>
<path d="M38.4064 359.578C38.8894 362.196 40.3027 364.576 42.4093 366.319C44.5158 368.062 47.1876 369.062 49.9764 369.152C52.7652 369.241 55.5016 368.415 57.7265 366.811C59.9514 365.207 61.5296 362.922 62.1964 360.342C62.8632 357.761 62.578 355.04 61.3887 352.635C60.1994 350.231 58.1784 348.289 55.6644 347.136C53.1505 345.982 50.2966 345.687 47.5814 346.3C44.8662 346.913 42.4547 348.396 40.7515 350.502L46.1734 358.275L38.765 354.149C38.1906 355.905 38.0676 357.767 38.4064 359.578Z" fill="#FFA667"/>
<path d="M39.5561 356.782C40.0161 359.531 41.3621 362.03 43.3683 363.86C45.3746 365.691 47.9191 366.741 50.5751 366.835C53.2312 366.929 55.8372 366.061 57.9561 364.376C60.0751 362.692 61.5781 360.294 62.2132 357.584C62.8482 354.874 62.5767 352.017 61.444 349.492C60.3114 346.968 58.3865 344.929 55.9923 343.718C53.5981 342.506 50.8801 342.197 48.2942 342.84C45.7082 343.483 43.4116 345.041 41.7895 347.252L46.9532 355.413L39.8976 351.081C39.3506 352.926 39.2334 354.881 39.5561 356.782V356.782Z" stroke="#3F3D56" stroke-miterlimit="10"/>
<path d="M27.7927 389.637C27.7927 389.637 38.3787 385.267 41.569 382.874C44.7593 380.481 57.8529 377.624 58.6443 381.462C59.4357 385.299 74.553 400.549 62.6015 400.65C50.65 400.752 34.8316 402.716 31.6474 400.673C28.4632 398.63 27.7927 389.637 27.7927 389.637Z" fill="#13263D"/>
<path opacity="0.2" d="M62.8173 399.389C50.8649 399.487 35.0454 401.387 31.861 399.41C29.4359 397.905 28.4695 392.504 28.1461 390.012C27.9222 390.022 27.7927 390.026 27.7927 390.026C27.7927 390.026 28.4633 398.726 31.6477 400.703C34.8321 402.679 50.6517 400.779 62.604 400.681C66.0541 400.653 67.2459 399.402 67.1804 397.549C66.7011 398.669 65.3853 399.368 62.8173 399.389Z" fill="black"/>
<path d="M50.9634 398.122H206.207" stroke="#3F3D56" stroke-miterlimit="10"/>
</svg>
