<svg width="677" height="355" viewBox="0 0 677 355" fill="none" xmlns="http://www.w3.org/2000/svg">
<path d="M0 0H677V334.5L0 227V0Z" fill="url(#paint0_linear)"/>
<path d="M148.258 85.1477C137.796 97.4154 135.149 112.967 135.005 127.878C134.903 138.392 136.338 149.797 145.1 157.551C156.634 167.754 178.778 169.764 184.492 182.801C189.56 194.386 177.768 206.04 166.441 214.216C155.114 222.392 142.107 232.403 144.223 244.577C145.564 252.351 152.919 258.453 160.255 263.576C174.202 273.337 189.879 281.876 207.552 286.03C239.616 293.558 274.249 285.765 304.294 273.965C322.789 266.703 344.262 257.789 362.629 265.259C367.478 267.23 371.594 270.209 376.065 272.677C389.065 279.81 404.941 282.438 420.392 284.667C443.038 287.947 466.839 290.684 488.659 284.769C510.48 278.854 529.337 261.553 525.997 243.101C522.848 225.719 502.797 214.388 486.819 202.515C481.183 198.325 475.445 192.773 476.849 186.678C477.963 181.845 483.21 178.479 487.887 175.355C512.506 158.824 530.6 136.003 538.918 110.979C542.848 99.1724 544.266 85.5694 535.5 75.6131C528.429 67.5817 516.311 63.7241 504.785 60.5498C483.397 54.6581 461.475 49.6799 438.981 48.3368C416.486 46.9937 393.247 49.555 373.278 58.0549C363.701 62.135 355.021 67.5075 345.35 71.4354C317.893 82.5864 285.541 81.0871 254.919 79.3262C243.978 78.6976 232.541 77.5809 223.042 72.7941C214.857 68.6632 210.179 65.7037 200.045 65.243C180.181 64.341 159.632 71.7868 148.258 85.1477Z" fill="white" fill-opacity="0.3"/>
<path d="M302 160.817L301.571 161.704L298.788 167.429L269.603 227.437L220.079 348.945L213 349L262.552 227.437L296.318 158L298.788 159.223L301.571 160.602L302 160.817Z" fill="#535461"/>
<path d="M388 349L382.224 348.945L333.12 227.437L304.946 169.004L301.429 161.704L301 160.817L301.429 160.602L304.946 158.844L306.637 158L339.612 227.437L388 349Z" fill="#535461"/>
<path d="M305 142H298V349H305V142Z" fill="#535461"/>
<path d="M300.998 108C298.878 108.002 296.845 108.844 295.346 110.341C293.847 111.837 293.004 113.867 293.002 115.984V118.837C292.978 119.9 293.168 120.958 293.559 121.947C293.951 122.936 294.536 123.838 295.281 124.598C296.026 125.358 296.916 125.963 297.898 126.375C298.88 126.788 299.935 127 301 127C302.065 127 303.12 126.788 304.102 126.375C305.084 125.963 305.974 125.358 306.719 124.598C307.464 123.838 308.049 122.936 308.441 121.947C308.832 120.958 309.022 119.9 308.998 118.837V115.984C308.995 113.866 308.151 111.837 306.651 110.34C305.152 108.844 303.118 108.002 300.998 108ZM306.996 118.825C306.996 120.415 306.364 121.939 305.238 123.063C304.113 124.186 302.586 124.818 300.994 124.818C299.402 124.818 297.876 124.186 296.75 123.063C295.625 121.939 294.992 120.415 294.992 118.825V115.972C294.992 114.383 295.625 112.858 296.75 111.735C297.876 110.611 299.402 109.979 300.994 109.979C302.586 109.979 304.113 110.611 305.238 111.735C306.364 112.858 306.996 114.383 306.996 115.972V118.825Z" fill="#535461"/>
<path opacity="0.1" d="M340 228H333.412L304.824 169.402V228H298.456V167.823L269.094 228H262L295.971 158.368L298.456 159.594V142H304.824V159.214L306.539 158.368L340 228Z" fill="black"/>
<path opacity="0.1" d="M308.998 116V118.632C309.022 119.722 308.832 120.806 308.441 121.82C308.049 122.834 307.464 123.758 306.719 124.538C305.974 125.317 305.084 125.937 304.102 126.359C303.12 126.782 302.065 127 301 127C299.935 127 298.88 126.782 297.898 126.359C296.916 125.937 296.026 125.317 295.281 124.538C294.536 123.758 293.951 122.834 293.559 121.82C293.168 120.806 292.978 119.722 293.002 118.632V116H295V118.632C295 120.261 295.632 121.823 296.758 122.976C297.884 124.128 299.41 124.775 301.002 124.775C302.594 124.775 304.12 124.128 305.246 122.976C306.372 121.823 307.004 120.261 307.004 118.632V116H308.998Z" fill="black"/>
<path d="M423 117H179V227H423V117Z" fill="#535461"/>
<path d="M418 120H183V221H418V120Z" fill="white"/>
<g opacity="0.2">
<path opacity="0.2" d="M217.7 131.187H206.627V136.234H217.7V131.187Z" fill="#6C63FF"/>
</g>
<g opacity="0.2">
<path opacity="0.2" d="M217.7 140.95H206.627V145.997H217.7V140.95Z" fill="#6C63FF"/>
</g>
<g opacity="0.2">
<path opacity="0.2" d="M217.7 150.709H206.627V155.756H217.7V150.709Z" fill="#6C63FF"/>
</g>
<g opacity="0.2">
<path opacity="0.2" d="M217.7 160.468H206.627V165.515H217.7V160.468Z" fill="#6C63FF"/>
</g>
<g opacity="0.2">
<path opacity="0.2" d="M217.7 170.231H206.627V175.278H217.7V170.231Z" fill="#6C63FF"/>
</g>
<g opacity="0.2">
<path opacity="0.2" d="M217.7 179.99H206.627V185.038H217.7V179.99Z" fill="#6C63FF"/>
</g>
<g opacity="0.2">
<path opacity="0.2" d="M217.7 189.749H206.627V194.797H217.7V189.749Z" fill="#6C63FF"/>
</g>
<g opacity="0.2">
<path opacity="0.2" d="M217.7 199.508H206.627V204.556H217.7V199.508Z" fill="#6C63FF"/>
</g>
<g opacity="0.2">
<path opacity="0.2" d="M238.546 204.56H227.474V209.607H238.546V204.56Z" fill="#6C63FF"/>
</g>
<g opacity="0.2">
<path opacity="0.2" d="M258.05 204.56H246.978V209.607H258.05V204.56Z" fill="#6C63FF"/>
</g>
<g opacity="0.2">
<path opacity="0.2" d="M277.551 204.56H266.479V209.607H277.551V204.56Z" fill="#6C63FF"/>
</g>
<g opacity="0.2">
<path opacity="0.2" d="M297.055 204.56H285.983V209.607H297.055V204.56Z" fill="#6C63FF"/>
</g>
<g opacity="0.2">
<path opacity="0.2" d="M316.556 204.56H305.484V209.607H316.556V204.56Z" fill="#6C63FF"/>
</g>
<g opacity="0.2">
<path opacity="0.2" d="M336.061 204.56H324.988V209.607H336.061V204.56Z" fill="#6C63FF"/>
</g>
<g opacity="0.2">
<path opacity="0.2" d="M355.561 204.56H344.489V209.607H355.561V204.56Z" fill="#6C63FF"/>
</g>
<g opacity="0.2">
<path opacity="0.2" d="M375.066 204.56H363.993V209.607H375.066V204.56Z" fill="#6C63FF"/>
</g>
<g opacity="0.2">
<path opacity="0.2" d="M394.566 204.56H383.494V209.607H394.566V204.56Z" fill="#6C63FF"/>
</g>
<path d="M239 168H227V200H239V168Z" fill="#F47920"/>
<path d="M258 153H247V200H258V153Z" fill="#F47920"/>
<path d="M278 141H266V200H278V141Z" fill="#F47920"/>
<path d="M297 147H286V200H297V147Z" fill="#F47920"/>
<path d="M317 136H305V200H317V136Z" fill="#F47920"/>
<g opacity="0.2">
<path opacity="0.2" d="M336.061 160.468H324.988V199.508H336.061V160.468Z" fill="#6C63FF"/>
</g>
<g opacity="0.2">
<path opacity="0.2" d="M355.561 160.468H344.489V199.508H355.561V160.468Z" fill="#6C63FF"/>
</g>
<g opacity="0.2">
<path opacity="0.2" d="M375.066 160.468H363.993V199.508H375.066V160.468Z" fill="#6C63FF"/>
</g>
<g opacity="0.2">
<path opacity="0.2" d="M394.566 160.468H383.494V199.508H394.566V160.468Z" fill="#6C63FF"/>
</g>
<path d="M381.976 160L287 166.075V168L384 164L381.976 160Z" fill="#535461"/>
<path d="M494.13 199.136C494.13 199.136 499.097 190.954 497.777 178.118C496.457 165.282 491.682 144.507 491.682 144.507C491.682 144.507 493.755 132.868 482.51 131.233C482.51 131.233 475.52 129.931 470.522 126.782C468.664 125.609 467.082 124.189 466.227 122.48C466.227 122.48 466.161 122.672 466.032 123.024C465.922 122.848 465.82 122.667 465.728 122.48C465.728 122.48 465.7 122.551 465.657 122.676L463.748 119.696C463.748 119.696 463.486 119.973 463.045 120.431C462.277 119.327 461.623 118.148 461.093 116.911C461.567 116.796 462.033 116.647 462.487 116.465C462.92 116.322 463.311 116.072 463.623 115.738C463.897 115.357 464.073 114.916 464.138 114.451C464.443 112.965 464.529 111.442 464.396 109.93C464.291 108.757 464.052 107.583 464.134 106.391C464.22 105.12 464.669 103.891 464.732 102.616C464.841 100.372 463.728 98.2362 462.354 96.4567C461.534 95.3968 460.612 94.4112 459.902 93.277C459.285 92.2915 458.836 91.2042 458.172 90.246C456.61 88.0168 454.006 86.7027 451.335 86.2373C448.664 85.7719 445.915 86.0613 443.241 86.5032C440.898 86.8943 438.555 87.4614 436.212 87.5983C434.166 87.7156 432.499 87.0234 430.625 88.3805C430.004 88.8389 429.488 89.4251 429.113 90.0997C428.737 90.7743 428.509 91.5216 428.446 92.2915C428.415 92.5536 428.435 92.8191 428.504 93.0737C428.615 93.3375 428.746 93.5924 428.895 93.8363C429.727 95.4789 428.462 97.4305 428.626 99.2648C428.725 100.076 429.096 100.829 429.677 101.403C430.259 101.977 431.016 102.337 431.827 102.425C431.753 102.581 431.671 102.734 431.601 102.894C430.564 105.241 430.097 107.8 430.24 110.363C430.382 112.925 431.13 115.417 432.421 117.634C433.712 119.851 435.509 121.729 437.666 123.115C439.822 124.501 442.276 125.354 444.826 125.605L445.552 126.165C447.192 127.436 449.035 128.957 450.812 130.611L450.777 130.639L450.488 130.474C449.947 130.903 449.378 131.295 448.785 131.648C447.141 132.657 444.49 133.967 441.507 134.116C441.507 134.116 436.165 136.951 434.326 146.302C431.687 148.672 426.037 152.951 418.571 154.065C408.079 155.63 395.143 156.142 395.143 156.142C395.143 156.142 395.038 156.33 394.889 156.674L393.695 156.455C393.695 156.455 393.695 156.6 393.644 156.846L393.175 156.635C389.47 155.012 382.066 152.646 381.129 159.165C379.872 167.91 388.197 166.905 388.197 166.905C389.843 166.279 391.53 165.765 393.245 165.368L393.71 165.278C393.789 165.506 393.899 165.722 394.038 165.92H395.17C395.564 166.735 396.039 167.508 396.588 168.227L422.975 167.648C422.975 167.648 427.485 166.663 431.648 167.289C429.832 180.883 427.688 195.792 427.688 195.792C427.688 195.792 423.198 219.402 426.341 221.87C428.166 221.261 430.025 220.762 431.909 220.376C431.938 221.835 432.092 223.289 432.37 224.721L434.381 237.905C434.381 237.905 435.162 251.375 437.774 259.416L440.078 270.406L442.007 278.713L443.092 292.812C444.583 298.784 445.661 304.853 446.317 310.974C447.337 320.447 452.87 335.754 453.607 337.768C451.718 340.447 447.836 344.992 442.967 345.461C436.017 346.134 435.849 350.331 440.707 351.84C445.564 353.35 455.786 351.84 455.786 351.84L470.202 348.269C469.769 350.933 469.542 353.037 469.859 353.264C470.78 353.936 484.771 357.566 485.274 351.754C485.313 351.274 485.348 350.809 485.38 350.358C485.588 346.635 485.091 342.906 483.915 339.368C483.802 339.02 483.701 338.668 483.611 338.316C483.818 338.084 484.009 337.837 484.181 337.577C484.181 337.577 485.188 321.886 485.942 316.262C486 315.812 486.04 315.265 486.059 314.647C486.407 307.904 483.951 290.168 483.951 290.168C483.951 290.168 480.917 278.63 481.03 273.327C481.047 272.886 481.122 272.45 481.252 272.029C481.252 272.029 481.252 271.923 481.213 271.747C481.213 271.673 481.249 271.595 481.272 271.524C481.272 271.524 479.733 260.964 479.948 254.683C479.978 253.746 480.109 252.815 480.339 251.907C480.583 250.714 480.707 249.499 480.71 248.281C480.905 243.979 480.678 236.548 480.366 229.579C480.401 229.461 480.436 229.344 480.464 229.207C480.527 228.652 480.461 228.09 480.272 227.565C480.249 227.115 480.229 226.669 480.206 226.227C480.335 225.785 480.44 225.316 480.534 224.831H480.737V224.858C480.737 224.858 493.864 224.229 496.883 220.705C496.883 220.705 493.833 211.213 492.142 203.496L494.13 199.136ZM437.559 169.612L437.352 169.537C437.684 168.364 438.079 166.999 438.524 165.568C438.145 167.116 437.817 168.524 437.559 169.612ZM450.882 130.701L450.941 130.756L450.878 130.721L450.882 130.701ZM467.282 334.276C466.575 331.839 463.767 321.905 463.857 317.169C463.877 316.758 463.949 316.35 464.072 315.957C464.332 315.099 464.464 314.206 464.462 313.309C464.744 308.366 462.854 299.507 462.854 299.507C462.854 299.507 458.625 287.559 458.949 278.071C458.949 277.833 458.976 277.594 458.992 277.355C459.062 276.456 459.117 275.482 459.156 274.453V274.434C459.316 270.769 459.281 266.358 459.175 262.243L459.152 262.091C459.008 256.643 458.738 251.738 458.625 249.799C459.015 252.603 461.514 270.058 462.592 272.913C462.592 272.913 463.182 280.965 465.86 287.774L468.797 305.475C468.797 305.475 469.55 326.54 470.804 332.496C471.366 335.148 471.842 336.935 472.198 338.101C471.69 340.475 470.87 344.452 470.319 347.745C469.995 345.598 468.855 337.416 467.285 334.276H467.282Z" fill="url(#paint1_linear)"/>
<path d="M454.973 334.792C454.973 334.792 450.179 343.506 443.436 344.158C436.694 344.809 436.534 348.881 441.244 350.348C445.954 351.815 455.866 350.348 455.866 350.348L470 346.847C470 346.847 468.293 332.834 466.02 332.103C463.747 331.371 454.973 334.792 454.973 334.792Z" fill="#13263D"/>
<path d="M472.775 334.041C472.775 334.041 469.256 350.606 470.143 351.279C471.031 351.952 484.374 355.544 484.855 349.772C484.893 349.286 484.926 348.822 484.957 348.379C485.154 344.666 484.679 340.949 483.558 337.42C483.182 336.24 482.919 334.977 483.017 334.041C483.238 331.699 472.775 334.041 472.775 334.041Z" fill="#13263D"/>
<path d="M468 126.757C468 126.757 457.053 154.024 459.001 145.266C460.29 139.466 451.959 131.76 446.197 127.233C443.265 124.913 441 123.44 441 123.44C441 123.44 461.552 99.1427 460.096 109.625C459.696 112.496 460.084 115.423 461.217 118.085C463.485 123.552 468 126.757 468 126.757Z" fill="#FFA667"/>
<path d="M397 165.281C396.394 165.128 395.406 165.226 394.382 165.442C392.648 165.835 390.943 166.344 389.278 166.965C389.278 166.965 380.86 167.964 382.131 159.286C383.075 152.816 390.561 155.166 394.311 156.771C395.586 157.324 396.43 157.786 396.43 157.786L397 165.281Z" fill="#FFA667"/>
<path opacity="0.1" d="M397 165.833C396.411 165.675 395.449 165.776 394.452 166C393.56 163.642 394.239 158.053 394.382 157C395.623 157.573 396.445 158.053 396.445 158.053L397 165.833Z" fill="black"/>
<path d="M396.383 157.375L394.376 157C394.376 157 393.348 164.125 394.691 166H397L396.383 157.375Z" fill="#CBCDDA"/>
<path d="M440.279 170.505C440.279 170.505 433.744 166.501 432.963 171.555C432.182 176.608 431.153 185.242 431.153 185.242L429.343 196.233L427 218.253L427.329 222C427.329 222 434.289 219.6 435.921 220.444C437.553 221.287 438.883 211.18 438.883 211.18L441.59 200.736L442 178.589L440.279 170.505Z" fill="#13263D"/>
<path opacity="0.1" d="M440.279 170.505C440.279 170.505 433.744 166.501 432.963 171.555C432.182 176.608 431.153 185.242 431.153 185.242L429.343 196.233L427 218.253L427.329 222C427.329 222 434.289 219.6 435.921 220.444C437.553 221.287 438.883 211.18 438.883 211.18L441.59 200.736L442 178.589L440.279 170.505Z" fill="#13263D"/>
<path d="M436 145C436 145 429.245 152.958 418.989 154.56C408.733 156.161 396.078 156.68 396.078 156.68C396.078 156.68 392.885 162.647 397.491 169L423.295 168.405C423.295 168.405 429.006 167.109 433.431 168.405L436 145Z" fill="#13263D"/>
<path opacity="0.05" d="M436 145C436 145 429.245 152.958 418.989 154.56C408.733 156.161 396.078 156.68 396.078 156.68C396.078 156.68 392.885 162.647 397.491 169L423.295 168.405C423.295 168.405 429.006 167.109 433.431 168.405L436 145Z" fill="#13263D"/>
<path opacity="0.1" d="M459.965 117.714C457.493 123.059 453.196 127 446.964 127C446.688 127 446.42 127 446.151 126.981C443.245 124.69 441 123.235 441 123.235C441 123.235 461.37 99.2406 459.927 109.592C459.481 112.761 458.971 115.335 459.965 117.714Z" fill="black"/>
<path d="M463 110.012C462.998 113.176 462.057 116.268 460.298 118.898C458.538 121.528 456.038 123.577 453.114 124.786C450.19 125.995 446.973 126.31 443.87 125.691C440.767 125.072 437.917 123.547 435.681 121.308C433.444 119.07 431.922 116.218 431.306 113.115C430.69 110.011 431.008 106.795 432.22 103.872C433.432 100.949 435.483 98.4509 438.115 96.6938C440.746 94.9367 443.84 93.9993 447.004 94C449.107 93.9959 451.19 94.4074 453.134 95.2108C455.077 96.0142 456.843 97.1937 458.329 98.6815C459.816 100.169 460.994 101.936 461.795 103.881C462.597 105.825 463.006 107.909 463 110.012Z" fill="#FFA667"/>
<path d="M473 208.924C473 208.924 436.561 212.119 435.225 207.499C433.889 202.879 438.943 190.37 438.943 190.37L437.297 172.905L437.237 172.238C437.237 172.238 441.802 153.344 441.635 151.836C441.476 150.477 448.983 134.624 450.526 131.382C450.709 131.007 450.804 130.801 450.804 130.801L451.094 130.967L451.222 131.042L453.007 132.077L460.057 130.418L468.554 126L469.35 174.335L473 208.924Z" fill="#CBCDDA"/>
<path opacity="0.1" d="M453.507 132.082C453.507 132.082 451.118 131.422 450.185 133.856C449.819 134.902 449.387 135.922 448.89 136.91L447.96 142.562L446.257 151.49L445 190.986L445.568 198L448.688 192.348L449.255 155.43V150.838C449.438 146.868 450.318 142.963 451.853 139.309L452.288 138.273L455 134.721L453.507 132.082Z" fill="black"/>
<path d="M453.503 131.083C453.503 131.083 451.112 130.413 450.183 132.883C449.817 133.946 449.383 134.982 448.884 135.984L447.955 141.725L446.253 150.787L445 190.876L445.567 198L448.686 192.244L449.254 154.794V150.121C449.44 146.092 450.319 142.129 451.851 138.419L452.289 137.367L455 133.766L453.503 131.083Z" fill="#13263D"/>
<path opacity="0.1" d="M463.638 121C463.638 121 455.037 129.89 452 130.945C452 130.945 453.519 137.686 455.037 139C455.037 139 464.062 130.029 465.66 129.302L467 126.106L463.638 121Z" fill="black"/>
<path d="M463.638 121C463.638 121 455.037 129.89 452 130.945C452 130.945 453.519 137.686 455.037 139C455.037 139 464.062 130.029 465.66 129.302L467 126.11L463.638 121Z" fill="#CBCDDA"/>
<path opacity="0.1" d="M451 131L450.913 131.236L448.164 138.577L443.246 152.426C443.246 152.426 443.203 152.567 443.116 152.82C442.301 155.341 437.922 169.025 437.059 173L437 172.334C437 172.334 441.541 153.481 441.375 151.976C441.217 150.621 448.686 134.802 450.221 131.567C450.466 131.402 450.656 131.26 450.786 131.154L451 131Z" fill="black"/>
<path d="M451 131L448.199 138.562L443.351 152.376C443.351 152.376 443.308 152.518 443.222 152.769C442.372 155.45 437.524 170.75 437.134 173.548C436.693 176.622 430.596 193.235 430.596 193.235L427.113 222C423.993 219.559 428.424 196.061 428.424 196.061C428.424 196.061 433.401 161.212 434.579 149.617C435.757 138.023 442.111 134.635 442.111 134.635C445.044 134.486 447.688 133.181 449.315 132.179C449.902 131.825 450.465 131.431 451 131Z" fill="#13263D"/>
<path opacity="0.1" d="M485.869 314.855C485.119 320.395 484.118 335.848 484.118 335.848C480.612 341.053 472.845 338.242 472.845 338.242C472.845 338.242 472.012 336.687 470.76 330.802C469.507 324.916 468.757 304.184 468.757 304.184L465.832 286.768C463.161 280.069 462.576 272.135 462.576 272.135C461.398 269.075 458.567 248.989 458.567 248.989C458.567 248.989 459.745 267.007 458.987 276.516C458.23 286.025 462.824 298.819 462.824 298.819C462.824 298.819 465.415 310.808 464.076 314.528C462.737 318.249 467.418 333.62 467.418 333.62C467.025 338.087 453.73 336.267 453.73 336.267C453.73 336.267 447.474 319.648 446.379 309.646C445.722 303.619 444.648 297.644 443.163 291.763L442.079 277.873L440.155 269.662L437.862 258.836C435.27 250.901 434.481 237.633 434.481 237.633L432.475 224.614C431.163 218.176 432.867 210.619 433.998 206.665C434.489 204.951 434.882 203.905 434.882 203.905C436.032 204.713 442.621 205.662 446.029 206.432C447.895 206.857 449.813 207.009 451.723 206.883C460.34 206.205 468.865 204.658 477.164 202.264C477.725 202.097 478.024 202 478.024 202L478.201 203.489L478.617 207.034L479.359 213.328C479.359 213.328 481.613 246.889 480.278 251.426C478.943 255.963 481.197 271.252 481.197 271.252C479.944 274.879 483.867 289.621 483.867 289.621C483.867 289.621 486.623 309.315 485.869 314.855Z" fill="black"/>
<path d="M485.869 314.674C485.119 320.255 484.118 335.823 484.118 335.823C480.612 341.071 472.845 338.235 472.845 338.235C472.845 338.235 472.012 336.669 470.76 330.743C469.507 324.818 468.757 303.923 468.757 303.923L465.832 286.354C463.181 279.606 462.576 271.593 462.576 271.593C461.398 268.511 458.567 248.275 458.567 248.275C458.567 248.275 459.745 266.428 458.987 276.007C458.23 285.587 462.824 298.491 462.824 298.491C462.824 298.491 465.415 310.57 464.076 314.318C462.737 318.066 467.418 333.555 467.418 333.555C467.025 338.051 453.73 336.218 453.73 336.218C453.73 336.218 447.474 319.495 446.379 309.414C445.722 303.343 444.648 297.323 443.163 291.399L442.079 277.409L440.155 269.165L437.862 258.258C435.27 250.261 434.481 236.894 434.481 236.894L432.475 223.778C431.163 217.292 432.867 209.679 433.998 205.696C434.489 203.973 434.882 202.919 434.882 202.919C436.032 203.734 442.621 204.685 446.029 205.461C447.894 205.892 449.813 206.045 451.723 205.915C460.34 205.233 468.865 203.674 477.164 201.262L478.024 201L478.201 202.496L478.617 206.072L479.359 212.412C479.359 212.412 481.613 246.219 480.278 250.793C478.943 255.368 481.197 270.767 481.197 270.767C479.944 274.417 483.867 289.268 483.867 289.268C483.867 289.268 486.623 309.085 485.869 314.674Z" fill="#023E88"/>
<path opacity="0.1" d="M462.984 110.576C462.989 113.476 462.25 116.326 460.84 118.841C458.317 119.297 455.633 118.792 453.745 117.085C452.453 115.919 451.617 114.325 450.505 112.973C449.786 112.143 449.013 111.362 448.192 110.637C447.656 110.09 447.04 109.631 446.367 109.277C446.028 109.102 445.655 109.009 445.276 109.004C444.897 109 444.521 109.085 444.179 109.253C443.288 109.761 442.997 110.895 442.48 111.799C442.092 112.575 441.428 113.169 440.624 113.458C440.222 113.589 439.79 113.585 439.39 113.447C438.991 113.308 438.646 113.041 438.405 112.687C437.857 111.722 438.259 110.217 437.341 109.628C437.099 109.506 436.848 109.4 436.592 109.313C435.409 108.764 435.271 107.138 435.169 105.807C435.118 105.153 434.98 104.414 434.444 104.063C433.908 103.712 433.202 103.89 432.564 103.902C432.375 103.909 432.186 103.895 432 103.857C433.505 100.384 436.13 97.5444 439.436 95.8154C442.742 94.0864 446.527 93.5724 450.159 94.3595C453.79 95.1466 457.047 97.187 459.385 100.139C461.723 103.091 462.999 106.776 463 110.576H462.984Z" fill="black"/>
<path d="M431.172 89.3888C430.556 89.8452 430.044 90.4289 429.672 91.1007C429.299 91.7724 429.075 92.5165 429.013 93.2827C428.984 93.5387 429.004 93.7981 429.072 94.0466C429.181 94.3103 429.311 94.5645 429.462 94.8066C430.282 96.4401 429.029 98.3753 429.189 100.197C429.298 101.058 429.714 101.849 430.36 102.426C431.006 103.002 431.838 103.324 432.703 103.331C433.335 103.331 434.03 103.143 434.565 103.488C435.1 103.832 435.232 104.545 435.283 105.18C435.385 106.473 435.513 108.051 436.689 108.584C436.942 108.671 437.19 108.773 437.43 108.89C438.344 109.462 437.946 110.927 438.488 111.859C438.727 112.203 439.069 112.462 439.464 112.597C439.86 112.731 440.288 112.735 440.686 112.607C441.481 112.328 442.138 111.753 442.521 111.001C443.025 110.12 443.325 109.042 444.208 108.529C444.546 108.365 444.917 108.282 445.293 108.285C445.669 108.288 446.039 108.379 446.374 108.549C447.041 108.894 447.651 109.341 448.182 109.873C448.996 110.576 449.762 111.334 450.474 112.141C451.574 113.45 452.402 114.997 453.683 116.129C456.095 118.256 459.788 118.48 462.763 117.253C463.193 117.11 463.58 116.862 463.892 116.533C464.163 116.154 464.339 115.714 464.403 115.252C464.705 113.777 464.792 112.266 464.661 110.766C464.555 109.591 464.317 108.416 464.399 107.24C464.481 105.979 464.93 104.761 464.993 103.499C465.102 101.266 463.997 99.1471 462.65 97.3803C461.838 96.3265 460.925 95.3511 460.222 94.2229C459.609 93.2435 459.164 92.1662 458.508 91.2182C456.97 89.0049 454.378 87.6925 451.731 87.2342C449.084 86.7759 446.363 87.0579 443.712 87.5006C441.401 87.8923 439.074 88.4486 436.731 88.5857C434.682 88.7307 433.03 88.0373 431.172 89.3888Z" fill="#472727"/>
<path opacity="0.1" d="M451 131L448.119 138.635L443.132 152.583C443.132 152.583 443.088 152.726 443 152.98V153L449.275 132.183C449.876 131.827 450.452 131.432 451 131Z" fill="black"/>
<path d="M480.989 217.585C480.989 217.585 481.288 226.708 478.752 229L472 216.668L477.664 214L480.989 217.585Z" fill="#FFB9B9"/>
<path opacity="0.1" d="M496 220.861C493.011 224.371 480 225 480 225L467.121 204.558C467.121 204.558 464.073 202.428 458.348 192.832C452.623 183.236 452.811 175.846 453.131 170.326C453.451 164.807 457.033 148.945 457.033 148.945C457.591 145.376 465.619 123 465.619 123C466.462 124.694 468.03 126.109 469.865 127.277C474.821 130.422 481.74 131.711 481.74 131.711C492.886 133.343 490.829 144.939 490.829 144.939C490.829 144.939 490.954 190.017 490.267 195.411C489.58 200.804 496 220.861 496 220.861Z" fill="black"/>
<path d="M481 218.922L480.635 222L476.23 220.463L473 215.808L475.425 214L481 218.922Z" fill="#CBCDDA"/>
<path opacity="0.1" d="M481 206.017L478.62 206.283L455.676 208.796C451.991 209.202 448.272 209.001 444.642 208.202L434 205.87C434.491 203.977 434.884 202.82 434.884 202.82C436.034 203.715 442.623 204.76 446.032 205.612C447.897 206.085 449.816 206.254 451.726 206.111C460.343 205.362 468.868 203.649 477.167 201L478.204 202.355L481 206.017Z" fill="black"/>
<g opacity="0.1">
<path opacity="0.1" d="M435.478 203.256C435.403 203.219 435.33 203.177 435.26 203.131C435.26 203.131 435.26 203.155 435.236 203.19L435.478 203.256Z" fill="black"/>
<path opacity="0.1" d="M483.914 289.207C483.914 289.207 480.013 274.404 481.262 270.766C481.262 270.766 479.023 255.424 480.353 250.857C481.683 246.29 479.436 212.601 479.436 212.601L478.699 206.281L478.286 202.717L478.114 201.226L477.256 201.488L476.726 201.644L476.792 202.222L477.205 205.782L477.943 212.102C477.943 212.102 480.181 245.802 478.859 250.357C477.537 254.913 479.768 270.266 479.768 270.266C478.524 273.908 482.42 288.707 482.42 288.707C482.42 288.707 485.15 308.467 484.413 314.026C483.676 319.585 482.669 335.106 482.669 335.106C480.127 338.927 475.326 338.451 472.919 337.916L472.962 338.01C472.962 338.01 480.677 340.836 484.159 335.605C484.159 335.605 485.154 320.081 485.903 314.526C486.651 308.971 483.914 289.207 483.914 289.207Z" fill="black"/>
<path opacity="0.1" d="M464.261 314.194C465.587 310.458 463.017 298.419 463.017 298.419C463.017 298.419 458.458 285.537 459.203 276.008C459.515 272.031 459.495 266.573 459.363 261.565C458.306 255.104 457.292 247.902 457.292 247.902C457.292 247.902 458.462 265.996 457.713 275.54C456.964 285.084 461.523 297.955 461.523 297.955C461.523 297.955 464.097 309.99 462.767 313.726C461.438 317.461 466.079 332.881 466.079 332.881C465.747 336.472 457.225 336.004 453.844 335.691L453.973 336.035C453.973 336.035 467.159 337.862 467.572 333.38C467.58 333.369 462.935 317.93 464.261 314.194Z" fill="black"/>
</g>
<path d="M497 220.861C494.015 224.371 481.001 225 481.001 225L468.123 204.558C468.123 204.558 465.075 202.428 459.347 192.832C453.618 183.236 453.813 175.846 454.129 170.326C454.446 164.807 458.032 148.945 458.032 148.945C458.59 145.376 466.617 123 466.617 123C467.456 124.694 469.024 126.109 470.862 127.277C475.818 130.422 482.737 131.711 482.737 131.711C493.878 133.343 491.822 144.939 491.822 144.939C491.822 144.939 491.947 190.017 491.26 195.411C490.573 200.804 497 220.861 497 220.861Z" fill="#13263D"/>
<path opacity="0.1" d="M469.105 134.029L466.258 135.071L468.153 136.379L454 170C454.329 164.534 457.965 148.766 457.965 148.766C458.531 145.221 466.687 123 466.687 123C467.539 124.683 469.133 126.088 471 127.248L469.105 134.029Z" fill="black"/>
<path opacity="0.1" d="M472 194.539L486.145 191L488 196.578L473.545 200L472 194.539Z" fill="black"/>
<path opacity="0.1" d="M480.12 136.822C480.12 136.822 473.724 142.872 476.137 156.357C478.551 169.841 482.411 184.481 482.411 184.481L472 213.473C472 213.473 479.257 221.078 482.823 222L493.215 198.818C493.215 198.818 498.073 190.783 496.782 178.175C495.49 165.566 490.817 145.163 490.817 145.163C490.817 145.163 490.82 132.744 480.12 136.822Z" fill="black"/>
<path d="M481.13 136.822C481.13 136.822 474.734 142.872 477.138 156.357C479.542 169.841 483.403 184.481 483.403 184.481L473 213.473C473 213.473 480.251 221.078 483.815 222L494.218 198.818C494.218 198.818 499.072 190.783 497.782 178.175C496.491 165.566 491.821 145.163 491.821 145.163C491.821 145.163 491.821 132.744 481.13 136.822Z" fill="#13263D"/>
<path opacity="0.1" d="M472.542 214.052C472.542 214.052 480.574 225.919 479.967 229.079C479.361 232.239 477.006 230.549 477.006 230.549L473.843 225.919L471 217.257C471 217.257 471.279 213.519 472.542 214.052Z" fill="black"/>
<path opacity="0.1" d="M471.542 214.052C471.542 214.052 479.557 225.919 478.969 229.079C478.381 232.239 476.007 230.549 476.007 230.549L472.84 225.919L470 217.257C470 217.257 470.279 213.519 471.542 214.052Z" fill="black"/>
<path d="M472.543 214.052C472.543 214.052 480.561 225.919 479.969 229.079C479.377 232.239 477.006 230.549 477.006 230.549L473.841 225.919L471 217.257C471 217.257 471.275 213.519 472.543 214.052Z" fill="#023E88"/>
<defs>
<linearGradient id="paint0_linear" x1="165.875" y1="15.7314" x2="377.91" y2="353.835" gradientUnits="userSpaceOnUse">
<stop offset="0.237423" stop-color="#023E88"/>
<stop offset="1" stop-color="#0256BD"/>
</linearGradient>
<linearGradient id="paint1_linear" x1="439.488" y1="355.02" x2="439.488" y2="85.9948" gradientUnits="userSpaceOnUse">
<stop stop-color="#808080" stop-opacity="0.25"/>
<stop offset="0.54" stop-color="#808080" stop-opacity="0.12"/>
<stop offset="1" stop-color="#808080" stop-opacity="0.1"/>
</linearGradient>
</defs>
</svg>
