<svg width="677" height="339" viewBox="0 0 677 339" fill="none" xmlns="http://www.w3.org/2000/svg">
<path d="M0 0H677V334.5L0 227V0Z" fill="url(#paint0_linear)"/>
<path d="M148.258 85.1477C137.796 97.4154 135.149 112.967 135.005 127.878C134.903 138.392 136.338 149.797 145.1 157.551C156.634 167.754 178.778 169.764 184.492 182.801C189.56 194.386 177.768 206.04 166.441 214.216C155.114 222.392 142.107 232.403 144.223 244.577C145.564 252.351 152.919 258.453 160.255 263.576C174.202 273.337 189.879 281.876 207.552 286.03C239.616 293.558 274.249 285.765 304.294 273.965C322.789 266.703 344.262 257.789 362.629 265.259C367.478 267.23 371.594 270.209 376.065 272.677C389.065 279.81 404.941 282.438 420.392 284.667C443.038 287.947 466.839 290.684 488.659 284.769C510.48 278.854 529.337 261.553 525.997 243.101C522.848 225.719 502.797 214.388 486.819 202.515C481.183 198.325 475.445 192.773 476.849 186.678C477.963 181.845 483.21 178.479 487.887 175.355C512.506 158.824 530.6 136.003 538.918 110.979C542.848 99.1724 544.266 85.5694 535.5 75.6131C528.429 67.5817 516.311 63.7241 504.785 60.5498C483.397 54.6581 461.475 49.6799 438.981 48.3368C416.486 46.9937 393.247 49.555 373.278 58.0549C363.701 62.135 355.021 67.5075 345.35 71.4354C317.893 82.5864 285.541 81.0871 254.919 79.3262C243.978 78.6976 232.541 77.5809 223.042 72.7941C214.857 68.6632 210.179 65.7037 200.045 65.243C180.181 64.341 159.632 71.7868 148.258 85.1477Z" fill="white" fill-opacity="0.3"/>
<g opacity="0.2">
<path opacity="0.2" d="M226.7 131.187H215.627V136.234H226.7V131.187Z" fill="#6C63FF"/>
</g>
<g opacity="0.2">
<path opacity="0.2" d="M226.7 140.95H215.627V145.997H226.7V140.95Z" fill="#6C63FF"/>
</g>
<g opacity="0.2">
<path opacity="0.2" d="M226.7 150.709H215.627V155.756H226.7V150.709Z" fill="#6C63FF"/>
</g>
<g opacity="0.2">
<path opacity="0.2" d="M226.7 160.468H215.627V165.515H226.7V160.468Z" fill="#6C63FF"/>
</g>
<g opacity="0.2">
<path opacity="0.2" d="M226.7 170.231H215.627V175.278H226.7V170.231Z" fill="#6C63FF"/>
</g>
<g opacity="0.2">
<path opacity="0.2" d="M226.7 179.99H215.627V185.038H226.7V179.99Z" fill="#6C63FF"/>
</g>
<g opacity="0.2">
<path opacity="0.2" d="M226.7 189.749H215.627V194.797H226.7V189.749Z" fill="#6C63FF"/>
</g>
<g opacity="0.2">
<path opacity="0.2" d="M226.7 199.508H215.627V204.556H226.7V199.508Z" fill="#6C63FF"/>
</g>
<g opacity="0.2">
<path opacity="0.2" d="M247.546 204.56H236.474V209.607H247.546V204.56Z" fill="#6C63FF"/>
</g>
<g opacity="0.2">
<path opacity="0.2" d="M267.05 204.56H255.978V209.607H267.05V204.56Z" fill="#6C63FF"/>
</g>
<g opacity="0.2">
<path opacity="0.2" d="M286.551 204.56H275.479V209.607H286.551V204.56Z" fill="#6C63FF"/>
</g>
<path d="M200.066 65.6727C194.746 65.6787 189.646 67.8029 185.884 71.5792C182.122 75.3555 180.006 80.4755 180 85.8159V317.878C180.006 323.218 182.122 328.338 185.884 332.115C189.646 335.891 194.746 338.015 200.066 338.021H369.652C374.972 338.015 380.072 335.891 383.834 332.115C387.596 328.338 389.712 323.218 389.718 317.878V85.8159C389.712 80.4755 387.596 75.3555 383.834 71.5793C380.072 67.803 374.972 65.6788 369.652 65.6727H200.066Z" fill="#3F3D56"/>
<path d="M380.228 79.9069H190.438V322.838H380.228V79.9069Z" fill="white"/>
<path d="M354.607 122.61H215.111V132.099H354.607V122.61Z" fill="#F47920"/>
<path d="M354.607 148.231H215.111V156.772H354.607V148.231Z" fill="#F47920"/>
<path d="M354.607 172.904H215.111V181.444H354.607V172.904Z" fill="#F47920"/>
<path d="M354.607 197.577H215.111V206.117H354.607V197.577Z" fill="#F47920"/>
<path d="M354.607 221.3H215.111V229.841H354.607V221.3Z" fill="#F47920"/>
<path d="M354.607 245.973H215.111V254.514H354.607V245.973Z" fill="#F47920"/>
<path d="M354.607 270.646H215.111V279.186H354.607V270.646Z" fill="#F47920"/>
<path d="M356.999 64.3483L218.354 89.7206L250.976 267.978L389.62 242.606L356.999 64.3483Z" fill="#E6E6E6"/>
<path d="M344.721 99.617L242.326 118.356L243.557 125.082L345.952 106.344L344.721 99.617Z" fill="#F47920"/>
<path d="M348.004 117.555L245.609 136.293L246.84 143.02L349.235 124.281L348.004 117.555Z" fill="#F47920"/>
<path d="M351.286 135.493L248.891 154.231L250.122 160.958L352.517 142.219L351.286 135.493Z" fill="#F47920"/>
<path d="M354.569 153.431L252.174 172.169L253.405 178.896L355.8 160.157L354.569 153.431Z" fill="#F47920"/>
<path d="M357.85 171.368L255.455 190.107L256.686 196.833L359.081 178.095L357.85 171.368Z" fill="#F47920"/>
<path d="M361.134 189.306L258.739 208.045L259.97 214.772L362.365 196.033L361.134 189.306Z" fill="#F47920"/>
<path d="M364.417 207.244L262.021 225.983L263.252 232.709L365.648 213.971L364.417 207.244Z" fill="#F47920"/>
<path d="M439.232 248.957L400.002 256.136L409.232 306.574L448.462 299.395L439.232 248.957Z" fill="#E6E6E6"/>
<path d="M435.758 258.936L406.785 264.238L407.133 266.142L436.106 260.839L435.758 258.936Z" fill="white"/>
<path d="M436.687 264.012L407.713 269.314L408.062 271.217L437.035 265.915L436.687 264.012Z" fill="white"/>
<path d="M437.616 269.087L408.642 274.389L408.991 276.293L437.964 270.991L437.616 269.087Z" fill="white"/>
<path d="M438.544 274.163L409.571 279.465L409.92 281.368L438.893 276.066L438.544 274.163Z" fill="white"/>
<path d="M439.473 279.238L410.5 284.541L410.848 286.444L439.821 281.142L439.473 279.238Z" fill="white"/>
<path d="M440.402 284.314L411.429 289.616L411.777 291.519L440.75 286.217L440.402 284.314Z" fill="white"/>
<path d="M441.331 289.39L412.358 294.692L412.706 296.595L441.679 291.293L441.331 289.39Z" fill="white"/>
<path d="M320.549 53.8714H303.789V50.4255C303.789 47.9257 302.8 45.5283 301.04 43.7607C299.28 41.993 296.893 41 294.404 41H276.263C273.774 41 271.387 41.993 269.627 43.7607C267.867 45.5283 266.878 47.9257 266.878 50.4255V53.8714H250.118C248.885 53.8714 247.665 54.1152 246.526 54.5889C245.388 55.0625 244.353 55.7568 243.482 56.632C242.61 57.5073 241.919 58.5463 241.447 59.6899C240.975 60.8335 240.733 62.0591 240.733 63.2969V89.3964H329.934V63.2969C329.934 62.0591 329.691 60.8335 329.219 59.6899C328.748 58.5463 328.057 57.5073 327.185 56.632C326.314 55.7568 325.279 55.0625 324.14 54.5889C323.002 54.1152 321.781 53.8714 320.549 53.8714Z" fill="#3F3D56"/>
<path d="M278.865 305.82C281.641 303.877 284.493 301.856 287.789 300.972C290.797 300.167 294.25 300.38 296.628 302.633C298.548 304.451 299.358 307.245 297.936 309.637C297.631 310.183 297.216 310.656 296.72 311.026C296.223 311.395 295.655 311.653 295.054 311.783C294.473 311.861 293.882 311.788 293.336 311.57C292.79 311.351 292.307 310.995 291.932 310.535C291.186 309.692 290.74 308.446 291.137 307.335C291.553 306.166 292.668 305.451 293.763 305.053C295.037 304.64 296.349 304.362 297.679 304.225L303.126 303.462L325.419 300.339L350.246 296.862C350.442 296.805 350.609 296.672 350.71 296.49C350.81 296.309 350.837 296.094 350.784 295.893C350.726 295.694 350.594 295.526 350.418 295.424C350.242 295.321 350.034 295.292 349.837 295.342L300.436 302.261C298.649 302.512 296.837 302.691 295.069 303.059C293.677 303.289 292.357 303.85 291.215 304.696C288.849 306.613 289.018 310.004 291.196 312.009C293.4 314.039 296.596 313.69 298.531 311.447C299.509 310.313 300.09 308.877 300.181 307.367C300.272 305.857 299.869 304.358 299.035 303.109C296.924 299.851 293.075 298.599 289.399 299.062C285.146 299.596 281.541 302.041 278.088 304.46C277.274 305.029 278.044 306.395 278.865 305.82Z" fill="#3F3D56"/>
<path d="M435.46 238.381L435.964 243.423C435.964 243.423 432.939 254.514 439.494 254.514C446.049 254.514 441.007 243.423 441.007 243.423L441.511 239.39L435.46 238.381Z" fill="#FFA667"/>
<path d="M481.75 221.3L479.322 225.997C479.322 225.997 470.333 233.991 476.112 237.697C481.891 241.403 483.767 228.848 483.767 228.848L486.511 225.604L481.75 221.3Z" fill="#FFA667"/>
<path d="M443.808 243.375L450.875 291.408L454.408 325.789C454.408 325.789 457.436 333.373 467.532 326.8L466.017 307.082L465.008 289.385C465.008 289.385 463.998 272.195 462.989 269.161C461.979 266.127 463.494 256.015 463.494 256.015L467.532 239.33L443.808 243.375Z" fill="#023E88"/>
<path d="M455.66 325.685L451.58 330.332C451.58 330.332 445.461 328.267 443.931 332.398C442.401 336.529 455.66 337.562 455.66 337.562C455.66 337.562 469.429 338.595 469.429 337.562C469.429 336.529 469.061 328.63 467.205 328.19C465.35 327.75 455.66 325.685 455.66 325.685Z" fill="#13263D"/>
<path d="M462.787 240.054L470.136 291.067L473.811 325.756C473.811 325.756 476.96 333.408 487.459 326.776L485.885 306.881L484.835 289.027C484.835 289.027 483.785 271.682 482.735 268.622C481.685 265.561 483.26 255.358 483.26 255.358L482.21 236.483L462.787 240.054Z" fill="#023E88"/>
<path d="M474.639 325.685L470.559 330.332C470.559 330.332 464.44 328.267 462.91 332.398C461.38 336.529 474.639 337.562 474.639 337.562C474.639 337.562 488.408 338.595 488.408 337.562C488.408 336.529 488.039 328.63 486.184 328.19C484.329 327.75 474.639 325.685 474.639 325.685Z" fill="#13263D"/>
<path d="M448.078 159.619C454.105 159.619 458.991 154.733 458.991 148.706C458.991 142.679 454.105 137.793 448.078 137.793C442.051 137.793 437.165 142.679 437.165 148.706C437.165 154.733 442.051 159.619 448.078 159.619Z" fill="#FFA667"/>
<path d="M455.341 153.925L459.94 161.896L448.187 167.21L446.655 157.645L455.341 153.925Z" fill="#FFA667"/>
<path d="M461.37 160.624C461.37 160.624 450.698 159.607 446.633 166.217L436.602 173.844C435.79 174.461 435.155 175.283 434.763 176.225C434.371 177.167 434.234 178.196 434.368 179.208L443.075 245.024L455.78 244.516L476.616 240.448L482.715 238.923L479.666 211.976C479.666 211.976 476.108 201.299 480.174 194.181L478.141 169.267L463.911 163.674L461.37 160.624Z" fill="#13263D"/>
<path d="M437.457 176.084L436.691 174.802C436.691 174.802 435.669 174.802 435.669 176.854C435.669 178.905 433.88 223.275 433.88 223.275L433.369 240.202L443.078 241.228L446.655 209.426L445.122 188.395L437.457 176.084Z" fill="#13263D"/>
<path d="M471.327 168.159L478.439 169.191C481.209 172.14 483.599 175.435 485.55 178.997C488.597 184.674 497.74 195.512 495.708 203.77C493.677 212.027 487.581 226.994 487.581 226.994L477.931 222.865C477.931 222.865 485.55 204.802 485.042 203.254C484.534 201.705 478.439 192.416 478.439 192.416L471.327 168.159Z" fill="#13263D"/>
<path d="M440.291 143.46C440.291 143.46 431.491 142.953 437.185 137.376C437.185 137.376 441.844 135.348 443.914 136.362C443.914 136.362 447.02 134.334 447.02 135.348C447.02 135.348 457.891 132.306 459.444 142.953C460.997 153.6 458.409 158.67 458.409 158.67L451.161 158.163C451.161 158.163 452.714 149.544 447.02 150.558C447.02 150.558 442.361 152.079 441.844 150.558C441.326 149.037 440.291 143.46 440.291 143.46Z" fill="#13263D"/>
<path opacity="0.2" d="M444.377 240.279L449.502 209.757L446.085 190.934L447.224 211.407L443.808 240.279H444.377Z" fill="black"/>
<defs>
<linearGradient id="paint0_linear" x1="165.875" y1="15.7314" x2="377.91" y2="353.835" gradientUnits="userSpaceOnUse">
<stop offset="0.237423" stop-color="#023E88"/>
<stop offset="1" stop-color="#0256BD"/>
</linearGradient>
</defs>
</svg>
