<?xml version="1.0" encoding="UTF-8" standalone="no"?><!DOCTYPE svg PUBLIC "-//W3C//DTD SVG 1.1//EN" "http://www.w3.org/Graphics/SVG/1.1/DTD/svg11.dtd"><svg width="100%" height="100%" viewBox="0 0 103 103" version="1.1" xmlns="http://www.w3.org/2000/svg" xmlns:xlink="http://www.w3.org/1999/xlink" xml:space="preserve" xmlns:serif="http://www.serif.com/" style="fill-rule:evenodd;clip-rule:evenodd;stroke-linejoin:round;stroke-miterlimit:2;"><rect id="Artboard8" x="0" y="0" width="103" height="103" style="fill:none;"/><clipPath id="_clip1"><rect x="0" y="0" width="103" height="103"/></clipPath><g clip-path="url(#_clip1)"><path id="Avatar" d="M116.016,45.97c11.843,74.137 -43.722,81.815 -87.705,78.613c-79.651,-5.8 -55.874,-40.487 -42.778,-78.613c3.948,-11.495 -7.106,-35.031 -1.318,-44.773c11.37,-19.14 42.682,-20.469 66.559,-20.469c24.116,0 46.107,2.324 57.419,21.78c5.589,9.613 5.943,31.696 7.823,43.462Zm-85.281,36.795c-1.497,0.402 -2.979,0.85 -4.452,1.315c-4.113,1.303 -8.175,2.759 -12.207,4.286c-9.487,3.593 -21.609,16.597 -14.072,19.767c3.608,1.518 41.904,-2.135 46.814,-2.135c5.875,0 47.121,0.479 53.781,-1.646c9.774,-3.119 -4.174,-12.568 -9.049,-14.769c-5.343,-2.411 -12.884,-4.846 -12.884,-4.846c-8.967,-1.673 -11.68,-3.672 -11.68,-3.672c-2.879,-1.274 -2.385,-13.326 -2.385,-13.326c4.441,-0.56 4.195,-13.809 4.195,-13.809c3.125,1.915 3.373,-2.076 3.373,-2.076c0.163,-1.516 0.985,-4.309 0.985,-4.309c3.044,-9.339 -1.399,-7.105 -1.399,-7.105c2.467,-9.098 1.399,-16.918 1.399,-16.918c-0.532,-3.893 -2.387,-7.132 -5.733,-9.394c-1.134,-0.767 -2.364,-1.395 -3.651,-1.88c-1.751,-0.661 -3.565,-1.554 -5.361,-2.033c-1.465,-0.393 -2.97,-0.623 -4.482,-0.767c-1.666,-0.155 -3.364,-0.229 -5.035,-0.134c-1.565,0 -2.305,0.958 -2.305,0.958c-0.237,0.302 -2.257,0.669 -2.722,0.882c-0.828,0.376 -1.636,0.798 -2.426,1.246c-2.006,1.145 -3.79,2.624 -5.656,3.962c-1.459,1.044 -3.311,1.745 -4.352,3.249c-0.909,1.315 -1.409,2.865 -1.693,4.41c-0.322,1.768 -0.529,3.858 -0.174,5.644c0.408,2.076 0.985,11.334 0.985,11.334c-3.29,-0.637 -1.479,4.071 -1.479,4.071c0.656,0.879 1.562,5.667 1.562,5.667c0.822,6.945 4.278,4.152 4.278,4.152c-0.577,12.29 3.701,12.927 3.701,12.927c0.574,7.183 -0.823,11.335 -0.823,11.335c-1.044,2.658 -4.621,2.962 -7.053,3.614Z" style="fill:#c5c5c5;"/></g></svg>