<svg width="677" height="335" viewBox="0 0 677 335" fill="none" xmlns="http://www.w3.org/2000/svg">
<path d="M0 0H677V334.5L0 227V0Z" fill="url(#paint0_linear)"/>
<g opacity="0.2">
<path opacity="0.2" d="M222.7 131.187H211.627V136.234H222.7V131.187Z" fill="#6C63FF"/>
</g>
<g opacity="0.2">
<path opacity="0.2" d="M222.7 140.95H211.627V145.997H222.7V140.95Z" fill="#6C63FF"/>
</g>
<g opacity="0.2">
<path opacity="0.2" d="M222.7 150.709H211.627V155.756H222.7V150.709Z" fill="#6C63FF"/>
</g>
<g opacity="0.2">
<path opacity="0.2" d="M222.7 160.468H211.627V165.515H222.7V160.468Z" fill="#6C63FF"/>
</g>
<g opacity="0.2">
<path opacity="0.2" d="M222.7 170.231H211.627V175.278H222.7V170.231Z" fill="#6C63FF"/>
</g>
<g opacity="0.2">
<path opacity="0.2" d="M222.7 179.99H211.627V185.038H222.7V179.99Z" fill="#6C63FF"/>
</g>
<g opacity="0.2">
<path opacity="0.2" d="M222.7 189.749H211.627V194.797H222.7V189.749Z" fill="#6C63FF"/>
</g>
<g opacity="0.2">
<path opacity="0.2" d="M222.7 199.508H211.627V204.556H222.7V199.508Z" fill="#6C63FF"/>
</g>
<g opacity="0.2">
<path opacity="0.2" d="M243.546 204.56H232.474V209.607H243.546V204.56Z" fill="#6C63FF"/>
</g>
<g opacity="0.2">
<path opacity="0.2" d="M263.05 204.56H251.978V209.607H263.05V204.56Z" fill="#6C63FF"/>
</g>
<g opacity="0.2">
<path opacity="0.2" d="M282.551 204.56H271.479V209.607H282.551V204.56Z" fill="#6C63FF"/>
</g>
<path d="M483.255 147.847C465.908 79.429 405.97 30.0412 335.615 28.0603C298.42 27.013 259.281 39.3861 230.785 82.6838C179.845 160.083 233.915 213.569 271.612 238.984C289.824 251.287 306.233 266.081 320.366 282.936C345.829 313.243 394.813 350.904 453.152 291.896C495.435 249.126 494.81 193.419 483.255 147.847Z" fill="white" fill-opacity="0.3"/>
<path d="M256 209H247V334H256V209Z" fill="#3F3D56"/>
<path d="M319 206.043V209.348L186 211V207.696L186.188 207.572L209.663 192H308.393L319 206.043Z" fill="#3F3D56"/>
<path d="M297 187C297 187 265.694 189.42 276.13 196.68C286.565 203.94 297 191.84 297 191.84V187Z" fill="#FFA667"/>
<path opacity="0.1" d="M319 207V209.639L186 211V208.279L186.188 208.177L319 207Z" fill="black"/>
<path d="M340.738 146.653L341.452 144C341.452 144 331.766 161.203 330.951 162.819C330.135 164.436 316.27 178.176 314.639 180.601C313.527 182.173 312.147 183.541 310.561 184.643H295.065C295.065 184.643 291.803 195.15 296.696 195.959C301.59 196.767 317.086 200 320.348 200C323.611 200 344 181.41 344 181.41L340.738 146.653Z" fill="#13263D"/>
<path d="M344.077 264.651L339 334H344.077L350 263L344.077 264.651Z" fill="#3F3D56"/>
<path d="M404.077 257.628L399 326H404.077L410 256L404.077 257.628Z" fill="#3F3D56"/>
<path d="M412.615 264.651L408 334H412.615L418 263L412.615 264.651Z" fill="#3F3D56"/>
<path d="M336.615 259.628L332 328H336.615L342 258L336.615 259.628Z" fill="#3F3D56"/>
<path d="M431 171L417.025 270L334 266.754L334.559 257.617L335.644 239.975L399.763 243.221L410.449 171H431Z" fill="#3F3D56"/>
<path opacity="0.1" d="M431 171L417.025 270L334 266.754L334.559 257.617C351.887 258.274 410.449 254.582 410.449 254.582C410.449 241.631 421.974 190.93 426.627 171L431 171Z" fill="black"/>
<path d="M286.444 293C286.444 293 283.851 310.889 278.666 314C273.481 317.111 300.272 321 300.272 321L302 297.667L286.444 293Z" fill="#FFA667"/>
<path d="M369 300.333C369 300.333 373.091 305.083 373.909 308.25C374.727 311.417 387 313 387 313L396 303.5C396 303.5 384.545 294 381.273 294C378 294 369 300.333 369 300.333Z" fill="#FFA667"/>
<path d="M347 131C358.046 131 367 122.046 367 111C367 99.9543 358.046 91 347 91C335.954 91 327 99.9543 327 111C327 122.046 335.954 131 347 131Z" fill="#FFA667"/>
<path d="M342 124.412C342 124.412 352 143.326 350.333 146.616C348.667 149.905 372 130.991 372 130.991C372 130.991 363.667 117.833 363.667 113.722C363.667 109.61 342 124.412 342 124.412Z" fill="#FFA667"/>
<path d="M351.241 221.164C351.241 221.164 287.839 211.171 285.369 234.488C282.899 257.805 273.841 287.784 273.018 290.282C272.194 292.78 300.19 306.937 303.484 301.94C306.777 296.944 312.541 256.972 310.894 253.641C309.247 250.31 308.424 246.146 311.718 246.979C315.011 247.812 351.241 255.306 358.651 252.808C366.062 250.31 385 217 385 217L351.241 221.164Z" fill="#023E88"/>
<path opacity="0.1" d="M351.241 221.164C351.241 221.164 287.839 211.171 285.369 234.488C282.899 257.805 273.841 287.784 273.018 290.282C272.194 292.78 300.19 306.937 303.484 301.94C306.777 296.944 312.541 256.972 310.894 253.641C309.247 250.31 308.424 246.146 311.718 246.979C315.011 247.812 351.241 255.306 358.651 252.808C366.062 250.31 385 217 385 217L351.241 221.164Z" fill="#023E88"/>
<path d="M349.644 216.431L352.123 237.066C352.123 237.066 312.465 251.922 327.337 275.858C342.209 299.794 358.733 313 358.733 313C358.733 313 385.171 298.143 385.171 294.016C385.171 289.89 352.949 266.779 357.08 266.779C361.211 266.779 420.698 263.478 408.305 230.463C395.912 197.448 349.644 216.431 349.644 216.431Z" fill="#023E88"/>
<path d="M285.558 314.992C285.558 314.992 279.001 307.594 279.001 309.238C279.001 310.882 260.15 320.747 256.871 321.569C253.593 322.391 248.675 324.035 255.232 326.501C261.789 328.967 303.59 329.789 303.59 328.145C303.59 326.501 305.229 310.882 301.951 312.526C298.672 314.17 286.378 318.281 285.558 314.992Z" fill="#2F2E41"/>
<path d="M383.122 309.881C383.122 309.881 374.183 307.472 373.371 309.881C372.558 312.291 371.745 321.928 364.432 325.14C357.118 328.353 354.68 333.171 364.432 333.975C374.183 334.778 401 316.306 401 313.094C401 309.881 397.749 300.244 396.124 301.047C394.499 301.85 390.436 309.078 383.122 309.881Z" fill="#2F2E41"/>
<path d="M270 320H232V335H270V320Z" fill="#3F3D56"/>
<path d="M372.322 125.883C372.322 125.883 369.246 117.631 363.797 122.582C358.348 127.532 347.662 139.897 347.662 139.897C347.662 139.897 341.086 142.37 338.62 146.492C336.154 150.614 336.154 177.818 341.086 186.886C346.018 195.954 346.018 211.617 347.662 215.738C349.306 219.86 347.662 223.982 353.416 223.982C359.17 223.982 350.128 217.387 369.034 223.982C387.94 230.577 409.313 238.821 410.957 233.05C412.601 227.28 408.491 223.982 410.957 221.509C413.423 219.036 410.957 218.212 409.313 212.441C407.669 206.671 406.025 205.846 405.203 198.427C404.381 191.008 405.203 183.588 403.559 180.291C401.915 176.993 401.915 172.047 401.915 163.804C401.915 155.56 396.983 139.073 387.94 134.127C378.898 129.18 372.322 125.883 372.322 125.883Z" fill="#13263D"/>
<path d="M328.279 89.0128C332.894 84.5505 337.744 79.9446 343.887 78.0011C352.087 75.4071 361.229 78.1291 368.288 83.008C369.811 84.0605 371.302 85.2522 372.217 86.8527C373.057 88.3209 373.35 90.0247 373.617 91.6912C374.554 97.5599 375.322 103.507 374.864 109.431C374.405 115.356 372.642 121.31 368.959 126C365.693 122.544 363.187 118.455 361.599 113.99C361.18 112.809 360.803 111.564 359.956 110.634C359.109 109.704 357.618 109.204 356.555 109.882C355.078 110.824 355.264 113.338 353.704 114.139C353.17 114.379 352.572 114.441 352 114.316C347.934 113.622 346.518 108.688 343.872 105.553C339.972 100.931 334.511 101.224 329.181 99.8957C322.996 98.3544 324.527 92.64 328.279 89.0128Z" fill="#13263D"/>
<path d="M324.531 193.657C324.531 193.657 297.354 186.178 295.137 192.611C292.92 199.045 318.34 205 318.34 205H329L324.531 193.657Z" fill="#FFA667"/>
<path d="M381.997 139C381.997 139 369.516 148.057 366.187 161.23C362.859 174.403 360.363 188.399 360.363 188.399L322.087 193.339C322.087 193.339 318.758 206.512 323.751 207.336C328.744 208.159 366.188 210.629 372.012 207.336C377.837 204.042 397.807 162.876 396.975 158.76C396.143 154.643 394.478 139.823 381.997 139Z" fill="#13263D"/>
<path d="M234.16 198.862L247.285 200L266 198.688L265.674 198.654L248.338 196.85C244.368 195.275 247.123 186 247.123 186L233.839 186.73L232.783 186.788C228.084 198.687 234.16 198.862 234.16 198.862Z" fill="#D1D9EC"/>
<path opacity="0.1" d="M234.16 198.886L247.285 200L266 198.714L265.674 198.682L246.758 199.4L234.079 197.943C230.482 196.942 232.541 190.333 233.839 187L232.783 187.057C228.084 198.714 234.16 198.886 234.16 198.886Z" fill="black"/>
<path d="M212.386 117.882L216.385 176.137V183.168C216.507 184.935 217.343 188.012 219.107 188L222.383 185.177H281.363C282.379 185.17 278.965 183.681 278.864 182.666L283 180.496L278.672 137.78C278.603 137.105 278.344 136.464 277.926 135.932C277.507 135.4 276.946 135 276.308 134.777L217.713 114.391C215.718 113.697 213.689 113.943 212.42 115.003C211.55 115.73 212.286 116.431 212.386 117.882Z" fill="#4C4C56"/>
<path d="M215 177L215.541 184.834C215.6 185.697 215.983 186.505 216.613 187.094C217.242 187.682 218.069 188.006 218.927 188L220.179 187.992L282.27 187.612C282.512 187.61 282.752 187.558 282.973 187.457C283.194 187.357 283.391 187.211 283.553 187.03C283.715 186.848 283.838 186.634 283.914 186.402C283.989 186.169 284.015 185.924 283.991 185.68L283.457 180.389L215 177Z" fill="#DFE6F5"/>
<path d="M256.5 185C256.776 185 257 184.328 257 183.5C257 182.672 256.776 182 256.5 182C256.224 182 256 182.672 256 183.5C256 184.328 256.224 185 256.5 185Z" fill="white"/>
<path d="M226 200.047C226 200.047 209.521 194.382 205.078 198.502C205.078 198.502 204.351 199.752 207.34 200.047L219.417 200.929C219.417 200.929 224.384 201.371 226 200.047Z" fill="#D1D9EC"/>
<path d="M225.344 198.361C222.086 197.199 212.276 194.191 206 197.519C206 197.519 212.945 196.847 216.761 198.773C220.577 200.698 225.787 199.782 225.787 199.782L225.865 199.661C225.938 199.548 225.983 199.422 225.996 199.292C226.009 199.162 225.99 199.031 225.941 198.908C225.892 198.785 225.813 198.673 225.71 198.578C225.607 198.484 225.483 198.41 225.344 198.361Z" fill="#DFE6F5"/>
<path d="M211.025 118.288L215.524 184.878C215.581 185.729 215.951 186.526 216.558 187.106C217.165 187.686 217.964 188.006 218.792 188L220 187.992C219.172 187.175 218.466 186.235 217.905 185.204C217.905 185.204 213.487 118.294 213.166 116.638C213.025 116.016 212.716 115.448 212.275 115C211.82 115.4 211.469 115.909 211.251 116.483C211.033 117.056 210.955 117.676 211.025 118.288Z" fill="#DFE6F5"/>
<path opacity="0.1" d="M211.025 118.288L215.524 184.878C215.581 185.729 215.951 186.526 216.558 187.106C217.165 187.686 217.964 188.006 218.792 188L220 187.992C219.172 187.175 218.466 186.235 217.905 185.204C217.905 185.204 213.487 118.294 213.166 116.638C213.025 116.016 212.716 115.448 212.275 115C211.82 115.4 211.469 115.909 211.251 116.483C211.033 117.056 210.955 117.676 211.025 118.288Z" fill="black"/>
<defs>
<linearGradient id="paint0_linear" x1="165.875" y1="15.7314" x2="377.91" y2="353.835" gradientUnits="userSpaceOnUse">
<stop offset="0.237423" stop-color="#023E88"/>
<stop offset="1" stop-color="#0256BD"/>
</linearGradient>
</defs>
</svg>
