<svg width="340" height="252" viewBox="0 0 340 252" fill="none" xmlns="http://www.w3.org/2000/svg">
<path opacity="0.1" d="M4 121C9.37456 141.538 20.7425 159.292 38.7072 167.898C76.0537 185.783 160.28 176.559 223.141 165.97C255.657 160.494 284.238 145.381 305 124.111L4 121Z" fill="#FFA667"/>
<path opacity="0.1" d="M333.99 22.4502H299.388C297.746 22.4502 296.399 21.2451 296.399 19.7725C296.399 18.2999 297.746 17.0917 299.388 17.0917H305.373C303.728 17.0917 302.384 15.8866 302.384 14.411C302.384 12.9353 303.728 11.7333 305.373 11.7333H301.102C299.457 11.7333 298.109 10.5281 298.109 9.05247C298.109 7.57681 299.457 6.37476 301.102 6.37476H319.162C315.154 4.70542 310.47 3.51874 305.072 2.89466C255.825 -2.77126 238.243 0.976305 232.041 4.82839C224.31 9.6896 215.723 13.0627 206.73 14.7707C176.346 20.3874 119.525 27.1447 68.0237 12.6186C42.4269 5.38484 23.4015 17.5929 12 38H340C339.572 32.0697 338.29 26.5913 335.937 21.7985C335.379 22.2246 334.694 22.454 333.99 22.4502Z" fill="#FFA667"/>
<path opacity="0.1" d="M0.744682 77C-0.58441 89.2732 -0.132613 101.677 2.08571 113.818L305.891 124C314.254 115.216 321.36 105.289 327 94.5067L0.744682 77ZM120.903 103.265H114.922C116.567 103.265 117.914 104.5 117.914 106.006C117.914 107.512 116.567 108.744 114.922 108.744H80.3187C78.6766 108.744 77.3293 107.512 77.3293 106.006C77.3293 104.5 78.6766 103.265 80.3187 103.265H86.3037C84.6584 103.265 83.3143 102.033 83.3143 100.527C83.3143 99.0209 84.6584 97.7855 86.3037 97.7855H82.0291C80.3839 97.7855 79.0366 96.5532 79.0366 95.0474C79.0366 93.5416 80.3839 92.3062 82.0291 92.3062H116.632C118.277 92.3062 119.621 93.5385 119.621 95.0474C119.621 96.5564 118.277 97.7855 116.632 97.7855H120.903C122.549 97.7855 123.893 99.0178 123.893 100.527C123.893 102.036 122.549 103.265 120.903 103.265Z" fill="#FFA667"/>
<path opacity="0.1" d="M339.846 39L8.92552 46.2407C4.89927 55.5551 2.22956 66.0865 1 77H334.048C336.216 70.615 337.824 64.0554 338.855 57.3946C339.849 50.9826 340.246 44.7803 339.846 39ZM68.1889 62.7404H62.2207C63.8622 62.7404 65.2063 63.9513 65.2063 65.4272C65.2063 66.903 63.8622 68.1139 62.2207 68.1139H27.6971C26.0588 68.1139 24.7146 66.903 24.7146 65.4272C24.7146 63.9513 26.0588 62.7404 27.6971 62.7404H33.6684C32.0269 62.7404 30.6859 61.5326 30.6859 60.0567C30.6859 58.5808 32.0269 57.3699 33.6684 57.3699H29.4037C27.7622 57.3699 26.418 56.1621 26.418 54.6862C26.418 53.2103 27.7622 51.9994 29.4037 51.9994H63.9272C65.5687 51.9994 66.9097 53.2073 66.9097 54.6862C66.9097 56.1652 65.5687 57.3699 63.9272 57.3699H68.1889C69.8303 57.3699 71.1714 58.5808 71.1714 60.0567C71.1714 61.5326 69.8303 62.7404 68.1889 62.7404Z" fill="#FFA667"/>
<path opacity="0.1" d="M169 242C245.768 242 308 236.404 308 229.5C308 222.596 245.768 217 169 217C92.2324 217 30 222.596 30 229.5C30 236.404 92.2324 242 169 242Z" fill="#FFA667"/>
<g opacity="0.1">
<path opacity="0.1" d="M261.862 88.086C261.926 87.9648 261.982 87.8395 262.03 87.7109C262.38 86.7375 262.225 85.6681 262.228 84.6327C262.228 84.2874 262.26 83.9428 262.324 83.6035C262.038 84.216 261.899 84.8869 261.918 85.5627C261.915 86.3965 262.014 87.2707 261.862 88.086Z" fill="black"/>
<path opacity="0.1" d="M300.078 134.904C298.792 135.862 296.885 135.611 295.586 134.665C294.287 133.72 293.497 132.235 292.948 130.725C292.263 128.896 291.755 126.832 290.192 125.657C289.631 125.235 288.952 124.96 288.404 124.538C287.164 123.589 286.544 122.024 286.097 120.524C285.524 118.633 285.071 116.689 284.237 114.903C283.404 113.118 282.095 111.456 280.291 110.641C278.605 109.882 276.658 109.931 274.913 109.314C271.906 108.254 269.683 105.728 266.698 104.537C265.742 104.135 264.836 103.623 263.998 103.012C262.529 101.998 262.138 101.425 261.921 99.6363C261.611 96.9518 258.883 94.6113 259.308 92.0818C259.239 92.2186 259.178 92.3594 259.125 92.5034C258.195 95.2313 261.295 97.7019 261.605 100.563C261.806 102.352 262.225 102.925 263.682 103.939C264.52 104.55 265.426 105.061 266.382 105.464C269.367 106.655 271.59 109.184 274.597 110.241C276.342 110.861 278.289 110.808 279.975 111.568C281.779 112.383 283.075 114.048 283.921 115.83C284.768 117.613 285.22 119.55 285.781 121.45C286.237 122.951 286.835 124.516 288.088 125.465C288.649 125.886 289.328 126.162 289.876 126.584C291.426 127.759 291.947 129.823 292.632 131.652C293.196 133.156 293.987 134.644 295.286 135.586C296.584 136.528 298.491 136.783 299.777 135.825C300.599 135.205 301.017 134.259 301.293 133.246C301.048 133.899 300.628 134.473 300.078 134.904Z" fill="black"/>
<path opacity="0.1" d="M306.448 125.607C306.33 125.83 306.278 126.082 306.3 126.333C307 125.642 308.581 126.048 309.133 125.158C309.261 124.938 309.311 124.681 309.276 124.429C308.556 125.111 306.975 124.705 306.448 125.607Z" fill="black"/>
<path opacity="0.1" d="M301.895 130.908C301.836 131.218 301.777 131.55 301.702 131.872C303.6 132.464 305.791 130.942 306.101 129.02C305.348 130.499 303.488 131.488 301.895 130.908Z" fill="black"/>
</g>
<path opacity="0.1" d="M261 140C260.978 140.101 260.59 141.634 260 144C260.231 141.98 260.551 140.53 261 140Z" fill="black"/>
<path d="M250.015 129.696C250.015 129.696 250.928 125.503 249.703 124.17C248.479 122.837 248.871 115.85 250.741 116.002C252.611 116.155 255.416 121.681 254.948 122.849C254.481 124.018 252.714 130 252.714 130L250.015 129.696Z" fill="#FBBEBE"/>
<path d="M252 133C253.657 133 255 132.105 255 131C255 129.895 253.657 129 252 129C250.343 129 249 129.895 249 131C249 132.105 250.343 133 252 133Z" fill="#575A89"/>
<path d="M161 237C214.019 237 257 194.019 257 141C257 87.9807 214.019 45 161 45C107.981 45 65 87.9807 65 141C65 194.019 107.981 237 161 237Z" fill="#F47920"/>
<path d="M211 188.961C211 204.01 187.351 190.247 161.998 190.247C136.644 190.247 111 203.441 111 188.393C111 179.812 119.173 167.878 130.899 159.211C139.733 152.678 150.581 148 161.479 148C172.685 148 183.663 153.065 192.42 160.017C203.472 168.784 211 180.563 211 188.961Z" fill="#444053"/>
<path d="M192 160C178.637 157.973 154.468 155.501 131 159.195C139.76 152.672 150.517 148 161.322 148C172.431 148 183.317 153.057 192 160Z" fill="#F6F8FB"/>
<path opacity="0.05" d="M111 73C111 73 81.7623 91.5053 82.0015 120.452C82.2406 149.398 111 73 111 73Z" fill="black"/>
<path d="M256.5 21.0347C256.5 21.0347 230.147 19.4228 233.255 38.1803C233.255 38.1803 232.629 41.493 235.596 43C235.596 43 235.643 41.6107 238.297 42.0812C239.243 42.2419 240.204 42.2889 241.161 42.2211C242.453 42.1318 243.682 41.616 244.66 40.7523C244.66 40.7523 252.068 37.6462 254.951 25.3457C254.951 25.3457 257.082 22.6624 256.998 21.9757L252.55 23.9023C252.55 23.9023 254.068 27.1611 252.863 29.8698C252.863 29.8698 252.719 24.0231 251.865 24.1471C251.693 24.1758 249.555 25.2758 249.555 25.2758C249.555 25.2758 252.168 30.9539 250.181 35.0773C250.181 35.0773 250.929 28.083 248.722 25.6859L245.592 27.5426C245.592 27.5426 248.647 33.4051 246.575 38.1898C246.575 38.1898 247.107 30.8521 244.935 27.994L242.097 30.2417C242.097 30.2417 244.967 36.0216 243.217 39.9893C243.217 39.9893 242.988 31.4467 241.483 30.8013C241.483 30.8013 239.001 33.0267 238.622 33.9392C238.622 33.9392 240.588 38.1326 239.37 40.3453C239.37 40.3453 238.622 34.6545 238.009 34.6227C238.009 34.6227 235.536 38.3933 235.277 40.9812C235.277 40.9812 235.386 37.1343 237.408 34.2635C237.408 34.2635 235.017 34.6799 233.624 36.2568C233.624 36.2568 234.009 33.5895 238.006 33.3574C238.006 33.3574 240.05 30.4961 240.597 30.3244C240.597 30.3244 236.607 29.9842 234.187 31.0747C234.187 31.0747 236.316 28.5599 241.327 29.7013L244.143 27.3804C244.143 27.3804 238.892 26.6492 236.663 27.4567C236.663 27.4567 239.226 25.2313 244.898 26.8527L247.949 24.9992C247.949 24.9992 243.47 24.02 240.801 24.3633C240.801 24.3633 243.618 22.8214 248.841 24.4937L251.032 23.4986C251.032 23.4986 247.749 22.8437 246.788 22.7419C245.827 22.6402 245.777 22.3668 245.777 22.3668C247.862 22.0224 250 22.2745 251.952 23.0948C251.952 23.0948 256.578 21.3303 256.5 21.0347Z" fill="#023E88"/>
<path d="M229.758 13.0159C229.758 13.0159 217.706 12.2802 219.114 20.8087C219.114 20.8087 218.832 22.3154 220.186 23C220.186 23 220.205 22.3602 221.423 22.5841C221.856 22.656 222.296 22.6774 222.733 22.6481C223.326 22.6055 223.889 22.371 224.338 21.9795C224.338 21.9795 227.729 20.5656 229.048 14.9737C229.048 14.9737 230.025 13.7549 230 13.4414L227.963 14.3179C227.963 14.3179 228.661 15.7991 228.112 17.0307C228.112 17.0307 228.046 14.3723 227.656 14.4363C227.576 14.4363 226.596 14.9481 226.596 14.9481C226.596 14.9481 227.795 17.5297 226.891 19.4043C226.891 19.4043 227.234 16.2245 226.225 15.1337L224.792 15.9782C224.792 15.9782 226.19 18.6462 225.242 20.8215C225.242 20.8215 225.483 17.4849 224.49 16.1861L223.19 17.2066C223.19 17.2066 224.503 19.833 223.704 21.6372C223.704 21.6372 223.599 17.7536 222.908 17.4593C222.908 17.4593 221.772 18.4702 221.598 18.8861C221.598 18.8861 222.499 20.8055 221.94 21.8004C221.94 21.8004 221.598 19.2124 221.306 19.2028C221.306 19.2028 220.174 20.9143 220.056 22.0819C220.111 20.9953 220.447 19.942 221.03 19.0268C220.378 19.1514 219.775 19.4661 219.298 19.9322C219.298 19.9322 219.473 18.7197 221.309 18.6142C221.309 18.6142 222.245 17.3154 222.495 17.2354C222.495 17.2354 220.669 17.0819 219.562 17.5777C219.562 17.5777 220.535 16.4325 222.832 16.9379L224.1 15.8854C224.1 15.8854 221.696 15.5655 220.675 15.9174C220.675 15.9174 221.848 14.9065 224.446 15.6455L225.842 14.801C225.842 14.801 223.793 14.3563 222.568 14.5163C222.568 14.5163 223.859 13.8157 226.251 14.577L227.25 14.1228C227.25 14.1228 225.746 13.8253 225.309 13.7805C224.871 13.7357 224.842 13.6109 224.842 13.6109C225.795 13.4512 226.772 13.562 227.665 13.9308C227.665 13.9308 229.793 13.1503 229.758 13.0159Z" fill="#023E88"/>
<path opacity="0.1" d="M14.5 250C19.1944 250 23 249.328 23 248.5C23 247.672 19.1944 247 14.5 247C9.80558 247 6 247.672 6 248.5C6 249.328 9.80558 250 14.5 250Z" fill="#0256BD"/>
<path opacity="0.1" d="M63 252C67.4183 252 71 251.328 71 250.5C71 249.672 67.4183 249 63 249C58.5817 249 55 249.672 55 250.5C55 251.328 58.5817 252 63 252Z" fill="#0256BD"/>
<path d="M314.5 242C321.404 242 327 241.105 327 240C327 238.895 321.404 238 314.5 238C307.596 238 302 238.895 302 240C302 241.105 307.596 242 314.5 242Z" fill="#F47920"/>
<path d="M319.748 236.235C320.328 235.812 320.751 235.242 320.961 234.599C321.116 233.953 320.806 233.173 320.114 232.936C319.337 232.67 318.506 233.153 317.877 233.639C317.249 234.125 316.525 234.678 315.701 234.577C316.125 234.234 316.442 233.798 316.621 233.312C316.801 232.827 316.836 232.308 316.724 231.806C316.688 231.598 316.59 231.403 316.44 231.241C316.007 230.829 315.227 231.004 314.709 231.329C313.066 232.362 312.608 234.356 312.598 236.153C312.434 235.506 312.573 234.831 312.57 234.176C312.567 233.52 312.361 232.764 311.736 232.416C311.347 232.231 310.912 232.139 310.472 232.151C309.733 232.125 308.911 232.19 308.406 232.673C307.774 233.275 307.941 234.28 308.488 234.933C309.034 235.585 309.862 236.009 310.624 236.464C311.236 236.789 311.759 237.234 312.153 237.766C312.199 237.84 312.237 237.919 312.266 238H316.895C317.931 237.529 318.89 236.935 319.748 236.235Z" fill="#F47920"/>
<path d="M126.898 128.08C128.68 127.976 137.068 127.319 142.395 124.16C143.251 123.637 144.217 123.341 145.209 123.299C146.903 123.248 148.852 123.984 147.604 128.099C145.582 134.83 133.844 142.403 126.559 141.983C119.552 141.579 111.241 138.645 105.753 128.326C105.227 127.333 104.968 126.211 105.003 125.079C105.067 122.996 105.795 120.386 109.556 123.296C114.638 127.224 124.279 127.969 126.212 128.08C126.441 128.092 126.67 128.092 126.898 128.08Z" fill="#444053"/>
<path d="M195.408 128.08C197.231 127.976 205.813 127.319 211.265 124.16C212.14 123.637 213.129 123.341 214.144 123.299C215.877 123.248 217.871 123.984 216.595 128.099C214.526 134.83 202.515 142.403 195.06 141.983C187.891 141.579 179.386 138.645 173.77 128.326C173.232 127.333 172.967 126.211 173.003 125.079C173.068 122.996 173.814 120.386 177.662 123.296C182.862 127.224 192.727 127.969 194.706 128.08C194.94 128.092 195.174 128.092 195.408 128.08Z" fill="#444053"/>
</svg>
