<svg width="57" height="60" viewBox="0 0 57 60" fill="none" xmlns="http://www.w3.org/2000/svg">
<path d="M55.4584 57.4676H52.8965V20.2697C52.8965 18.5383 51.4878 17.1298 49.7566 17.1298H44.0304C42.299 17.1298 40.8904 18.5384 40.8904 20.2697V57.4676H34.3854V37.1232C34.3854 35.3918 32.9768 33.9833 31.2454 33.9833H25.5192C23.7879 33.9833 22.3793 35.392 22.3793 37.1232V57.4676H15.8743V46.9314C15.8743 45.2 14.4656 43.7915 12.7343 43.7915H7.00801C5.27663 43.7915 3.86808 45.2001 3.86808 46.9314V57.4676H1.16804C0.522932 57.4676 0 57.9905 0 58.6356C0 59.2807 0.522932 59.8037 1.16804 59.8037H55.4584C56.1035 59.8037 56.6264 59.2807 56.6264 58.6356C56.6264 57.9905 56.1035 57.4676 55.4584 57.4676ZM13.5379 57.4676H6.20405V46.9314C6.20405 46.4881 6.56462 46.1275 7.0079 46.1275H12.7341C13.1774 46.1275 13.5379 46.4881 13.5379 46.9314V57.4676ZM32.0492 57.4676H24.7153V37.1232C24.7153 36.68 25.0759 36.3194 25.5191 36.3194H31.2453C31.6885 36.3194 32.0492 36.68 32.0492 37.1232V57.4676ZM50.5604 57.4676H43.2265V20.2697C43.2265 19.8264 43.5871 19.4658 44.0304 19.4658H49.7566C50.1998 19.4658 50.5604 19.8264 50.5604 20.2697V57.4676Z" fill="#F47920"/>
<path d="M52.8938 1.22831C52.9101 0.909553 52.798 0.585422 52.5546 0.342002C52.3112 0.0985826 51.987 -0.0136661 51.6683 0.0028033C51.6495 0.00198567 51.6309 0 51.6118 0H44.5451C43.9 0 43.3771 0.522932 43.3771 1.16804C43.3771 1.81315 43.9 2.33608 44.5451 2.33608H48.9086L37.3617 13.8831L33.0072 9.52864C32.7882 9.30964 32.491 9.18653 32.1813 9.18653C31.8715 9.18653 31.5744 9.30964 31.3554 9.52864L10.3576 30.5265C9.90147 30.9826 9.90147 31.7222 10.3576 32.1785C10.5857 32.4064 10.8846 32.5204 11.1835 32.5204C11.4824 32.5204 11.7814 32.4064 12.0094 32.1782L32.1813 12.0063L36.5357 16.3608C36.9918 16.8169 37.7315 16.8169 38.1877 16.3608L50.5605 3.98804V7.93719C50.5605 8.5823 51.0834 9.10523 51.7286 9.10523C52.3737 9.10523 52.8966 8.5823 52.8966 7.93719V1.28484C52.8966 1.26581 52.8946 1.24723 52.8938 1.22831Z" fill="#F47920"/>
<path d="M7.24641 36.5958C7.8915 36.5958 8.41445 36.0729 8.41445 35.4278C8.41445 34.7827 7.8915 34.2598 7.24641 34.2598C6.60132 34.2598 6.07837 34.7827 6.07837 35.4278C6.07837 36.0729 6.60132 36.5958 7.24641 36.5958Z" fill="#F47920"/>
</svg>
