<svg width="62" height="62" viewBox="0 0 62 62" fill="none" xmlns="http://www.w3.org/2000/svg">
<path d="M61.0918 60.1836H40.3809V51.5815C40.9005 51.7269 41.4474 51.8063 42.0127 51.8063H55.9368C59.28 51.8063 61.9999 49.0864 61.9999 45.7432C61.9999 45.2416 61.5932 44.835 61.0917 44.835H58.586L51.4518 31.6172C52.173 30.9503 52.6256 29.9973 52.6256 28.9403C52.6256 27.242 51.4581 25.8109 49.883 25.4064V10.7832H52.138V11.2905C52.138 12.4648 53.9544 12.4648 53.9544 11.2905V10.7832H58.4348C61.5613 10.7832 61.5659 5.91192 58.4348 5.91192H53.9544V4.99875C53.9544 3.8245 52.138 3.8245 52.138 4.99875V5.91204H49.883V4.99875C49.883 3.8245 48.0666 3.8245 48.0666 4.99875V5.91204H40.5636V4.00614C40.5636 2.22001 39.1105 0.766887 37.3244 0.766887C36.584 0.766887 35.9013 1.01707 35.3551 1.43666C34.7732 0.570957 33.7843 0 32.6644 0C31.5446 0 30.5557 0.570957 29.9737 1.43678C29.4276 1.01719 28.7449 0.767008 28.0045 0.767008C26.7868 0.767008 25.7242 1.44271 25.171 2.43859C24.6507 2.08196 24.0217 1.87284 23.3446 1.87284C21.5584 1.87284 20.1053 3.32596 20.1053 5.11209V5.91192H13.9334V4.99875C13.9334 3.8245 12.117 3.8245 12.117 4.99875V5.91204H9.862V4.99875C9.862 3.8245 8.04559 3.8245 8.04559 4.99875V5.91204H3.56524C0.438723 5.91204 0.434121 10.7833 3.56524 10.7833H8.04559V11.2907C8.04559 12.4649 9.862 12.4649 9.862 11.2907V10.7833H12.117V25.4064C10.5418 25.8109 9.37435 27.2419 9.37435 28.9403C9.37435 29.9973 9.827 30.9503 10.5484 31.6173L3.41387 44.835H0.908203C0.406633 44.835 0 45.2416 0 45.7432C0 49.0863 2.71989 51.8062 6.06304 51.8062H19.9871C20.5525 51.8062 21.0994 51.7268 21.619 51.5813V60.1836H0.908203C0.406633 60.1836 0 60.5902 0 61.0918C0 61.5934 0.406633 62 0.908203 62H61.0918C61.5934 62 62 61.5934 62 61.0918C62 60.5902 61.5934 60.1836 61.0918 60.1836ZM56.522 44.835H54.6957C54.1942 44.835 53.7875 45.2416 53.7875 45.7432C53.7875 46.2447 54.1942 46.6514 54.6957 46.6514H58.042C58.043 46.6514 58.044 46.6516 58.0451 46.6516C58.0462 46.6516 58.0473 46.6514 58.0483 46.6514H60.0857C59.6688 48.5582 57.9669 49.9898 55.9368 49.9898H42.0127C39.9827 49.9898 38.2808 48.5581 37.8638 46.6512H39.9006C39.902 46.6512 39.9032 46.6515 39.9045 46.6515C39.9057 46.6515 39.9068 46.6512 39.908 46.6512H49.8611V44.8348H41.4275L48.0957 32.4807C48.6816 32.6242 49.2676 32.6242 49.8537 32.4807L56.522 44.835ZM23.4355 32.599H38.5646V36.7878H23.4355V32.599ZM50.8094 28.9402C50.8094 29.9502 49.9864 30.772 48.9749 30.772C47.9634 30.772 47.1403 29.9502 47.1403 28.9402C47.1403 27.9302 47.9633 27.1084 48.9749 27.1084C49.9865 27.1084 50.8094 27.9302 50.8094 28.9402ZM48.0667 25.4063C46.4915 25.8108 45.3239 27.2417 45.3239 28.9402C45.3239 29.9972 45.7766 30.9502 46.4979 31.6172L40.381 42.95V31.6908C40.381 31.1893 39.9744 30.7826 39.4728 30.7826H38.6764C38.5983 28.9838 39.1764 27.2387 40.4638 25.9528C43.3418 23.0784 45.7568 20.1797 45.7568 15.859V12.1993C45.7568 11.6917 45.639 11.2112 45.4297 10.7833H48.0668V25.4063H48.0667ZM58.4348 7.72845C59.2352 7.72845 59.2352 8.96687 58.4348 8.96687H53.9544V7.72845H58.4348ZM52.138 7.72845V8.96687H49.883V7.72845H52.138ZM48.0667 7.72845V8.96687L40.5637 8.963V7.72845H48.0667ZM37.3244 2.58329C38.1089 2.58329 38.7472 3.22158 38.7472 4.00614V8.96287H35.9037V3.96073C35.928 3.19724 36.5552 2.58329 37.3244 2.58329ZM32.6644 1.81641C33.449 1.81641 34.0873 2.45372 34.0873 3.23696L34.085 8.99981C33.332 9.15989 32.7654 9.82906 32.7654 10.6285C32.7654 11.4948 32.9972 12.3076 33.4003 13.0104C32.4685 13.573 31.2416 12.8829 31.2416 11.7951V3.23696C31.2416 2.45372 31.8799 1.81641 32.6644 1.81641ZM28.0045 2.58329C28.7738 2.58329 29.4008 3.19724 29.4251 3.96061V11.1941C29.4007 11.9575 28.7737 12.5716 28.0045 12.5716C27.2199 12.5716 26.5817 11.9333 26.5817 11.1487V4.00614C26.5817 3.22158 27.2199 2.58329 28.0045 2.58329ZM21.9217 5.11209C21.9217 4.32753 22.56 3.68924 23.3446 3.68924C24.1139 3.68924 24.7409 4.30319 24.7651 5.06668V10.0884C24.7408 10.8518 24.1138 11.4659 23.3446 11.4659C22.56 11.4659 21.9217 10.8276 21.9217 10.043V5.11209ZM20.1053 7.72845V8.96687H13.9334V7.72845H20.1053ZM3.56524 8.96675C2.76481 8.96675 2.76481 7.72832 3.56524 7.72832H8.04559V8.96675H3.56524ZM9.862 8.96675V7.72845H12.117V8.96687H9.862V8.96675ZM20.1053 10.7832V15.0257C20.1053 15.5272 20.5119 15.9339 21.0135 15.9339C21.5151 15.9339 21.9217 15.5272 21.9217 15.0257V12.9521C22.3515 13.1631 22.8344 13.2822 23.3446 13.2822C24.0217 13.2822 24.6507 13.073 25.171 12.7164C25.7242 13.7123 26.7867 14.388 28.0045 14.388C28.7703 14.388 29.4743 14.1204 30.0294 13.6744C30.6176 14.4954 31.5791 15.032 32.6644 15.032C33.3659 15.032 34.0399 14.805 34.5931 14.3953C35.414 15.0458 36.4507 15.4357 37.5774 15.4357H39.0307V15.4557C35.0677 15.9072 31.9792 19.2776 31.9792 23.3551C31.9792 23.8567 32.3858 24.2633 32.8874 24.2633C33.3889 24.2633 33.7956 23.8567 33.7956 23.3551C33.7956 19.9725 36.5514 17.2206 39.9389 17.2206C40.4405 17.2206 40.8471 16.814 40.8471 16.3124V14.5275C40.8471 14.0259 40.4405 13.6193 39.9389 13.6193H37.5774C35.9762 13.6193 34.6645 12.3587 34.5856 10.7793C37.255 10.7793 39.9241 10.7832 42.5934 10.7832C43.3426 10.823 43.9403 11.4419 43.9403 12.1992V15.8589C43.9403 19.6852 41.7052 22.1454 39.1801 24.6675C37.5325 26.3129 36.8381 28.4947 36.8598 30.7826H25.0686C25.1354 28.7579 24.4589 26.8797 23.3472 25.206C22.4146 23.7548 21.9216 22.0765 21.9216 20.3519C21.9216 19.8503 21.515 19.4437 21.0134 19.4437C20.5118 19.4437 20.1052 19.8503 20.1052 20.3519C20.1052 22.4279 20.6993 24.4482 21.8233 26.1944C22.7266 27.5924 23.3213 29.0963 23.2522 30.7826H22.5272C22.0256 30.7826 21.619 31.1893 21.619 31.6908V42.95L15.5021 31.6172C16.2234 30.9503 16.6761 29.9972 16.6761 28.9402C16.6761 27.2419 15.5085 25.8108 13.9333 25.4063V10.7832H20.1053ZM13.0252 27.1084C14.0368 27.1084 14.8598 27.9302 14.8598 28.9402C14.8598 29.9502 14.0368 30.772 13.0252 30.772C12.0136 30.772 11.1908 29.9502 11.1908 28.9402C11.1908 27.9302 12.0136 27.1084 13.0252 27.1084ZM12.1462 32.4809C12.7322 32.6242 13.3181 32.6242 13.9041 32.4809L20.5724 44.8351H5.47804L12.1462 32.4809ZM6.06304 49.9899C4.03303 49.9899 2.33105 48.5582 1.91413 46.6515H3.95189C3.95286 46.6515 3.95383 46.6516 3.9548 46.6516C3.95565 46.6516 3.95662 46.6515 3.95746 46.6515H22.0927C22.0936 46.6515 22.0945 46.6516 22.0954 46.6516C22.0963 46.6516 22.0973 46.6515 22.0983 46.6515H24.136C23.7191 48.5584 22.0171 49.9899 19.9871 49.9899H6.06304ZM23.4355 60.1836V50.7262C25.014 49.6305 26.0503 47.806 26.0503 45.7432C26.0503 45.2416 25.6437 44.835 25.1421 44.835H23.4355V38.6041H38.5646V44.835H36.858C36.3565 44.835 35.9498 45.2416 35.9498 45.7432C35.9498 47.806 36.9861 49.6305 38.5646 50.7262V60.1836H23.4355Z" fill="#F47920"/>
</svg>
