<svg width="73" height="59" viewBox="0 0 73 59" fill="none" xmlns="http://www.w3.org/2000/svg">
<path d="M62.7523 10.1161C59.9093 9.89777 56.6921 9.25189 53.1903 8.19667C48.9832 6.92858 44.8995 7.12434 41.0522 8.77811C40.5095 9.01136 40.2589 9.64028 40.492 10.1829C40.7252 10.7253 41.3534 10.9765 41.8968 10.7431C45.2689 9.29353 48.8612 9.12557 52.5732 10.2444C56.2225 11.3442 59.5922 12.0183 62.5886 12.2485C62.6164 12.2507 62.6442 12.2516 62.6716 12.2516C63.2251 12.2516 63.6936 11.8251 63.7366 11.2641C63.7818 10.6753 63.3411 10.1613 62.7523 10.1161Z" fill="#F47920"/>
<path d="M62.7521 14.6607C59.9098 14.4426 56.6929 13.7969 53.1903 12.7413C48.9832 11.4733 44.8995 11.669 41.0522 13.3228C40.5095 13.556 40.2589 14.185 40.492 14.7276C40.7252 15.2701 41.3534 15.5212 41.8968 15.2878C45.2689 13.8382 48.8612 13.6702 52.5732 14.7891C56.2233 15.889 59.5929 16.5633 62.5887 16.7931C62.6165 16.7954 62.6442 16.7963 62.6716 16.7963C63.2251 16.7963 63.6936 16.3698 63.7366 15.8086C63.7818 15.2198 63.3411 14.7059 62.7521 14.6607Z" fill="#F47920"/>
<path d="M62.7523 37.3846C59.9091 37.1663 56.692 36.5204 53.1903 35.465C48.9835 34.197 44.8999 34.3929 41.0522 36.0466C40.5095 36.2799 40.2589 36.9088 40.492 37.4514C40.7252 37.9938 41.3534 38.245 41.8968 38.0116C45.2691 36.562 48.8613 36.3944 52.5732 37.5128C56.2223 38.6126 59.592 39.2869 62.5886 39.517C62.6164 39.5193 62.6442 39.5201 62.6716 39.5201C63.2251 39.5201 63.6936 39.0937 63.7366 38.5326C63.7818 37.9438 63.3411 37.4298 62.7523 37.3846Z" fill="#F47920"/>
<path d="M62.7523 41.9292C59.9093 41.7109 56.6921 41.0651 53.1903 40.0098C48.9832 38.7419 44.8995 38.9375 41.0522 40.5913C40.5095 40.8245 40.2589 41.4534 40.492 41.9961C40.7252 42.5386 41.3534 42.7897 41.8968 42.5563C45.2689 41.1067 48.8612 40.9387 52.5732 42.0576C56.2225 43.1574 59.5922 43.8315 62.5886 44.0616C62.6164 44.0639 62.6442 44.0648 62.6716 44.0648C63.2251 44.0648 63.6936 43.6383 63.7366 43.0773C63.7818 42.4884 63.3411 41.9744 62.7523 41.9292Z" fill="#F47920"/>
<path d="M62.7523 19.2056C59.9091 18.9873 56.692 18.3414 53.1903 17.2861C48.9835 16.0181 44.8999 16.2137 41.0522 17.8677C40.5095 18.1009 40.2589 18.7298 40.492 19.2725C40.7252 19.8148 41.3534 20.0659 41.8968 19.8327C45.2691 18.3831 48.8613 18.2153 52.5732 19.3338C56.2223 20.4336 59.592 21.1079 62.5886 21.338C62.6164 21.3403 62.6442 21.3411 62.6716 21.3411C63.2251 21.3411 63.6936 20.9147 63.7366 20.3536C63.7818 19.7648 63.3411 19.2508 62.7523 19.2056Z" fill="#F47920"/>
<path d="M62.7521 28.2949C59.9098 28.0769 56.6929 27.4311 53.1903 26.3756C48.9835 25.1075 44.8996 25.3033 41.0522 26.9571C40.5095 27.1903 40.2589 27.8192 40.492 28.3619C40.7252 28.9044 41.3534 29.1555 41.8968 28.9221C45.2688 27.4726 48.8612 27.3047 52.5732 28.4233C56.2233 29.5233 59.5929 30.1976 62.5887 30.4276C62.6165 30.4297 62.6442 30.4305 62.6716 30.4305C63.2251 30.4305 63.6936 30.0041 63.7366 29.4429C63.7818 28.8541 63.3411 28.3402 62.7521 28.2949Z" fill="#F47920"/>
<path d="M62.7523 23.7502C59.9093 23.5319 56.6921 22.886 53.1903 21.8308C48.9837 20.5627 44.8996 20.7585 41.0522 22.4123C40.5095 22.6455 40.2589 23.2744 40.492 23.8171C40.7252 24.3594 41.3534 24.6107 41.8968 24.3773C45.2694 22.9277 48.8613 22.7599 52.5732 23.8785C56.2225 24.9784 59.5922 25.6525 62.5886 25.8826C62.6164 25.8849 62.6442 25.8857 62.6716 25.8857C63.2251 25.8857 63.6936 25.4593 63.7366 24.8983C63.7818 24.3094 63.3411 23.7954 62.7523 23.7502Z" fill="#F47920"/>
<path d="M62.7521 32.8396C59.9094 32.6216 56.6923 31.9757 53.1903 30.9204C48.9835 29.6524 44.8999 29.848 41.0522 31.5019C40.5095 31.7352 40.2589 32.3641 40.492 32.9068C40.7252 33.4491 41.3534 33.7002 41.8968 33.4669C45.2691 32.0174 48.8613 31.8497 52.5732 32.9681C56.2228 34.0681 59.5923 34.7423 62.5887 34.9723C62.6165 34.9744 62.6442 34.9753 62.6716 34.9753C63.2251 34.9753 63.6936 34.5488 63.7366 33.9876C63.7818 33.3988 63.3411 32.8849 62.7521 32.8396Z" fill="#F47920"/>
<path d="M10.3284 12.2516C10.3558 12.2516 10.3836 12.2506 10.4114 12.2484C13.4079 12.0185 16.7775 11.3442 20.4268 10.2444C24.1388 9.1257 27.7309 9.29337 31.1032 10.7431C31.6457 10.9764 32.2747 10.7254 32.508 10.1829C32.7412 9.64026 32.4904 9.01135 31.9478 8.77809C28.1005 7.12419 24.0166 6.92871 19.8097 8.19666C16.3077 9.25188 13.0907 9.89776 10.2477 10.116C9.65883 10.1611 9.21812 10.6752 9.26346 11.2641C9.30638 11.8251 9.77503 12.2516 10.3284 12.2516Z" fill="#F47920"/>
<path d="M10.3284 16.7962C10.3558 16.7962 10.3836 16.7952 10.4112 16.7931C13.4071 16.5634 16.7768 15.889 20.4268 14.789C24.1388 13.6703 27.7309 13.8378 31.1032 15.2877C31.6457 15.5208 32.2747 15.27 32.508 14.7275C32.7412 14.1849 32.4904 13.556 31.9478 13.3227C28.1005 11.6688 24.0166 11.4735 19.8097 12.7413C16.3071 13.7968 13.09 14.4425 10.2478 14.6607C9.65883 14.7057 9.21812 15.2197 9.26346 15.8086C9.30638 16.3697 9.77503 16.7962 10.3284 16.7962Z" fill="#F47920"/>
<path d="M10.3284 39.52C10.3558 39.52 10.3836 39.519 10.4114 39.5169C13.4081 39.2869 16.7777 38.6125 20.4268 37.5127C24.139 36.3937 27.731 36.562 31.1032 38.0116C31.6457 38.2447 32.2748 37.9939 32.508 37.4514C32.7413 36.9087 32.4905 36.2798 31.9478 36.0465C28.1005 34.3926 24.0167 34.1972 19.8097 35.465C16.3079 36.5203 13.0909 37.1662 10.2477 37.3845C9.65889 37.4296 9.21818 37.9437 9.26352 38.5325C9.30644 39.0936 9.77509 39.52 10.3284 39.52Z" fill="#F47920"/>
<path d="M10.3284 44.0648C10.3558 44.0648 10.3836 44.0638 10.4114 44.0617C13.408 43.8317 16.7775 43.1574 20.4268 42.0576C24.1388 40.9389 27.731 41.1065 31.1032 42.5563C31.6457 42.7893 32.2748 42.5387 32.508 41.9961C32.7413 41.4535 32.4905 40.8246 31.9478 40.5913C28.1005 38.9374 24.0167 38.7419 19.8097 40.0099C16.3077 41.0651 13.0907 41.711 10.2477 41.9293C9.65889 41.9743 9.21818 42.4885 9.26352 43.0773C9.30644 43.6384 9.77509 44.0648 10.3284 44.0648Z" fill="#F47920"/>
<path d="M10.3284 21.341C10.3558 21.341 10.3836 21.34 10.4114 21.3378C13.4081 21.1078 16.7776 20.4334 20.4268 19.3336C24.1389 18.2148 27.7309 18.3829 31.1032 19.8325C31.6457 20.0656 32.2747 19.8148 32.508 19.2723C32.7412 18.7296 32.4904 18.1007 31.9478 17.8675C28.1005 16.2136 24.0166 16.0181 19.8097 17.2859C16.3078 18.3413 13.0908 18.9871 10.2477 19.2054C9.65883 19.2505 9.21812 19.7646 9.26346 20.3535C9.30638 20.9145 9.77503 21.341 10.3284 21.341Z" fill="#F47920"/>
<path d="M10.3284 30.4305C10.3558 30.4305 10.3836 30.4295 10.4113 30.4275C13.4071 30.1977 16.7768 29.5233 20.4268 28.4233C24.1388 27.3046 27.731 27.4721 31.1032 28.922C31.6457 29.1551 32.2748 28.9043 32.508 28.3618C32.7413 27.8192 32.4905 27.1903 31.9478 26.957C28.1007 25.3032 24.0169 25.1076 19.8097 26.3756C16.3072 27.4311 13.09 28.0768 10.2479 28.2948C9.65889 28.34 9.21818 28.854 9.26352 29.4428C9.30644 30.004 9.77509 30.4305 10.3284 30.4305Z" fill="#F47920"/>
<path d="M10.3284 25.8857C10.3558 25.8857 10.3836 25.8847 10.4114 25.8826C13.408 25.6526 16.7775 24.9784 20.4268 23.8785C24.1387 22.76 27.7308 22.9274 31.1032 24.3773C31.6457 24.6102 32.2748 24.3596 32.508 23.8171C32.7413 23.2744 32.4905 22.6455 31.9478 22.4122C28.1002 20.7583 24.0167 20.5626 19.8097 21.8308C16.3077 22.886 13.0907 23.5319 10.2477 23.7502C9.65889 23.7953 9.21818 24.3094 9.26352 24.8982C9.30644 25.4593 9.77509 25.8857 10.3284 25.8857Z" fill="#F47920"/>
<path d="M10.3284 34.9753C10.3558 34.9753 10.3836 34.9743 10.4113 34.9723C13.4077 34.7425 16.7772 34.0681 20.4268 32.9681C24.139 31.8491 27.731 32.0174 31.1032 33.4669C31.6457 33.7002 32.2748 33.4493 32.508 32.9068C32.7413 32.3641 32.4905 31.7352 31.9478 31.5019C28.1005 29.848 24.0167 29.6524 19.8097 30.9204C16.3077 31.9757 13.0905 32.6216 10.2479 32.8396C9.65889 32.8848 9.21818 33.3988 9.26352 33.9876C9.30644 34.5488 9.77509 34.9753 10.3284 34.9753Z" fill="#F47920"/>
<path d="M70.3884 6.08045H68.7144V5.10479C68.7144 3.73745 67.5479 2.65585 66.1819 2.76464C64.604 2.89082 61.1488 2.89852 55.7363 1.52605C55.1635 1.38048 54.5818 1.72738 54.4369 2.29969C54.2916 2.87228 54.6381 3.45401 55.2106 3.59901C60.6363 4.97475 64.2646 5.06415 66.3528 4.89634C66.4744 4.88778 66.5755 4.98231 66.5755 5.10479V48.2572C62.5249 48.6942 57.1137 47.5346 53.1902 46.3523C44.4272 43.7113 38.7621 48.2486 37.5693 48.8951V6.15132C38.7247 5.06757 43.3818 1.22906 50.313 2.34432C50.8957 2.43899 51.4448 2.04176 51.5387 1.45861C51.6327 0.875609 51.2362 0.326822 50.653 0.232863C43.3751 -0.939706 38.3529 2.61536 36.4974 4.23434C32.2429 0.544683 26.1574 -1.09426 19.8098 0.819148C12.9969 2.87229 8.74551 2.91862 6.81827 2.76478C5.45037 2.65499 4.28592 3.74002 4.28592 5.10479V6.08045H2.61162C1.17157 6.08045 0 7.25188 0 8.69207V52.0565C0 53.4967 1.17171 54.6681 2.61176 54.6681H30.3186C30.7337 54.6681 31.1103 54.8972 31.278 55.2522C33.3534 59.6431 39.6389 59.6592 41.7219 55.2522C41.8897 54.8975 42.2663 54.6681 42.6814 54.6681H70.3882C71.8283 54.6681 72.9997 53.4965 72.9997 52.0565V31.7767C72.9997 31.186 72.5211 30.7074 71.9304 30.7074C71.3397 30.7074 70.861 31.186 70.861 31.7767V52.0563C70.861 52.3171 70.649 52.5293 70.3882 52.5293H42.6816C41.4434 52.5293 40.3079 53.2392 39.7885 54.3382C38.4813 57.1035 34.5236 57.1145 33.2116 54.3383C32.6924 53.2394 31.5569 52.5293 30.3186 52.5293H2.61176C2.35084 52.5293 2.13868 52.3171 2.13868 52.0563V8.69207C2.13868 8.4313 2.35084 8.21914 2.61162 8.21914H4.28592V49.1698C4.28592 49.655 4.61257 50.0795 5.08166 50.2035C5.28497 50.2574 10.1828 51.4874 20.427 48.4C25.3835 46.9064 30.1673 47.8223 33.9629 50.4989C35.4304 51.5336 37.4735 51.6021 39.0377 50.4988C41.3299 48.8822 46.136 46.4604 52.5734 48.4C62.818 51.4873 67.7155 50.2573 67.9188 50.2035C68.3879 50.0795 68.7145 49.655 68.7145 49.1698V8.21914H70.3885C70.6493 8.21914 70.8615 8.4313 70.8615 8.69207V26.7865C70.8615 27.3772 71.3401 27.8558 71.9308 27.8558C72.5215 27.8558 73.0001 27.3772 73.0001 26.7865V8.69207C73 7.25188 71.8284 6.08045 70.3884 6.08045ZM6.42461 5.10479C6.42461 4.98488 6.52256 4.88764 6.64732 4.89634C8.72469 5.06344 13.278 5.02123 20.427 2.86672C26.2167 1.12241 31.7479 2.70376 35.4307 6.15217V48.8951C34.8174 48.563 28.8045 43.6412 19.8098 46.3525C19.233 46.5263 18.5991 46.7068 18.0126 46.8635C18.0054 46.8653 17.9983 46.8673 17.9913 46.8692C14.548 47.7877 9.96755 48.6393 6.42447 48.2577C6.42461 45.2855 6.42461 5.9018 6.42461 5.10479Z" fill="#F47920"/>
</svg>
