<svg width="60" height="60" viewBox="0 0 60 60" fill="none" xmlns="http://www.w3.org/2000/svg">
<path d="M6.60009 44.7995C7.04192 44.4681 7.13147 43.8413 6.80009 43.3995C6.46872 42.9576 5.84191 42.8681 5.40008 43.1995C4.51875 43.8604 4.00006 44.8978 4.00006 45.9995C4.00006 47.1011 4.51875 48.1385 5.40008 48.7995C5.83604 49.1295 6.45686 49.0446 6.78809 48.6095C7.12548 48.1747 7.04816 47.5491 6.61509 47.2095C6.23167 46.929 6.00382 46.4834 6.00086 46.0083C5.9979 45.5332 6.22019 45.0848 6.60009 44.7995Z" fill="#F47920"/>
<path d="M54.0006 38.9998H52.0226V37.7707C52.0008 35.6825 50.3832 33.9589 48.3006 33.8047L38.0004 33.0687V27.8686C38.0264 27.8426 38.0474 27.8166 38.0744 27.7906C39.6631 26.3793 40.5066 24.3104 40.3575 22.1906C41.6167 21.385 42.5162 20.1243 42.8685 18.6715C43.1395 16.8875 43.1685 14.6525 41.7815 14.1525C41.5267 14.052 41.2554 14.0001 40.9815 13.9995C40.9905 13.6905 40.9975 13.3625 41.0015 13.0125L41.0005 12.9995V8.38441L43.0005 7.8474V10.2694V10.2764C42.9988 11.3035 43.5122 12.2629 44.3675 12.8315C44.827 13.138 45.448 13.014 45.7545 12.5545C46.0611 12.0949 45.937 11.474 45.4775 11.1674C45.1792 10.9692 45 10.6346 45.0005 10.2764V10.2694V7.22239C45.7005 6.81824 46.0885 6.03247 45.9836 5.23099C45.8788 4.42951 45.3019 3.76991 44.5215 3.55935L31.5154 0.067311C31.1782 -0.022437 30.8235 -0.022437 30.4864 0.067311L17.4792 3.55935C16.6058 3.79949 16.0006 4.5936 16.0006 5.49937C16.0006 6.40514 16.6058 7.19926 17.4792 7.4394L21.0002 8.38441V12.9995V13.0105C21.0002 13.3665 21.0112 13.6925 21.0212 13.9945C20.7574 13.9936 20.4958 14.0428 20.2502 14.1395C18.8362 14.6505 18.8612 16.8855 19.1382 18.7045C19.4959 20.1426 20.3904 21.3892 21.6383 22.1886C21.4885 24.3081 22.3312 26.377 23.9193 27.7886C23.9473 27.8156 23.9683 27.8426 23.9953 27.8696V33.0697L13.7152 33.7997C11.6243 33.9568 10.0062 35.696 10.0001 37.7927V38.9998H6.00007C2.69103 38.9998 0 42.1398 0 45.9998C0 49.8599 2.69103 52.9999 6.00007 52.9999H25.0003V58C25.0003 59.1046 25.8957 60 27.0003 60H31.0004C32.1049 60 33.0004 59.1046 33.0004 58V52.9999H54.0006C57.3097 52.9999 60.0007 49.8599 60.0007 45.9998C60.0007 42.1398 57.3097 38.9998 54.0006 38.9998ZM50.0176 37.7807V38.9998H33.4174L37.3784 35.0297L48.1526 35.7997C49.1948 35.8746 50.0057 36.7359 50.0176 37.7807ZM36.0004 45.9998C36.0004 48.7569 34.2064 50.9999 32.0004 50.9999H30.1913C32.6035 48.1029 32.6035 43.8968 30.1913 40.9998H32.0004C34.2064 40.9998 36.0004 43.2428 36.0004 45.9998ZM29.7303 32.9997H32.2704C34.2904 32.9997 35.1874 31.7627 36.0004 30.4997V33.5847L31.0114 38.5848L26.0003 33.5847V30.4997C26.8133 31.7627 27.7103 32.9997 29.7303 32.9997ZM30.0003 45.9998C30.0003 48.7569 28.2063 50.9999 26.0003 50.9999H10.1911C12.6033 48.1029 12.6033 43.8968 10.1911 40.9998H26.0003C28.2063 40.9998 30.0003 43.2428 30.0003 45.9998ZM30.9944 1.99933L44.0145 5.49937H44.0015L31.0064 8.99941L18.0002 5.49137L30.9944 1.99933ZM30.4854 10.9314C30.6533 10.9764 30.8265 10.9993 31.0004 10.9994C31.1736 10.9997 31.3462 10.9769 31.5134 10.9314L39.0005 8.92141V12.4865C38.2284 12.9515 35.9394 13.9995 31.0104 13.9995C26.0813 13.9995 23.7673 12.9435 23.0003 12.4865V8.92141L30.4854 10.9314ZM23.6503 21.8996C23.7515 21.4634 23.5621 21.0114 23.1803 20.7775C23.1613 20.7666 23.1423 20.7556 23.1223 20.7456C22.1507 20.2691 21.4213 19.4097 21.1092 18.3735C20.9734 17.5886 20.966 16.7868 21.0872 15.9995C21.2728 16.0279 21.4507 16.0935 21.6103 16.1925C21.9346 16.3745 22.3332 16.3615 22.645 16.1587C22.9568 15.9559 23.1302 15.5968 23.0953 15.2265C23.0813 15.0755 23.0683 14.9165 23.0573 14.7475C25.6015 15.6788 28.3031 16.1041 31.0104 15.9995C33.712 16.105 36.4081 15.6803 38.9464 14.7495C38.9365 14.9165 38.9254 15.0775 38.9134 15.2305C38.8843 15.5965 39.0582 15.9491 39.3663 16.1488C39.6744 16.3486 40.0672 16.3634 40.3895 16.1875C40.5495 16.0891 40.7283 16.0251 40.9145 15.9995C41.0344 16.773 41.0286 17.5608 40.8975 18.3325C40.5917 19.3841 39.8579 20.2587 38.8755 20.7425C38.8482 20.7563 38.8219 20.7717 38.7965 20.7885L38.7715 20.8036C38.3632 21.0503 38.1881 21.5525 38.3544 21.9996C38.5573 23.6384 37.9312 25.2708 36.6844 26.3536C35.8266 27.2128 35.077 28.1736 34.4524 29.2146C33.6004 30.5407 33.2584 30.9997 32.2704 30.9997H29.7303C28.7423 30.9997 28.3983 30.5407 27.5483 29.2126C26.9232 28.1708 26.1729 27.2093 25.3143 26.3496C24.0462 25.2407 23.4209 23.5684 23.6503 21.8996ZM12.0001 37.7927C12.0045 36.7457 12.813 35.878 13.8572 35.7997L24.6163 35.0317L28.6003 38.9998H12.0001V37.7927ZM2.00002 45.9998C2.00002 43.2428 3.79404 40.9998 6.00007 40.9998C8.20609 40.9998 10.0001 43.2428 10.0001 45.9998C10.0001 48.7569 8.20609 50.9999 6.00007 50.9999C3.79404 50.9999 2.00002 48.7569 2.00002 45.9998ZM27.0003 58V52.9999H31.0004V58H27.0003ZM54.0006 50.9999H36.1914C38.6036 48.1029 38.6036 43.8968 36.1914 40.9998H54.0006C56.2066 40.9998 58.0007 43.2428 58.0007 45.9998C58.0007 48.7569 56.2066 50.9999 54.0006 50.9999Z" fill="#F47920"/>
</svg>
