<svg width="78" height="54" viewBox="0 0 78 54" fill="none" xmlns="http://www.w3.org/2000/svg">
<path fill-rule="evenodd" clip-rule="evenodd" d="M21.105 38.3622C22.0557 40.9067 25.1314 43.6049 29.088 43.6049C33.4779 43.6049 35.1696 41.0185 37.2247 38.5859L39.154 41.1304C35.8127 42.7801 32.4293 46.2053 29.088 47.9949C25.6208 46.443 22.5031 42.5564 18.9799 41.382C19.637 39.7882 19.7908 39.3968 21.105 38.3622ZM17.3162 23.0673V21.0681C19.3854 19.7679 19.1058 20.2013 19.651 18.5796L20.0425 17.1815C28.1373 18.4258 30.1785 18.1462 38.1335 17.1955L38.5808 19.9217C39.8251 20.2153 39.7133 19.9357 40.7478 20.8025C41.0135 30.0297 40.1746 25.3602 37.756 27.681C36.4837 28.8973 37.5602 41.2981 29.088 41.3261C20.7415 41.3401 21.3846 28.7435 20.364 27.7089C18.183 25.514 17.2883 29.3586 17.3162 23.0673ZM50.1009 15.6296C49.9471 10.7783 48.3393 11.9387 59.5099 9.72979C59.5099 11.5333 59.2023 13.2669 60.0691 14.2595C57.7204 15.4898 52.911 16.1469 50.1009 15.6296ZM29.088 11.4774C32.3035 11.4634 35.1835 9.9395 38.441 9.95348C38.4131 12.8754 39.3498 14.4133 36.9451 15.0564C32.8068 16.1609 23.8173 16.1609 19.9446 14.609C19.4553 13.3088 19.679 11.6032 19.651 9.81367C22.6848 10.1352 26.4736 11.5053 29.088 11.4774ZM61.8586 9.25445L68.7232 7.8424C69.3802 13.1131 68.6393 20.0056 66.9057 24.7171C65.256 22.4522 65.1721 20.0615 64.3053 17.2514C63.047 13.169 61.593 14.1617 61.8586 9.25445ZM14.0308 5.89909C31.7443 2.26411 26.5435 1.92858 44.5506 5.91307C42.6772 6.89172 31.6604 9.1426 29.088 9.15658C26.18 9.18454 16.2258 7.03152 14.0308 5.89909ZM55.8889 3.96976C59.1324 4.64083 62.6136 5.11617 65.7313 6.12278L50.1708 9.21251C49.7234 5.18607 51.6528 9.15658 52.198 5.13015L46.2422 3.67616C51.0236 2.59965 51.1495 2.99111 55.8889 3.96976ZM6.53715 6.48628C7.83735 7.74454 14.6879 8.7092 17.2883 9.1426C17.8335 21.4036 16.8549 17.2654 15.3869 20.2153C14.7438 21.5155 14.8277 24.6891 15.0933 26.199C15.4848 28.4918 16.7291 28.7295 18.5745 29.5124C19.0359 38.2643 21.2308 32.5043 16.771 40.1517C11.6261 40.2216 8.55037 40.5152 5.09714 42.9618C3.11189 44.3599 -0.103663 49.2112 1.37829 52.944C5.39074 52.7203 1.588 49.9102 5.51656 45.6321C7.22221 43.7727 10.4657 42.5564 14.1566 42.4865C19.7209 42.3746 22.3633 47.4077 29.088 50.6931L39.0422 43.8706C40.6919 42.6123 40.8597 42.4725 43.544 42.4865C48.4092 42.4865 52.7013 44.318 54.2112 48.624C55.0501 51.0427 54.1134 51.9654 55.7771 53C57.4268 52.3988 57.5666 51.3642 56.3503 47.8271C54.0854 41.2003 48.0318 40.1797 41.2791 40.1937C37.2107 32.4903 38.7766 39.5366 39.5595 29.4845C42.6492 28.2402 43.1106 27.8627 43.1106 23.9901C43.1246 15.9791 41.1952 19.7399 40.7478 17.1955L40.7618 9.5061L47.7801 7.81444C47.7801 11.6731 48.0877 15.5737 47.2349 19.0968C46.6477 21.5295 45.3475 26.1151 45.5991 28.2542L51.7366 28.394C52.1281 27.625 52.0302 28.0864 52.17 27.0798C52.4077 25.3602 50.772 20.2712 50.5203 18.258C55.1759 17.7547 57.2171 17.5729 61.5231 16.4125C62.5297 18.971 62.8932 21.6693 63.8858 24.004C64.7387 26.0173 66.3464 28.9812 67.409 30.7567C64.8086 36.6426 56.7976 37.6771 56.1685 38.8935C55.9588 41.0605 56.2384 41.1304 57.0074 42.6682C60.0551 48.6799 60.3208 44.6115 69.4501 46.9323C75.8952 48.5681 73.3368 51.4761 75.6715 53C76.8599 52.6225 76.9857 52.972 76.9997 51.1825C77.0696 44.3879 64.8505 43.7448 60.3348 43.7308L58.4334 40.2496C63.2567 38.4041 66.0668 37.0201 68.8909 33.0216C70.6525 30.533 69.8975 30.7987 68.9608 28.4779C74.2875 28.2122 74.0638 29.5823 72.1065 20.7745C71.0439 15.9372 71.1418 13.3787 71.1838 8.13599C72.1764 5.87113 72.484 8.40163 73.2809 5.88511C72.3861 4.24937 68.9888 4.16549 65.7453 3.53636C62.8513 2.99111 59.9433 2.44586 57.0633 1.88664C43.6698 -0.769689 48.9545 2.12431 39.881 2.48781C38.3152 2.55771 33.1004 1.31343 31.255 0.935952C28.0674 0.292841 25.9144 1.13168 22.7407 1.80275C19.8048 2.43188 16.9527 2.93519 14.1007 3.50839C12.7865 3.77403 11.3884 4.09558 9.89251 4.36121C7.4459 4.8086 6.97055 4.4451 6.53715 6.48628Z" fill="#F47920" stroke="#F47920" stroke-width="0.0762"/>
</svg>
