<svg width="52" height="60" viewBox="0 0 52 60" fill="none" xmlns="http://www.w3.org/2000/svg">
<path fill-rule="evenodd" clip-rule="evenodd" d="M46.8535 55.6135H11.8938C9.65503 55.6135 3.86709 55.9548 3.75788 51.9824C3.71693 50.2761 5.06836 49.225 6.33788 48.7335C7.96233 48.1056 9.80519 48.2285 11.6344 48.2285H46.8535C46.8535 49.3615 46.6351 50.6037 46.6351 51.8596C46.6351 53.1154 46.8808 54.4669 46.8535 55.6135ZM14.8833 3.75411C15.1154 3.563 14.6103 3.68586 15.2792 3.60395C15.3611 3.5903 15.716 3.60395 15.8252 3.60395L18.9512 3.6176C28.575 3.64491 38.9224 3.42649 48.3414 3.6176C48.4779 10.4294 48.3551 17.3776 48.3551 24.203V42.2357C48.3551 42.6316 48.3551 43.0411 48.3551 43.4507C48.3687 44.6929 48.396 44.4062 48.164 44.5154L14.8833 44.5018V3.75411ZM3.75788 46.29C3.58042 42.2903 3.71693 37.8675 3.73058 33.8268C3.74423 29.677 3.73058 25.5135 3.73058 21.3637C3.73058 18.9065 3.62137 10.6614 3.75788 8.90047C3.92169 6.96205 4.87724 5.70618 5.95566 4.84618C7.34804 3.74046 9.109 3.71316 11.1566 3.71316L11.1157 44.5018C9.68233 44.5018 8.13979 44.4335 6.80201 44.8567C4.71344 45.5256 4.90455 45.785 3.75788 46.29ZM50.1843 55.5862C50.0205 54.2758 49.4062 48.6789 50.5392 47.8189C51.0033 47.4777 51.1535 47.4367 51.4811 46.9726C52.0135 46.1808 51.9452 45.1024 51.9452 43.9967C51.9589 37.9084 52.15 2.79856 51.7268 1.73379C50.9078 -0.354782 48.6827 0.027441 46.3211 0.027441L10.9519 0.0137902C6.52899 0.027441 3.55312 0.84649 1.28708 4.65507C0.23597 6.40237 0.0312079 8.08142 0.0312079 10.3884V45.7577C0.0312079 47.737 -0.146253 50.631 0.345177 52.4329C0.863907 54.2894 2.03788 56.0777 3.06169 56.9104C6.89756 60.0228 9.51852 59.3266 14.7468 59.3402H43.0722C45.4065 59.3402 47.7817 59.3812 50.116 59.3402C51.3992 59.3266 51.9316 58.8488 51.9589 57.552C51.9725 56.1186 51.5221 55.75 50.1843 55.5862Z" fill="#F47920"/>
<path fill-rule="evenodd" clip-rule="evenodd" d="M22.7461 25.9775H40.3557C41.7481 25.9775 42.5671 25.8683 42.6627 24.4759C42.7582 23.0562 42.3897 22.2372 40.9017 22.2372H22.2001C20.7531 22.2372 20.3709 22.988 20.4255 24.3531C20.4801 25.8683 21.2719 25.9775 22.7461 25.9775Z" fill="#F47920"/>
<path fill-rule="evenodd" clip-rule="evenodd" d="M21.5858 14.9069C20.0023 15.2072 19.7566 18.4288 22.0499 18.5517L41.557 18.4971C42.9903 18.1831 43.4271 14.9615 41.0382 14.8523L21.5858 14.9069Z" fill="#F47920"/>
</svg>
