<svg width="196" height="162" viewBox="0 0 196 162" fill="none" xmlns="http://www.w3.org/2000/svg">
<path d="M97.7801 124L44.0889 93.0001V67.9854H62.03V82.6471L97.7801 103.279L133.53 82.6471V67.9854H151.471V93.0001L97.7801 124Z" fill="#EE7B1D"/>
<path d="M44.0889 56.0294V31L97.7801 0L151.471 31V56.0294H133.53V41.3677L97.7801 20.7206L62.03 41.3677V56.0294H44.0889Z" fill="#194189"/>
<path d="M106.147 59.2941L117.236 70.3823L106.147 81.4558L95.0737 70.3823L106.147 59.2941Z" fill="#194189"/>
<path d="M89.4115 42.5441L100.485 53.6323L89.4115 64.7058L78.3232 53.6323L89.4115 42.5441Z" fill="#194189"/>
<path fill-rule="evenodd" clip-rule="evenodd" d="M111.647 139.353H115.971V150.177H120.765V139.353H125.088V135.515H111.647V139.353Z" fill="#194189"/>
<path fill-rule="evenodd" clip-rule="evenodd" d="M133.927 145.191H130.897L132.382 139.927L133.927 145.191ZM129.427 150.177L129.985 148.235H134.765L135.338 150.177H140.118L134.868 135.515H129.985L124.721 150.177H129.427Z" fill="#194189"/>
<path fill-rule="evenodd" clip-rule="evenodd" d="M154.295 150.177V146.75H146.883L154.015 138.912V135.515H141.368V138.927H148.104L141.074 146.691V150.177H154.295Z" fill="#194189"/>
<path fill-rule="evenodd" clip-rule="evenodd" d="M156.559 150.177H161.368V145.529L162.5 144.324L166.03 150.177H171.794L165.868 141.029L171.221 135.515H165.588L161.368 140.25V135.515H156.559V150.177Z" fill="#194189"/>
<path fill-rule="evenodd" clip-rule="evenodd" d="M178.339 150.177V135.515H173.53V150.177H178.339Z" fill="#194189"/>
<path fill-rule="evenodd" clip-rule="evenodd" d="M189.368 145.191H186.323L187.809 139.927L189.368 145.191ZM184.853 150.177L185.412 148.235H190.191L190.765 150.177H195.559L190.294 135.515H185.412L180.162 150.177H184.853Z" fill="#194189"/>
<path fill-rule="evenodd" clip-rule="evenodd" d="M4.80883 150.177V135.515H0V150.177H4.80883Z" fill="#194189"/>
<path fill-rule="evenodd" clip-rule="evenodd" d="M12.3091 135.515H7.80908V150.177H12.412V145.529L12.2356 142.191L17.4709 150.177H21.9709V135.515H17.3679V140.177L17.5444 143.515L12.3091 135.515Z" fill="#194189"/>
<path fill-rule="evenodd" clip-rule="evenodd" d="M36.9852 139.765C36.8234 138.441 36.2499 137.353 35.2499 136.485C34.2499 135.603 32.7352 135.162 30.7058 135.118C29.4705 135.118 28.3822 135.294 27.4264 135.647C26.4852 135.985 25.7352 136.515 25.1911 137.206C24.6469 137.897 24.3675 138.765 24.3528 139.809C24.3822 140.912 24.6617 141.779 25.2352 142.397C25.794 143.015 26.4852 143.485 27.3234 143.809C28.1617 144.118 28.9852 144.368 29.8234 144.544C30.6469 144.721 31.3528 144.912 31.9117 145.132C32.4705 145.353 32.7646 145.677 32.794 146.103C32.7793 146.456 32.6028 146.721 32.2352 146.897C31.8822 147.088 31.3969 147.177 30.794 147.177C30.5587 147.177 30.3087 147.147 30.0734 147.088C29.8381 147.029 29.6175 146.941 29.4264 146.809C29.2205 146.691 29.044 146.529 28.9117 146.338C28.7793 146.147 28.6764 145.912 28.6322 145.647H24.0293C24.0734 146.544 24.3528 147.368 24.8969 148.103C25.4411 148.838 26.1911 149.427 27.1469 149.882C28.1028 150.324 29.2352 150.544 30.5293 150.559C32.5734 150.559 34.2205 150.147 35.4705 149.309C36.7205 148.471 37.3528 147.206 37.3822 145.515C37.3675 144.456 37.0734 143.632 36.5146 143.029C35.9558 142.427 35.2499 141.971 34.4264 141.662C33.5881 141.353 32.7499 141.103 31.9264 140.927C31.0881 140.735 30.3969 140.529 29.8381 140.309C29.2646 140.088 28.9852 139.765 28.9558 139.338C28.9558 139.074 29.0734 138.868 29.3234 138.721C29.5734 138.574 29.9558 138.5 30.4852 138.5C30.7205 138.5 30.9411 138.515 31.1469 138.559C31.3675 138.603 31.5587 138.677 31.7205 138.765C31.8969 138.853 32.0587 138.985 32.1764 139.147C32.294 139.309 32.3822 139.515 32.4264 139.765H36.9852Z" fill="#194189"/>
<path fill-rule="evenodd" clip-rule="evenodd" d="M38.6763 139.353H42.9998V150.177H47.7939V139.353H52.1175V135.515H38.6763V139.353Z" fill="#194189"/>
<path fill-rule="evenodd" clip-rule="evenodd" d="M59.0886 150.177V135.515H54.2798V150.177H59.0886Z" fill="#194189"/>
<path fill-rule="evenodd" clip-rule="evenodd" d="M61.3086 139.353H65.6321V150.177H70.4262V139.353H74.7498V135.515H61.3086V139.353Z" fill="#194189"/>
<path fill-rule="evenodd" clip-rule="evenodd" d="M76.7944 143.779C76.8091 146.265 77.4121 148.029 78.618 149.059C79.8386 150.088 81.5738 150.588 83.8533 150.559C86.2797 150.574 88.0591 150.029 89.2062 148.941C90.3533 147.853 90.9121 146.132 90.9121 143.794V135.515H86.1033V144.294C86.118 145.088 85.9562 145.735 85.6327 146.235C85.2944 146.721 84.7062 146.971 83.8533 146.971C82.8974 146.956 82.2797 146.691 81.9856 146.177C81.6915 145.662 81.5738 145.029 81.6033 144.294V135.515H76.7944V143.779Z" fill="#194189"/>
<path fill-rule="evenodd" clip-rule="evenodd" d="M92.9414 139.353H97.2649V150.177H102.074V139.353H106.397V135.515H92.9414V139.353Z" fill="#194189"/>
<path fill-rule="evenodd" clip-rule="evenodd" d="M1.25 155.869H0V161.854H1.25V155.869Z" fill="#EE7B1D"/>
<path fill-rule="evenodd" clip-rule="evenodd" d="M5.98561 158.765C5.94149 158.353 5.82385 158.044 5.61796 157.838C5.41208 157.618 5.16208 157.485 4.86796 157.412C4.57385 157.338 4.27973 157.294 3.98561 157.309C3.52973 157.309 3.17679 157.397 2.91208 157.544C2.64738 157.691 2.4709 157.882 2.35326 158.118C2.25032 158.338 2.2062 158.559 2.2062 158.779C2.2062 159.118 2.30914 159.368 2.48561 159.544C2.67679 159.72 2.89738 159.853 3.16208 159.941C3.44149 160.015 3.7062 160.088 3.98561 160.132C4.25032 160.176 4.48561 160.235 4.66208 160.309C4.83855 160.368 4.94149 160.485 4.94149 160.618C4.9562 160.72 4.91208 160.809 4.80914 160.912C4.69149 161.015 4.50032 161.073 4.2062 161.088C3.85326 161.073 3.58855 161.015 3.4562 160.897C3.30914 160.779 3.23561 160.618 3.23561 160.426H2.04443C2.05914 160.823 2.17679 161.132 2.38267 161.353C2.60326 161.573 2.86796 161.735 3.17679 161.823C3.50032 161.926 3.83855 161.97 4.17679 161.956C4.41208 161.97 4.69149 161.926 4.98561 161.853C5.27973 161.779 5.54444 161.632 5.76502 161.412C5.98561 161.191 6.10326 160.868 6.11796 160.441C6.10326 160.118 6.01502 159.868 5.82385 159.691C5.63267 159.515 5.41208 159.382 5.13267 159.294C4.86796 159.206 4.58855 159.147 4.32385 159.088C4.04443 159.044 3.80914 158.985 3.63267 158.926C3.44149 158.853 3.35326 158.75 3.33855 158.618C3.33855 158.515 3.36796 158.426 3.4562 158.323C3.55914 158.235 3.75032 158.191 4.05914 158.191C4.36796 158.191 4.57385 158.25 4.66208 158.368C4.76502 158.485 4.82385 158.618 4.83855 158.765H5.98561Z" fill="#EE7B1D"/>
<path fill-rule="evenodd" clip-rule="evenodd" d="M8.16133 155.868H6.98486V161.853H8.16133V155.868Z" fill="#EE7B1D"/>
<path fill-rule="evenodd" clip-rule="evenodd" d="M12.8672 158.588C12.8525 158.22 12.7496 157.956 12.5437 157.765C12.3378 157.588 12.1025 157.456 11.8378 157.397C11.5584 157.323 11.3231 157.294 11.1025 157.309C10.7937 157.294 10.4996 157.338 10.2202 157.412C9.92604 157.47 9.69075 157.618 9.49957 157.853C9.29369 158.073 9.17604 158.412 9.11722 158.853H10.2496C10.2496 158.706 10.3084 158.573 10.3966 158.441C10.4849 158.309 10.676 158.25 10.9555 158.235C11.1172 158.22 11.2937 158.25 11.4555 158.309C11.6172 158.368 11.7055 158.515 11.7202 158.75C11.7202 158.868 11.676 158.956 11.5878 159.015C11.4996 159.059 11.4113 159.088 11.3231 159.103L10.2643 159.265C9.89663 159.309 9.5878 159.456 9.35251 159.676C9.11722 159.912 8.98486 160.25 8.98486 160.676C8.98486 160.97 9.05839 161.22 9.17604 161.412C9.30839 161.603 9.48486 161.75 9.67604 161.838C9.88192 161.926 10.1025 161.956 10.3231 161.956C10.7202 161.956 11.0143 161.882 11.2349 161.75C11.4555 161.603 11.6319 161.47 11.7643 161.323C11.7643 161.441 11.779 161.529 11.7937 161.603C11.8084 161.662 11.8378 161.75 11.8672 161.853H13.1172V161.676C13.0437 161.647 12.9849 161.603 12.9407 161.5C12.8966 161.412 12.8672 161.235 12.8672 160.985V158.588ZM11.7202 160.265C11.7202 160.529 11.6025 160.75 11.3966 160.897C11.1907 161.044 10.9555 161.132 10.6907 161.132C10.5584 161.132 10.4407 161.103 10.3378 161.015C10.2202 160.941 10.1466 160.794 10.1466 160.603C10.1466 160.368 10.2349 160.206 10.3819 160.118C10.529 160.029 10.7055 159.97 10.9407 159.926C11.176 159.897 11.3525 159.853 11.4702 159.823C11.5878 159.779 11.676 159.735 11.7202 159.691V160.265Z" fill="#EE7B1D"/>
<path fill-rule="evenodd" clip-rule="evenodd" d="M20.2352 158.779C20.2205 158.294 20.0734 157.926 19.794 157.676C19.4999 157.426 19.1323 157.309 18.6911 157.309C18.4558 157.309 18.2646 157.353 18.1029 157.441C17.9558 157.529 17.8234 157.618 17.7352 157.735C17.6323 157.838 17.5587 157.941 17.5146 158.015C17.3676 157.779 17.2058 157.603 17.0293 157.485C16.8382 157.368 16.6029 157.309 16.2793 157.309C15.897 157.324 15.6029 157.412 15.4117 157.574C15.2205 157.75 15.0881 157.912 15.0293 158.074H15.0146V157.426H13.897V161.853H15.0587V159.147C15.0587 158.897 15.1029 158.706 15.2205 158.544C15.3234 158.382 15.5146 158.294 15.7793 158.279C16.0146 158.294 16.1764 158.338 16.2793 158.441C16.3676 158.529 16.4411 158.647 16.4558 158.779C16.4852 158.926 16.4852 159.059 16.4852 159.176V161.853H17.647V159.191C17.647 158.926 17.7058 158.706 17.8234 158.544C17.9411 158.382 18.147 158.294 18.4411 158.279C18.6176 158.279 18.7646 158.338 18.8823 158.471C18.9999 158.603 19.0587 158.838 19.0734 159.162V161.853H20.2352V158.779Z" fill="#EE7B1D"/>
<path fill-rule="evenodd" clip-rule="evenodd" d="M21.3237 157.426V161.853H22.4855V157.426H21.3237ZM22.4855 155.809H21.3237V156.897H22.4855V155.809Z" fill="#EE7B1D"/>
<path fill-rule="evenodd" clip-rule="evenodd" d="M26.2496 160.235C26.2496 160.309 26.2202 160.412 26.1761 160.529C26.1172 160.647 26.0437 160.75 25.9261 160.853C25.8084 160.956 25.6467 161 25.4555 161C25.1614 161 24.9555 160.912 24.8231 160.735C24.7055 160.573 24.6172 160.382 24.5878 160.162C24.5584 159.926 24.5437 159.735 24.5584 159.573C24.5584 159.382 24.5731 159.191 24.632 158.985C24.6908 158.794 24.779 158.632 24.9114 158.5C25.0437 158.367 25.2349 158.294 25.4849 158.279H25.529C25.779 158.294 25.9555 158.382 26.0584 158.544C26.1614 158.691 26.2349 158.853 26.2496 159H27.4261C27.382 158.544 27.2496 158.191 27.029 157.941C26.8084 157.706 26.5584 157.529 26.2643 157.441C25.9849 157.338 25.7202 157.294 25.4849 157.309C24.7349 157.323 24.1908 157.544 23.8525 158C23.5143 158.441 23.3525 159.029 23.3525 159.765C23.3525 160.073 23.4114 160.412 23.5143 160.75C23.632 161.073 23.8378 161.367 24.132 161.603C24.4261 161.823 24.8525 161.956 25.3967 161.956C25.9408 161.956 26.3525 161.838 26.632 161.617C26.9261 161.397 27.132 161.147 27.2349 160.882C27.3525 160.617 27.4114 160.397 27.4261 160.235H26.2496Z" fill="#EE7B1D"/>
<path fill-rule="evenodd" clip-rule="evenodd" d="M35.044 155.868H30.647V161.853H35.1911V160.794H31.8676V159.235H34.7793V158.191H31.8676V156.926H35.044V155.868Z" fill="#EE7B1D"/>
<path fill-rule="evenodd" clip-rule="evenodd" d="M38.7349 160.235C38.7349 160.309 38.7202 160.412 38.6614 160.529C38.6172 160.647 38.529 160.75 38.4114 160.853C38.3084 160.956 38.1467 161 37.9555 161C37.6614 161 37.4555 160.912 37.3231 160.735C37.1908 160.573 37.1172 160.382 37.0878 160.162C37.0584 159.926 37.0437 159.735 37.0437 159.573C37.0437 159.382 37.0731 159.191 37.132 158.985C37.1761 158.794 37.279 158.632 37.4114 158.5C37.5437 158.367 37.7349 158.294 37.9702 158.279H38.029C38.279 158.294 38.4555 158.382 38.5584 158.544C38.6614 158.691 38.7349 158.853 38.7496 159H39.9261C39.882 158.544 39.7496 158.191 39.529 157.941C39.3084 157.706 39.0584 157.529 38.7643 157.441C38.4849 157.338 38.2202 157.294 37.9702 157.309C37.2349 157.323 36.6908 157.544 36.3525 158C36.0143 158.441 35.8525 159.029 35.8525 159.765C35.8525 160.073 35.8967 160.412 36.0143 160.75C36.132 161.073 36.3378 161.367 36.632 161.603C36.9261 161.823 37.3525 161.956 37.8967 161.956C38.4408 161.956 38.8525 161.838 39.132 161.617C39.4261 161.397 39.632 161.147 39.7349 160.882C39.8525 160.617 39.9114 160.397 39.9261 160.235H38.7349Z" fill="#EE7B1D"/>
<path fill-rule="evenodd" clip-rule="evenodd" d="M45.0001 159.632C45.0001 159.103 44.8824 158.662 44.6765 158.324C44.4706 157.971 44.1912 157.721 43.853 157.559C43.5148 157.382 43.1471 157.309 42.7354 157.309C42.3383 157.309 41.9706 157.382 41.6177 157.559C41.2795 157.721 41.0148 157.971 40.7942 158.324C40.5883 158.662 40.4854 159.103 40.4854 159.632C40.4854 160.162 40.5883 160.603 40.7942 160.941C41.0148 161.294 41.2795 161.544 41.6177 161.721C41.9706 161.882 42.3383 161.956 42.7354 161.956C43.1471 161.956 43.5148 161.882 43.853 161.721C44.1912 161.544 44.4706 161.294 44.6765 160.941C44.8824 160.603 45.0001 160.162 45.0001 159.632ZM43.8089 159.632C43.8089 159.824 43.7795 160.029 43.7354 160.235C43.6765 160.441 43.5736 160.618 43.4118 160.765C43.2648 160.897 43.0295 160.971 42.7354 160.985C42.4412 160.971 42.2206 160.897 42.0589 160.765C41.9118 160.618 41.8089 160.441 41.7501 160.235C41.6912 160.029 41.6765 159.824 41.6765 159.632C41.6765 159.441 41.6912 159.235 41.7501 159.029C41.8089 158.824 41.9118 158.647 42.0589 158.515C42.2206 158.368 42.4412 158.294 42.7354 158.279C43.0295 158.294 43.2648 158.368 43.4118 158.515C43.5736 158.647 43.6765 158.824 43.7354 159.029C43.7795 159.235 43.8089 159.441 43.8089 159.632Z" fill="#EE7B1D"/>
<path fill-rule="evenodd" clip-rule="evenodd" d="M49.8237 158.779C49.809 158.294 49.662 157.926 49.3826 157.676C49.0884 157.426 48.7355 157.309 48.2796 157.309C48.0149 157.309 47.7796 157.353 47.6031 157.441C47.4267 157.529 47.2796 157.632 47.1767 157.75C47.0884 157.868 47.0002 157.971 46.9561 158.074H46.9414V157.426H45.8237V161.853H46.9855V159.309C47.0002 158.971 47.0884 158.721 47.2502 158.544C47.4267 158.368 47.6326 158.279 47.8973 158.279C48.1473 158.294 48.3237 158.338 48.4267 158.441C48.5296 158.544 48.6031 158.647 48.6326 158.794C48.6473 158.926 48.662 159.044 48.662 159.162V161.853H49.8237V158.779Z" fill="#EE7B1D"/>
<path fill-rule="evenodd" clip-rule="evenodd" d="M55.1764 159.632C55.1764 159.103 55.0587 158.662 54.8529 158.324C54.647 157.971 54.3676 157.721 54.0293 157.559C53.6911 157.382 53.3234 157.309 52.9117 157.309C52.5146 157.309 52.147 157.382 51.794 157.559C51.4558 157.721 51.1911 157.971 50.9705 158.324C50.7646 158.662 50.6617 159.103 50.647 159.632C50.6617 160.162 50.7646 160.603 50.9705 160.941C51.1911 161.294 51.4558 161.544 51.794 161.721C52.147 161.882 52.5146 161.956 52.9117 161.956C53.3234 161.956 53.6911 161.882 54.0293 161.721C54.3676 161.544 54.647 161.294 54.8529 160.941C55.0587 160.603 55.1764 160.162 55.1764 159.632ZM53.9852 159.632C53.9852 159.824 53.9558 160.029 53.9117 160.235C53.8529 160.441 53.7499 160.618 53.5882 160.765C53.4411 160.897 53.2058 160.971 52.9117 160.985C52.6176 160.971 52.397 160.897 52.2352 160.765C52.0881 160.618 51.9852 160.441 51.9264 160.235C51.8676 160.029 51.8529 159.824 51.8529 159.632C51.8529 159.441 51.8676 159.235 51.9264 159.029C51.9852 158.824 52.0881 158.647 52.2352 158.515C52.397 158.368 52.6176 158.294 52.9117 158.279C53.2058 158.294 53.4411 158.368 53.5882 158.515C53.7499 158.647 53.8529 158.824 53.9117 159.029C53.9558 159.235 53.9852 159.441 53.9852 159.632Z" fill="#EE7B1D"/>
<path fill-rule="evenodd" clip-rule="evenodd" d="M62.3231 158.779C62.3231 158.294 62.176 157.926 61.8819 157.676C61.6025 157.426 61.2349 157.309 60.7937 157.309C60.5584 157.309 60.3525 157.353 60.2055 157.441C60.0437 157.529 59.926 157.618 59.8231 157.735C59.7349 157.838 59.6613 157.941 59.6025 158.015C59.4702 157.779 59.3084 157.603 59.1172 157.485C58.9407 157.368 58.6907 157.309 58.3819 157.309C57.9996 157.324 57.7055 157.412 57.5143 157.574C57.3231 157.75 57.1907 157.912 57.1172 158.074H57.1025V157.426H55.9849V161.853H57.1613V159.147C57.1466 158.897 57.2055 158.706 57.3084 158.544C57.4113 158.382 57.6025 158.294 57.8819 158.279C58.1025 158.294 58.2643 158.338 58.3672 158.441C58.4702 158.529 58.529 158.647 58.5584 158.779C58.5731 158.926 58.5878 159.059 58.5731 159.176V161.853H59.7349V159.191C59.7349 158.926 59.7937 158.706 59.9113 158.544C60.0437 158.382 60.2496 158.294 60.529 158.279C60.7055 158.279 60.8525 158.338 60.9702 158.471C61.1025 158.603 61.1613 158.838 61.1613 159.162V161.853H62.3231V158.779Z" fill="#EE7B1D"/>
<path fill-rule="evenodd" clip-rule="evenodd" d="M63.4263 157.426V161.853H64.588V157.426H63.4263ZM64.588 155.809H63.4263V156.897H64.588V155.809Z" fill="#EE7B1D"/>
<path fill-rule="evenodd" clip-rule="evenodd" d="M68.3382 160.235C68.3382 160.309 68.3088 160.412 68.2647 160.529C68.2205 160.647 68.1323 160.75 68.0147 160.853C67.897 160.956 67.75 161 67.5441 161C67.2647 161 67.0441 160.912 66.9264 160.735C66.7941 160.573 66.7205 160.382 66.6911 160.162C66.6617 159.926 66.647 159.735 66.647 159.573C66.647 159.382 66.6764 159.191 66.7205 158.985C66.7794 158.794 66.8676 158.632 67.0147 158.5C67.147 158.367 67.3382 158.294 67.5735 158.279H67.6323C67.8823 158.294 68.0588 158.382 68.1617 158.544C68.2647 158.691 68.3235 158.853 68.3529 159H69.5294C69.4852 158.544 69.3529 158.191 69.1323 157.941C68.9117 157.706 68.647 157.529 68.3676 157.441C68.0735 157.338 67.8088 157.294 67.5735 157.309C66.8235 157.323 66.2941 157.544 65.9558 158C65.6176 158.441 65.4411 159.029 65.4558 159.765C65.4411 160.073 65.5 160.412 65.6176 160.75C65.7205 161.073 65.9264 161.367 66.2352 161.603C66.5294 161.823 66.9558 161.956 67.5 161.956C68.0294 161.956 68.4411 161.838 68.7352 161.617C69.0294 161.397 69.2205 161.147 69.3382 160.882C69.4558 160.617 69.5147 160.397 69.5147 160.235H68.3382Z" fill="#EE7B1D"/>
<path fill-rule="evenodd" clip-rule="evenodd" d="M73.9704 158.765C73.941 158.353 73.8234 158.044 73.6175 157.838C73.4116 157.618 73.1616 157.485 72.8675 157.412C72.5734 157.338 72.2792 157.294 71.9851 157.309C71.5292 157.309 71.1763 157.397 70.9116 157.544C70.6469 157.691 70.4704 157.882 70.3528 158.118C70.2498 158.338 70.191 158.559 70.2057 158.779C70.2057 159.118 70.3087 159.368 70.4851 159.544C70.6763 159.72 70.8969 159.853 71.1616 159.941C71.441 160.015 71.7057 160.088 71.9851 160.132C72.2498 160.176 72.4704 160.235 72.6616 160.309C72.8381 160.368 72.941 160.485 72.941 160.618C72.9557 160.72 72.8969 160.809 72.7939 160.912C72.691 161.015 72.4998 161.073 72.2057 161.088C71.8381 161.073 71.5881 161.015 71.441 160.897C71.3087 160.779 71.2351 160.618 71.2351 160.426H70.0439C70.0587 160.823 70.1763 161.132 70.3822 161.353C70.6028 161.573 70.8675 161.735 71.1763 161.823C71.4998 161.926 71.8234 161.97 72.1763 161.956C72.4116 161.97 72.6763 161.926 72.9851 161.853C73.2792 161.779 73.5439 161.632 73.7645 161.412C73.9851 161.191 74.1028 160.868 74.1028 160.441C74.1028 160.118 73.9998 159.868 73.8234 159.691C73.6322 159.515 73.4116 159.382 73.1322 159.294C72.8675 159.206 72.5881 159.147 72.3087 159.088C72.0439 159.044 71.8087 158.985 71.6322 158.926C71.441 158.853 71.3528 158.75 71.3381 158.618C71.3234 158.515 71.3675 158.426 71.4557 158.323C71.5439 158.235 71.7498 158.191 72.0587 158.191C72.3675 158.191 72.5587 158.25 72.6616 158.368C72.7645 158.485 72.8234 158.618 72.8381 158.765H73.9704Z" fill="#EE7B1D"/>
<path fill-rule="evenodd" clip-rule="evenodd" d="M79.9707 157.25C79.956 157.397 79.9118 157.529 79.8089 157.662C79.706 157.779 79.5736 157.882 79.4118 157.985C79.2795 157.838 79.1618 157.691 79.0883 157.574C79.0148 157.441 78.9854 157.338 78.9854 157.235C78.9854 157.074 79.0295 156.956 79.1324 156.882C79.2207 156.794 79.3383 156.75 79.4707 156.75C79.6177 156.75 79.7354 156.794 79.8236 156.882C79.9118 156.956 79.956 157.074 79.9707 157.25ZM81.4854 160.544C81.6912 160.279 81.8383 160.029 81.956 159.75C82.0589 159.471 82.1324 159.132 82.1765 158.75H81.1324C81.1177 158.971 81.0736 159.162 81.0295 159.324C80.9707 159.471 80.9118 159.618 80.8236 159.721L79.9854 158.677C80.0736 158.632 80.1912 158.544 80.353 158.427C80.5001 158.309 80.6471 158.162 80.7648 157.971C80.8971 157.765 80.9707 157.529 80.9707 157.25C80.9707 156.941 80.8824 156.676 80.7354 156.471C80.5883 156.265 80.3971 156.118 80.1765 156.015C79.956 155.926 79.7354 155.868 79.5148 155.868C79.0295 155.882 78.6471 156 78.3677 156.25C78.0736 156.5 77.9265 156.838 77.9265 157.25C77.9265 157.5 77.9854 157.75 78.103 157.956C78.206 158.177 78.3236 158.353 78.456 158.5L78.3383 158.574C78.0148 158.765 77.7648 158.971 77.603 159.162C77.4265 159.353 77.3236 159.544 77.2648 159.735C77.206 159.927 77.1765 160.118 77.1912 160.309C77.1912 160.603 77.2648 160.882 77.4118 161.147C77.5736 161.397 77.7795 161.603 78.0589 161.765C78.3383 161.912 78.6618 162 79.0442 162C79.5001 162 79.853 161.927 80.103 161.809C80.3677 161.677 80.5883 161.515 80.7501 161.338L81.1618 161.853H82.5736L81.4854 160.544ZM80.1618 160.603C80.0589 160.706 79.9265 160.794 79.7648 160.882C79.603 160.971 79.4265 161.015 79.2354 161.029C79.0001 161.015 78.8236 160.971 78.6912 160.868C78.5589 160.779 78.4707 160.662 78.4265 160.544C78.3677 160.412 78.353 160.309 78.353 160.235C78.353 160 78.4118 159.824 78.5148 159.691C78.6324 159.559 78.8089 159.397 79.0589 159.235L80.1618 160.603Z" fill="#EE7B1D"/>
<path fill-rule="evenodd" clip-rule="evenodd" d="M85.6909 161.853H88.2203C88.6174 161.838 88.9409 161.824 89.1762 161.779C89.4115 161.735 89.6027 161.677 89.735 161.588C89.8674 161.515 89.9997 161.412 90.1027 161.309C90.2644 161.147 90.3968 160.971 90.485 160.75C90.5733 160.544 90.6174 160.309 90.6174 160.074C90.6321 159.779 90.5586 159.485 90.4409 159.235C90.3086 158.971 90.0586 158.765 89.6909 158.632C89.7792 158.588 89.8821 158.529 89.9997 158.441C90.1174 158.368 90.2056 158.235 90.2939 158.074C90.3821 157.912 90.4262 157.691 90.4262 157.397C90.4409 157.191 90.3821 156.971 90.2792 156.735C90.1762 156.5 89.985 156.294 89.7203 156.132C89.4556 155.971 89.0733 155.882 88.588 155.868H85.6909V161.853ZM86.8821 159.221H88.4703C88.7056 159.221 88.9115 159.265 89.088 159.382C89.2644 159.5 89.3674 159.677 89.3674 159.941C89.3674 160.25 89.2939 160.471 89.1174 160.603C88.9556 160.75 88.7203 160.824 88.4115 160.809H86.8821V159.221ZM86.8821 156.912H88.3233C88.6027 156.897 88.8233 156.941 88.985 157.044C89.1468 157.132 89.235 157.309 89.235 157.544C89.2203 157.779 89.1468 157.956 88.9703 158.059C88.8086 158.162 88.6027 158.221 88.3527 158.206H86.8821V156.912Z" fill="#EE7B1D"/>
<path fill-rule="evenodd" clip-rule="evenodd" d="M95.5883 157.426H94.4266V159.971C94.4119 160.368 94.3089 160.632 94.1177 160.779C93.9266 160.926 93.7354 160.985 93.5295 160.985C93.3383 160.985 93.1619 160.941 93.0148 160.823C92.853 160.721 92.7795 160.5 92.7648 160.162V157.426H91.603V160.338C91.6177 160.897 91.7501 161.309 92.0295 161.573C92.3089 161.838 92.6619 161.971 93.103 161.956C93.4119 161.956 93.6913 161.897 93.9119 161.765C94.1471 161.647 94.3236 161.456 94.456 161.221H94.4707V161.853H95.5883V157.426Z" fill="#EE7B1D"/>
<path fill-rule="evenodd" clip-rule="evenodd" d="M100.323 158.765C100.294 158.353 100.161 158.044 99.9553 157.838C99.7494 157.618 99.5141 157.485 99.22 157.412C98.9259 157.338 98.6318 157.294 98.3377 157.309C97.8818 157.309 97.5141 157.397 97.2641 157.544C96.9994 157.691 96.8082 157.882 96.7053 158.118C96.6024 158.338 96.5435 158.559 96.5435 158.779C96.5582 159.118 96.6465 159.368 96.8377 159.544C97.0141 159.72 97.2494 159.853 97.5141 159.941C97.7788 160.015 98.0582 160.088 98.323 160.132C98.6024 160.176 98.823 160.235 99.0141 160.309C99.1906 160.368 99.2935 160.485 99.2935 160.618C99.2935 160.72 99.2494 160.809 99.1465 160.912C99.0435 161.015 98.8524 161.073 98.5582 161.088C98.1906 161.073 97.9406 161.015 97.7935 160.897C97.6465 160.779 97.5877 160.618 97.5877 160.426H96.3965C96.4112 160.823 96.5288 161.132 96.7347 161.353C96.9406 161.573 97.2053 161.735 97.5288 161.823C97.8524 161.926 98.1759 161.97 98.5141 161.956C98.7641 161.97 99.0288 161.926 99.323 161.853C99.6318 161.779 99.8818 161.632 100.102 161.412C100.323 161.191 100.441 160.868 100.455 160.441C100.455 160.118 100.352 159.868 100.176 159.691C99.9847 159.515 99.7494 159.382 99.4847 159.294C99.2053 159.206 98.9406 159.147 98.6612 159.088C98.3818 159.044 98.1612 158.985 97.97 158.926C97.7935 158.853 97.6906 158.75 97.6906 158.618C97.6759 158.515 97.72 158.426 97.8082 158.323C97.8965 158.235 98.1024 158.191 98.3965 158.191C98.7053 158.191 98.9112 158.25 99.0141 158.368C99.1171 158.485 99.1759 158.618 99.1906 158.765H100.323Z" fill="#EE7B1D"/>
<path fill-rule="evenodd" clip-rule="evenodd" d="M101.338 157.426V161.853H102.5V157.426H101.338ZM102.5 155.809H101.338V156.897H102.5V155.809Z" fill="#EE7B1D"/>
<path fill-rule="evenodd" clip-rule="evenodd" d="M107.633 158.779C107.618 158.294 107.471 157.926 107.177 157.676C106.898 157.426 106.53 157.309 106.089 157.309C105.809 157.309 105.589 157.353 105.412 157.441C105.221 157.529 105.089 157.632 104.986 157.75C104.883 157.868 104.809 157.971 104.765 158.074H104.736V157.426H103.633V161.853H104.795V159.309C104.795 158.971 104.883 158.721 105.059 158.544C105.221 158.368 105.442 158.279 105.706 158.279C105.956 158.294 106.118 158.338 106.236 158.441C106.339 158.544 106.412 158.647 106.427 158.794C106.456 158.926 106.471 159.044 106.471 159.162V161.853H107.633V158.779Z" fill="#EE7B1D"/>
<path fill-rule="evenodd" clip-rule="evenodd" d="M111.324 160.544C111.265 160.706 111.177 160.824 111.029 160.912C110.897 160.985 110.735 161.029 110.574 161.029C110.265 161.029 110.029 160.956 109.882 160.824C109.75 160.691 109.647 160.544 109.603 160.382C109.559 160.206 109.529 160.074 109.529 159.956H112.559V159.735C112.559 159.074 112.441 158.559 112.221 158.206C112 157.853 111.735 157.618 111.412 157.485C111.103 157.353 110.794 157.294 110.485 157.309C110 157.309 109.618 157.397 109.338 157.574C109.059 157.75 108.838 157.971 108.706 158.221C108.559 158.471 108.471 158.721 108.426 158.971C108.382 159.206 108.368 159.397 108.368 159.544C108.382 160.441 108.588 161.074 109 161.441C109.412 161.794 109.926 161.971 110.574 161.956C110.824 161.971 111.088 161.926 111.338 161.838C111.603 161.75 111.838 161.588 112.044 161.382C112.25 161.176 112.412 160.897 112.515 160.544H111.324ZM109.559 159.191C109.588 158.897 109.691 158.676 109.838 158.515C109.985 158.338 110.191 158.265 110.471 158.265C110.662 158.25 110.853 158.324 111.029 158.456C111.221 158.603 111.324 158.838 111.368 159.191H109.559Z" fill="#EE7B1D"/>
<path fill-rule="evenodd" clip-rule="evenodd" d="M116.986 158.765C116.941 158.353 116.824 158.044 116.618 157.838C116.412 157.618 116.162 157.485 115.868 157.412C115.589 157.338 115.294 157.294 115 157.309C114.53 157.309 114.177 157.397 113.912 157.544C113.662 157.691 113.471 157.882 113.368 158.118C113.25 158.338 113.206 158.559 113.206 158.779C113.206 159.118 113.309 159.368 113.486 159.544C113.677 159.72 113.897 159.853 114.177 159.941C114.441 160.015 114.721 160.088 114.986 160.132C115.25 160.176 115.486 160.235 115.662 160.309C115.853 160.368 115.941 160.485 115.956 160.618C115.956 160.72 115.912 160.809 115.809 160.912C115.706 161.015 115.5 161.073 115.206 161.088C114.853 161.073 114.603 161.015 114.456 160.897C114.309 160.779 114.236 160.618 114.25 160.426H113.044C113.059 160.823 113.177 161.132 113.397 161.353C113.603 161.573 113.868 161.735 114.191 161.823C114.5 161.926 114.839 161.97 115.177 161.956C115.412 161.97 115.691 161.926 115.986 161.853C116.28 161.779 116.544 161.632 116.765 161.412C116.986 161.191 117.103 160.868 117.118 160.441C117.103 160.118 117.015 159.868 116.824 159.691C116.647 159.515 116.412 159.382 116.133 159.294C115.868 159.206 115.589 159.147 115.324 159.088C115.044 159.044 114.824 158.985 114.633 158.926C114.441 158.853 114.353 158.75 114.339 158.618C114.339 158.515 114.368 158.426 114.471 158.323C114.559 158.235 114.75 158.191 115.059 158.191C115.368 158.191 115.574 158.25 115.677 158.368C115.765 158.485 115.824 158.618 115.839 158.765H116.986Z" fill="#EE7B1D"/>
<path fill-rule="evenodd" clip-rule="evenodd" d="M121.603 158.765C121.573 158.353 121.441 158.044 121.235 157.838C121.029 157.618 120.794 157.485 120.5 157.412C120.206 157.338 119.912 157.294 119.617 157.309C119.162 157.309 118.794 157.397 118.544 157.544C118.279 157.691 118.088 157.882 117.985 158.118C117.882 158.338 117.823 158.559 117.823 158.779C117.838 159.118 117.926 159.368 118.117 159.544C118.294 159.72 118.529 159.853 118.794 159.941C119.059 160.015 119.338 160.088 119.603 160.132C119.882 160.176 120.103 160.235 120.294 160.309C120.47 160.368 120.573 160.485 120.573 160.618C120.573 160.72 120.529 160.809 120.426 160.912C120.323 161.015 120.132 161.073 119.838 161.088C119.47 161.073 119.22 161.015 119.073 160.897C118.926 160.779 118.867 160.618 118.867 160.426H117.676C117.691 160.823 117.809 161.132 118.015 161.353C118.22 161.573 118.485 161.735 118.809 161.823C119.132 161.926 119.456 161.97 119.794 161.956C120.044 161.97 120.309 161.926 120.603 161.853C120.912 161.779 121.162 161.632 121.382 161.412C121.603 161.191 121.72 160.868 121.735 160.441C121.735 160.118 121.632 159.868 121.456 159.691C121.265 159.515 121.029 159.382 120.765 159.294C120.485 159.206 120.22 159.147 119.941 159.088C119.676 159.044 119.441 158.985 119.25 158.926C119.073 158.853 118.97 158.75 118.97 158.618C118.956 158.515 119 158.426 119.088 158.323C119.176 158.235 119.382 158.191 119.676 158.191C119.985 158.191 120.191 158.25 120.294 158.368C120.397 158.485 120.456 158.618 120.47 158.765H121.603Z" fill="#EE7B1D"/>
<path d="M124.279 160C124.279 158.971 125.118 158.147 126.147 158.147C127.176 158.147 128.015 158.971 128.015 160C128.015 161.029 127.176 161.868 126.147 161.868C125.118 161.868 124.279 161.029 124.279 160Z" fill="#EE7B1D"/>
<path fill-rule="evenodd" clip-rule="evenodd" d="M132.544 155.868H131.294V161.853H135.515V160.765H132.544V155.868Z" fill="#EE7B1D"/>
<path fill-rule="evenodd" clip-rule="evenodd" d="M140.015 158.588C140.015 158.22 139.912 157.956 139.706 157.765C139.5 157.588 139.265 157.456 139 157.397C138.721 157.323 138.471 157.294 138.265 157.309C137.956 157.294 137.662 157.338 137.368 157.412C137.088 157.47 136.853 157.618 136.647 157.853C136.456 158.073 136.324 158.412 136.279 158.853H137.397C137.412 158.706 137.456 158.573 137.559 158.441C137.647 158.309 137.838 158.25 138.118 158.235C138.279 158.22 138.441 158.25 138.618 158.309C138.779 158.368 138.868 158.515 138.882 158.75C138.882 158.868 138.838 158.956 138.75 159.015C138.662 159.059 138.574 159.088 138.471 159.103L137.426 159.265C137.044 159.309 136.735 159.456 136.5 159.676C136.265 159.912 136.147 160.25 136.132 160.676C136.147 160.97 136.206 161.22 136.338 161.412C136.471 161.603 136.632 161.75 136.838 161.838C137.044 161.926 137.265 161.956 137.485 161.956C137.868 161.956 138.176 161.882 138.397 161.75C138.618 161.603 138.794 161.47 138.912 161.323C138.926 161.441 138.941 161.529 138.956 161.603C138.971 161.662 138.985 161.75 139.029 161.853H140.279V161.676C140.206 161.647 140.147 161.603 140.103 161.5C140.044 161.412 140.029 161.235 140.015 160.985V158.588ZM138.882 160.265C138.868 160.529 138.765 160.75 138.559 160.897C138.353 161.044 138.118 161.132 137.838 161.132C137.721 161.132 137.603 161.103 137.485 161.015C137.368 160.941 137.309 160.794 137.294 160.603C137.309 160.368 137.382 160.206 137.529 160.118C137.676 160.029 137.868 159.97 138.088 159.926C138.324 159.897 138.5 159.853 138.618 159.823C138.75 159.779 138.824 159.735 138.882 159.691V160.265Z" fill="#EE7B1D"/>
<path fill-rule="evenodd" clip-rule="evenodd" d="M146.809 157.426H145.618L144.926 160.603H144.912L144.25 157.426H143.074L142.456 160.603H142.426L141.735 157.426H140.5L141.75 161.853H142.941L143.632 158.618H143.662L144.353 161.853H145.544L146.809 157.426Z" fill="#EE7B1D"/>
<path d="M149.147 160C149.147 158.971 149.971 158.147 151 158.147C152.029 158.147 152.868 158.971 152.868 160C152.868 161.029 152.029 161.868 151 161.868C149.971 161.868 149.147 161.029 149.147 160Z" fill="#EE7B1D"/>
<path fill-rule="evenodd" clip-rule="evenodd" d="M160.545 155.868H156.147V161.853H160.677V160.794H157.368V159.235H160.28V158.191H157.368V156.926H160.545V155.868Z" fill="#EE7B1D"/>
<path fill-rule="evenodd" clip-rule="evenodd" d="M165.647 155.868H164.485V158H164.471C164.382 157.838 164.235 157.691 164.044 157.544C163.838 157.397 163.559 157.309 163.191 157.309C162.853 157.309 162.559 157.382 162.279 157.559C162 157.721 161.779 157.971 161.603 158.309C161.441 158.647 161.353 159.074 161.353 159.588C161.353 160 161.412 160.382 161.544 160.735C161.677 161.103 161.868 161.397 162.147 161.618C162.427 161.838 162.779 161.956 163.206 161.956C163.456 161.971 163.691 161.912 163.927 161.809C164.162 161.706 164.353 161.529 164.5 161.294H164.515V161.853H165.647V155.868ZM162.544 159.662C162.544 159.309 162.618 158.985 162.765 158.721C162.912 158.456 163.177 158.324 163.544 158.309C163.794 158.309 164 158.382 164.147 158.529C164.294 158.662 164.397 158.838 164.456 159.044C164.515 159.265 164.544 159.5 164.529 159.735C164.544 160.074 164.456 160.368 164.294 160.618C164.132 160.868 163.868 161 163.5 161C163.25 161 163.059 160.927 162.927 160.779C162.779 160.632 162.691 160.456 162.632 160.25C162.574 160.044 162.544 159.853 162.544 159.662Z" fill="#EE7B1D"/>
<path fill-rule="evenodd" clip-rule="evenodd" d="M170.691 157.426H169.529V159.971C169.514 160.368 169.411 160.632 169.22 160.779C169.029 160.926 168.823 160.985 168.617 160.985C168.441 160.985 168.264 160.941 168.117 160.823C167.956 160.721 167.882 160.5 167.867 160.162V157.426H166.706V160.338C166.706 160.897 166.853 161.309 167.132 161.573C167.397 161.838 167.764 161.971 168.206 161.956C168.514 161.956 168.779 161.897 169.014 161.765C169.235 161.647 169.426 161.456 169.559 161.221H169.573V161.853H170.691V157.426Z" fill="#EE7B1D"/>
<path fill-rule="evenodd" clip-rule="evenodd" d="M174.412 160.235C174.412 160.309 174.383 160.412 174.338 160.529C174.294 160.647 174.206 160.75 174.088 160.853C173.971 160.956 173.824 161 173.618 161C173.338 161 173.118 160.912 173 160.735C172.868 160.573 172.794 160.382 172.765 160.162C172.735 159.926 172.721 159.735 172.721 159.573C172.721 159.382 172.75 159.191 172.794 158.985C172.853 158.794 172.941 158.632 173.088 158.5C173.221 158.367 173.397 158.294 173.647 158.279H173.706C173.956 158.294 174.133 158.382 174.235 158.544C174.338 158.691 174.397 158.853 174.427 159H175.603C175.559 158.544 175.427 158.191 175.206 157.941C174.985 157.706 174.721 157.529 174.441 157.441C174.147 157.338 173.883 157.294 173.647 157.309C172.897 157.323 172.368 157.544 172.03 158C171.691 158.441 171.515 159.029 171.53 159.765C171.515 160.073 171.574 160.412 171.691 160.75C171.794 161.073 172 161.367 172.309 161.603C172.603 161.823 173.03 161.956 173.574 161.956C174.103 161.956 174.515 161.838 174.809 161.617C175.103 161.397 175.294 161.147 175.412 160.882C175.53 160.617 175.588 160.397 175.588 160.235H174.412Z" fill="#EE7B1D"/>
<path fill-rule="evenodd" clip-rule="evenodd" d="M179.985 158.588C179.985 158.22 179.867 157.956 179.676 157.765C179.47 157.588 179.235 157.456 178.955 157.397C178.691 157.323 178.441 157.294 178.235 157.309C177.926 157.294 177.617 157.338 177.338 157.412C177.058 157.47 176.823 157.618 176.617 157.853C176.426 158.073 176.294 158.412 176.25 158.853H177.367C177.382 158.706 177.426 158.573 177.529 158.441C177.617 158.309 177.808 158.25 178.088 158.235C178.25 158.22 178.411 158.25 178.588 158.309C178.75 158.368 178.838 158.515 178.853 158.75C178.853 158.868 178.808 158.956 178.72 159.015C178.632 159.059 178.544 159.088 178.441 159.103L177.397 159.265C177.014 159.309 176.705 159.456 176.47 159.676C176.235 159.912 176.117 160.25 176.103 160.676C176.117 160.97 176.176 161.22 176.308 161.412C176.441 161.603 176.603 161.75 176.808 161.838C177.014 161.926 177.235 161.956 177.455 161.956C177.838 161.956 178.147 161.882 178.367 161.75C178.588 161.603 178.764 161.47 178.882 161.323C178.897 161.441 178.911 161.529 178.926 161.603C178.941 161.662 178.955 161.75 179 161.853H180.25V161.676C180.176 161.647 180.117 161.603 180.073 161.5C180.014 161.412 180 161.235 179.985 160.985V158.588ZM178.853 160.265C178.838 160.529 178.735 160.75 178.529 160.897C178.323 161.044 178.088 161.132 177.808 161.132C177.691 161.132 177.573 161.103 177.455 161.015C177.338 160.941 177.279 160.794 177.264 160.603C177.279 160.368 177.353 160.206 177.5 160.118C177.647 160.029 177.838 159.97 178.058 159.926C178.294 159.897 178.47 159.853 178.588 159.823C178.705 159.779 178.794 159.735 178.853 159.691V160.265Z" fill="#EE7B1D"/>
<path fill-rule="evenodd" clip-rule="evenodd" d="M182.338 156.221H181.176V157.426H180.573V158.25H181.176V160.941C181.161 161.235 181.235 161.456 181.382 161.632C181.544 161.809 181.867 161.897 182.353 161.897H182.514C182.691 161.897 182.882 161.882 183.059 161.882V161C183.014 161 182.97 161 182.941 161.015C182.897 161.015 182.853 161.015 182.823 161.015C182.588 161.015 182.456 160.985 182.397 160.926C182.353 160.882 182.323 160.779 182.338 160.662V158.25H183.059V157.426H182.338V156.221Z" fill="#EE7B1D"/>
<path fill-rule="evenodd" clip-rule="evenodd" d="M183.824 157.426V161.853H185V157.426H183.824ZM185 155.809H183.824V156.897H185V155.809Z" fill="#EE7B1D"/>
<path fill-rule="evenodd" clip-rule="evenodd" d="M190.382 159.632C190.382 159.103 190.264 158.662 190.058 158.324C189.853 157.971 189.573 157.721 189.235 157.559C188.897 157.382 188.529 157.309 188.117 157.309C187.72 157.309 187.353 157.382 187 157.559C186.661 157.721 186.397 157.971 186.176 158.324C185.97 158.662 185.867 159.103 185.853 159.632C185.867 160.162 185.97 160.603 186.176 160.941C186.397 161.294 186.661 161.544 187 161.721C187.353 161.882 187.72 161.956 188.117 161.956C188.529 161.956 188.897 161.882 189.235 161.721C189.573 161.544 189.853 161.294 190.058 160.941C190.264 160.603 190.382 160.162 190.382 159.632ZM189.191 159.632C189.191 159.824 189.161 160.029 189.117 160.235C189.058 160.441 188.955 160.618 188.794 160.765C188.647 160.897 188.411 160.971 188.117 160.985C187.823 160.971 187.603 160.897 187.441 160.765C187.294 160.618 187.191 160.441 187.132 160.235C187.073 160.029 187.058 159.824 187.058 159.632C187.058 159.441 187.073 159.235 187.132 159.029C187.191 158.824 187.294 158.647 187.441 158.515C187.603 158.368 187.823 158.294 188.117 158.279C188.411 158.294 188.647 158.368 188.794 158.515C188.955 158.647 189.058 158.824 189.117 159.029C189.161 159.235 189.191 159.441 189.191 159.632Z" fill="#EE7B1D"/>
<path fill-rule="evenodd" clip-rule="evenodd" d="M195.206 158.779C195.191 158.294 195.044 157.926 194.765 157.676C194.471 157.426 194.118 157.309 193.662 157.309C193.397 157.309 193.162 157.353 192.985 157.441C192.809 157.529 192.662 157.632 192.559 157.75C192.456 157.868 192.383 157.971 192.338 158.074H192.324V157.426H191.206V161.853H192.368V159.309C192.383 158.971 192.471 158.721 192.633 158.544C192.809 158.368 193.015 158.279 193.28 158.279C193.53 158.294 193.706 158.338 193.809 158.441C193.912 158.544 193.985 158.647 194.015 158.794C194.03 158.926 194.044 159.044 194.044 159.162V161.853H195.206V158.779Z" fill="#EE7B1D"/>
</svg>
