<svg width="77" height="64" viewBox="0 0 77 64" fill="none" xmlns="http://www.w3.org/2000/svg">
<path d="M38.5004 48.8243L17.3599 36.6182V26.7688H24.4241V32.5418L38.5004 40.6657L52.5768 32.5418V26.7688H59.641V36.6182L38.5004 48.8243Z" fill="#EE7B1D"/>
<path d="M17.3599 22.0613V12.2061L38.5004 0L59.641 12.2061V22.0613H52.5768V16.2883L38.5004 8.15861L24.4241 16.2883V22.0613H17.3599Z" fill="#194189"/>
<path d="M41.7952 23.3467L46.1611 27.7126L41.7952 32.0727L37.4351 27.7126L41.7952 23.3467Z" fill="#194189"/>
<path d="M35.2053 16.7515L39.5654 21.1174L35.2053 25.4775L30.8394 21.1174L35.2053 16.7515Z" fill="#194189"/>
<path fill-rule="evenodd" clip-rule="evenodd" d="M43.9604 54.8692H45.6628V59.1309H47.5505V54.8692H49.2528V53.3579H43.9604V54.8692Z" fill="#194189"/>
<path fill-rule="evenodd" clip-rule="evenodd" d="M52.7332 57.168H51.5403L52.1252 55.095L52.7332 57.168ZM50.9613 59.1309L51.1813 58.3666H53.0632L53.289 59.1309H55.1709L53.1037 53.3579H51.1813L49.1084 59.1309H50.9613Z" fill="#194189"/>
<path fill-rule="evenodd" clip-rule="evenodd" d="M60.7524 59.1309V57.7817H57.8341L60.6424 54.6955V53.3579H55.6627V54.7013H58.3147L55.5469 57.7586V59.1309H60.7524Z" fill="#194189"/>
<path fill-rule="evenodd" clip-rule="evenodd" d="M61.644 59.1309H63.5375V57.3011L63.9833 56.8263L65.373 59.1309H67.6428L65.3093 55.5293L67.417 53.3579H65.1993L63.5375 55.2224V53.3579H61.644V59.1309Z" fill="#194189"/>
<path fill-rule="evenodd" clip-rule="evenodd" d="M70.2196 59.1309V53.3579H68.3262V59.1309H70.2196Z" fill="#194189"/>
<path fill-rule="evenodd" clip-rule="evenodd" d="M74.5623 57.168H73.3637L73.9485 55.095L74.5623 57.168ZM72.7846 59.1309L73.0047 58.3666H74.8865L75.1123 59.1309H77L74.9271 53.3579H73.0047L70.9375 59.1309H72.7846Z" fill="#194189"/>
<path fill-rule="evenodd" clip-rule="evenodd" d="M1.89345 59.1309V53.3579H0V59.1309H1.89345Z" fill="#194189"/>
<path fill-rule="evenodd" clip-rule="evenodd" d="M4.84656 53.3579H3.07471V59.1309H4.88709V57.3011L4.8176 55.9867L6.87897 59.1309H8.65082V53.3579H6.83844V55.1935L6.90792 56.5079L4.84656 53.3579Z" fill="#194189"/>
<path fill-rule="evenodd" clip-rule="evenodd" d="M14.5627 55.0314C14.499 54.5103 14.2732 54.0818 13.8795 53.7402C13.4857 53.3927 12.8893 53.219 12.0902 53.2017C11.6039 53.2017 11.1754 53.2711 10.799 53.4101C10.4284 53.5433 10.1331 53.7517 9.91886 54.0239C9.70462 54.296 9.5946 54.6377 9.58881 55.0488C9.60039 55.4831 9.71041 55.8247 9.93623 56.0679C10.1563 56.3111 10.4284 56.4964 10.7585 56.6238C11.0885 56.7454 11.4128 56.8438 11.7428 56.9133C12.0671 56.9828 12.345 57.058 12.5651 57.1449C12.7851 57.2317 12.9009 57.3591 12.9125 57.5271C12.9067 57.666 12.8372 57.7702 12.6924 57.8397C12.5535 57.915 12.3624 57.9498 12.125 57.9498C12.0323 57.9498 11.9339 57.9382 11.8413 57.915C11.7486 57.8918 11.6618 57.8571 11.5865 57.805C11.5054 57.7587 11.4359 57.695 11.3838 57.6197C11.3317 57.5444 11.2912 57.4518 11.2738 57.3476H9.46143C9.4788 57.7008 9.58881 58.025 9.80306 58.3145C10.0173 58.6041 10.3126 58.8357 10.689 59.0152C11.0654 59.1889 11.5112 59.2757 12.0208 59.2815C12.8256 59.2815 13.4741 59.1194 13.9663 58.7894C14.4585 58.4593 14.7075 57.9613 14.7191 57.2954C14.7133 56.8785 14.5975 56.5543 14.3774 56.3169C14.1574 56.0795 13.8795 55.9 13.5552 55.7784C13.2252 55.6568 12.8951 55.5583 12.5708 55.4889C12.2408 55.4136 11.9686 55.3325 11.7486 55.2457C11.5228 55.1588 11.4128 55.0314 11.4012 54.8635C11.4012 54.7593 11.4475 54.6782 11.546 54.6203C11.6444 54.5624 11.7949 54.5334 12.0034 54.5334C12.096 54.5334 12.1829 54.5392 12.264 54.5566C12.3508 54.574 12.4261 54.6029 12.4898 54.6377C12.5593 54.6724 12.623 54.7245 12.6693 54.7882C12.7156 54.8519 12.7503 54.933 12.7677 55.0314H14.5627Z" fill="#194189"/>
<path fill-rule="evenodd" clip-rule="evenodd" d="M15.2285 54.8692H16.9309V59.1309H18.8185V54.8692H20.5209V53.3579H15.2285V54.8692Z" fill="#194189"/>
<path fill-rule="evenodd" clip-rule="evenodd" d="M23.2655 59.1309V53.3579H21.3721V59.1309H23.2655Z" fill="#194189"/>
<path fill-rule="evenodd" clip-rule="evenodd" d="M24.1401 54.8692H25.8425V59.1309H27.7302V54.8692H29.4325V53.3579H24.1401V54.8692Z" fill="#194189"/>
<path fill-rule="evenodd" clip-rule="evenodd" d="M30.2378 56.6121C30.2436 57.5907 30.481 58.2855 30.9558 58.6908C31.4364 59.0962 32.1197 59.293 33.0172 59.2814C33.9726 59.2872 34.6732 59.073 35.1249 58.6445C35.5765 58.216 35.7965 57.5385 35.7965 56.6179V53.3579H33.9031V56.8148C33.9089 57.1274 33.8452 57.3822 33.7178 57.5791C33.5846 57.7702 33.353 57.8686 33.0172 57.8686C32.6408 57.8628 32.3976 57.7586 32.2818 57.5559C32.166 57.3533 32.1197 57.1043 32.1312 56.8148V53.3579H30.2378V56.6121Z" fill="#194189"/>
<path fill-rule="evenodd" clip-rule="evenodd" d="M36.5947 54.8692H38.2971V59.1309H40.1905V54.8692H41.8929V53.3579H36.5947V54.8692Z" fill="#194189"/>
<path fill-rule="evenodd" clip-rule="evenodd" d="M0.49218 61.3728H0V63.7295H0.49218V61.3728Z" fill="#EE7B1D"/>
<path fill-rule="evenodd" clip-rule="evenodd" d="M2.3565 62.5126C2.33913 62.3505 2.29281 62.2289 2.21174 62.1478C2.13068 62.0609 2.03224 62.0088 1.91644 61.9799C1.80063 61.9509 1.68482 61.9336 1.56901 61.9393C1.38951 61.9393 1.25054 61.9741 1.14632 62.032C1.04209 62.0899 0.972608 62.1652 0.926285 62.2578C0.885752 62.3447 0.868381 62.4315 0.868381 62.5184C0.868381 62.6516 0.908914 62.75 0.978398 62.8195C1.05367 62.889 1.14053 62.9411 1.24475 62.9758C1.35477 63.0048 1.459 63.0337 1.56901 63.0511C1.67324 63.0685 1.76589 63.0916 1.83537 63.1206C1.90486 63.1437 1.94539 63.1901 1.94539 63.2422C1.95118 63.2827 1.93381 63.3174 1.89327 63.358C1.84695 63.3985 1.77168 63.4217 1.65587 63.4275C1.5169 63.4217 1.41267 63.3985 1.36056 63.3522C1.30266 63.3059 1.27371 63.2422 1.27371 63.1669H0.804688C0.810478 63.3232 0.856801 63.4448 0.937866 63.5317C1.02472 63.6185 1.12895 63.6822 1.25054 63.717C1.37793 63.7575 1.51111 63.7749 1.64429 63.7691C1.73693 63.7749 1.84695 63.7575 1.96276 63.7286C2.07857 63.6996 2.18279 63.6417 2.26965 63.5549C2.3565 63.468 2.40283 63.3406 2.40862 63.1727C2.40283 63.0453 2.36808 62.9469 2.29281 62.8774C2.21753 62.8079 2.13068 62.7558 2.02066 62.721C1.91644 62.6863 1.80642 62.6631 1.70219 62.64C1.59218 62.6226 1.49953 62.5994 1.43005 62.5763C1.35477 62.5473 1.32003 62.5068 1.31424 62.4547C1.31424 62.4142 1.32582 62.3794 1.36056 62.3389C1.40109 62.3041 1.47637 62.2868 1.59797 62.2868C1.71956 62.2868 1.80063 62.3099 1.83537 62.3562C1.8759 62.4026 1.89906 62.4547 1.90486 62.5126H2.3565Z" fill="#EE7B1D"/>
<path fill-rule="evenodd" clip-rule="evenodd" d="M3.21372 61.3718H2.75049V63.7285H3.21372V61.3718Z" fill="#EE7B1D"/>
<path fill-rule="evenodd" clip-rule="evenodd" d="M5.06625 62.4432C5.06046 62.2984 5.01993 62.1942 4.93886 62.1189C4.8578 62.0495 4.76515 61.9973 4.66093 61.9742C4.55091 61.9452 4.45826 61.9336 4.37141 61.9394C4.24981 61.9336 4.134 61.951 4.02399 61.98C3.90818 62.0031 3.81553 62.061 3.74026 62.1537C3.6592 62.2405 3.61287 62.3737 3.58971 62.5474H4.03557C4.03557 62.4895 4.05873 62.4374 4.09347 62.3853C4.12821 62.3332 4.20349 62.31 4.31351 62.3042C4.3772 62.2984 4.44668 62.31 4.51038 62.3332C4.57407 62.3563 4.60881 62.4142 4.6146 62.5069C4.6146 62.5532 4.59723 62.588 4.56249 62.6111C4.52775 62.6285 4.49301 62.6401 4.45826 62.6459L4.04136 62.7096C3.8966 62.7269 3.775 62.7848 3.68236 62.8717C3.58971 62.9643 3.5376 63.0975 3.5376 63.2654C3.5376 63.3812 3.56655 63.4797 3.61287 63.5549C3.66499 63.6302 3.73447 63.6881 3.80974 63.7229C3.89081 63.7576 3.97766 63.7692 4.06452 63.7692C4.22086 63.7692 4.33667 63.7402 4.42352 63.6881C4.51038 63.6302 4.57986 63.5781 4.63197 63.5202C4.63197 63.5665 4.63777 63.6013 4.64356 63.6302C4.64935 63.6534 4.66093 63.6881 4.67251 63.7287H5.16469V63.6592C5.13574 63.6476 5.11257 63.6302 5.0952 63.5897C5.07783 63.5549 5.06625 63.4855 5.06625 63.387V62.4432ZM4.6146 63.1033C4.6146 63.2075 4.56828 63.2944 4.48722 63.3523C4.40615 63.4102 4.31351 63.4449 4.20928 63.4449C4.15717 63.4449 4.11084 63.4333 4.07031 63.3986C4.02399 63.3697 3.99504 63.3118 3.99504 63.2365C3.99504 63.1438 4.02978 63.0801 4.08768 63.0454C4.14558 63.0107 4.21507 62.9875 4.30771 62.9701C4.40036 62.9585 4.46984 62.9412 4.51617 62.9296C4.56249 62.9122 4.59723 62.8948 4.6146 62.8775V63.1033Z" fill="#EE7B1D"/>
<path fill-rule="evenodd" clip-rule="evenodd" d="M7.96732 62.5185C7.96153 62.3274 7.90363 62.1826 7.79361 62.0842C7.6778 61.9858 7.53305 61.9395 7.35934 61.9395C7.26669 61.9395 7.19141 61.9568 7.12772 61.9916C7.06982 62.0263 7.0177 62.0611 6.98296 62.1074C6.94243 62.1479 6.91348 62.1884 6.89611 62.2174C6.8382 62.1247 6.77451 62.0553 6.70503 62.0089C6.62975 61.9626 6.5371 61.9395 6.40972 61.9395C6.25917 61.9452 6.14336 61.98 6.06809 62.0437C5.99281 62.1132 5.9407 62.1769 5.91754 62.2406H5.91175V61.9858H5.47168V63.7287H5.92912V62.6632C5.92912 62.5648 5.94649 62.4895 5.99281 62.4258C6.03334 62.3621 6.10862 62.3274 6.21285 62.3216C6.30549 62.3274 6.36918 62.3448 6.40972 62.3853C6.44446 62.4201 6.47341 62.4664 6.4792 62.5185C6.49078 62.5764 6.49078 62.6285 6.49078 62.6748V63.7287H6.94822V62.6806C6.94822 62.5764 6.97138 62.4895 7.0177 62.4258C7.06403 62.3621 7.14509 62.3274 7.2609 62.3216C7.33038 62.3216 7.38829 62.3448 7.43461 62.3969C7.48093 62.449 7.50409 62.5417 7.50988 62.669V63.7287H7.96732V62.5185Z" fill="#EE7B1D"/>
<path fill-rule="evenodd" clip-rule="evenodd" d="M8.396 61.9856V63.7285H8.85343V61.9856H8.396ZM8.85343 61.3486H8.396V61.7771H8.85343V61.3486Z" fill="#EE7B1D"/>
<path fill-rule="evenodd" clip-rule="evenodd" d="M10.3355 63.0916C10.3355 63.1206 10.3239 63.1611 10.3066 63.2074C10.2834 63.2537 10.2545 63.2943 10.2081 63.3348C10.1618 63.3753 10.0981 63.3927 10.0228 63.3927C9.90704 63.3927 9.82597 63.358 9.77386 63.2885C9.72754 63.2248 9.69279 63.1495 9.68121 63.0626C9.66963 62.97 9.66384 62.8947 9.66963 62.831C9.66963 62.7558 9.67542 62.6805 9.69859 62.5994C9.72175 62.5241 9.75649 62.4605 9.8086 62.4083C9.86072 62.3562 9.93599 62.3273 10.0344 62.3215H10.0518C10.1502 62.3273 10.2197 62.362 10.2602 62.4257C10.3008 62.4836 10.3297 62.5473 10.3355 62.6052H10.7988C10.7814 62.4257 10.7293 62.2867 10.6424 62.1883C10.5556 62.0957 10.4571 62.0262 10.3413 61.9914C10.2313 61.9509 10.1271 61.9335 10.0344 61.9393C9.73912 61.9451 9.52487 62.032 9.3917 62.2115C9.25852 62.3852 9.19482 62.6168 9.19482 62.9063C9.19482 63.0279 9.21799 63.1611 9.25852 63.2943C9.30484 63.4216 9.38591 63.5375 9.50171 63.6301C9.61752 63.717 9.78544 63.7691 9.99968 63.7691C10.2139 63.7691 10.3761 63.7227 10.4861 63.6359C10.6019 63.549 10.6829 63.4506 10.7235 63.3464C10.7698 63.2421 10.793 63.1553 10.7988 63.0916H10.3355Z" fill="#EE7B1D"/>
<path fill-rule="evenodd" clip-rule="evenodd" d="M13.7982 61.3718H12.0669V63.7285H13.8561V63.3116H12.5475V62.6978H13.694V62.2867H12.5475V61.7887H13.7982V61.3718Z" fill="#EE7B1D"/>
<path fill-rule="evenodd" clip-rule="evenodd" d="M15.2516 63.0916C15.2516 63.1206 15.2458 63.1611 15.2227 63.2074C15.2053 63.2537 15.1705 63.2943 15.1242 63.3348C15.0837 63.3753 15.02 63.3927 14.9447 63.3927C14.8289 63.3927 14.7478 63.358 14.6957 63.2885C14.6436 63.2248 14.6147 63.1495 14.6031 63.0626C14.5915 62.97 14.5857 62.8947 14.5857 62.831C14.5857 62.7558 14.5973 62.6805 14.6205 62.5994C14.6378 62.5241 14.6784 62.4605 14.7305 62.4083C14.7826 62.3562 14.8579 62.3273 14.9505 62.3215H14.9737C15.0721 62.3273 15.1416 62.362 15.1821 62.4257C15.2227 62.4836 15.2516 62.5473 15.2574 62.6052H15.7206C15.7033 62.4257 15.6511 62.2867 15.5643 62.1883C15.4774 62.0957 15.379 62.0262 15.2632 61.9914C15.1532 61.9509 15.0489 61.9335 14.9505 61.9393C14.661 61.9451 14.4467 62.032 14.3136 62.2115C14.1804 62.3852 14.1167 62.6168 14.1167 62.9063C14.1167 63.0279 14.1341 63.1611 14.1804 63.2943C14.2267 63.4216 14.3078 63.5375 14.4236 63.6301C14.5394 63.717 14.7073 63.7691 14.9216 63.7691C15.1358 63.7691 15.2979 63.7227 15.4079 63.6359C15.5238 63.549 15.6048 63.4506 15.6454 63.3464C15.6917 63.2421 15.7148 63.1553 15.7206 63.0916H15.2516Z" fill="#EE7B1D"/>
<path fill-rule="evenodd" clip-rule="evenodd" d="M17.7186 62.8543C17.7186 62.6459 17.6722 62.4722 17.5912 62.339C17.5101 62.2 17.4001 62.1016 17.2669 62.0379C17.1337 61.9684 16.989 61.9395 16.8268 61.9395C16.6705 61.9395 16.5257 61.9684 16.3868 62.0379C16.2536 62.1016 16.1494 62.2 16.0625 62.339C15.9815 62.4722 15.9409 62.6459 15.9409 62.8543C15.9409 63.0628 15.9815 63.2365 16.0625 63.3697C16.1494 63.5086 16.2536 63.6071 16.3868 63.6766C16.5257 63.7403 16.6705 63.7692 16.8268 63.7692C16.989 63.7692 17.1337 63.7403 17.2669 63.6766C17.4001 63.6071 17.5101 63.5086 17.5912 63.3697C17.6722 63.2365 17.7186 63.0628 17.7186 62.8543ZM17.2495 62.8543C17.2495 62.9296 17.238 63.0107 17.2206 63.0917C17.1974 63.1728 17.1569 63.2423 17.0932 63.3002C17.0353 63.3523 16.9426 63.3813 16.8268 63.387C16.711 63.3813 16.6242 63.3523 16.5605 63.3002C16.5026 63.2423 16.462 63.1728 16.4389 63.0917C16.4157 63.0107 16.4099 62.9296 16.4099 62.8543C16.4099 62.7791 16.4157 62.698 16.4389 62.6169C16.462 62.5359 16.5026 62.4664 16.5605 62.4143C16.6242 62.3564 16.711 62.3274 16.8268 62.3216C16.9426 62.3274 17.0353 62.3564 17.0932 62.4143C17.1569 62.4664 17.1974 62.5359 17.2206 62.6169C17.238 62.698 17.2495 62.7791 17.2495 62.8543Z" fill="#EE7B1D"/>
<path fill-rule="evenodd" clip-rule="evenodd" d="M19.6175 62.5185C19.6117 62.3274 19.5538 62.1826 19.4437 62.0842C19.3279 61.9858 19.189 61.9395 19.0095 61.9395C18.9052 61.9395 18.8126 61.9568 18.7431 61.9916C18.6736 62.0263 18.6157 62.0668 18.5752 62.1132C18.5405 62.1595 18.5057 62.2 18.4883 62.2406H18.4825V61.9858H18.0425V63.7287H18.4999V62.7269C18.5057 62.5938 18.5405 62.4953 18.6041 62.4258C18.6736 62.3564 18.7547 62.3216 18.8589 62.3216C18.9574 62.3274 19.0268 62.3448 19.0674 62.3853C19.1079 62.4258 19.1369 62.4664 19.1484 62.5243C19.1542 62.5764 19.16 62.6227 19.16 62.669V63.7287H19.6175V62.5185Z" fill="#EE7B1D"/>
<path fill-rule="evenodd" clip-rule="evenodd" d="M21.7253 62.8543C21.7253 62.6459 21.679 62.4722 21.5979 62.339C21.5169 62.2 21.4069 62.1016 21.2737 62.0379C21.1405 61.9684 20.9957 61.9395 20.8336 61.9395C20.6773 61.9395 20.5325 61.9684 20.3935 62.0379C20.2604 62.1016 20.1561 62.2 20.0693 62.339C19.9882 62.4722 19.9477 62.6459 19.9419 62.8543C19.9477 63.0628 19.9882 63.2365 20.0693 63.3697C20.1561 63.5086 20.2604 63.6071 20.3935 63.6766C20.5325 63.7403 20.6773 63.7692 20.8336 63.7692C20.9957 63.7692 21.1405 63.7403 21.2737 63.6766C21.4069 63.6071 21.5169 63.5086 21.5979 63.3697C21.679 63.2365 21.7253 63.0628 21.7253 62.8543ZM21.2563 62.8543C21.2563 62.9296 21.2447 63.0107 21.2274 63.0917C21.2042 63.1728 21.1637 63.2423 21.1 63.3002C21.0421 63.3523 20.9494 63.3813 20.8336 63.387C20.7178 63.3813 20.6309 63.3523 20.5673 63.3002C20.5093 63.2423 20.4688 63.1728 20.4457 63.0917C20.4225 63.0107 20.4167 62.9296 20.4167 62.8543C20.4167 62.7791 20.4225 62.698 20.4457 62.6169C20.4688 62.5359 20.5093 62.4664 20.5673 62.4143C20.6309 62.3564 20.7178 62.3274 20.8336 62.3216C20.9494 62.3274 21.0421 62.3564 21.1 62.4143C21.1637 62.4664 21.2042 62.5359 21.2274 62.6169C21.2447 62.698 21.2563 62.7791 21.2563 62.8543Z" fill="#EE7B1D"/>
<path fill-rule="evenodd" clip-rule="evenodd" d="M24.5391 62.5185C24.5391 62.3274 24.4812 62.1826 24.3654 62.0842C24.2554 61.9858 24.1106 61.9395 23.9369 61.9395C23.8443 61.9395 23.7632 61.9568 23.7053 61.9916C23.6416 62.0263 23.5953 62.0611 23.5547 62.1074C23.52 62.1479 23.491 62.1884 23.4679 62.2174C23.4158 62.1247 23.3521 62.0553 23.2768 62.0089C23.2073 61.9626 23.1089 61.9395 22.9873 61.9395C22.8367 61.9452 22.7209 61.98 22.6457 62.0437C22.5704 62.1132 22.5183 62.1769 22.4893 62.2406H22.4835V61.9858H22.0435V63.7287H22.5067V62.6632C22.5009 62.5648 22.5241 62.4895 22.5646 62.4258C22.6051 62.3621 22.6804 62.3274 22.7904 62.3216C22.8773 62.3274 22.941 62.3448 22.9815 62.3853C23.022 62.4201 23.0452 62.4664 23.0568 62.5185C23.0626 62.5764 23.0683 62.6285 23.0626 62.6748V63.7287H23.52V62.6806C23.52 62.5764 23.5432 62.4895 23.5895 62.4258C23.6416 62.3621 23.7227 62.3274 23.8327 62.3216C23.9022 62.3216 23.9601 62.3448 24.0064 62.3969C24.0585 62.449 24.0817 62.5417 24.0817 62.669V63.7287H24.5391V62.5185Z" fill="#EE7B1D"/>
<path fill-rule="evenodd" clip-rule="evenodd" d="M24.9741 61.9856V63.7285H25.4316V61.9856H24.9741ZM25.4316 61.3486H24.9741V61.7771H25.4316V61.3486Z" fill="#EE7B1D"/>
<path fill-rule="evenodd" clip-rule="evenodd" d="M26.9078 63.0916C26.9078 63.1206 26.8962 63.1611 26.8788 63.2074C26.8614 63.2537 26.8267 63.2943 26.7804 63.3348C26.734 63.3753 26.6761 63.3927 26.5951 63.3927C26.4851 63.3927 26.3982 63.358 26.3519 63.2885C26.2998 63.2248 26.2708 63.1495 26.2592 63.0626C26.2477 62.97 26.2419 62.8947 26.2419 62.831C26.2419 62.7558 26.2534 62.6805 26.2708 62.5994C26.294 62.5241 26.3287 62.4605 26.3866 62.4083C26.4387 62.3562 26.514 62.3273 26.6067 62.3215H26.6298C26.7283 62.3273 26.7977 62.362 26.8383 62.4257C26.8788 62.4836 26.902 62.5473 26.9135 62.6052H27.3768C27.3594 62.4257 27.3073 62.2867 27.2204 62.1883C27.1336 62.0957 27.0294 62.0262 26.9193 61.9914C26.8035 61.9509 26.6993 61.9335 26.6067 61.9393C26.3114 61.9451 26.1029 62.032 25.9697 62.2115C25.8365 62.3852 25.7671 62.6168 25.7728 62.9063C25.7671 63.0279 25.7902 63.1611 25.8365 63.2943C25.8771 63.4216 25.9581 63.5375 26.0797 63.6301C26.1955 63.717 26.3635 63.7691 26.5777 63.7691C26.7862 63.7691 26.9483 63.7227 27.0641 63.6359C27.1799 63.549 27.2552 63.4506 27.3015 63.3464C27.3478 63.2421 27.371 63.1553 27.371 63.0916H26.9078Z" fill="#EE7B1D"/>
<path fill-rule="evenodd" clip-rule="evenodd" d="M29.1256 62.5126C29.114 62.3505 29.0677 62.2289 28.9866 62.1478C28.9056 62.0609 28.8071 62.0088 28.6913 61.9799C28.5755 61.9509 28.4597 61.9336 28.3439 61.9393C28.1644 61.9393 28.0254 61.9741 27.9212 62.032C27.817 62.0899 27.7475 62.1652 27.7012 62.2578C27.6607 62.3447 27.6375 62.4315 27.6433 62.5184C27.6433 62.6516 27.6838 62.75 27.7533 62.8195C27.8286 62.889 27.9154 62.9411 28.0197 62.9758C28.1297 63.0048 28.2339 63.0337 28.3439 63.0511C28.4481 63.0685 28.535 63.0916 28.6103 63.1206C28.6798 63.1437 28.7203 63.1901 28.7203 63.2422C28.7261 63.2827 28.7029 63.3174 28.6624 63.358C28.6219 63.3985 28.5466 63.4217 28.4308 63.4275C28.286 63.4217 28.1876 63.3985 28.1297 63.3522C28.0776 63.3059 28.0486 63.2422 28.0486 63.1669H27.5796C27.5854 63.3232 27.6317 63.4448 27.7128 63.5317C27.7996 63.6185 27.9038 63.6822 28.0254 63.717C28.1528 63.7575 28.2802 63.7749 28.4192 63.7691C28.5118 63.7749 28.6161 63.7575 28.7377 63.7286C28.8535 63.6996 28.9577 63.6417 29.0445 63.5549C29.1314 63.468 29.1777 63.3406 29.1777 63.1727C29.1777 63.0453 29.1372 62.9469 29.0677 62.8774C28.9924 62.8079 28.9056 62.7558 28.7956 62.721C28.6913 62.6863 28.5813 62.6631 28.4713 62.64C28.3671 62.6226 28.2744 62.5994 28.2049 62.5763C28.1297 62.5473 28.0949 62.5068 28.0891 62.4547C28.0834 62.4142 28.1007 62.3794 28.1355 62.3389C28.1702 62.3041 28.2513 62.2868 28.3729 62.2868C28.4945 62.2868 28.5697 62.3099 28.6103 62.3562C28.6508 62.4026 28.674 62.4547 28.6798 62.5126H29.1256Z" fill="#EE7B1D"/>
<path fill-rule="evenodd" clip-rule="evenodd" d="M31.4879 61.9161C31.4822 61.974 31.4648 62.0261 31.4242 62.0782C31.3837 62.1246 31.3316 62.1651 31.2679 62.2056C31.2158 62.1477 31.1695 62.0898 31.1405 62.0435C31.1116 61.9914 31.1 61.9509 31.1 61.9103C31.1 61.8466 31.1174 61.8003 31.1579 61.7714C31.1926 61.7366 31.239 61.7192 31.2911 61.7192C31.349 61.7192 31.3953 61.7366 31.43 61.7714C31.4648 61.8003 31.4822 61.8466 31.4879 61.9161ZM32.0843 63.2132C32.1654 63.1089 32.2233 63.0105 32.2696 62.9005C32.3102 62.7905 32.3391 62.6573 32.3565 62.5067H31.9454C31.9396 62.5936 31.9222 62.6689 31.9048 62.7326C31.8817 62.7905 31.8585 62.8484 31.8238 62.8889L31.4937 62.4778C31.5285 62.4604 31.5748 62.4257 31.6385 62.3793C31.6964 62.333 31.7543 62.2751 31.8006 62.1998C31.8527 62.1188 31.8817 62.0261 31.8817 61.9161C31.8817 61.7945 31.8469 61.6903 31.789 61.6092C31.7311 61.5282 31.6559 61.4703 31.569 61.4297C31.4822 61.395 31.3953 61.3718 31.3084 61.3718C31.1174 61.3776 30.9668 61.4239 30.8568 61.5224C30.741 61.6208 30.6831 61.754 30.6831 61.9161C30.6831 62.0146 30.7062 62.113 30.7526 62.1941C30.7931 62.2809 30.8394 62.3504 30.8915 62.4083L30.8452 62.4373C30.7178 62.5125 30.6194 62.5936 30.5557 62.6689C30.4862 62.7441 30.4457 62.8194 30.4225 62.8947C30.3994 62.97 30.3878 63.0452 30.3936 63.1205C30.3936 63.2363 30.4225 63.3463 30.4804 63.4506C30.5441 63.549 30.6252 63.6301 30.7352 63.6938C30.8452 63.7517 30.9726 63.7864 31.1232 63.7864C31.3027 63.7864 31.4416 63.7575 31.5401 63.7111C31.6443 63.659 31.7311 63.5953 31.7948 63.5258L31.957 63.7285H32.5128L32.0843 63.2132ZM31.5632 63.2363C31.5227 63.2769 31.4706 63.3116 31.4069 63.3463C31.3432 63.3811 31.2737 63.3985 31.1984 63.4042C31.1058 63.3985 31.0363 63.3811 30.9842 63.3405C30.9321 63.3058 30.8973 63.2595 30.88 63.2132C30.8568 63.161 30.851 63.1205 30.851 63.0916C30.851 62.9989 30.8742 62.9294 30.9147 62.8773C30.961 62.8252 31.0305 62.7615 31.1289 62.6978L31.5632 63.2363Z" fill="#EE7B1D"/>
<path fill-rule="evenodd" clip-rule="evenodd" d="M33.7402 63.7285H34.7362C34.8925 63.7227 35.0199 63.7169 35.1125 63.6995C35.2052 63.6822 35.2805 63.659 35.3326 63.6243C35.3847 63.5953 35.4368 63.5548 35.4773 63.5143C35.541 63.4506 35.5931 63.3811 35.6279 63.2942C35.6626 63.2132 35.68 63.1205 35.68 63.0279C35.6858 62.9121 35.6568 62.7963 35.6105 62.6978C35.5584 62.5936 35.46 62.5125 35.3152 62.4604C35.35 62.443 35.3905 62.4199 35.4368 62.3851C35.4831 62.3562 35.5179 62.3041 35.5526 62.2404C35.5874 62.1767 35.6047 62.0898 35.6047 61.974C35.6105 61.893 35.5874 61.8061 35.5468 61.7135C35.5063 61.6208 35.431 61.5397 35.3268 61.4761C35.2226 61.4124 35.072 61.3776 34.8809 61.3718H33.7402V63.7285ZM34.2093 62.692H34.8346C34.9273 62.692 35.0083 62.7094 35.0778 62.7557C35.1473 62.802 35.1878 62.8715 35.1878 62.9758C35.1878 63.0974 35.1589 63.1842 35.0894 63.2363C35.0257 63.2942 34.933 63.3232 34.8114 63.3174H34.2093V62.692ZM34.2093 61.7829H34.7767C34.8867 61.7772 34.9736 61.7945 35.0373 61.8351C35.101 61.8698 35.1357 61.9393 35.1357 62.0319C35.1299 62.1246 35.101 62.1941 35.0315 62.2346C34.9678 62.2751 34.8867 62.2983 34.7883 62.2925H34.2093V61.7829Z" fill="#EE7B1D"/>
<path fill-rule="evenodd" clip-rule="evenodd" d="M37.6371 61.9858H37.1796V62.9876C37.1738 63.1439 37.1333 63.2481 37.058 63.306C36.9827 63.3639 36.9075 63.3871 36.8264 63.3871C36.7511 63.3871 36.6816 63.3697 36.6237 63.3234C36.5601 63.2829 36.5311 63.196 36.5253 63.0628V61.9858H36.0679V63.1323C36.0737 63.3524 36.1258 63.5145 36.2358 63.6187C36.3458 63.7229 36.4848 63.7751 36.6585 63.7693C36.7801 63.7693 36.8901 63.7461 36.977 63.694C37.0696 63.6477 37.1391 63.5724 37.1912 63.4798H37.197V63.7287H37.6371V61.9858Z" fill="#EE7B1D"/>
<path fill-rule="evenodd" clip-rule="evenodd" d="M39.5016 62.5126C39.49 62.3505 39.4379 62.2289 39.3568 62.1478C39.2758 62.0609 39.1831 62.0088 39.0673 61.9799C38.9515 61.9509 38.8357 61.9336 38.7199 61.9393C38.5404 61.9393 38.3956 61.9741 38.2972 62.032C38.193 62.0899 38.1177 62.1652 38.0772 62.2578C38.0366 62.3447 38.0135 62.4315 38.0135 62.5184C38.0193 62.6516 38.054 62.75 38.1293 62.8195C38.1988 62.889 38.2914 62.9411 38.3956 62.9758C38.4999 63.0048 38.6099 63.0337 38.7141 63.0511C38.8241 63.0685 38.911 63.0916 38.9862 63.1206C39.0557 63.1437 39.0963 63.1901 39.0963 63.2422C39.0963 63.2827 39.0789 63.3174 39.0384 63.358C38.9978 63.3985 38.9226 63.4217 38.8067 63.4275C38.662 63.4217 38.5636 63.3985 38.5057 63.3522C38.4477 63.3059 38.4246 63.2422 38.4246 63.1669H37.9556C37.9614 63.3232 38.0077 63.4448 38.0887 63.5317C38.1698 63.6185 38.274 63.6822 38.4014 63.717C38.5288 63.7575 38.6562 63.7749 38.7894 63.7691C38.8878 63.7749 38.992 63.7575 39.1078 63.7286C39.2294 63.6996 39.3279 63.6417 39.4147 63.5549C39.5016 63.468 39.5479 63.3406 39.5537 63.1727C39.5537 63.0453 39.5132 62.9469 39.4437 62.8774C39.3684 62.8079 39.2758 62.7558 39.1715 62.721C39.0615 62.6863 38.9573 62.6631 38.8473 62.64C38.7373 62.6226 38.6504 62.5994 38.5751 62.5763C38.5057 62.5473 38.4651 62.5068 38.4651 62.4547C38.4593 62.4142 38.4767 62.3794 38.5114 62.3389C38.5462 62.3041 38.6272 62.2868 38.7431 62.2868C38.8647 62.2868 38.9457 62.3099 38.9862 62.3562C39.0268 62.4026 39.0499 62.4547 39.0557 62.5126H39.5016Z" fill="#EE7B1D"/>
<path fill-rule="evenodd" clip-rule="evenodd" d="M39.9014 61.9856V63.7285H40.3588V61.9856H39.9014ZM40.3588 61.3486H39.9014V61.7771H40.3588V61.3486Z" fill="#EE7B1D"/>
<path fill-rule="evenodd" clip-rule="evenodd" d="M42.3797 62.5185C42.3739 62.3274 42.316 62.1826 42.2002 62.0842C42.0901 61.9858 41.9454 61.9395 41.7717 61.9395C41.6617 61.9395 41.5748 61.9568 41.5053 61.9916C41.43 62.0263 41.3779 62.0668 41.3374 62.1132C41.2969 62.1595 41.2679 62.2 41.2505 62.2406H41.239V61.9858H40.8047V63.7287H41.2621V62.7269C41.2621 62.5938 41.2969 62.4953 41.3664 62.4258C41.43 62.3564 41.5169 62.3216 41.6211 62.3216C41.7196 62.3274 41.7833 62.3448 41.8296 62.3853C41.8701 62.4258 41.8991 62.4664 41.9049 62.5243C41.9164 62.5764 41.9222 62.6227 41.9222 62.669V63.7287H42.3797V62.5185Z" fill="#EE7B1D"/>
<path fill-rule="evenodd" clip-rule="evenodd" d="M43.8328 63.2132C43.8096 63.2769 43.7749 63.3232 43.717 63.358C43.6649 63.3869 43.6012 63.4043 43.5375 63.4043C43.4159 63.4043 43.3233 63.3754 43.2654 63.3232C43.2132 63.2711 43.1727 63.2132 43.1553 63.1495C43.138 63.08 43.1264 63.0279 43.1264 62.9816H44.3192V62.8948C44.3192 62.6342 44.2729 62.4315 44.186 62.2926C44.0992 62.1536 43.9949 62.0609 43.8675 62.0088C43.746 61.9567 43.6244 61.9336 43.5028 61.9393C43.3117 61.9393 43.1611 61.9741 43.0511 62.0436C42.9411 62.1131 42.8542 62.1999 42.8021 62.2983C42.7442 62.3968 42.7095 62.4952 42.6921 62.5937C42.6747 62.6863 42.6689 62.7616 42.6689 62.8195C42.6747 63.1727 42.7558 63.4217 42.9179 63.5664C43.0801 63.7054 43.2827 63.7749 43.5375 63.7691C43.6359 63.7749 43.7402 63.7575 43.8386 63.7228C43.9428 63.688 44.0355 63.6243 44.1165 63.5433C44.1976 63.4622 44.2613 63.3522 44.3018 63.2132H43.8328ZM43.138 62.6805C43.1495 62.5647 43.1901 62.4778 43.248 62.4142C43.3059 62.3447 43.3869 62.3157 43.497 62.3157C43.5722 62.3099 43.6475 62.3389 43.717 62.391C43.7923 62.4489 43.8328 62.5415 43.8502 62.6805H43.138Z" fill="#EE7B1D"/>
<path fill-rule="evenodd" clip-rule="evenodd" d="M46.0621 62.5126C46.0447 62.3505 45.9984 62.2289 45.9173 62.1478C45.8362 62.0609 45.7378 62.0088 45.622 61.9799C45.512 61.9509 45.3962 61.9336 45.2804 61.9393C45.0951 61.9393 44.9561 61.9741 44.8519 62.032C44.7534 62.0899 44.6782 62.1652 44.6376 62.2578C44.5913 62.3447 44.5739 62.4315 44.5739 62.5184C44.5739 62.6516 44.6145 62.75 44.684 62.8195C44.7592 62.889 44.8461 62.9411 44.9561 62.9758C45.0603 63.0048 45.1704 63.0337 45.2746 63.0511C45.3788 63.0685 45.4715 63.0916 45.5409 63.1206C45.6162 63.1437 45.651 63.1901 45.6567 63.2422C45.6567 63.2827 45.6394 63.3174 45.5988 63.358C45.5583 63.3985 45.4772 63.4217 45.3614 63.4275C45.2225 63.4217 45.124 63.3985 45.0661 63.3522C45.0082 63.3059 44.9793 63.2422 44.9851 63.1669H44.5103C44.516 63.3232 44.5624 63.4448 44.6492 63.5317C44.7303 63.6185 44.8345 63.6822 44.9619 63.717C45.0835 63.7575 45.2167 63.7749 45.3499 63.7691C45.4425 63.7749 45.5525 63.7575 45.6683 63.7286C45.7841 63.6996 45.8884 63.6417 45.9752 63.5549C46.0621 63.468 46.1084 63.3406 46.1142 63.1727C46.1084 63.0453 46.0736 62.9469 45.9984 62.8774C45.9289 62.8079 45.8362 62.7558 45.7262 62.721C45.622 62.6863 45.512 62.6631 45.4078 62.64C45.2977 62.6226 45.2109 62.5994 45.1356 62.5763C45.0603 62.5473 45.0256 62.5068 45.0198 62.4547C45.0198 62.4142 45.0314 62.3794 45.0719 62.3389C45.1067 62.3041 45.1819 62.2868 45.3035 62.2868C45.4251 62.2868 45.5062 62.3099 45.5467 62.3562C45.5815 62.4026 45.6046 62.4547 45.6104 62.5126H46.0621Z" fill="#EE7B1D"/>
<path fill-rule="evenodd" clip-rule="evenodd" d="M47.88 62.5126C47.8684 62.3505 47.8163 62.2289 47.7353 62.1478C47.6542 62.0609 47.5615 62.0088 47.4457 61.9799C47.3299 61.9509 47.2141 61.9336 47.0983 61.9393C46.9188 61.9393 46.7741 61.9741 46.6756 62.032C46.5714 62.0899 46.4961 62.1652 46.4556 62.2578C46.415 62.3447 46.3919 62.4315 46.3919 62.5184C46.3977 62.6516 46.4324 62.75 46.5077 62.8195C46.5772 62.889 46.6698 62.9411 46.7741 62.9758C46.8783 63.0048 46.9883 63.0337 47.0925 63.0511C47.2025 63.0685 47.2894 63.0916 47.3647 63.1206C47.4342 63.1437 47.4747 63.1901 47.4747 63.2422C47.4747 63.2827 47.4573 63.3174 47.4168 63.358C47.3762 63.3985 47.301 63.4217 47.1852 63.4275C47.0404 63.4217 46.942 63.3985 46.8841 63.3522C46.8262 63.3059 46.803 63.2422 46.803 63.1669H46.334C46.3398 63.3232 46.3861 63.4448 46.4672 63.5317C46.5482 63.6185 46.6525 63.6822 46.7798 63.717C46.9072 63.7575 47.0346 63.7749 47.1678 63.7691C47.2662 63.7749 47.3705 63.7575 47.4863 63.7286C47.6079 63.6996 47.7063 63.6417 47.7932 63.5549C47.88 63.468 47.9263 63.3406 47.9321 63.1727C47.9321 63.0453 47.8916 62.9469 47.8221 62.8774C47.7468 62.8079 47.6542 62.7558 47.55 62.721C47.4399 62.6863 47.3357 62.6631 47.2257 62.64C47.1215 62.6226 47.0288 62.5994 46.9536 62.5763C46.8841 62.5473 46.8435 62.5068 46.8435 62.4547C46.8377 62.4142 46.8551 62.3794 46.8899 62.3389C46.9246 62.3041 47.0057 62.2868 47.1215 62.2868C47.2431 62.2868 47.3241 62.3099 47.3647 62.3562C47.4052 62.4026 47.4284 62.4547 47.4342 62.5126H47.88Z" fill="#EE7B1D"/>
<path d="M48.9341 62.9989C48.9341 62.5935 49.2641 62.2693 49.6695 62.2693C50.0748 62.2693 50.4048 62.5935 50.4048 62.9989C50.4048 63.4042 50.0748 63.7342 49.6695 63.7342C49.2641 63.7342 48.9341 63.4042 48.9341 62.9989Z" fill="#EE7B1D"/>
<path fill-rule="evenodd" clip-rule="evenodd" d="M52.1885 61.3718H51.6963V63.7285H53.3581V63.3H52.1885V61.3718Z" fill="#EE7B1D"/>
<path fill-rule="evenodd" clip-rule="evenodd" d="M55.1302 62.4432C55.1302 62.2984 55.0897 62.1942 55.0086 62.1189C54.9276 62.0495 54.8349 61.9973 54.7307 61.9742C54.6207 61.9452 54.5222 61.9336 54.4412 61.9394C54.3196 61.9336 54.2038 61.951 54.088 61.98C53.9779 62.0031 53.8853 62.061 53.8042 62.1537C53.729 62.2405 53.6768 62.3737 53.6595 62.5474H54.0995C54.1053 62.4895 54.1227 62.4374 54.1632 62.3853C54.198 62.3332 54.2732 62.31 54.3833 62.3042C54.447 62.2984 54.5106 62.31 54.5801 62.3332C54.6438 62.3563 54.6786 62.4142 54.6844 62.5069C54.6844 62.5532 54.667 62.588 54.6322 62.6111C54.5975 62.6285 54.5628 62.6401 54.5222 62.6459L54.1111 62.7096C53.9606 62.7269 53.839 62.7848 53.7463 62.8717C53.6537 62.9643 53.6074 63.0975 53.6016 63.2654C53.6074 63.3812 53.6305 63.4797 53.6826 63.5549C53.7347 63.6302 53.7984 63.6881 53.8795 63.7229C53.9606 63.7576 54.0474 63.7692 54.1343 63.7692C54.2848 63.7692 54.4064 63.7402 54.4933 63.6881C54.5801 63.6302 54.6496 63.5781 54.6959 63.5202C54.7017 63.5665 54.7075 63.6013 54.7133 63.6302C54.7191 63.6534 54.7249 63.6881 54.7423 63.7287H55.2344V63.6592C55.2055 63.6476 55.1823 63.6302 55.165 63.5897C55.1418 63.5549 55.136 63.4855 55.1302 63.387V62.4432ZM54.6844 63.1033C54.6786 63.2075 54.638 63.2944 54.557 63.3523C54.4759 63.4102 54.3833 63.4449 54.2732 63.4449C54.2269 63.4449 54.1806 63.4333 54.1343 63.3986C54.088 63.3697 54.0648 63.3118 54.059 63.2365C54.0648 63.1438 54.0937 63.0801 54.1516 63.0454C54.2095 63.0107 54.2848 62.9875 54.3717 62.9701C54.4643 62.9585 54.5338 62.9412 54.5801 62.9296C54.6322 62.9122 54.6612 62.8948 54.6844 62.8775V63.1033Z" fill="#EE7B1D"/>
<path fill-rule="evenodd" clip-rule="evenodd" d="M57.8049 61.9858H57.3358L57.0637 63.2366H57.0579L56.7973 61.9858H56.3341L56.0909 63.2366H56.0793L55.8072 61.9858H55.3208L55.813 63.7287H56.282L56.5541 62.4549H56.5657L56.8379 63.7287H57.3069L57.8049 61.9858Z" fill="#EE7B1D"/>
<path d="M58.7256 62.9989C58.7256 62.5935 59.0498 62.2693 59.4552 62.2693C59.8605 62.2693 60.1905 62.5935 60.1905 62.9989C60.1905 63.4042 59.8605 63.7342 59.4552 63.7342C59.0498 63.7342 58.7256 63.4042 58.7256 62.9989Z" fill="#EE7B1D"/>
<path fill-rule="evenodd" clip-rule="evenodd" d="M63.2132 61.3718H61.4819V63.7285H63.2654V63.3116H61.9625V62.6978H63.109V62.2867H61.9625V61.7887H63.2132V61.3718Z" fill="#EE7B1D"/>
<path fill-rule="evenodd" clip-rule="evenodd" d="M65.2225 61.3718H64.7651V62.2114H64.7593C64.7246 62.1477 64.6666 62.0898 64.5914 62.0319C64.5103 61.974 64.4003 61.9393 64.2555 61.9393C64.1224 61.9393 64.0065 61.9682 63.8965 62.0377C63.7865 62.1014 63.6997 62.1998 63.6302 62.333C63.5665 62.4662 63.5317 62.6341 63.5317 62.8368C63.5317 62.9989 63.5549 63.1495 63.607 63.2884C63.6591 63.4332 63.7344 63.549 63.8444 63.6359C63.9544 63.7227 64.0934 63.769 64.2613 63.769C64.3598 63.7748 64.4524 63.7517 64.5451 63.7111C64.6377 63.6706 64.713 63.6011 64.7709 63.5085H64.7767V63.7285H65.2225V61.3718ZM64.0008 62.8657C64.0008 62.7268 64.0297 62.5994 64.0876 62.4952C64.1455 62.3909 64.2497 62.3388 64.3945 62.333C64.4929 62.333 64.574 62.362 64.6319 62.4199C64.6898 62.472 64.7303 62.5415 64.7535 62.6225C64.7767 62.7094 64.7882 62.802 64.7825 62.8947C64.7882 63.0279 64.7535 63.1437 64.6898 63.2421C64.6261 63.3405 64.5219 63.3927 64.3771 63.3927C64.2787 63.3927 64.2034 63.3637 64.1513 63.3058C64.0934 63.2479 64.0587 63.1784 64.0355 63.0974C64.0123 63.0163 64.0008 62.941 64.0008 62.8657Z" fill="#EE7B1D"/>
<path fill-rule="evenodd" clip-rule="evenodd" d="M67.2083 61.9858H66.7509V62.9876C66.7451 63.1439 66.7046 63.2481 66.6293 63.306C66.554 63.3639 66.473 63.3871 66.3919 63.3871C66.3224 63.3871 66.2529 63.3697 66.195 63.3234C66.1313 63.2829 66.1024 63.196 66.0966 63.0628V61.9858H65.6392V63.1323C65.6392 63.3524 65.6971 63.5145 65.8071 63.6187C65.9113 63.7229 66.0561 63.7751 66.2298 63.7693C66.3514 63.7693 66.4556 63.7461 66.5482 63.694C66.6351 63.6477 66.7104 63.5724 66.7625 63.4798H66.7683V63.7287H67.2083V61.9858Z" fill="#EE7B1D"/>
<path fill-rule="evenodd" clip-rule="evenodd" d="M68.6734 63.0916C68.6734 63.1206 68.6618 63.1611 68.6444 63.2074C68.6271 63.2537 68.5923 63.2943 68.546 63.3348C68.4997 63.3753 68.4418 63.3927 68.3607 63.3927C68.2507 63.3927 68.1638 63.358 68.1175 63.2885C68.0654 63.2248 68.0364 63.1495 68.0249 63.0626C68.0133 62.97 68.0075 62.8947 68.0075 62.831C68.0075 62.7558 68.0191 62.6805 68.0364 62.5994C68.0596 62.5241 68.0943 62.4605 68.1522 62.4083C68.2044 62.3562 68.2738 62.3273 68.3723 62.3215H68.3954C68.4939 62.3273 68.5634 62.362 68.6039 62.4257C68.6444 62.4836 68.6676 62.5473 68.6792 62.6052H69.1424C69.125 62.4257 69.0729 62.2867 68.9861 62.1883C68.8992 62.0957 68.795 62.0262 68.685 61.9914C68.5692 61.9509 68.4649 61.9335 68.3723 61.9393C68.077 61.9451 67.8685 62.032 67.7353 62.2115C67.6022 62.3852 67.5327 62.6168 67.5385 62.9063C67.5327 63.0279 67.5558 63.1611 67.6022 63.2943C67.6427 63.4216 67.7238 63.5375 67.8454 63.6301C67.9612 63.717 68.1291 63.7691 68.3433 63.7691C68.5518 63.7691 68.7139 63.7227 68.8297 63.6359C68.9455 63.549 69.0208 63.4506 69.0671 63.3464C69.1134 63.2421 69.1366 63.1553 69.1366 63.0916H68.6734Z" fill="#EE7B1D"/>
<path fill-rule="evenodd" clip-rule="evenodd" d="M70.868 62.4432C70.868 62.2984 70.8217 62.1942 70.7464 62.1189C70.6653 62.0495 70.5727 61.9973 70.4627 61.9742C70.3585 61.9452 70.26 61.9336 70.179 61.9394C70.0574 61.9336 69.9358 61.951 69.8257 61.98C69.7157 62.0031 69.6231 62.061 69.542 62.1537C69.4667 62.2405 69.4146 62.3737 69.3973 62.5474H69.8373C69.8431 62.4895 69.8605 62.4374 69.901 62.3853C69.9358 62.3332 70.011 62.31 70.1211 62.3042C70.1847 62.2984 70.2484 62.31 70.3179 62.3332C70.3816 62.3563 70.4164 62.4142 70.4222 62.5069C70.4222 62.5532 70.4048 62.588 70.37 62.6111C70.3353 62.6285 70.3006 62.6401 70.26 62.6459L69.8489 62.7096C69.6984 62.7269 69.5768 62.7848 69.4841 62.8717C69.3915 62.9643 69.3451 63.0975 69.3394 63.2654C69.3451 63.3812 69.3683 63.4797 69.4204 63.5549C69.4725 63.6302 69.5362 63.6881 69.6173 63.7229C69.6984 63.7576 69.7852 63.7692 69.8721 63.7692C70.0226 63.7692 70.1442 63.7402 70.2311 63.6881C70.3179 63.6302 70.3874 63.5781 70.4337 63.5202C70.4395 63.5665 70.4453 63.6013 70.4511 63.6302C70.4569 63.6534 70.4627 63.6881 70.4801 63.7287H70.9722V63.6592C70.9433 63.6476 70.9201 63.6302 70.9028 63.5897C70.8796 63.5549 70.8738 63.4855 70.868 63.387V62.4432ZM70.4222 63.1033C70.4164 63.2075 70.3758 63.2944 70.2948 63.3523C70.2137 63.4102 70.1211 63.4449 70.011 63.4449C69.9647 63.4449 69.9184 63.4333 69.8721 63.3986C69.8257 63.3697 69.8026 63.3118 69.7968 63.2365C69.8026 63.1438 69.8315 63.0801 69.8894 63.0454C69.9473 63.0107 70.0226 62.9875 70.1095 62.9701C70.2021 62.9585 70.2716 62.9412 70.3179 62.9296C70.3642 62.9122 70.399 62.8948 70.4222 62.8775V63.1033Z" fill="#EE7B1D"/>
<path fill-rule="evenodd" clip-rule="evenodd" d="M71.7945 61.5107H71.337V61.9856H71.0996V62.3098H71.337V63.3694C71.3312 63.4853 71.3602 63.5721 71.4181 63.6416C71.4818 63.7111 71.6092 63.7458 71.8002 63.7458H71.8639C71.9334 63.7458 72.0087 63.74 72.0782 63.74V63.3926C72.0608 63.3926 72.0434 63.3926 72.0319 63.3984C72.0145 63.3984 71.9971 63.3984 71.9855 63.3984C71.8929 63.3984 71.8408 63.3868 71.8176 63.3637C71.8002 63.3463 71.7887 63.3058 71.7945 63.2594V62.3098H72.0782V61.9856H71.7945V61.5107Z" fill="#EE7B1D"/>
<path fill-rule="evenodd" clip-rule="evenodd" d="M72.3794 61.9856V63.7285H72.8426V61.9856H72.3794ZM72.8426 61.3486H72.3794V61.7771H72.8426V61.3486Z" fill="#EE7B1D"/>
<path fill-rule="evenodd" clip-rule="evenodd" d="M74.9617 62.8543C74.9617 62.6459 74.9153 62.4722 74.8343 62.339C74.7532 62.2 74.6432 62.1016 74.51 62.0379C74.3768 61.9684 74.2321 61.9395 74.0699 61.9395C73.9136 61.9395 73.7688 61.9684 73.6299 62.0379C73.4967 62.1016 73.3925 62.2 73.3056 62.339C73.2245 62.4722 73.184 62.6459 73.1782 62.8543C73.184 63.0628 73.2245 63.2365 73.3056 63.3697C73.3925 63.5086 73.4967 63.6071 73.6299 63.6766C73.7688 63.7403 73.9136 63.7692 74.0699 63.7692C74.2321 63.7692 74.3768 63.7403 74.51 63.6766C74.6432 63.6071 74.7532 63.5086 74.8343 63.3697C74.9153 63.2365 74.9617 63.0628 74.9617 62.8543ZM74.4926 62.8543C74.4926 62.9296 74.4811 63.0107 74.4637 63.0917C74.4405 63.1728 74.4 63.2423 74.3363 63.3002C74.2784 63.3523 74.1857 63.3813 74.0699 63.387C73.9541 63.3813 73.8673 63.3523 73.8036 63.3002C73.7457 63.2423 73.7051 63.1728 73.682 63.0917C73.6588 63.0107 73.653 62.9296 73.653 62.8543C73.653 62.7791 73.6588 62.698 73.682 62.6169C73.7051 62.5359 73.7457 62.4664 73.8036 62.4143C73.8673 62.3564 73.9541 62.3274 74.0699 62.3216C74.1857 62.3274 74.2784 62.3564 74.3363 62.4143C74.4 62.4664 74.4405 62.5359 74.4637 62.6169C74.4811 62.698 74.4926 62.7791 74.4926 62.8543Z" fill="#EE7B1D"/>
<path fill-rule="evenodd" clip-rule="evenodd" d="M76.8611 62.5185C76.8553 62.3274 76.7974 62.1826 76.6874 62.0842C76.5716 61.9858 76.4326 61.9395 76.2531 61.9395C76.1489 61.9395 76.0563 61.9568 75.9868 61.9916C75.9173 62.0263 75.8594 62.0668 75.8188 62.1132C75.7783 62.1595 75.7494 62.2 75.732 62.2406H75.7262V61.9858H75.2861V63.7287H75.7436V62.7269C75.7494 62.5938 75.7841 62.4953 75.8478 62.4258C75.9173 62.3564 75.9983 62.3216 76.1026 62.3216C76.201 62.3274 76.2705 62.3448 76.311 62.3853C76.3516 62.4258 76.3805 62.4664 76.3921 62.5243C76.3979 62.5764 76.4037 62.6227 76.4037 62.669V63.7287H76.8611V62.5185Z" fill="#EE7B1D"/>
</svg>
