<svg width="89" height="94" viewBox="0 0 89 94" fill="none" xmlns="http://www.w3.org/2000/svg">
<path d="M86.5153 89.6496H82.5188V31.6207C82.5188 28.9197 80.3212 26.7224 77.6205 26.7224H68.6875C65.9866 26.7224 63.7892 28.9199 63.7892 31.6207V89.6496H53.6413V57.9123C53.6413 55.2114 51.444 53.014 48.743 53.014H39.8101C37.1092 53.014 34.9118 55.2115 34.9118 57.9123V89.6496H24.7639V73.2131C24.7639 70.5121 22.5664 68.3148 19.8656 68.3148H10.9325C8.23156 68.3148 6.03423 70.5123 6.03423 73.2131V89.6496H1.82215C0.815776 89.6496 0 90.4654 0 91.4718C0 92.4781 0.815776 93.2939 1.82215 93.2939H86.5153C87.5216 93.2939 88.3374 92.4781 88.3374 91.4718C88.3374 90.4654 87.5216 89.6496 86.5153 89.6496ZM21.1193 89.6496H9.67835V73.2131C9.67835 72.5216 10.2408 71.9591 10.9323 71.9591H19.8653C20.5568 71.9591 21.1193 72.5216 21.1193 73.2131V89.6496ZM49.9969 89.6496H38.556V57.9123C38.556 57.2208 39.1184 56.6583 39.8099 56.6583H48.7429C49.4342 56.6583 49.9969 57.2208 49.9969 57.9123V89.6496ZM78.8745 89.6496H67.4335V31.6207C67.4335 30.9292 67.996 30.3667 68.6875 30.3667H77.6205C78.312 30.3667 78.8745 30.9292 78.8745 31.6207V89.6496Z" fill="white"/>
<path d="M82.5148 1.91617C82.5403 1.41891 82.3654 0.913261 81.9857 0.533525C81.6059 0.153789 81.1003 -0.0213191 80.603 0.00437316C80.5737 0.00309765 80.5447 0 80.5148 0H69.4908C68.4845 0 67.6687 0.815776 67.6687 1.82215C67.6687 2.82852 68.4845 3.6443 69.4908 3.6443H76.2978L58.2846 21.6577L51.4917 14.8647C51.15 14.5231 50.6864 14.331 50.2032 14.331C49.72 14.331 49.2564 14.5231 48.9148 14.8647L16.1582 47.6215C15.4466 48.333 15.4466 49.4868 16.1582 50.1986C16.514 50.5541 16.9803 50.7319 17.4466 50.7319C17.9129 50.7319 18.3794 50.5541 18.7351 50.1982L50.2032 18.7299L56.9962 25.5228C57.7077 26.2344 58.8615 26.2344 59.5732 25.5228L78.8749 6.22136V12.3821C78.8749 13.3884 79.6907 14.2042 80.6971 14.2042C81.7034 14.2042 82.5192 13.3884 82.5192 12.3821V2.00436C82.5192 1.97466 82.5161 1.94569 82.5148 1.91617Z" fill="white"/>
<path d="M11.3046 57.0896C12.3109 57.0896 13.1267 56.2738 13.1267 55.2675C13.1267 54.2611 12.3109 53.4453 11.3046 53.4453C10.2982 53.4453 9.48242 54.2611 9.48242 55.2675C9.48242 56.2738 10.2982 57.0896 11.3046 57.0896Z" fill="white"/>
</svg>
