<svg width="376" height="364" viewBox="0 0 376 364" fill="none" xmlns="http://www.w3.org/2000/svg">
<path d="M8.62964 273.658C10.3156 274.302 12.1209 274.526 13.9032 274.312C15.6856 274.098 17.3962 273.452 18.9003 272.425C20.4044 271.398 21.6608 270.019 22.5706 268.395C23.4804 266.771 24.0186 264.948 24.1429 263.068C24.2672 261.189 23.9741 259.305 23.2867 257.565C22.5993 255.825 21.5365 254.276 20.182 253.041C18.8274 251.805 17.2182 250.917 15.4812 250.447C13.7441 249.976 11.9267 249.936 10.1722 250.328L10.4621 256.589L7.6414 251.224C4.873 252.59 2.7343 255.054 1.69527 258.075C1.32627 259.134 1.10195 260.242 1.02899 261.366C0.850931 264.004 1.49659 266.631 2.86814 268.849C4.23968 271.068 6.26235 272.756 8.62964 273.658Z" fill="#FFA667"/>
<path d="M23.9124 343.902C22.9729 338.755 27.0438 334.192 31.0649 331.227C35.086 328.261 39.7844 325.347 41.1564 320.313C43.1282 313.079 37.2548 306.455 32.6834 300.742C29.2918 296.502 26.3792 291.845 24.0066 286.868C23.0555 284.872 22.1815 282.786 21.9312 280.559C21.5708 277.353 22.5282 274.162 23.4928 271.103C26.7063 260.914 30.142 250.811 33.8 240.793" stroke="#3F3D56" stroke-miterlimit="10"/>
<path d="M9.01113 272.5C10.7814 273.143 12.677 273.367 14.5484 273.153C16.4198 272.939 18.216 272.293 19.7953 271.266C21.3746 270.24 22.6939 268.86 23.6492 267.236C24.6044 265.613 25.1696 263.789 25.3001 261.91C25.4305 260.03 25.1228 258.146 24.401 256.406C23.6793 254.666 22.5633 253.117 21.1411 251.882C19.7188 250.647 18.0291 249.759 16.2052 249.288C14.3813 248.818 12.4731 248.777 10.6308 249.17L10.9352 255.431L7.97347 250.065C5.06665 251.431 2.82101 253.896 1.73003 256.917C1.34259 257.975 1.10705 259.083 1.03044 260.207C0.843479 262.846 1.52142 265.473 2.96155 267.691C4.40167 269.909 6.52547 271.597 9.01113 272.5V272.5Z" stroke="#3F3D56" stroke-miterlimit="10"/>
<path d="M22.5483 238.38C23.2102 236.463 24.321 234.751 25.7784 233.403C27.2358 232.054 28.993 231.113 30.888 230.665L31.842 236.618L33.6107 230.366C36.0664 230.404 38.4471 231.261 40.4089 232.812C42.3708 234.364 43.8122 236.53 44.5253 238.998C45.2383 241.466 45.186 244.108 44.3758 246.543C43.5657 248.977 42.0397 251.079 40.0181 252.543C37.9966 254.008 35.584 254.76 33.1289 254.691C30.6737 254.622 28.303 253.735 26.3589 252.159C24.4148 250.583 22.9981 248.399 22.3131 245.922C21.6282 243.446 21.7106 240.805 22.5483 238.38H22.5483Z" fill="#FFA667"/>
<path d="M22.5831 237.999C23.278 236.172 24.4443 234.542 25.9746 233.258C27.5049 231.974 29.35 231.077 31.3397 230.651L32.3414 236.321L34.1985 230.366C36.7771 230.402 39.2768 231.218 41.3367 232.696C43.3966 234.174 44.9102 236.237 45.6589 238.587C46.4075 240.937 46.3526 243.454 45.502 245.772C44.6513 248.091 43.049 250.092 40.9264 251.487C38.8037 252.882 36.2705 253.598 33.6926 253.532C31.1147 253.467 28.6254 252.622 26.5842 251.121C24.5429 249.62 23.0553 247.54 22.3361 245.182C21.6169 242.823 21.7034 240.308 22.583 237.999H22.5831Z" stroke="#3F3D56" stroke-miterlimit="10"/>
<path d="M31.0335 301.501C33.8409 302.471 36.925 302.423 39.6978 301.366C42.4705 300.31 44.7382 298.318 46.0684 295.771C47.3987 293.224 47.6985 290.3 46.9108 287.556C46.1231 284.812 44.303 282.44 41.7973 280.893L40.3707 285.468L39.3591 279.732C39.3491 279.728 39.3387 279.724 39.3281 279.721C37.8265 279.201 36.2321 278.968 34.6359 279.036C33.0398 279.103 31.4732 279.469 30.0257 280.114C28.5782 280.758 27.2781 281.667 26.1998 282.79C25.1215 283.913 24.2861 285.228 23.7412 286.658C23.1964 288.089 22.9528 289.608 23.0244 291.128C23.0961 292.648 23.4815 294.14 24.1587 295.519C24.8359 296.897 25.7916 298.135 26.9712 299.161C28.1508 300.188 29.5312 300.983 31.0334 301.501H31.0335Z" fill="#FFA667"/>
<path d="M31.0335 299.184C33.8409 300.154 36.925 300.106 39.6978 299.049C42.4705 297.992 44.7382 296.001 46.0684 293.454C47.3987 290.907 47.6985 287.983 46.9108 285.239C46.1231 282.495 44.303 280.123 41.7973 278.576L40.3707 283.151L39.3591 277.415C39.3491 277.411 39.3387 277.407 39.3281 277.404C37.8265 276.884 36.2321 276.651 34.6359 276.719C33.0398 276.786 31.4732 277.152 30.0257 277.796C28.5782 278.441 27.2781 279.35 26.1998 280.473C25.1215 281.596 24.2861 282.91 23.7412 284.341C23.1964 285.772 22.9528 287.291 23.0244 288.811C23.0961 290.331 23.4815 291.823 24.1587 293.202C24.8359 294.58 25.7916 295.818 26.9712 296.844C28.1508 297.871 29.5312 298.666 31.0334 299.184H31.0335Z" stroke="#3F3D56" stroke-miterlimit="10"/>
<path d="M17.4067 321.578C17.8897 324.196 19.3029 326.576 21.4095 328.319C23.5161 330.062 26.1878 331.062 28.9767 331.152C31.7655 331.241 34.5018 330.415 36.7267 328.811C38.9516 327.207 40.5298 324.922 41.1966 322.342C41.8634 319.761 41.5783 317.04 40.389 314.635C39.1997 312.231 37.1786 310.289 34.6647 309.136C32.1508 307.982 29.2969 307.687 26.5816 308.3C23.8664 308.913 21.455 310.396 19.7517 312.502L25.1737 320.275L17.7653 316.149C17.1909 317.905 17.0679 319.767 17.4067 321.578Z" fill="#FFA667"/>
<path d="M18.556 318.782C19.016 321.531 20.3619 324.03 22.3682 325.86C24.3745 327.691 26.919 328.741 29.575 328.835C32.231 328.929 34.8371 328.061 36.956 326.376C39.075 324.692 40.578 322.294 41.2131 319.584C41.8481 316.874 41.5765 314.017 40.4439 311.492C39.3112 308.968 37.3864 306.929 34.9922 305.718C32.598 304.506 29.88 304.197 27.294 304.84C24.7081 305.483 22.4115 307.041 20.7894 309.252L25.9531 317.413L18.8975 313.081C18.3504 314.926 18.2333 316.881 18.556 318.782V318.782Z" stroke="#3F3D56" stroke-miterlimit="10"/>
<path d="M6.79297 351.637C6.79297 351.637 17.3789 347.267 20.5693 344.874C23.7596 342.481 36.8531 339.624 37.6445 343.462C38.436 347.299 53.5533 362.549 41.6018 362.65C29.6503 362.752 13.8319 364.716 10.6477 362.673C7.46348 360.63 6.79297 351.637 6.79297 351.637Z" fill="#13263D"/>
<path opacity="0.2" d="M41.8175 361.389C29.8652 361.487 14.0456 363.387 10.8612 361.41C8.43612 359.905 7.46974 354.504 7.14639 352.012C6.92246 352.022 6.79297 352.026 6.79297 352.026C6.79297 352.026 7.46351 360.726 10.6479 362.703C13.8324 364.679 29.6519 362.779 41.6042 362.681C45.0544 362.653 46.2461 361.402 46.1807 359.549C45.7014 360.669 44.3855 361.368 41.8175 361.389Z" fill="black"/>
<path d="M29.9634 360.122H185.207" stroke="#3F3D56" stroke-miterlimit="10"/>
<path d="M335.383 358.1C345.649 353.145 356.562 347.978 364.704 336.199C371.979 325.673 376.891 309.6 373.877 293.814C370.869 278.06 361.86 267.556 352.558 262.332C347.283 259.368 341.763 257.724 336.246 256.433C330.249 255.029 324.225 253.879 318.204 252.772C293.823 248.291 269.351 245.553 244.787 244.559C232.666 244.068 220.548 244.08 208.425 244.363C197.599 244.615 186.197 244.609 176.154 237.214C168.344 231.463 161.255 221.001 159.079 207.253C156.567 191.382 161.201 175.22 167.847 163.726C171.351 157.667 175.445 152.568 179.669 147.879C184.252 142.792 188.994 138.066 193.839 133.654C203.381 124.969 213.357 117.577 223.664 111.556C228.748 108.585 233.908 106.021 239.113 103.656C243.508 101.659 247.916 99.6597 252.163 96.939C260.374 91.6795 268.184 82.7704 270.272 68.1648C272.251 54.3222 268.914 39.295 263.066 29.0115C256.299 17.1144 246.096 11.899 236.315 11.0552C225.333 10.1078 214.605 14.5249 204.284 20.1307C193.275 26.1098 182.504 32.9846 171.262 37.8276C160.115 42.6253 148.752 46.0199 137.277 47.9806C131.66 48.942 125.872 50.0275 120.221 49.2915C115.485 48.6747 110.773 46.4362 107.283 41.0342C104.29 36.4023 102.507 30.0365 103.12 23.3187C103.232 22.0985 104.385 22.6172 104.274 23.83C103.528 32.0075 106.987 39.5428 111.249 43.4028C116.175 47.8639 122.169 47.8699 127.653 47.3597C139.544 46.2055 151.354 43.4615 162.962 39.1563C174.368 34.9694 185.366 28.9841 196.352 22.5904C206.786 16.5181 217.453 10.5914 228.6 9.2762C238.272 8.13497 248.446 10.3996 256.872 18.5231C264.278 25.6626 269.723 37.5689 271.458 51.2316C273.154 64.5826 270.806 78.0206 264.517 87.3374C258.007 96.9838 249.079 101.108 240.76 104.906C230.208 109.724 219.882 115.355 209.887 122.667C199.756 130.058 190.04 138.837 180.847 148.907C171.972 158.653 163.214 170.917 160.408 188.304C159.1 196.403 159.342 204.994 161.529 212.644C163.474 219.446 166.678 225.168 170.41 229.581C179.314 240.111 190.536 242.273 201.291 242.488C213.371 242.73 225.45 242.075 237.534 242.393C262.16 243.043 286.735 245.452 311.26 249.62C317.405 250.666 323.543 251.821 329.673 253.087C335.186 254.226 340.718 255.357 346.139 257.379C355.777 260.975 365.156 267.888 371.147 281.022C373.806 286.715 375.453 293.462 375.913 300.541C376.332 307.93 375.207 315.332 373.129 321.904C368.528 336.451 359.911 345.704 350.76 351.783C345.859 355.039 340.775 357.506 335.701 359.955C334.962 360.311 334.646 358.456 335.383 358.1L335.383 358.1Z" fill="#CDCDCD"/>
<path d="M266.5 36C276.717 36 285 27.9411 285 18C285 8.05887 276.717 0 266.5 0C256.283 0 248 8.05887 248 18C248 27.9411 256.283 36 266.5 36Z" fill="#CDCDCD"/>
<path d="M185 242C194.941 242 203 233.717 203 223.5C203 213.283 194.941 205 185 205C175.059 205 167 213.283 167 223.5C167 233.717 175.059 242 185 242Z" fill="#CDCDCD"/>
<path d="M331.5 249C341.717 249 350 240.717 350 230.5C350 220.283 341.717 212 331.5 212C321.283 212 313 220.283 313 230.5C313 240.717 321.283 249 331.5 249Z" fill="#CDCDCD"/>
<path d="M331.5 357C341.717 357 350 348.717 350 338.5C350 328.283 341.717 320 331.5 320C321.283 320 313 328.283 313 338.5C313 348.717 321.283 357 331.5 357Z" fill="#CDCDCD"/>
<path d="M100.069 350.499L111.253 350.498L116.575 306.867L100.066 306.868L100.069 350.499Z" fill="#FFA667"/>
<path d="M132.787 360.372L97.8928 360.373L97.8922 346.891L119.304 346.89C122.88 346.89 126.309 348.311 128.837 350.839C131.366 353.367 132.786 356.796 132.787 360.372L132.787 360.372Z" fill="#13263D"/>
<path d="M59.9744 350.499L71.1592 350.498L76.4811 306.867L59.9717 306.868L59.9744 350.499Z" fill="#FFA667"/>
<path d="M92.9399 360.372L58.0462 360.373L58.0455 346.891L79.4577 346.89C83.0332 346.89 86.4624 348.311 88.9908 350.839C91.5192 353.367 92.9398 356.796 92.9399 360.372L92.9399 360.372Z" fill="#13263D"/>
<path d="M70.2231 336.342L59.2957 335.771C58.7322 335.742 58.1802 335.602 57.6717 335.359C57.1632 335.117 56.7082 334.776 56.3332 334.358C55.9582 333.939 55.6705 333.451 55.4869 332.922C55.3033 332.392 55.2275 331.832 55.2637 331.273L68.3243 187.763L128.47 203.87L134.264 202.301L116.143 329.346C115.989 330.302 115.511 331.176 114.788 331.826C114.064 332.475 113.14 332.861 112.166 332.918L100.387 333.463C99.7976 333.495 99.2082 333.406 98.6557 333.201C98.1031 332.996 97.5995 332.679 97.1766 332.271C96.7537 331.863 96.4206 331.372 96.1986 330.83C95.9765 330.287 95.8703 329.705 95.8865 329.12L98.0209 252.87C98.0308 252.518 97.9074 252.174 97.6749 251.907C97.4423 251.641 97.1176 251.47 96.7645 251.429C96.4115 251.388 96.0559 251.48 95.7676 251.686C95.4794 251.893 95.2795 252.199 95.2074 252.544L74.6237 332.974C74.4294 333.929 73.9076 334.786 73.1473 335.402C72.387 336.017 71.4352 336.351 70.4542 336.348C70.3777 336.348 70.3006 336.346 70.2231 336.342Z" fill="#023E88"/>
<path d="M102.425 71.018C114.799 71.018 124.83 60.9866 124.83 48.6123C124.83 36.238 114.799 26.2067 102.425 26.2067C90.0504 26.2067 80.019 36.238 80.019 48.6123C80.019 60.9866 90.0504 71.018 102.425 71.018Z" fill="#FFA667"/>
<path d="M64.7277 114.528L67.1872 167.318L68.0763 186.524C68.1117 187.36 68.397 188.167 68.8958 188.841C69.3946 189.515 70.0841 190.025 70.8761 190.307L128.558 211.094C129.024 211.266 129.517 211.352 130.015 211.348C130.583 211.351 131.146 211.24 131.67 211.021C132.194 210.803 132.668 210.481 133.064 210.076C133.461 209.672 133.771 209.191 133.977 208.664C134.183 208.138 134.28 207.575 134.262 207.01L131.897 112.091C131.742 104.303 128.86 96.8137 123.749 90.9131C118.638 85.0126 111.617 81.0708 103.898 79.7675C103.34 79.6828 102.772 79.5981 102.205 79.5229C97.4182 78.9318 92.5595 79.3913 87.9705 80.8691C83.3816 82.3469 79.1739 84.8071 75.6435 88.0766C71.9879 91.4214 69.1154 95.5242 67.2292 100.095C65.3429 104.666 64.489 109.593 64.7277 114.528L64.7277 114.528Z" fill="#13263D"/>
<path d="M156.432 200.305C155.064 199.882 153.813 199.147 152.781 198.159C151.749 197.17 150.963 195.955 150.486 194.61C150.01 193.265 149.856 191.829 150.037 190.414C150.217 189 150.728 187.647 151.527 186.464L131.906 160.504L148.838 159.461L164.875 184.274C166.592 185.594 167.787 187.474 168.25 189.584C168.713 191.693 168.414 193.898 167.407 195.81C166.4 197.723 164.748 199.221 162.741 200.043C160.734 200.865 158.501 200.958 156.432 200.305H156.432Z" fill="#FFA667"/>
<path d="M142.34 181.549C141.82 181.339 141.346 181.028 140.946 180.635C140.547 180.242 140.23 179.774 140.014 179.258L110.393 109.152C109.811 107.779 109.508 106.306 109.5 104.817C109.492 103.328 109.78 101.852 110.346 100.473C110.913 99.0947 111.748 97.8405 112.802 96.7824C113.857 95.7243 115.112 94.8831 116.494 94.3068C117.876 93.7305 119.359 93.4304 120.858 93.4237C122.357 93.417 123.843 93.7038 125.23 94.2678C126.618 94.8317 127.88 95.6617 128.944 96.7103C130.008 97.759 130.854 99.0057 131.433 100.379L161.055 170.487C161.493 171.526 161.498 172.696 161.068 173.739C160.639 174.782 159.811 175.613 158.766 176.051L145.615 181.533C145.098 181.751 144.542 181.864 143.979 181.867C143.417 181.87 142.86 181.761 142.34 181.549L142.34 181.549Z" fill="#13263D"/>
<g filter="url(#filter0_d)">
<path d="M94.6696 178.948L122.818 125.264C123.361 124.231 124.293 123.456 125.41 123.107C126.526 122.758 127.736 122.864 128.773 123.402L169.632 144.657C170.668 145.197 171.447 146.125 171.797 147.237C172.148 148.349 172.041 149.554 171.5 150.588L143.352 204.272C142.809 205.304 141.877 206.08 140.76 206.429C139.644 206.778 138.434 206.672 137.397 206.134L96.5385 184.879C95.5019 184.339 94.723 183.411 94.3727 182.299C94.0223 181.187 94.1291 179.982 94.6696 178.948Z" fill="#0256BD"/>
</g>
<path d="M113.615 154.161C113.12 152.838 112.323 151.65 111.29 150.691C110.256 149.733 109.013 149.03 107.661 148.639C106.309 148.249 104.885 148.181 103.502 148.442C102.12 148.703 100.817 149.285 99.6978 150.141L72.9888 132.339L72.9434 149.074L98.3137 163.414C99.7141 165.028 101.635 166.094 103.74 166.426C105.845 166.759 107.999 166.336 109.824 165.232C111.65 164.128 113.03 162.414 113.724 160.389C114.417 158.365 114.378 156.16 113.615 154.161Z" fill="#FFA667"/>
<path d="M80.0621 158.541L57.7342 140.941C55.3188 140.134 53.1362 138.755 51.3739 136.924C49.6116 135.093 48.3222 132.863 47.6163 130.427C46.9104 127.991 46.8092 125.421 47.3213 122.937C47.8335 120.453 48.9436 118.13 50.5566 116.167L70.8297 89.7281C72.2385 88.0149 74.2198 86.8636 76.4115 86.4844C78.6031 86.1052 80.8587 86.5236 82.7659 87.663C84.6731 88.8025 86.1045 90.5869 86.7985 92.69C87.4924 94.7932 87.4026 97.0747 86.5454 99.1174L70.5047 125.228L94.0778 136.354C94.626 136.613 95.1127 136.985 95.5059 137.444C95.8991 137.904 96.1898 138.442 96.3587 139.022C96.5276 139.601 96.571 140.21 96.4859 140.808C96.4008 141.406 96.1893 141.979 95.8651 142.489L86.3495 157.475C86.0279 157.98 85.603 158.413 85.1025 158.745C84.6021 159.077 84.0371 159.301 83.4442 159.402C83.4207 159.406 83.397 159.41 83.3733 159.413C82.7907 159.501 82.1963 159.469 81.6268 159.318C81.0573 159.168 80.5247 158.904 80.0621 158.541Z" fill="#13263D"/>
<path d="M85.0359 63.3871C84.9407 63.1055 84.9105 62.8057 84.9476 62.5105C84.9848 62.2153 85.0883 61.9327 85.2502 61.6842C85.4122 61.4357 85.6283 61.2279 85.8819 61.0769C86.1356 60.9258 86.4201 60.8354 86.7137 60.8126C87.3149 60.8456 87.9033 61.0014 88.4432 61.2706C88.9832 61.5398 89.4636 61.9168 89.8553 62.3787C90.6587 63.3147 91.5939 64.1262 92.631 64.7871C93.7048 65.334 95.1612 65.2561 95.7733 64.2133C96.3482 63.2341 95.9543 61.9229 95.6063 60.7855C94.7208 57.8917 94.2253 54.8906 94.1332 51.8631C94.033 48.4837 94.5048 44.957 96.3563 42.3213C98.7458 38.9197 103.018 37.6283 107.062 37.722C111.106 37.8156 115.084 39.0769 119.089 39.8742C120.472 40.1494 122.097 40.2902 123.022 39.2073C124.005 38.0558 123.644 36.1923 123.226 34.6376C122.14 30.6034 120.989 26.4324 118.467 23.1743C115.74 19.7888 111.845 17.573 107.567 16.9732C103.459 16.459 99.2887 16.9374 95.3994 18.369C89.0629 20.3871 83.4871 24.312 79.4179 29.6189C75.2232 35.2626 73.4106 42.355 74.3765 49.3453C75.3202 55.4335 78.5129 60.9339 83.3112 64.7377L85.0359 63.3871Z" fill="#13263D"/>
<path d="M269.196 319.49C281.498 319.49 291.471 309.658 291.471 297.529C291.471 285.401 281.498 275.569 269.196 275.569C256.895 275.569 246.922 285.401 246.922 297.529C246.922 309.658 256.895 319.49 269.196 319.49Z" fill="#F47920"/>
<path d="M266.538 66.0017C231.878 66.2468 203.499 94.4518 203.006 129.157C203.002 129.478 203 131.731 203 134.677C203 138.998 204.714 143.142 207.765 146.197C210.816 149.252 214.954 150.969 219.268 150.969H219.268C221.407 150.969 223.525 150.546 225.501 149.726C227.476 148.906 229.271 147.703 230.783 146.188C232.294 144.673 233.493 142.874 234.31 140.895C235.127 138.915 235.547 136.794 235.545 134.652C235.543 132.648 235.542 131.26 235.542 131.175C235.541 125.812 236.934 120.54 239.585 115.879C242.235 111.218 246.052 107.328 250.659 104.593C255.266 101.857 260.505 100.369 265.86 100.275C271.216 100.182 276.503 101.486 281.202 104.06C285.902 106.633 289.851 110.388 292.662 114.953C295.473 119.519 297.049 124.739 297.234 130.099C297.42 135.46 296.208 140.776 293.719 145.526C291.231 150.275 287.55 154.294 283.04 157.187L283.045 157.194C283.045 157.194 259.891 172.121 252.831 192.599L252.837 192.6C251.596 196.795 250.967 201.148 250.97 205.523C250.97 207.322 251.075 223.059 251.28 235.831C251.351 240.238 253.15 244.44 256.287 247.531C259.425 250.622 263.651 252.354 268.052 252.353H268.052C270.264 252.353 272.454 251.915 274.496 251.064C276.538 250.213 278.391 248.967 279.95 247.396C281.509 245.825 282.743 243.961 283.58 241.911C284.417 239.861 284.84 237.665 284.827 235.451C284.756 223.753 284.717 210.133 284.717 209.144C284.717 196.57 296.831 184.042 306.781 175.872C318.238 166.464 326.483 153.644 329.795 139.181C330.528 136.204 330.932 133.155 331 130.089C331 121.634 329.329 113.262 326.084 105.456C322.839 97.6505 318.083 90.565 312.091 84.6078C306.099 78.6507 298.989 73.9398 291.171 70.7465C283.353 67.5532 274.981 65.9406 266.538 66.0017Z" fill="#F47920"/>
<path d="M224.135 143.623C219.811 143.622 215.664 141.909 212.607 138.859C209.55 135.809 207.832 131.673 207.832 127.361C207.831 124.419 207.833 122.17 207.838 121.85C207.975 111.776 210.519 101.878 215.259 92.9803C207.472 103.612 203.19 116.395 203.006 129.561C203.002 129.881 203 132.13 203 135.071C203 139.384 204.718 143.52 207.775 146.57C210.833 149.619 214.98 151.333 219.304 151.333C222.857 151.332 226.312 150.174 229.145 148.035C231.978 145.896 234.034 142.893 235 139.483C232.015 142.153 228.145 143.628 224.135 143.623Z" fill="#13263D"/>
<path d="M268.041 100.725C273.014 100.963 277.856 102.407 282.15 104.934C286.444 107.46 290.061 110.993 292.693 115.23C295.324 119.467 296.89 124.28 297.257 129.257C297.623 134.234 296.779 139.226 294.796 143.804C297.664 140.429 299.771 136.473 300.975 132.208C302.179 127.942 302.452 123.467 301.773 119.086C301.095 114.706 299.483 110.523 297.045 106.824C294.608 103.125 291.404 99.9957 287.651 97.6501C283.898 95.3046 279.684 93.7977 275.298 93.2322C270.911 92.6668 266.454 93.056 262.231 94.3734C258.008 95.6908 254.118 97.9054 250.827 100.866C247.535 103.827 244.919 107.464 243.157 111.53C246.202 107.94 250.03 105.098 254.344 103.224C258.659 101.351 263.345 100.496 268.041 100.725Z" fill="#13263D"/>
<path d="M272.635 244.649C268.225 244.65 263.99 242.923 260.846 239.841C257.702 236.758 255.899 232.567 255.828 228.172C255.623 215.434 255.517 199.74 255.517 197.946C255.514 193.582 256.145 189.241 257.389 185.058L257.383 185.056C258.117 182.956 259.004 180.913 260.037 178.941C256.867 183.151 254.344 187.809 252.552 192.76L252.557 192.761C251.314 196.945 250.683 201.286 250.686 205.65C250.686 207.443 250.792 223.138 250.996 235.876C251.068 240.271 252.87 244.462 256.015 247.544C259.159 250.627 263.393 252.354 267.804 252.353C271.441 252.352 274.979 251.177 277.889 249.002C280.798 246.828 282.922 243.772 283.941 240.293C280.851 243.101 276.817 244.655 272.635 244.649Z" fill="#13263D"/>
<path d="M264.091 314.488C260.97 313.113 258.207 311.024 256.021 308.385C253.835 305.746 252.285 302.629 251.495 299.281C250.704 295.933 250.694 292.445 251.465 289.092C252.236 285.739 253.767 282.613 255.937 279.961C253.421 281.819 251.324 284.196 249.786 286.936C248.248 289.676 247.303 292.715 247.016 295.852C246.728 298.988 247.104 302.151 248.117 305.13C249.131 308.109 250.76 310.836 252.895 313.13C255.031 315.424 257.625 317.232 260.505 318.435C263.384 319.638 266.484 320.207 269.598 320.106C272.712 320.005 275.77 319.235 278.567 317.848C281.364 316.461 283.838 314.488 285.824 312.061C282.727 314.35 279.09 315.778 275.277 316.204C271.464 316.63 267.607 316.038 264.091 314.488Z" fill="#13263D"/>
<defs>
<filter id="filter0_d" x="90.1699" y="122.905" width="85.8302" height="91.7264" filterUnits="userSpaceOnUse" color-interpolation-filters="sRGB">
<feFlood flood-opacity="0" result="BackgroundImageFix"/>
<feColorMatrix in="SourceAlpha" type="matrix" values="0 0 0 0 0 0 0 0 0 0 0 0 0 0 0 0 0 0 127 0"/>
<feOffset dy="4"/>
<feGaussianBlur stdDeviation="2"/>
<feColorMatrix type="matrix" values="0 0 0 0 0 0 0 0 0 0 0 0 0 0 0 0 0 0 0.25 0"/>
<feBlend mode="normal" in2="BackgroundImageFix" result="effect1_dropShadow"/>
<feBlend mode="normal" in="SourceGraphic" in2="effect1_dropShadow" result="shape"/>
</filter>
</defs>
</svg>
