<svg width="335" height="353" viewBox="0 0 335 353" fill="none" xmlns="http://www.w3.org/2000/svg">
<g opacity="0.2">
<path opacity="0.2" d="M50.1814 74.3167H35.0415V81.2182H50.1814V74.3167Z" fill="#6C63FF"/>
</g>
<g opacity="0.2">
<path opacity="0.2" d="M50.1814 87.6663H35.0415V94.5678H50.1814V87.6663Z" fill="#6C63FF"/>
</g>
<g opacity="0.2">
<path opacity="0.2" d="M50.1814 101.01H35.0415V107.912H50.1814V101.01Z" fill="#6C63FF"/>
</g>
<g opacity="0.2">
<path opacity="0.2" d="M50.1814 114.354H35.0415V121.256H50.1814V114.354Z" fill="#6C63FF"/>
</g>
<g opacity="0.2">
<path opacity="0.2" d="M50.1814 127.704H35.0415V134.605H50.1814V127.704Z" fill="#6C63FF"/>
</g>
<g opacity="0.2">
<path opacity="0.2" d="M50.1814 141.048H35.0415V147.95H50.1814V141.048Z" fill="#6C63FF"/>
</g>
<g opacity="0.2">
<path opacity="0.2" d="M50.1814 154.392H35.0415V161.294H50.1814V154.392Z" fill="#6C63FF"/>
</g>
<g opacity="0.2">
<path opacity="0.2" d="M50.1814 167.736H35.0415V174.638H50.1814V167.736Z" fill="#6C63FF"/>
</g>
<g opacity="0.2">
<path opacity="0.2" d="M78.6853 174.643H63.5454V181.545H78.6853V174.643Z" fill="#6C63FF"/>
</g>
<g opacity="0.2">
<path opacity="0.2" d="M105.355 174.643H90.2148V181.545H105.355V174.643Z" fill="#6C63FF"/>
</g>
<g opacity="0.2">
<path opacity="0.2" d="M132.019 174.643H116.879V181.545H132.019V174.643Z" fill="#6C63FF"/>
</g>
<path d="M95.7143 180.714H83.4082V351.633H95.7143V180.714Z" fill="#3F3D56"/>
<path d="M181.857 176.672V181.19L0 183.449V178.931L0.256668 178.761L32.3551 157.47H167.353L181.857 176.672Z" fill="#3F3D56"/>
<path d="M151.776 150.633C151.776 150.633 108.97 153.942 123.239 163.869C137.507 173.796 151.776 157.251 151.776 157.251V150.633Z" fill="#FFA667"/>
<path opacity="0.1" d="M181.857 177.98V181.589L0 183.449V179.728L0.256668 179.589L181.857 177.98Z" fill="black"/>
<path d="M211.58 95.4651L212.556 91.8369C212.556 91.8369 199.313 115.359 198.198 117.569C197.083 119.779 178.125 138.568 175.894 141.883C174.374 144.033 172.487 145.903 170.318 147.409H149.13C149.13 147.409 144.669 161.777 151.36 162.882C158.051 163.987 179.24 168.408 183.7 168.408C188.161 168.408 216.041 142.989 216.041 142.989L211.58 95.4651Z" fill="#13263D"/>
<path d="M216.146 256.809L209.204 351.633H216.146L224.245 254.551L216.146 256.809Z" fill="#3F3D56"/>
<path d="M298.187 247.206L291.245 340.694H298.187L306.286 244.98L298.187 247.206Z" fill="#3F3D56"/>
<path d="M309.862 256.809L303.551 351.633H309.862L317.224 254.551L309.862 256.809Z" fill="#3F3D56"/>
<path d="M205.944 249.94L199.633 343.429H205.944L213.306 247.714L205.944 249.94Z" fill="#3F3D56"/>
<path d="M335 128.755L315.892 264.123L202.367 259.684L203.131 247.191L204.615 223.068L292.287 227.507L306.9 128.755H335Z" fill="#3F3D56"/>
<path opacity="0.1" d="M335 128.755L315.892 264.123L202.367 259.684L203.131 247.191C226.826 248.089 306.9 243.041 306.9 243.041C306.9 225.332 322.658 156.006 329.02 128.755L335 128.755Z" fill="black"/>
<path d="M137.342 295.572C137.342 295.572 133.797 320.032 126.707 324.286C119.617 328.54 156.249 333.857 156.249 333.857L158.612 301.953L137.342 295.572Z" fill="#FFA667"/>
<path d="M250.225 305.599C250.225 305.599 255.818 312.094 256.937 316.424C258.056 320.754 274.837 322.918 274.837 322.918L287.143 309.929C287.143 309.929 271.481 296.939 267.006 296.939C262.531 296.939 250.225 305.599 250.225 305.599Z" fill="#FFA667"/>
<path d="M220.143 74.0613C235.246 74.0613 247.49 61.8177 247.49 46.7144C247.49 31.6111 235.246 19.3675 220.143 19.3675C205.04 19.3675 192.796 31.6111 192.796 46.7144C192.796 61.8177 205.04 74.0613 220.143 74.0613Z" fill="#FFA667"/>
<path d="M213.306 65.0535C213.306 65.0535 226.98 90.9158 224.701 95.4135C222.422 99.9113 254.327 74.0491 254.327 74.0491C254.327 74.0491 242.932 56.058 242.932 50.4357C242.932 44.8135 213.306 65.0535 213.306 65.0535Z" fill="#FFA667"/>
<path d="M225.941 197.346C225.941 197.346 139.249 183.683 135.871 215.565C132.494 247.447 120.109 288.439 118.983 291.855C117.857 295.271 156.137 314.628 160.641 307.796C165.144 300.964 173.025 246.309 170.773 241.754C168.522 237.199 167.396 231.506 171.899 232.645C176.403 233.783 225.941 244.031 236.074 240.615C246.207 237.199 272.102 191.653 272.102 191.653L225.941 197.346Z" fill="#023E88"/>
<path opacity="0.1" d="M225.941 197.346C225.941 197.346 139.249 183.683 135.871 215.565C132.494 247.447 120.109 288.439 118.983 291.855C117.857 295.271 156.137 314.628 160.641 307.796C165.144 300.964 173.025 246.309 170.773 241.754C168.522 237.199 167.396 231.506 171.899 232.645C176.403 233.783 225.941 244.031 236.074 240.615C246.207 237.199 272.102 191.653 272.102 191.653L225.941 197.346Z" fill="#023E88"/>
<path d="M223.759 190.875L227.148 219.09C227.148 219.09 172.922 239.404 193.256 272.133C213.591 304.861 236.185 322.918 236.185 322.918C236.185 322.918 272.336 302.604 272.336 296.961C272.336 291.318 228.277 259.718 233.926 259.718C239.575 259.718 320.913 255.204 303.968 210.061C287.022 164.918 223.759 190.875 223.759 190.875Z" fill="#023E88"/>
<path d="M136.131 325.643C136.131 325.643 127.165 315.527 127.165 317.775C127.165 320.023 101.389 333.511 96.9059 334.635C92.423 335.759 85.6987 338.007 94.6644 341.379C103.63 344.75 160.787 345.874 160.787 343.627C160.787 341.379 163.028 320.023 158.545 322.271C154.062 324.519 137.252 330.139 136.131 325.643Z" fill="#2F2E41"/>
<path d="M269.534 318.654C269.534 318.654 257.312 315.36 256.201 318.654C255.089 321.949 253.978 335.126 243.978 339.519C233.978 343.911 230.644 350.5 243.978 351.598C257.312 352.696 293.98 327.439 293.98 323.047C293.98 318.654 289.535 305.477 287.313 306.575C285.09 307.673 279.535 317.556 269.534 318.654Z" fill="#2F2E41"/>
<path d="M114.857 332.49H62.8979V353H114.857V332.49Z" fill="#3F3D56"/>
<path d="M254.767 67.0645C254.767 67.0645 250.56 55.7818 243.11 62.5504C235.659 69.3189 221.048 86.2268 221.048 86.2268C221.048 86.2268 212.056 89.6084 208.684 95.2443C205.312 100.88 205.312 138.078 212.056 150.477C218.8 162.876 218.8 184.292 221.048 189.928C223.296 195.564 221.048 201.2 228.916 201.2C236.783 201.2 224.42 192.183 250.271 201.2C276.123 210.218 305.346 221.49 307.594 213.599C309.842 205.709 304.222 201.2 307.594 197.819C310.966 194.437 307.594 193.31 305.346 185.42C303.098 177.529 300.85 176.402 299.726 166.257C298.602 156.113 299.726 145.968 297.478 141.459C295.23 136.95 295.23 130.187 295.23 118.915C295.23 107.643 288.486 85.0996 276.122 78.3364C263.759 71.5732 254.767 67.0645 254.767 67.0645Z" fill="#13263D"/>
<path d="M194.544 16.6502C200.854 10.5488 207.486 4.25091 215.887 1.59345C227.099 -1.9535 239.598 1.76842 249.251 8.43959C251.333 9.87876 253.372 11.5083 254.624 13.6967C255.771 15.7041 256.173 18.0339 256.537 20.3126C257.818 28.3372 258.869 36.4689 258.242 44.5696C257.615 52.6702 255.204 60.8122 250.168 67.2246C245.703 62.4991 242.276 56.9073 240.104 50.8029C239.531 49.1874 239.016 47.4852 237.858 46.2139C236.7 44.9426 234.661 44.2586 233.208 45.1854C231.188 46.4731 231.442 49.9119 229.309 51.0068C228.579 51.3348 227.762 51.4197 226.979 51.2488C221.42 50.2999 219.483 43.5533 215.865 39.2661C210.532 32.9471 203.066 33.347 195.778 31.531C187.321 29.4235 189.415 21.6099 194.544 16.6502Z" fill="#13263D"/>
<path d="M189.42 159.736C189.42 159.736 152.259 149.508 149.228 158.305C146.198 167.102 180.955 175.245 180.955 175.245H195.531L189.42 159.736Z" fill="#FFA667"/>
<path d="M267.996 85.0001C267.996 85.0001 250.93 97.3835 246.379 115.396C241.828 133.408 238.414 152.546 238.414 152.546L186.078 159.301C186.078 159.301 181.527 177.313 188.353 178.439C195.18 179.564 246.379 182.942 254.343 178.439C262.307 173.936 289.613 117.647 288.476 112.018C287.338 106.39 285.062 86.1259 267.996 85.0001Z" fill="#13263D"/>
<path d="M65.8517 166.853L83.7979 168.408L109.388 166.614L108.943 166.568L85.238 164.101C79.8099 161.948 83.5763 149.265 83.5763 149.265L65.413 150.263L63.9684 150.342C57.5432 166.614 65.8517 166.853 65.8517 166.853Z" fill="#D1D9EC"/>
<path opacity="0.1" d="M65.8517 166.885L83.7979 168.408L109.388 166.65L108.943 166.606L83.0779 167.588L65.7409 165.595C60.8223 164.226 63.6383 155.19 65.413 150.633L63.9684 150.71C57.5432 166.65 65.8517 166.885 65.8517 166.885Z" fill="black"/>
<path d="M36.0792 56.1242L41.5468 135.78V145.393C41.7135 147.809 42.857 152.016 45.2686 152L49.7481 148.14H130.394C131.783 148.131 127.115 146.095 126.977 144.706L132.632 141.74L126.714 83.3318C126.62 82.4092 126.267 81.5327 125.694 80.8054C125.121 80.0781 124.354 79.5302 123.482 79.2263L43.3619 51.3505C40.6348 50.4017 37.8603 50.7391 36.1249 52.1883C34.9349 53.1825 35.9418 54.1405 36.0792 56.1242Z" fill="#4C4C56"/>
<path d="M39.6528 136.959L40.3926 147.671C40.4735 148.851 40.9975 149.956 41.8577 150.761C42.7179 151.565 43.8497 152.008 45.0226 152L46.7343 151.989L131.634 151.469C131.966 151.467 132.293 151.395 132.595 151.258C132.897 151.121 133.168 150.922 133.389 150.673C133.611 150.425 133.778 150.132 133.882 149.815C133.985 149.497 134.021 149.161 133.988 148.828L133.257 141.594L39.6528 136.959Z" fill="#DFE6F5"/>
<path d="M96.398 147.898C96.7756 147.898 97.0817 146.98 97.0817 145.847C97.0817 144.714 96.7756 143.796 96.398 143.796C96.0204 143.796 95.7144 144.714 95.7144 145.847C95.7144 146.98 96.0204 147.898 96.398 147.898Z" fill="white"/>
<path d="M54.6938 168.472C54.6938 168.472 32.161 160.726 26.086 166.359C26.086 166.359 25.0919 168.069 29.1787 168.472L45.6924 169.679C45.6924 169.679 52.4847 170.283 54.6938 168.472Z" fill="#D1D9EC"/>
<path d="M53.7977 166.167C49.3418 164.578 35.9286 160.466 27.3472 165.016C27.3472 165.016 36.8431 164.097 42.0612 166.73C47.2792 169.363 54.403 168.111 54.403 168.111L54.5096 167.945C54.6096 167.79 54.6706 167.618 54.6886 167.44C54.7065 167.263 54.6809 167.084 54.6136 166.916C54.5462 166.747 54.4387 166.594 54.298 166.464C54.1573 166.335 53.9868 166.234 53.7977 166.167Z" fill="#DFE6F5"/>
<path d="M34.2174 56.679L40.37 147.731C40.4481 148.895 40.9537 149.985 41.7838 150.778C42.6139 151.571 43.7061 152.008 44.8379 152L46.4897 151.989C45.357 150.872 44.3917 149.587 43.6254 148.177C43.6254 148.177 37.5847 56.688 37.1454 54.4235C36.953 53.5729 36.5302 52.7963 35.9263 52.1838C35.3054 52.7308 34.8247 53.4271 34.5266 54.2111C34.2286 54.9951 34.1224 55.8426 34.2174 56.679Z" fill="#DFE6F5"/>
<path opacity="0.1" d="M34.2174 56.679L40.37 147.731C40.4481 148.895 40.9537 149.985 41.7838 150.778C42.6139 151.571 43.7061 152.008 44.8379 152L46.4897 151.989C45.357 150.872 44.3917 149.587 43.6254 148.177C43.6254 148.177 37.5847 56.688 37.1454 54.4235C36.953 53.5729 36.5302 52.7963 35.9263 52.1838C35.3054 52.7308 34.8247 53.4271 34.5266 54.2111C34.2286 54.9951 34.1224 55.8426 34.2174 56.679Z" fill="black"/>
</svg>
