<svg width="96" height="87" viewBox="0 0 96 87" fill="none" xmlns="http://www.w3.org/2000/svg">
<path fill-rule="evenodd" clip-rule="evenodd" d="M51.588 61.5121C51.588 60.8221 52.4809 59.9088 53.1709 59.9088C54.3277 59.9088 55.2409 61.5324 54.2262 62.5674C53.2115 63.5821 51.588 62.6486 51.588 61.5121ZM11.1211 9.53833C12.1764 9.23392 11.2428 9.09186 13.1099 7.93508C13.7593 7.54949 14.9161 7.22478 15.87 7.1436V4.76917H90.4719V56.337H44.4444V66.6669H93.0493C94.206 66.6669 95.2208 65.6318 95.2208 64.4751V2.19179C95.2208 1.03501 94.206 0 93.0493 0H13.2926C11.1008 0 11.1008 2.19179 11.1211 3.5718C11.1211 5.56064 11.1211 7.54949 11.1211 9.53833Z" fill="white"/>
<path fill-rule="evenodd" clip-rule="evenodd" d="M44.4448 41.2784H80.9543V22.222H44.4448V41.2784Z" fill="white"/>
<path fill-rule="evenodd" clip-rule="evenodd" d="M3.18621 15.8702H38.0924V66.6669H3.18621V15.8702ZM13.4957 12.7043H1.19737C0.710301 12.7043 0 13.4146 0 13.9016V68.6557C0 69.2849 0.872656 69.8328 1.58296 69.8328H39.6754C40.6495 69.8328 41.2584 69.2037 41.2584 68.2498V14.2872C41.2584 13.5566 40.7307 12.7043 40.0813 12.7043H27.7829C27.7423 11.3648 26.89 10.3298 25.5911 10.3298H15.6672C14.3887 10.3298 13.516 11.3648 13.4957 12.7043Z" fill="white"/>
<path fill-rule="evenodd" clip-rule="evenodd" d="M46.8189 81.7457H33.1405C30.2181 81.7457 30.2181 86.4945 33.1405 86.4945H73.2015C76.1239 86.4945 76.1239 81.7457 73.2015 81.7457H59.5231V69.8329H46.8189V81.7457Z" fill="white"/>
<path fill-rule="evenodd" clip-rule="evenodd" d="M44.4449 14.693V19.0562H80.9543V9.53821L40.5483 9.65997C42.5169 10.4109 44.4449 11.2835 44.4449 14.693Z" fill="white"/>
<path fill-rule="evenodd" clip-rule="evenodd" d="M15.8701 36.895C15.8701 37.93 16.1136 38.8838 17.4531 38.8838H33.7291C35.2106 38.8838 35.5759 35.7179 33.3232 35.7179H17.0675C16.5804 35.7179 15.8701 36.4282 15.8701 36.895Z" fill="white"/>
<path fill-rule="evenodd" clip-rule="evenodd" d="M15.8703 27.3771C15.8703 28.0469 15.7891 29.366 17.4532 29.366H33.3234C35.6369 29.366 35.089 26.2001 33.7293 26.2001H17.0676C16.5806 26.2001 15.8703 26.9104 15.8703 27.3771Z" fill="white"/>
<path fill-rule="evenodd" clip-rule="evenodd" d="M15.8701 46.4334C15.8701 47.367 16.2151 48.402 17.0675 48.402H33.3232C35.4136 48.402 35.5556 45.2361 33.3232 45.2361H17.0675C16.5804 45.2361 15.8701 45.9464 15.8701 46.4334Z" fill="white"/>
<path fill-rule="evenodd" clip-rule="evenodd" d="M9.51845 37.8896C9.15316 37.6257 8.66609 37.0169 8.54433 36.5095C7.44843 36.5907 7.32667 37.0169 6.35254 37.0981C6.53519 37.7881 6.63666 37.7272 7.14402 38.0925L9.05168 39.7769C9.59963 40.2234 9.45757 40.3046 10.1273 40.4669C10.2896 39.8175 12.9482 35.7587 13.4961 34.9266C13.902 34.2975 14.3282 33.6075 14.6935 32.9377H11.7102L9.51845 37.8896Z" fill="white"/>
<path fill-rule="evenodd" clip-rule="evenodd" d="M9.3358 28.3716C9.07198 27.3772 8.80815 27.986 8.54433 26.9916C7.44843 27.0728 7.32667 27.499 6.35254 27.5801C6.53519 28.2701 9.41698 30.7663 10.1273 30.949C10.2896 30.3402 10.8376 29.6096 11.2029 29.0413L14.6935 23.4198H11.7102C11.6697 23.988 9.88375 27.9657 9.3358 28.3716Z" fill="white"/>
<path fill-rule="evenodd" clip-rule="evenodd" d="M9.3358 47.428C9.07198 46.4133 8.80815 47.0222 8.54433 46.0277C7.44843 46.1292 7.32667 46.5351 6.35254 46.6163C6.53519 47.3266 6.98166 47.4077 8.07756 48.4631C8.54433 48.9095 9.59963 49.8634 10.1273 50.0054C10.3505 49.1531 13.9426 43.8765 14.6935 42.4559H11.7102C11.6697 43.0242 9.92434 46.9816 9.3358 47.428Z" fill="white"/>
<path fill-rule="evenodd" clip-rule="evenodd" d="M50.7969 46.6159C50.7969 50.1065 55.5457 50.1065 55.5457 46.6159C55.5457 43.7138 50.7969 43.7138 50.7969 46.6159Z" fill="white"/>
<path fill-rule="evenodd" clip-rule="evenodd" d="M58.731 46.6159C58.731 50.1065 63.4798 50.1065 63.4798 46.6159C63.4798 43.7138 58.731 43.7138 58.731 46.6159Z" fill="white"/>
<path fill-rule="evenodd" clip-rule="evenodd" d="M44.4448 49.2137C46.0684 49.2137 47.6107 49.0717 47.6107 46.6161C47.6107 44.5461 45.6828 44.4446 44.4448 44.4446V49.2137Z" fill="white"/>
</svg>
