<svg width="410" height="346" viewBox="0 0 410 346" fill="none" xmlns="http://www.w3.org/2000/svg">
<path d="M158.088 96.4235L157.536 97.5636L153.96 104.921L116.449 182.047L52.7974 338.218L43.6992 338.288L107.386 182.047L150.785 92.8025L153.96 94.3744L157.536 96.1473L158.088 96.4235Z" fill="#535461"/>
<path d="M268.621 338.288L261.197 338.218L198.085 182.047L161.875 106.945L157.355 97.5636L156.803 96.4235L157.355 96.1473L161.875 93.8873L164.048 92.8025L206.429 182.047L268.621 338.288Z" fill="#535461"/>
<path d="M161.944 72.2383H152.947V338.288H161.944V72.2383Z" fill="#535461"/>
<path d="M156.8 28.5392C154.075 28.5418 151.463 29.6237 149.536 31.5475C147.609 33.4712 146.526 36.0796 146.523 38.8002V42.4674C146.493 43.8342 146.736 45.1933 147.24 46.4648C147.743 47.7364 148.495 48.8948 149.453 49.8721C150.41 50.8494 151.553 51.6259 152.816 52.156C154.078 52.6862 155.433 52.9592 156.803 52.9592C158.172 52.9592 159.527 52.6862 160.79 52.156C162.052 51.6259 163.195 50.8494 164.153 49.8721C165.11 48.8948 165.863 47.7364 166.366 46.4648C166.869 45.1933 167.112 43.8342 167.082 42.4674V38.8002C167.078 36.0792 165.994 33.4708 164.066 31.5472C162.138 29.6236 159.525 28.5418 156.8 28.5392ZM164.509 42.4525C164.509 44.4952 163.697 46.4542 162.25 47.8986C160.803 49.343 158.841 50.1545 156.795 50.1545C154.749 50.1545 152.787 49.343 151.34 47.8986C149.894 46.4542 149.081 44.4952 149.081 42.4525V38.7853C149.081 36.7426 149.894 34.7836 151.34 33.3392C152.787 31.8948 154.749 31.0833 156.795 31.0833C158.841 31.0833 160.803 31.8948 162.25 33.3392C163.697 34.7836 164.509 36.7426 164.509 38.7853V42.4525Z" fill="#535461"/>
<path opacity="0.1" d="M206.928 182.771H198.461L161.717 107.458V182.771H153.533V105.428L115.795 182.771H106.677L150.339 93.2751L153.533 94.8515V72.2383H161.717V94.363L163.922 93.2751L206.928 182.771Z" fill="black"/>
<path opacity="0.1" d="M167.082 38.8213V42.2037C167.112 43.6048 166.869 44.9981 166.366 46.3016C165.863 47.6051 165.11 48.7926 164.153 49.7945C163.195 50.7964 162.052 51.5924 160.79 52.1358C159.527 52.6793 158.172 52.9592 156.803 52.9592C155.433 52.9592 154.078 52.6793 152.816 52.1358C151.553 51.5924 150.41 50.7964 149.453 49.7945C148.495 48.7926 147.743 47.6051 147.24 46.3016C146.736 44.9981 146.493 43.6048 146.523 42.2037V38.8213H149.091V42.2037C149.091 44.2977 149.904 46.306 151.35 47.7867C152.797 49.2674 154.759 50.0992 156.805 50.0992C158.851 50.0992 160.813 49.2674 162.26 47.7867C163.706 46.306 164.519 44.2977 164.519 42.2037V38.8213H167.082Z" fill="black"/>
<path d="M313.605 40.1066H0V181.486H313.605V40.1066Z" fill="#535461"/>
<path d="M307.179 43.9624H5.14111V173.774H307.179V43.9624Z" fill="white"/>
<g opacity="0.2">
<path opacity="0.2" d="M49.7398 58.3403H35.5088V64.8276H49.7398V58.3403Z" fill="#6C63FF"/>
</g>
<g opacity="0.2">
<path opacity="0.2" d="M49.7398 70.8884H35.5088V77.3757H49.7398V70.8884Z" fill="#6C63FF"/>
</g>
<g opacity="0.2">
<path opacity="0.2" d="M49.7398 83.4316H35.5088V89.9189H49.7398V83.4316Z" fill="#6C63FF"/>
</g>
<g opacity="0.2">
<path opacity="0.2" d="M49.7398 95.9746H35.5088V102.462H49.7398V95.9746Z" fill="#6C63FF"/>
</g>
<g opacity="0.2">
<path opacity="0.2" d="M49.7398 108.523H35.5088V115.01H49.7398V108.523Z" fill="#6C63FF"/>
</g>
<g opacity="0.2">
<path opacity="0.2" d="M49.7398 121.066H35.5088V127.553H49.7398V121.066Z" fill="#6C63FF"/>
</g>
<g opacity="0.2">
<path opacity="0.2" d="M49.7398 133.609H35.5088V140.096H49.7398V133.609Z" fill="#6C63FF"/>
</g>
<g opacity="0.2">
<path opacity="0.2" d="M49.7398 146.152H35.5088V152.639H49.7398V146.152Z" fill="#6C63FF"/>
</g>
<g opacity="0.2">
<path opacity="0.2" d="M76.5328 152.644H62.3018V159.132H76.5328V152.644Z" fill="#6C63FF"/>
</g>
<g opacity="0.2">
<path opacity="0.2" d="M101.601 152.644H87.3701V159.132H101.601V152.644Z" fill="#6C63FF"/>
</g>
<g opacity="0.2">
<path opacity="0.2" d="M126.664 152.644H112.433V159.132H126.664V152.644Z" fill="#6C63FF"/>
</g>
<g opacity="0.2">
<path opacity="0.2" d="M151.732 152.644H137.501V159.132H151.732V152.644Z" fill="#6C63FF"/>
</g>
<g opacity="0.2">
<path opacity="0.2" d="M176.796 152.644H162.565V159.132H176.796V152.644Z" fill="#6C63FF"/>
</g>
<g opacity="0.2">
<path opacity="0.2" d="M201.865 152.644H187.634V159.132H201.865V152.644Z" fill="#6C63FF"/>
</g>
<g opacity="0.2">
<path opacity="0.2" d="M226.928 152.644H212.697V159.132H226.928V152.644Z" fill="#6C63FF"/>
</g>
<g opacity="0.2">
<path opacity="0.2" d="M251.997 152.644H237.766V159.132H251.997V152.644Z" fill="#6C63FF"/>
</g>
<g opacity="0.2">
<path opacity="0.2" d="M277.06 152.644H262.829V159.132H277.06V152.644Z" fill="#6C63FF"/>
</g>
<path d="M77.1161 105.655H61.6929V146.784H77.1161V105.655Z" fill="#F47920"/>
<path d="M101.536 86.3762H87.3979V146.784H101.536V86.3762Z" fill="#F47920"/>
<path d="M127.242 70.953H111.818V146.784H127.242V70.953Z" fill="#F47920"/>
<path d="M151.661 78.6646H137.523V146.784H151.661V78.6646Z" fill="#F47920"/>
<path d="M177.367 64.5266H161.943V146.784H177.367V64.5266Z" fill="#F47920"/>
<g opacity="0.2">
<path opacity="0.2" d="M201.865 95.9746H187.634V146.152H201.865V95.9746Z" fill="#6C63FF"/>
</g>
<g opacity="0.2">
<path opacity="0.2" d="M226.928 95.9746H212.697V146.152H226.928V95.9746Z" fill="#6C63FF"/>
</g>
<g opacity="0.2">
<path opacity="0.2" d="M251.997 95.9746H237.766V146.152H251.997V95.9746Z" fill="#6C63FF"/>
</g>
<g opacity="0.2">
<path opacity="0.2" d="M277.06 95.9746H262.829V146.152H277.06V95.9746Z" fill="#6C63FF"/>
</g>
<path d="M260.878 95.373L138.809 103.181V105.655L263.479 100.514L260.878 95.373Z" fill="#535461"/>
<path d="M405.026 145.673C405.026 145.673 411.41 135.157 409.713 118.66C408.017 102.162 401.88 75.4604 401.88 75.4604C401.88 75.4604 404.544 60.5011 390.091 58.4C390.091 58.4 381.108 56.7261 374.684 52.6796C372.295 51.1716 370.263 49.347 369.164 47.1503C369.164 47.1503 369.078 47.3966 368.913 47.849C368.771 47.6228 368.64 47.3896 368.521 47.1503C368.521 47.1503 368.486 47.2408 368.431 47.4016L365.977 43.5713C365.977 43.5713 365.641 43.9282 365.074 44.5163C364.087 43.0972 363.246 41.5814 362.564 39.9923C363.175 39.8447 363.773 39.6532 364.356 39.4193C364.913 39.2347 365.415 38.9133 365.816 38.4843C366.168 37.9952 366.396 37.4276 366.479 36.8306C366.87 34.92 366.982 32.9625 366.81 31.0198C366.675 29.5118 366.369 28.0038 366.474 26.4706C366.584 24.837 367.161 23.2586 367.242 21.6199C367.382 18.7346 365.952 15.99 364.185 13.7029C363.132 12.3407 361.947 11.074 361.034 9.61624C360.241 8.34952 359.664 6.95211 358.811 5.72058C356.803 2.85538 353.456 1.16643 350.023 0.568255C346.591 -0.0299175 343.057 0.342059 339.62 0.910072C336.609 1.41274 333.598 2.1416 330.586 2.31753C327.957 2.46833 325.814 1.57861 323.405 3.32286C322.607 3.91205 321.944 4.66547 321.461 5.53249C320.978 6.3995 320.686 7.36003 320.605 8.34952C320.566 8.68637 320.591 9.02762 320.68 9.35485C320.822 9.6939 320.99 10.0216 321.182 10.3351C322.251 12.4463 320.625 14.9546 320.835 17.3121C320.964 18.3545 321.44 19.3229 322.187 20.0602C322.934 20.7974 323.908 21.2603 324.951 21.3736C324.855 21.5747 324.75 21.7707 324.66 21.9768C323.327 24.9929 322.727 28.2827 322.91 31.576C323.094 34.8693 324.054 38.072 325.713 40.9212C327.372 43.7704 329.683 46.1846 332.454 47.9657C335.226 49.7467 338.38 50.8437 341.657 51.1666L342.591 51.8854C344.699 53.5191 347.067 55.4745 349.351 57.6007L349.306 57.6359L348.934 57.4248C348.239 57.9755 347.508 58.4793 346.746 58.9328C344.633 60.2297 341.226 61.9136 337.392 62.1046C337.392 62.1046 330.526 65.7489 328.163 77.7677C324.77 80.8138 317.508 86.313 307.913 87.7456C294.428 89.7563 277.802 90.4148 277.802 90.4148C277.802 90.4148 277.666 90.656 277.476 91.0984L275.94 90.8169C275.94 90.8169 275.94 91.0029 275.875 91.3195L275.272 91.0481C270.51 88.9621 260.995 85.9209 259.79 94.3004C258.174 105.54 268.874 104.248 268.874 104.248C270.99 103.443 273.157 102.783 275.363 102.273L275.96 102.157C276.061 102.45 276.203 102.728 276.381 102.981H277.837C278.342 104.029 278.953 105.023 279.659 105.947L313.574 105.203C313.574 105.203 319.37 103.936 324.72 104.741C322.386 122.213 319.631 141.375 319.631 141.375C319.631 141.375 313.86 171.721 317.9 174.893C320.244 174.109 322.634 173.468 325.056 172.973C325.093 174.848 325.291 176.716 325.648 178.557L328.233 195.502C328.233 195.502 329.236 212.814 332.594 223.149L335.555 237.274L338.034 247.95L339.429 266.071C341.345 273.748 342.73 281.548 343.574 289.415C344.884 301.59 351.995 321.264 352.944 323.853C350.515 327.296 345.527 333.137 339.269 333.74C330.336 334.605 330.12 339.998 336.363 341.939C342.606 343.879 355.744 341.939 355.744 341.939L374.273 337.349C373.716 340.773 373.425 343.477 373.831 343.768C375.015 344.633 392.997 349.298 393.644 341.828C393.694 341.212 393.74 340.613 393.78 340.034C394.047 335.249 393.409 330.456 391.898 325.909C391.752 325.461 391.622 325.009 391.506 324.557C391.773 324.258 392.018 323.94 392.239 323.606C392.239 323.606 393.534 303.44 394.502 296.211C394.578 295.633 394.628 294.929 394.653 294.135C395.1 285.469 391.943 262.673 391.943 262.673C391.943 262.673 388.044 247.845 388.189 241.029C388.211 240.462 388.308 239.901 388.475 239.36C388.475 239.36 388.475 239.224 388.425 238.998C388.425 238.902 388.47 238.802 388.5 238.711C388.5 238.711 386.523 225.139 386.799 217.066C386.837 215.862 387.006 214.666 387.301 213.498C387.615 211.964 387.774 210.403 387.778 208.838C388.028 203.309 387.737 193.758 387.336 184.8C387.381 184.65 387.426 184.499 387.461 184.323C387.542 183.609 387.458 182.887 387.215 182.212C387.185 181.634 387.16 181.061 387.13 180.492C387.296 179.924 387.431 179.321 387.552 178.698H387.813V178.733C387.813 178.733 404.685 177.924 408.564 173.395C408.564 173.395 404.645 161.195 402.472 151.278L405.026 145.673ZM332.318 107.727L332.052 107.631C332.478 106.123 332.985 104.369 333.557 102.529C333.071 104.52 332.649 106.329 332.318 107.727ZM349.441 57.7164L349.516 57.7867L349.436 57.7415L349.441 57.7164ZM370.519 319.364C369.61 316.232 366.002 303.465 366.118 297.377C366.143 296.848 366.236 296.325 366.394 295.819C366.728 294.716 366.897 293.569 366.895 292.416C367.257 286.062 364.828 274.677 364.828 274.677C364.828 274.677 359.393 259.321 359.809 247.126C359.809 246.819 359.844 246.513 359.865 246.206C359.955 245.05 360.025 243.798 360.075 242.476V242.451C360.281 237.741 360.236 232.071 360.1 226.783L360.07 226.587C359.885 219.585 359.538 213.281 359.393 210.788C359.895 214.392 363.106 236.826 364.492 240.496C364.492 240.496 365.249 250.846 368.692 259.597L372.466 282.348C372.466 282.348 373.435 309.421 375.046 317.077C375.768 320.485 376.38 322.782 376.837 324.28C376.185 327.331 375.131 332.443 374.423 336.676C374.007 333.916 372.541 323.4 370.524 319.364H370.519Z" fill="url(#paint0_linear)"/>
<path d="M354.698 320.027C354.698 320.027 348.536 331.228 339.871 332.065C331.206 332.902 330.999 338.135 337.053 340.021C343.106 341.906 355.847 340.021 355.847 340.021L374.012 335.521C374.012 335.521 371.818 317.511 368.897 316.571C365.975 315.63 354.698 320.027 354.698 320.027Z" fill="#13263D"/>
<path d="M377.58 319.061C377.58 319.061 373.057 340.352 374.197 341.217C375.337 342.082 392.487 346.699 393.105 339.28C393.154 338.656 393.197 338.06 393.236 337.49C393.489 332.719 392.879 327.94 391.438 323.406C390.955 321.888 390.617 320.265 390.742 319.061C391.028 316.052 377.58 319.061 377.58 319.061Z" fill="#13263D"/>
<path d="M371.442 52.6472C371.442 52.6472 357.372 87.6919 359.876 76.4361C361.533 68.9819 350.824 59.0777 343.419 53.2585C339.651 50.2768 336.74 48.3834 336.74 48.3834C336.74 48.3834 363.155 17.1552 361.283 30.6275C360.769 34.3173 361.268 38.0792 362.723 41.5007C365.639 48.5275 371.442 52.6472 371.442 52.6472Z" fill="#FFA667"/>
<path d="M280.188 102.161C279.41 101.964 278.14 102.09 276.824 102.367C274.595 102.873 272.403 103.527 270.264 104.325C270.264 104.325 259.444 105.608 261.077 94.4547C262.291 86.1398 271.913 89.1597 276.732 91.2234C278.37 91.933 279.456 92.527 279.456 92.527L280.188 102.161Z" fill="#FFA667"/>
<path opacity="0.1" d="M280.188 102.87C279.43 102.667 278.194 102.797 276.913 103.085C275.767 100.054 276.639 92.8704 276.823 91.5172C278.418 92.2539 279.475 92.8704 279.475 92.8704L280.188 102.87Z" fill="black"/>
<path d="M279.395 91.9992L276.815 91.5172C276.815 91.5172 275.495 100.675 277.221 103.085H280.188L279.395 91.9992Z" fill="#CBCDDA"/>
<path d="M335.813 108.875C335.813 108.875 327.414 103.729 326.41 110.224C325.406 116.719 324.084 127.816 324.084 127.816L321.758 141.942L318.746 170.244L319.169 175.06C319.169 175.06 328.115 171.975 330.212 173.059C332.309 174.143 334.019 161.153 334.019 161.153L337.498 147.729L338.025 119.264L335.813 108.875Z" fill="#13263D"/>
<path opacity="0.1" d="M335.813 108.875C335.813 108.875 327.414 103.729 326.41 110.224C325.406 116.719 324.084 127.816 324.084 127.816L321.758 141.942L318.746 170.244L319.169 175.06C319.169 175.06 328.115 171.975 330.212 173.059C332.309 174.143 334.019 161.153 334.019 161.153L337.498 147.729L338.025 119.264L335.813 108.875Z" fill="#13263D"/>
<path d="M330.314 76.094C330.314 76.094 321.631 86.3227 308.45 88.3808C295.268 90.439 279.003 91.1061 279.003 91.1061C279.003 91.1061 274.899 98.775 280.819 106.94L313.984 106.175C313.984 106.175 321.324 104.51 327.012 106.175L330.314 76.094Z" fill="#13263D"/>
<path opacity="0.05" d="M330.314 76.094C330.314 76.094 321.631 86.3227 308.45 88.3808C295.268 90.439 279.003 91.1061 279.003 91.1061C279.003 91.1061 274.899 98.775 280.819 106.94L313.984 106.175C313.984 106.175 321.324 104.51 327.012 106.175L330.314 76.094Z" fill="#13263D"/>
<path opacity="0.1" d="M361.114 41.0239C357.937 47.8946 352.415 52.9592 344.405 52.9592C344.05 52.9592 343.705 52.9592 343.36 52.9347C339.625 49.9901 336.74 48.1203 336.74 48.1203C336.74 48.1203 362.921 17.281 361.066 30.5855C360.492 34.6588 359.837 37.9665 361.114 41.0239Z" fill="black"/>
<path d="M365.016 31.1247C365.013 35.1915 363.804 39.1661 361.542 42.546C359.281 45.9259 356.068 48.5593 352.309 50.1133C348.551 51.6674 344.417 52.0722 340.429 51.2766C336.44 50.481 332.778 48.5208 329.903 45.6437C327.029 42.7667 325.072 39.102 324.281 35.113C323.489 31.124 323.898 26.9898 325.455 23.2332C327.013 19.4765 329.65 16.266 333.032 14.0077C336.414 11.7493 340.39 10.5445 344.456 10.5454C347.159 10.5402 349.837 11.069 352.335 12.1016C354.833 13.1342 357.102 14.6501 359.013 16.5624C360.923 18.4747 362.437 20.7456 363.467 23.2446C364.497 25.7437 365.024 28.4217 365.016 31.1247Z" fill="#FFA667"/>
<path d="M377.868 158.254C377.868 158.254 331.035 162.359 329.317 156.421C327.6 150.484 334.096 134.406 334.096 134.406L331.98 111.96L331.903 111.102C331.903 111.102 337.77 86.8182 337.556 84.8795C337.351 83.1337 347 62.7577 348.983 58.5911C349.218 58.109 349.341 57.8451 349.341 57.8451L349.714 58.0583L349.877 58.1547L352.172 59.4843L361.233 57.3528L372.155 51.674L373.177 113.797L377.868 158.254Z" fill="#CBCDDA"/>
<path opacity="0.1" d="M352.814 59.4905C352.814 59.4905 349.744 58.6423 348.545 61.7704C348.075 63.1151 347.519 64.4267 346.88 65.6968L345.685 72.9607L343.497 84.4353L341.881 135.198L342.61 144.213L346.62 136.949L347.35 89.4991V83.5972C347.585 78.4944 348.716 73.4759 350.689 68.7799L351.247 67.4479L354.734 62.883L352.814 59.4905Z" fill="black"/>
<path d="M352.81 58.2068C352.81 58.2068 349.736 57.3459 348.542 60.521C348.072 61.8863 347.514 63.2177 346.873 64.5063L345.679 71.8845L343.491 83.5317L341.881 135.058L342.61 144.213L346.619 136.815L347.348 88.6817V82.6759C347.587 77.4971 348.718 72.4039 350.686 67.6359L351.249 66.2838L354.734 61.6553L352.81 58.2068Z" fill="#13263D"/>
<path opacity="0.1" d="M365.835 45.2477C365.835 45.2477 354.782 56.6735 350.878 58.0297C350.878 58.0297 352.83 66.6934 354.782 68.3825C354.782 68.3825 366.381 56.8523 368.434 55.9184L370.157 51.8101L365.835 45.2477Z" fill="black"/>
<path d="M365.835 45.2477C365.835 45.2477 354.782 56.6735 350.878 58.0297C350.878 58.0297 352.83 66.6934 354.782 68.3825C354.782 68.3825 366.381 56.8523 368.434 55.9184L370.157 51.815L365.835 45.2477Z" fill="#CBCDDA"/>
<path opacity="0.1" d="M349.592 58.1003L349.481 58.4042L345.947 67.8382L339.627 85.6378C339.627 85.6378 339.571 85.8201 339.459 86.1442C338.412 89.3851 332.783 106.972 331.675 112.082L331.599 111.226C331.599 111.226 337.436 86.995 337.222 85.0605C337.019 83.3186 346.618 62.987 348.591 58.8295C348.906 58.6169 349.15 58.4346 349.318 58.2978L349.592 58.1003Z" fill="black"/>
<path d="M349.593 58.1003L345.993 67.8192L339.762 85.5747C339.762 85.5747 339.707 85.7566 339.596 86.0798C338.503 89.5249 332.272 109.19 331.771 112.786C331.204 116.737 323.368 138.089 323.368 138.089L318.892 175.06C314.881 171.923 320.576 141.721 320.576 141.721C320.576 141.721 326.973 96.9302 328.487 82.0287C330.001 67.1271 338.167 62.7729 338.167 62.7729C341.937 62.5809 345.336 60.9038 347.427 59.6158C348.182 59.1603 348.905 58.654 349.593 58.1003Z" fill="#13263D"/>
<path opacity="0.1" d="M394.409 294.403C393.445 301.523 392.158 321.384 392.158 321.384C387.651 328.074 377.669 324.462 377.669 324.462C377.669 324.462 376.599 322.463 374.989 314.899C373.379 307.334 372.415 280.687 372.415 280.687L368.655 258.303C365.223 249.694 364.471 239.496 364.471 239.496C362.957 235.564 359.318 209.747 359.318 209.747C359.318 209.747 360.832 232.906 359.858 245.127C358.884 257.349 364.789 273.792 364.789 273.792C364.789 273.792 368.12 289.202 366.399 293.983C364.678 298.765 370.694 318.521 370.694 318.521C370.189 324.262 353.101 321.924 353.101 321.924C353.101 321.924 345.061 300.564 343.653 287.708C342.809 279.961 341.428 272.282 339.52 264.724L338.127 246.871L335.654 236.318L332.707 222.403C329.376 212.205 328.361 195.152 328.361 195.152L325.782 178.419C324.097 170.145 326.287 160.432 327.74 155.35C328.371 153.147 328.876 151.803 328.876 151.803C330.355 152.842 338.823 154.061 343.204 155.05C345.601 155.597 348.067 155.793 350.522 155.63C361.597 154.759 372.553 152.77 383.22 149.694C383.942 149.479 384.325 149.354 384.325 149.354L384.552 151.268L385.087 155.825L386.041 163.914C386.041 163.914 388.938 207.049 387.222 212.88C385.506 218.711 388.403 238.362 388.403 238.362C386.793 243.024 391.835 261.971 391.835 261.971C391.835 261.971 395.378 287.283 394.409 294.403Z" fill="black"/>
<path d="M394.409 294.17C393.445 301.343 392.158 321.352 392.158 321.352C387.651 328.097 377.669 324.453 377.669 324.453C377.669 324.453 376.599 322.439 374.989 314.823C373.379 307.207 372.415 280.353 372.415 280.353L368.655 257.772C365.248 249.099 364.471 238.8 364.471 238.8C362.957 234.839 359.318 208.83 359.318 208.83C359.318 208.83 360.832 232.161 359.858 244.473C358.884 256.785 364.789 273.371 364.789 273.371C364.789 273.371 368.12 288.895 366.399 293.712C364.678 298.529 370.694 318.438 370.694 318.438C370.189 324.216 353.101 321.86 353.101 321.86C353.101 321.86 345.061 300.367 343.653 287.41C342.809 279.607 341.428 271.87 339.52 264.255L338.127 246.275L335.654 235.679L332.707 221.661C329.376 211.382 328.361 194.202 328.361 194.202L325.782 177.345C324.097 169.009 326.287 159.224 327.74 154.104C328.371 151.889 328.876 150.535 328.876 150.535C330.355 151.582 338.823 152.806 343.204 153.802C345.601 154.356 348.067 154.553 350.522 154.386C361.597 153.509 372.553 151.505 383.22 148.406L384.325 148.069L384.552 149.992L385.087 154.588L386.041 162.737C386.041 162.737 388.938 206.187 387.222 212.067C385.506 217.946 388.403 237.738 388.403 237.738C386.793 242.43 391.835 261.517 391.835 261.517C391.835 261.517 395.378 286.987 394.409 294.17Z" fill="#023E88"/>
<path opacity="0.1" d="M364.995 31.8504C365.002 35.5771 364.051 39.2401 362.24 42.4724C358.997 43.0584 355.547 42.4101 353.121 40.2162C351.459 38.7173 350.385 36.6687 348.957 34.9312C348.032 33.8634 347.039 32.8602 345.983 31.9282C345.294 31.2253 344.503 30.6357 343.638 30.1803C343.202 29.9553 342.723 29.8355 342.235 29.8301C341.748 29.8247 341.266 29.9339 340.826 30.1492C339.681 30.8027 339.306 32.2601 338.643 33.4219C338.143 34.4193 337.289 35.1823 336.257 35.5536C335.74 35.7227 335.184 35.7177 334.671 35.5394C334.158 35.3611 333.714 35.0188 333.404 34.5629C332.7 33.3234 333.217 31.3888 332.037 30.6316C331.725 30.4742 331.404 30.339 331.074 30.227C329.554 29.5217 329.377 27.4315 329.245 25.7199C329.179 24.8797 329.002 23.9306 328.313 23.4794C327.624 23.0281 326.717 23.2563 325.897 23.2719C325.654 23.2817 325.411 23.2625 325.172 23.2149C327.107 18.75 330.481 15.101 334.73 12.8787C338.978 10.6565 343.843 9.99589 348.511 11.0075C353.178 12.0191 357.365 14.6416 360.369 18.4358C363.374 22.2301 365.014 26.9659 365.016 31.8504H364.995Z" fill="black"/>
<path d="M324.108 4.61879C323.316 5.20537 322.658 5.95566 322.18 6.81902C321.701 7.68238 321.412 8.63873 321.333 9.62352C321.295 9.9526 321.321 10.286 321.409 10.6053C321.549 10.9443 321.717 11.271 321.911 11.5821C322.964 13.6817 321.354 16.1689 321.559 18.5102C321.699 19.6162 322.233 20.6339 323.064 21.3746C323.894 22.1153 324.964 22.5287 326.075 22.5381C326.888 22.5381 327.781 22.2965 328.469 22.7395C329.156 23.1826 329.327 24.099 329.392 24.9146C329.522 26.5761 329.688 28.6052 331.198 29.29C331.524 29.4013 331.842 29.5324 332.152 29.6827C333.326 30.4178 332.814 32.3009 333.511 33.4992C333.818 33.9417 334.257 34.274 334.766 34.4471C335.274 34.6202 335.825 34.625 336.336 34.4609C337.357 34.1019 338.202 33.3628 338.695 32.3965C339.342 31.2637 339.728 29.8791 340.862 29.2195C341.297 29.0085 341.775 28.9011 342.258 28.9055C342.741 28.9098 343.216 29.0259 343.647 29.2447C344.504 29.6885 345.288 30.2626 345.97 30.9465C347.017 31.8499 348.001 32.8239 348.916 33.8617C350.331 35.5434 351.394 37.5322 353.04 38.9873C356.141 41.7212 360.888 42.0082 364.711 40.4323C365.263 40.2476 365.761 39.9295 366.161 39.5059C366.51 39.0187 366.736 38.4536 366.819 37.8594C367.207 35.964 367.319 34.022 367.15 32.0944C367.014 30.584 366.708 29.0735 366.814 27.563C366.919 25.9417 367.496 24.3759 367.576 22.7546C367.717 19.8847 366.297 17.1608 364.566 14.8901C363.522 13.5357 362.348 12.282 361.445 10.8319C360.657 9.57318 360.085 8.18857 359.242 6.97012C357.265 4.12538 353.933 2.43867 350.531 1.84958C347.129 1.26049 343.632 1.62301 340.225 2.19196C337.255 2.69545 334.264 3.41042 331.253 3.58664C328.619 3.77293 326.497 2.88174 324.108 4.61879Z" fill="#472727"/>
<path opacity="0.1" d="M349.593 58.1003L345.89 67.9133L339.481 85.8407C339.481 85.8407 339.424 86.0243 339.311 86.3507V86.3762L347.375 59.6202C348.148 59.1633 348.889 58.6555 349.593 58.1003Z" fill="black"/>
<path d="M388.136 169.386C388.136 169.386 388.521 181.11 385.261 184.056L376.583 168.207L383.862 164.777L388.136 169.386Z" fill="#FFB9B9"/>
<path opacity="0.1" d="M407.43 173.595C403.587 178.107 386.865 178.915 386.865 178.915L370.313 152.642C370.313 152.642 366.395 149.904 359.037 137.571C351.679 125.238 351.92 115.739 352.331 108.645C352.742 101.552 357.347 81.1647 357.347 81.1647C358.064 76.5771 368.381 47.8182 368.381 47.8182C369.465 49.9959 371.481 51.8148 373.839 53.3154C380.209 57.3574 389.102 59.0146 389.102 59.0146C403.427 61.1114 400.784 76.0162 400.784 76.0162C400.784 76.0162 400.944 133.953 400.061 140.885C399.179 147.817 407.43 173.595 407.43 173.595Z" fill="black"/>
<path d="M388.15 171.104L387.681 175.06L382.02 173.084L377.868 167.102L380.985 164.777L388.15 171.104Z" fill="#CBCDDA"/>
<path opacity="0.1" d="M388.151 154.517L385.092 154.86L355.603 158.089C350.867 158.61 346.087 158.353 341.421 157.326L327.743 154.329C328.374 151.896 328.879 150.408 328.879 150.408C330.358 151.558 338.826 152.902 343.207 153.997C345.604 154.605 348.07 154.821 350.525 154.638C361.601 153.675 372.558 151.474 383.225 148.069L384.557 149.811L388.151 154.517Z" fill="black"/>
<g opacity="0.1">
<path opacity="0.1" d="M329.643 150.969C329.546 150.921 329.452 150.867 329.362 150.808C329.362 150.808 329.362 150.838 329.332 150.883L329.643 150.969Z" fill="black"/>
<path opacity="0.1" d="M391.895 261.438C391.895 261.438 386.883 242.413 388.487 237.737C388.487 237.737 385.609 218.019 387.319 212.149C389.028 206.279 386.141 162.98 386.141 162.98L385.193 154.857L384.662 150.276L384.442 148.36L383.339 148.696L382.657 148.896L382.742 149.639L383.274 154.215L384.221 162.338C384.221 162.338 387.098 205.651 385.399 211.507C383.7 217.362 386.567 237.094 386.567 237.094C384.968 241.776 389.976 260.796 389.976 260.796C389.976 260.796 393.484 286.193 392.537 293.338C391.59 300.482 390.296 320.431 390.296 320.431C387.028 325.343 380.857 324.73 377.765 324.043L377.82 324.164C377.82 324.164 387.735 327.796 392.211 321.073C392.211 321.073 393.489 301.119 394.452 293.98C395.414 286.84 391.895 261.438 391.895 261.438Z" fill="black"/>
<path opacity="0.1" d="M366.636 293.554C368.341 288.752 365.037 273.279 365.037 273.279C365.037 273.279 359.178 256.722 360.135 244.475C360.536 239.362 360.511 232.348 360.341 225.911C358.982 217.608 357.679 208.351 357.679 208.351C357.679 208.351 359.183 231.606 358.22 243.873C357.258 256.14 363.118 272.682 363.118 272.682C363.118 272.682 366.426 288.15 364.717 292.951C363.007 297.753 368.972 317.571 368.972 317.571C368.546 322.187 357.594 321.585 353.248 321.183L353.413 321.625C353.413 321.625 370.361 323.973 370.892 318.213C370.902 318.198 364.932 298.355 366.636 293.554Z" fill="black"/>
</g>
<path d="M408.715 173.595C404.878 178.107 388.151 178.915 388.151 178.915L371.6 152.642C371.6 152.642 367.683 149.904 360.32 137.571C352.958 125.238 353.208 115.739 353.615 108.645C354.021 101.552 358.63 81.1647 358.63 81.1647C359.347 76.5771 369.664 47.8182 369.664 47.8182C370.742 49.9959 372.759 51.8148 375.121 53.3154C381.491 57.3574 390.383 59.0146 390.383 59.0146C404.702 61.1114 402.059 76.0162 402.059 76.0162C402.059 76.0162 402.22 133.953 401.337 140.885C400.454 147.817 408.715 173.595 408.715 173.595Z" fill="#13263D"/>
<path opacity="0.1" d="M372.862 61.9931L369.204 63.3328L371.639 65.0137L353.448 108.226C353.871 101.201 358.544 80.9347 358.544 80.9347C359.272 76.3787 369.754 47.8182 369.754 47.8182C370.849 49.9808 372.898 51.7872 375.298 53.2774L372.862 61.9931Z" fill="black"/>
<path opacity="0.1" d="M376.583 139.765L394.763 135.216L397.147 142.385L378.569 146.784L376.583 139.765Z" fill="black"/>
<path opacity="0.1" d="M387.02 65.5831C387.02 65.5831 378.798 73.3594 381.901 90.6905C385.003 108.022 389.964 126.837 389.964 126.837L376.583 164.1C376.583 164.1 385.91 173.874 390.494 175.06L403.85 145.264C403.85 145.264 410.094 134.937 408.434 118.732C406.774 102.527 400.767 76.3035 400.767 76.3035C400.767 76.3035 400.772 60.3424 387.02 65.5831Z" fill="black"/>
<path d="M388.317 65.5831C388.317 65.5831 380.097 73.3594 383.187 90.6905C386.277 108.022 391.238 126.837 391.238 126.837L377.868 164.1C377.868 164.1 387.188 173.874 391.768 175.06L405.139 145.264C405.139 145.264 411.378 134.937 409.719 118.732C408.06 102.527 402.059 76.3035 402.059 76.3035C402.059 76.3035 402.059 60.3424 388.317 65.5831Z" fill="#13263D"/>
<path opacity="0.1" d="M377.279 164.844C377.279 164.844 387.603 180.096 386.823 184.157C386.043 188.219 383.017 186.047 383.017 186.047L378.952 180.096L375.298 168.963C375.298 168.963 375.656 164.159 377.279 164.844Z" fill="black"/>
<path opacity="0.1" d="M375.994 164.844C375.994 164.844 386.296 180.096 385.54 184.157C384.785 188.219 381.734 186.047 381.734 186.047L377.662 180.096L374.013 168.963C374.013 168.963 374.371 164.159 375.994 164.844Z" fill="black"/>
<path d="M377.28 164.844C377.28 164.844 387.586 180.096 386.825 184.157C386.064 188.219 383.017 186.047 383.017 186.047L378.949 180.096L375.298 168.963C375.298 168.963 375.651 164.159 377.28 164.844Z" fill="#023E88"/>
<defs>
<linearGradient id="paint0_linear" x1="334.797" y1="346.025" x2="334.797" y2="0.256608" gradientUnits="userSpaceOnUse">
<stop stop-color="#808080" stop-opacity="0.25"/>
<stop offset="0.54" stop-color="#808080" stop-opacity="0.12"/>
<stop offset="1" stop-color="#808080" stop-opacity="0.1"/>
</linearGradient>
</defs>
</svg>
