<svg width="82" height="88" viewBox="0 0 82 88" fill="none" xmlns="http://www.w3.org/2000/svg">
<path d="M81.995 26.7963C82.0229 26.2528 81.8317 25.7003 81.4168 25.2853C81.0018 24.8703 80.4492 24.679 79.9058 24.707C79.8738 24.7057 79.8421 24.7023 79.8094 24.7023H67.7624C66.6627 24.7023 65.7712 25.5937 65.7712 26.6935C65.7712 27.7933 66.6627 28.6847 67.7624 28.6847H75.2011L55.5163 48.3697L48.093 40.9464C47.7196 40.573 47.213 40.3632 46.685 40.3632C46.1569 40.3632 45.6503 40.573 45.277 40.9464L9.48065 76.7429C8.70307 77.5205 8.70307 78.7813 9.48065 79.5591C9.86953 79.9476 10.3791 80.142 10.8887 80.142C11.3982 80.142 11.908 79.9476 12.2967 79.5587L46.685 45.1702L54.1083 52.5936C54.8859 53.3711 56.1467 53.3711 56.9245 52.5936L78.0173 31.501V38.2333C78.0173 39.3331 78.9088 40.2246 80.0086 40.2246C81.1083 40.2246 81.9998 39.3331 81.9998 38.2333V26.8926C81.9998 26.8602 81.9964 26.8285 81.995 26.7963Z" fill="white"/>
<path d="M4.17679 87.0895C5.27652 87.0895 6.16803 86.198 6.16803 85.0983C6.16803 83.9986 5.27652 83.1071 4.17679 83.1071C3.07706 83.1071 2.18555 83.9986 2.18555 85.0983C2.18555 86.198 3.07706 87.0895 4.17679 87.0895Z" fill="white"/>
<path fill-rule="evenodd" clip-rule="evenodd" d="M3.48188 6.71513H41.6273V62.2256H3.48188V6.71513ZM14.7481 3.25542H1.30848C0.776215 3.25542 0 4.03164 0 4.5639V64.399C0 65.0865 0.953636 65.6853 1.72985 65.6853H43.3572C44.4217 65.6853 45.087 64.9978 45.087 63.9555V4.98527C45.087 4.18688 44.5104 3.25542 43.8007 3.25542H30.3611C30.3168 1.7917 29.3853 0.660645 27.9659 0.660645H17.1211C15.7239 0.660645 14.7703 1.7917 14.7481 3.25542Z" fill="white"/>
<path fill-rule="evenodd" clip-rule="evenodd" d="M17.3428 29.691C17.3428 30.822 17.6089 31.8644 19.0726 31.8644H36.859C38.478 31.8644 38.8772 28.4047 36.4155 28.4047H18.6513C18.119 28.4047 17.3428 29.1809 17.3428 29.691Z" fill="white"/>
<path fill-rule="evenodd" clip-rule="evenodd" d="M17.343 19.2899C17.343 20.0218 17.2543 21.4633 19.0728 21.4633H36.4157C38.944 21.4633 38.3452 18.0036 36.8593 18.0036H18.6515C18.1192 18.0036 17.343 18.7798 17.343 19.2899Z" fill="white"/>
<path fill-rule="evenodd" clip-rule="evenodd" d="M17.3428 40.1146C17.3428 41.1347 17.7198 42.2658 18.6513 42.2658H36.4155C38.6998 42.2658 38.855 38.8061 36.4155 38.8061H18.6513C18.119 38.8061 17.3428 39.5823 17.3428 40.1146Z" fill="white"/>
<path fill-rule="evenodd" clip-rule="evenodd" d="M10.4016 30.7778C10.0024 30.4895 9.47014 29.8242 9.33707 29.2698C8.13948 29.3585 8.00642 29.8242 6.94189 29.9129C7.14149 30.667 7.25238 30.6004 7.80682 30.9996L9.89151 32.8404C10.4903 33.3283 10.3351 33.417 11.0669 33.5944C11.2443 32.8847 14.1496 28.4492 14.7484 27.5399C15.192 26.8524 15.6577 26.0984 16.0569 25.3665H12.7968L10.4016 30.7778Z" fill="white"/>
<path fill-rule="evenodd" clip-rule="evenodd" d="M10.202 20.3767C9.91369 19.29 9.62538 19.9553 9.33707 18.8686C8.13948 18.9573 8.00642 19.423 6.94189 19.5117C7.14149 20.2658 10.2907 22.9936 11.0669 23.1932C11.2443 22.5279 11.8431 21.7295 12.2423 21.1085L16.0569 14.9653H12.7968C12.7524 15.5863 10.8008 19.9331 10.202 20.3767Z" fill="white"/>
<path fill-rule="evenodd" clip-rule="evenodd" d="M10.202 41.2015C9.91369 40.0926 9.62538 40.7579 9.33707 39.6712C8.13948 39.7821 8.00642 40.2256 6.94189 40.3143C7.14149 41.0906 7.6294 41.1793 8.82699 42.3325C9.33707 42.8204 10.4903 43.8628 11.0669 44.018C11.3109 43.0865 15.2363 37.3204 16.0569 35.7679H12.7968C12.7524 36.3889 10.8451 40.7135 10.202 41.2015Z" fill="white"/>
</svg>
