<svg width="426" height="289" viewBox="0 0 426 289" fill="none" xmlns="http://www.w3.org/2000/svg">
<path d="M142.536 151.298C142.275 151.417 142.024 151.558 141.785 151.717L117.905 141.525L117.052 135.234L107.511 135.176L108.074 149.604L139.593 157.939C139.66 158.158 139.739 158.373 139.832 158.582C140.287 159.555 141.02 160.371 141.938 160.928C142.856 161.485 143.918 161.759 144.991 161.714C146.064 161.67 147.1 161.31 147.969 160.678C148.838 160.047 149.5 159.173 149.874 158.167C150.248 157.16 150.316 156.065 150.07 155.02C149.823 153.975 149.273 153.026 148.489 152.292C147.705 151.558 146.722 151.072 145.663 150.895C144.604 150.719 143.516 150.859 142.536 151.298V151.298Z" fill="#FFA667"/>
<path d="M104.04 282.039H110.568L113.673 256.862L104.039 256.862L104.04 282.039Z" fill="#FFA667"/>
<path d="M115.23 280.173H102.642V288.099H123.156C123.156 285.997 122.321 283.981 120.835 282.495C119.348 281.008 117.332 280.173 115.23 280.173Z" fill="#023E88"/>
<path d="M78.6545 280.194L85.1505 280.834L90.7095 256.083L81.1222 255.138L78.6545 280.194Z" fill="#FFA667"/>
<path d="M89.9735 279.435L77.4456 278.201L76.6687 286.089L97.0844 288.1C97.1864 287.064 97.0834 286.018 96.7813 285.022C96.4792 284.026 95.9838 283.099 95.3234 282.295C94.6631 281.49 93.8508 280.823 92.9329 280.333C92.0149 279.842 91.0093 279.537 89.9735 279.435Z" fill="#023E88"/>
<path d="M102.223 108.531C95.001 108.531 89.1463 102.676 89.1463 95.454C89.1463 88.2319 95.001 82.3772 102.223 82.3772C109.445 82.3772 115.3 88.2319 115.3 95.454C115.3 102.676 109.445 108.531 102.223 108.531Z" fill="#FFA667"/>
<path d="M112.026 276.947C112.587 276.948 113.13 276.752 113.561 276.391C113.991 276.031 114.28 275.531 114.377 274.978C117.755 256.224 128.799 194.9 129.063 193.201C129.069 193.162 129.072 193.123 129.071 193.083V188.511C129.072 188.344 129.02 188.182 128.923 188.046L127.464 186.003C127.394 185.905 127.303 185.824 127.198 185.766C127.092 185.708 126.975 185.676 126.855 185.67C118.537 185.28 91.2976 184.138 89.9816 185.782C88.66 187.434 89.1269 192.44 89.234 193.427L89.2288 193.53L76.9909 271.793C76.8952 272.417 77.049 273.054 77.4191 273.566C77.7893 274.077 78.346 274.423 78.9688 274.527L86.6124 275.786C87.1817 275.878 87.7649 275.762 88.2559 275.46C88.7469 275.157 89.1132 274.689 89.288 274.14C91.6522 266.585 99.5792 241.173 102.327 231.34C102.344 231.278 102.383 231.224 102.437 231.189C102.491 231.153 102.556 231.139 102.62 231.148C102.684 231.157 102.742 231.189 102.785 231.238C102.827 231.287 102.849 231.35 102.849 231.414C102.711 240.788 102.38 264.703 102.265 272.963L102.253 273.852C102.248 274.454 102.469 275.037 102.872 275.484C103.276 275.931 103.832 276.211 104.432 276.267L111.802 276.937C111.877 276.944 111.952 276.947 112.026 276.947Z" fill="#023E88"/>
<path d="M110.523 113.673C112.805 115.029 114.17 117.522 114.954 120.059C116.405 124.756 117.278 129.611 117.554 134.519L118.383 149.214L128.634 188.171C119.749 195.689 114.623 193.981 102.663 187.831C90.7018 181.681 89.335 189.881 89.335 189.881L86.9432 156.734L83.5259 120.512C84.293 119.588 85.1612 118.754 86.1142 118.024C89.2729 115.567 92.9478 113.86 96.8621 113.031C100.776 112.201 104.828 112.271 108.711 113.234L110.523 113.673Z" fill="#13263D"/>
<path d="M113.853 159.166C113.577 159.269 113.31 159.395 113.054 159.541L89.4417 147.722L89.0499 141.32L79.3099 140.648L78.7879 155.243L110.342 165.678C110.6 166.783 111.188 167.784 112.028 168.547C112.868 169.309 113.92 169.798 115.045 169.948C116.17 170.099 117.314 169.903 118.325 169.387C119.335 168.871 120.165 168.06 120.703 167.061C121.242 166.062 121.463 164.923 121.339 163.795C121.214 162.667 120.749 161.604 120.005 160.747C119.261 159.89 118.274 159.28 117.175 158.997C116.076 158.715 114.917 158.773 113.853 159.166Z" fill="#FFA667"/>
<path d="M83.6969 120.678C77.8874 122.728 76.8641 144.942 76.8641 144.942C83.6986 141.183 91.9003 147.335 91.9003 147.335C91.9003 147.335 93.609 141.525 95.6594 134.007C96.2785 131.892 96.3525 129.655 95.8746 127.504C95.3966 125.353 94.3822 123.358 92.9257 121.705C92.9257 121.705 89.5064 118.626 83.6969 120.678Z" fill="#13263D"/>
<path d="M90.4979 98.9121C92.1271 97.6085 94.3501 99.9778 94.3501 99.9778L95.6536 88.2468C95.6536 88.2468 103.8 89.2226 109.014 87.9211C114.228 86.6196 115.042 92.6464 115.042 92.6464C115.311 90.2119 115.366 87.7585 115.205 85.3145C114.879 82.3818 110.643 79.449 103.148 77.4937C95.6537 75.5383 91.7435 84.011 91.7435 84.011C86.5292 86.6176 88.8687 100.216 90.4979 98.9121Z" fill="#13263D"/>
<path d="M389.673 100.864C389.226 101.232 388.778 101.583 388.321 101.929H275.373C274.532 101.583 273.694 101.228 272.86 100.864C260.937 95.6751 249.838 88.7653 239.92 80.3554C233.334 74.7757 227.275 69.0149 222.882 63.6162C216.754 56.0825 211.11 47.8726 208.486 38.518C205.866 29.1634 206.649 18.4405 212.5 10.6831C214.312 8.29687 216.539 6.257 219.075 4.66149C219.496 4.39528 219.922 4.13972 220.358 3.90013C227.376 -0.0397686 236.23 -0.998128 244.131 1.04104C255.445 3.96402 264.847 12.126 271.556 21.6989C278.264 31.2665 282.62 42.2556 286.911 53.1222C291.266 33.7262 304.454 16.3534 322.269 7.52057C340.078 -1.31226 362.206 -1.20577 379.637 8.36179C385.122 11.3904 390.076 15.2927 394.305 19.9153C394.726 20.3678 395.136 20.831 395.54 21.2996C404.043 31.144 409.362 43.7517 409.798 56.7533C410.358 73.5032 402.595 90.3277 389.673 100.864Z" fill="#F2F2F2"/>
<path d="M279.888 101.929H278.291C278.27 101.572 278.243 101.221 278.211 100.864C277.653 93.8999 276.484 86.9981 274.718 80.2383C270.667 64.8055 263.748 50.2731 254.321 37.3999C244.922 24.4855 233.072 13.5475 219.448 5.20982C219.348 5.15272 219.263 5.07366 219.198 4.97863C219.134 4.88361 219.092 4.77513 219.075 4.66143C219.049 4.51275 219.066 4.35973 219.124 4.22019C219.181 4.08065 219.277 3.96035 219.401 3.8733C219.524 3.78625 219.669 3.73604 219.82 3.72853C219.971 3.72101 220.121 3.7565 220.252 3.83086C220.289 3.85204 220.324 3.87514 220.358 3.90007C228.077 8.60481 235.243 14.1627 241.719 20.4689C253.304 31.7702 262.646 45.1619 269.25 59.9371C275.077 72.8775 278.646 86.7197 279.803 100.864C279.835 101.221 279.862 101.578 279.888 101.929Z" fill="white"/>
<path d="M395.54 21.2997C395.529 21.3057 395.516 21.3093 395.503 21.3104C394.337 21.5234 393.166 21.747 392.005 21.9866C382.477 23.9432 373.151 26.7753 364.144 30.4467C355.16 34.1129 346.519 38.5671 338.321 43.7572C330.113 48.9445 322.372 54.8377 315.188 61.3696C308.003 67.8921 301.412 75.0405 295.494 82.7302C291.07 88.4918 287.048 94.5508 283.456 100.864C283.253 101.216 283.056 101.573 282.859 101.929H281.033C281.225 101.573 281.422 101.216 281.624 100.864C285.97 93.1283 290.953 85.7679 296.521 78.8595C302.679 71.214 309.505 64.1315 316.918 57.6959C324.284 51.2966 332.19 45.5463 340.547 40.5094C348.939 35.4522 357.761 31.1476 366.912 27.6462C375.792 24.2513 384.961 21.664 394.305 19.9155C394.566 19.8675 394.822 19.8196 395.083 19.7717C396.078 19.5907 396.504 21.0921 395.54 21.2997Z" fill="white"/>
<path d="M416.949 100.864H160.323C157.924 100.868 155.623 101.822 153.927 103.519C152.23 105.216 151.275 107.516 151.272 109.915V208.945C151.275 211.345 152.23 213.645 153.927 215.342C155.623 217.038 157.924 217.993 160.323 217.996H416.949C419.348 217.993 421.649 217.038 423.345 215.342C425.042 213.645 425.997 211.345 426 208.945V109.915C425.997 107.516 425.042 105.216 423.345 103.519C421.649 101.822 419.348 100.868 416.949 100.864V100.864ZM424.935 208.945C424.933 211.063 424.09 213.092 422.593 214.59C421.096 216.087 419.066 216.929 416.949 216.932H160.323C158.206 216.929 156.176 216.087 154.679 214.59C153.182 213.092 152.339 211.063 152.337 208.945V109.915C152.339 107.798 153.182 105.768 154.679 104.271C156.176 102.774 158.206 101.932 160.323 101.929H416.949C419.066 101.932 421.096 102.774 422.593 104.271C424.09 105.768 424.933 107.798 424.935 109.915V208.945Z" fill="#3F3D56"/>
<path d="M206.917 190.311C200.809 190.311 194.839 188.5 189.761 185.106C184.683 181.713 180.725 176.89 178.387 171.248C176.05 165.605 175.438 159.396 176.63 153.406C177.822 147.416 180.763 141.913 185.081 137.595C189.4 133.276 194.902 130.335 200.892 129.143C206.883 127.952 213.092 128.563 218.734 130.901C224.377 133.238 229.2 137.196 232.593 142.274C235.986 147.352 237.797 153.323 237.797 159.43C237.788 167.617 234.532 175.467 228.742 181.256C222.953 187.045 215.104 190.301 206.917 190.311V190.311ZM206.917 129.615C201.02 129.615 195.255 131.364 190.352 134.64C185.449 137.916 181.628 142.572 179.371 148.02C177.114 153.469 176.524 159.463 177.674 165.247C178.825 171.031 181.664 176.343 185.834 180.513C190.004 184.683 195.317 187.522 201.1 188.673C206.884 189.823 212.879 189.233 218.327 186.976C223.775 184.72 228.431 180.898 231.708 175.995C234.984 171.092 236.732 165.327 236.732 159.43C236.723 151.526 233.579 143.947 227.99 138.358C222.4 132.768 214.822 129.624 206.917 129.615Z" fill="#3F3D56"/>
<path d="M394.048 139.731H271.059C269.34 139.732 267.688 140.398 266.449 141.59C265.211 142.782 264.481 144.408 264.414 146.125C264.406 146.212 264.402 146.299 264.404 146.386C264.406 148.151 265.108 149.842 266.356 151.089C267.603 152.337 269.295 153.039 271.059 153.041H394.048C395.813 153.041 397.506 152.34 398.754 151.092C400.002 149.844 400.703 148.151 400.703 146.386C400.703 144.621 400.002 142.928 398.754 141.68C397.506 140.432 395.813 139.731 394.048 139.731Z" fill="#F47920"/>
<path d="M394.048 165.819H271.059C269.34 165.82 267.688 166.487 266.449 167.679C265.211 168.871 264.481 170.496 264.414 172.214C264.406 172.3 264.402 172.387 264.404 172.475C264.406 174.239 265.108 175.93 266.356 177.178C267.603 178.425 269.295 179.127 271.059 179.13H394.048C395.813 179.13 397.506 178.429 398.754 177.181C400.002 175.932 400.703 174.24 400.703 172.475C400.703 170.709 400.002 169.017 398.754 167.769C397.506 166.521 395.813 165.819 394.048 165.819V165.819Z" fill="#F47920"/>
<path d="M203.472 172.923C202.611 172.924 201.772 172.646 201.082 172.129L201.04 172.097L192.04 165.206C191.623 164.887 191.273 164.488 191.01 164.034C190.747 163.579 190.577 163.077 190.508 162.557C190.439 162.036 190.473 161.507 190.609 161C190.744 160.493 190.978 160.017 191.298 159.6C191.617 159.183 192.015 158.834 192.47 158.571C192.925 158.308 193.426 158.137 193.947 158.068C194.467 157.999 194.997 158.034 195.504 158.169C196.011 158.305 196.487 158.539 196.904 158.858L202.733 163.328L216.509 145.362C216.829 144.945 217.227 144.596 217.682 144.333C218.136 144.07 218.638 143.9 219.159 143.831C219.679 143.762 220.208 143.797 220.716 143.933C221.223 144.068 221.698 144.303 222.115 144.622L222.03 144.738L222.117 144.624C222.958 145.27 223.508 146.223 223.647 147.274C223.785 148.325 223.502 149.388 222.857 150.23L206.653 171.362C206.279 171.849 205.797 172.243 205.245 172.514C204.693 172.785 204.087 172.924 203.472 172.923V172.923Z" fill="#F47920"/>
<path d="M203.384 288.276H0.532419C0.391213 288.276 0.255789 288.219 0.155941 288.12C0.0560936 288.02 0 287.884 0 287.743C0 287.602 0.0560936 287.466 0.155941 287.367C0.255789 287.267 0.391213 287.211 0.532419 287.211H203.384C203.525 287.211 203.661 287.267 203.76 287.367C203.86 287.466 203.916 287.602 203.916 287.743C203.916 287.884 203.86 288.02 203.76 288.12C203.661 288.219 203.525 288.276 203.384 288.276Z" fill="#3F3D56"/>
<path d="M363.779 76.8784C352.657 75.3486 341.362 75.6033 330.319 77.6328C319.309 79.6456 308.68 83.3619 298.815 88.6478C293.27 91.6269 288.008 95.1036 283.093 99.0349C282.29 99.6763 283.427 100.8 284.222 100.164C292.847 93.3034 302.515 87.8686 312.86 84.0663C323.122 80.2708 333.909 78.0824 344.839 77.5787C351.024 77.2947 357.221 77.5758 363.355 78.4186C363.559 78.4675 363.774 78.4371 363.956 78.3335C364.138 78.23 364.275 78.061 364.337 77.8608C364.392 77.6566 364.364 77.439 364.26 77.2551C364.156 77.0712 363.983 76.9358 363.779 76.8784H363.779Z" fill="white"/>
</svg>
