<svg width="95" height="75" viewBox="0 0 95 75" fill="none" xmlns="http://www.w3.org/2000/svg">
<path fill-rule="evenodd" clip-rule="evenodd" d="M29.41 50.0163C29.41 51.4263 30.06 52.2362 30.88 52.9562C31.94 53.8762 32.7 53.7862 34.14 54.1162C34.14 56.7562 31.3 60.1462 31.3 62.0062C31.3 62.8162 32.6 65.5662 32.88 66.7363C30.76 65.3262 28.34 62.3662 27.09 59.9062C23.86 53.5462 23.18 44.5063 27.57 38.4062C27.8 38.0963 27.97 37.9163 28.14 37.7063C28.14 43.5163 31.61 42.4062 31.61 44.0262C31.61 45.8462 29.41 47.8062 29.41 50.0163ZM60.64 65.4762C60.64 68.0163 61.4 68.4662 63.48 67.3662C63.48 65.5462 63.36 63.8462 60.64 65.4762ZM44.55 15.3063C44.55 16.1663 44.7 16.1763 44.87 16.8863C46.89 17.3763 45.48 17.3363 47.39 16.8863C47.8 15.1663 48.26 15.1763 46.13 14.0463C45.7 14.2763 44.55 14.7363 44.55 15.3063ZM77.05 30.4563C77.05 29.2463 76.95 30.3363 77.36 29.5063C77.86 29.8363 78.31 29.9263 78.31 30.7663V37.0763H77.05V30.4563ZM81.15 29.5963V37.5963C81.06 38.5763 80.95 39.4062 80.83 39.9163C78.95 40.3563 77.14 40.2363 74.91 40.1663L73.89 39.2863C73.89 36.8663 73.91 34.4463 73.89 32.0263C73.86 28.8963 74.02 28.0863 76.1 26.9863V20.9862C74.62 21.3363 71.27 23.2463 69.69 24.0363C68.53 24.6163 67.65 25.0063 66.54 25.6163C64.3 26.8563 64.38 26.5663 64.11 27.7263C64.11 29.8163 64.19 30.9663 63.8 32.6663C69.45 36.4463 72.72 49.2562 69.39 57.8162C68.77 59.4162 68.37 60.4263 67.61 61.7162C66.85 63.0162 66.39 64.2062 64.43 63.2662C63.59 61.5062 64.95 60.4462 65.59 59.0662C67.8 54.3462 68.22 48.9662 66.96 44.0163C66.17 40.9362 64.73 38.4563 62.94 36.0463C61.77 34.4563 61.44 34.2163 59.97 33.0163C58.12 31.5063 58.79 31.7163 55.59 31.7163C56.42 35.2563 57.64 33.0063 56.54 37.7063C58.42 38.6163 60.15 38.6163 61.47 40.3463C64.16 43.8763 62.86 48.8563 59.43 50.0863C56.68 51.0662 56.11 48.7362 54.02 48.8662C53.11 49.8062 51.35 50.4963 50.55 51.5962C51.51 53.4162 56.55 59.2463 52.93 62.4963C51.37 63.8962 50.34 64.8862 48.89 66.3462C46.72 68.5362 45.81 68.3562 45.81 71.1562C53.93 71.1562 55.37 68.6562 57.27 68.3562C58.52 68.1663 59.34 68.8262 59.03 70.1162C58.22 73.4262 34.07 80.7862 23.93 60.5362C19.87 52.4062 20.86 42.9363 25.87 35.4363C28.86 30.9363 27.83 35.6463 27.83 27.7063V26.6663C25.78 26.1863 22.06 23.7863 20.05 22.7763C16.79 21.1163 13.48 20.2063 13 18.1463C14.07 16.5563 16.58 15.7463 18.47 14.7863L24.04 11.8363C26.02 10.8463 27.86 9.92625 29.93 8.89625C31.44 8.14625 34.22 6.53625 35.64 6.15625C36.84 5.27625 38.05 4.92625 39.37 4.13625C46.91 -0.383749 45.81 0.636251 50.76 3.10625L76.95 16.3563C80.29 17.9663 79.11 19.5963 79.23 25.4363C79.29 28.3863 80.63 27.0663 81.09 29.2563C81.11 29.3663 81.13 29.4763 81.15 29.5963ZM61.27 25.5263V19.4163L49.6 16.8863C49.6 15.6463 49.7 15.6063 49.91 14.6763C52.46 14.0863 57.36 15.3663 59.95 16.0063C65.3 17.3263 64.11 16.9663 64.11 23.5163C65.81 22.6163 73.43 19.2063 74.21 18.1463C72.44 17.7362 66.98 14.6963 65.06 13.7363L51.49 6.78625C42.6 2.34625 47.31 4.78625 37.93 8.13625L18.05 18.1463C18.73 19.0863 26.9 22.9863 27.83 23.1963C27.83 17.0863 26.26 16.5363 38.61 14.7263C41.31 14.3363 41.83 13.7763 42.97 15.9363C42.23 17.3363 42.44 17.3163 40.48 17.5563L34.05 18.6963C32.71 18.9663 32.16 19.3163 30.98 19.4163V29.1963C37.84 27.5963 41.16 29.0263 46.13 32.3463C50.34 28.6863 55.88 27.9363 61.27 29.1963V25.5263ZM32.17 32.9763C33.44 32.2363 32.85 31.8863 34.45 31.7063C37.7 31.3463 40.67 32.2863 43.24 33.9763C44.85 35.0363 45.65 36.8063 47.79 34.9563C49.03 33.8963 50.7 32.7563 52.44 32.3463C53.06 35.0063 54.16 34.2663 53.66 36.4062C52.48 41.4563 57.93 40.1862 59.39 42.7562C60.46 44.6462 59.75 45.6763 58.75 47.1763C57.08 47.0362 53.56 43.8862 51.49 47.2663C50.1 47.4362 46.88 49.9162 47.82 53.0462C48.21 54.3062 49.2 54.4162 49.88 56.0462C52.11 61.3762 51.52 59.2762 46.21 64.6062C44.43 66.3862 42.73 67.4562 42.66 70.8363C40.35 70.8363 37.88 69.7562 36.35 68.9463C36.35 63.5962 33.47 63.4862 35.07 60.4162C36.71 57.2762 38.38 54.5762 36.29 52.2762C35.83 51.7663 35.41 51.3363 34.62 51.1162C32.41 50.5062 31.5 51.9462 34.26 46.3563C35.82 43.1963 33.51 40.9762 30.98 39.2863C31.32 37.8263 32.3 34.4263 32.17 32.9763Z" fill="#F47920"/>
</svg>
