<svg width="95" height="75" viewBox="0 0 95 75" fill="none" xmlns="http://www.w3.org/2000/svg">
<path fill-rule="evenodd" clip-rule="evenodd" d="M37.3299 52.4442C38.5271 55.6442 42.3984 59.0344 47.3886 59.0344C52.9158 59.0456 55.0417 55.7785 57.6375 52.7239L60.0767 55.9239C55.8697 57.9939 51.5956 62.3239 47.3886 64.5729C43.025 62.6148 39.0977 57.7253 34.6557 56.2484C35.4725 54.2232 35.6739 53.7421 37.3299 52.4442ZM32.5522 33.1659L32.5634 30.6485C35.1704 29.0037 34.8124 29.5631 35.4949 27.5044L35.9872 25.7478C46.2026 27.3254 48.7536 26.9785 58.7788 25.7701L59.3606 29.2051C60.9158 29.5631 60.7816 29.2275 62.0907 30.324C62.4039 41.9379 61.3522 36.0638 58.3088 38.9729C56.7088 40.5058 58.0627 56.1477 47.3774 56.1589C36.8711 56.1813 37.6767 40.3156 36.39 39.0177C33.6487 36.2429 32.5187 41.0988 32.5522 33.1659ZM47.3774 18.5758C51.4501 18.5422 55.0753 16.6289 59.1816 16.6401C59.1368 20.3324 60.3228 22.2681 57.2907 23.0736C52.0767 24.4722 40.7424 24.4611 35.8753 22.5142C35.2599 20.8583 35.5285 18.71 35.5061 16.4611C39.3215 16.8751 44.0879 18.5981 47.3774 18.5758ZM28.4236 11.5268C50.734 6.9506 44.1886 6.52543 66.8683 11.5604C64.5074 12.78 50.6333 15.6219 47.3886 15.6443C43.7187 15.6667 31.176 12.959 28.4236 11.5268ZM73.8836 15.7786C73.6151 10.6988 75.8081 15.6443 76.513 10.5646L69.1732 9.22192C66.7788 8.69605 65.2235 8.33801 61.1956 7.54361C59.2823 7.3534 52.4459 5.7534 50.1298 5.29466C46.1019 4.47788 43.383 5.52962 39.3886 6.37997C35.6963 7.16319 32.1047 7.81214 28.5019 8.52822C26.846 8.86388 25.0893 9.26668 23.1984 9.60234C20.1215 10.1618 19.5285 9.69185 18.9691 12.2765C20.6138 13.8653 29.2404 15.0848 32.5187 15.6107C33.2124 31.0736 31.9816 25.8485 30.1355 29.5743C29.3187 31.2079 29.4194 35.2023 29.755 37.1156C30.2474 40.0023 31.8138 40.3044 34.1411 41.2778C34.7117 52.3211 37.4865 45.0596 31.8585 54.6932C25.3802 54.7827 21.5089 55.1519 17.1565 58.2288C14.6614 59.9967 10.6222 66.0945 12.4684 70.805C17.5369 70.5141 12.7369 66.9785 17.6823 61.5855C19.8418 59.247 23.9369 57.7253 28.5802 57.6246C35.5844 57.4792 38.9187 63.8232 47.3886 67.9743L59.92 59.3813C62.0123 57.7813 62.2249 57.6246 65.6039 57.6246C71.7242 57.6358 77.1396 59.9407 79.0305 65.3561C80.1046 68.4106 78.9186 69.5854 81.0109 70.8833C83.1032 70.1225 83.271 68.8246 81.7382 64.3603C78.885 56.0134 71.2655 54.7267 62.7396 54.7491C57.6263 45.0372 59.5956 53.91 60.5914 41.2442C64.4851 39.689 65.0557 39.2079 65.0557 34.3296C65.0669 24.2373 62.6501 28.9813 62.0683 25.759L62.0907 16.0695L70.941 13.9436C70.941 18.8107 71.3214 23.7226 70.2585 28.1645C69.52 31.2303 67.8753 37.0037 68.1885 39.7002L75.9312 39.8792C76.4235 38.917 76.2892 39.4876 76.4683 38.2233C76.7703 36.0526 74.7116 29.6303 74.3871 27.1128C74.0962 23.4429 73.8613 17.2555 73.8836 15.7786Z" fill="#F47920" stroke="#F47920" stroke-width="0.0762"/>
</svg>
