<svg width="42" height="42" viewBox="0 0 42 42" fill="none" xmlns="http://www.w3.org/2000/svg">
<rect width="42" height="42" rx="8" fill="#F47920"/>
<path d="M13.5 12V18.879L24 29.379L30.879 22.5L20.379 12H13.5ZM12 12C12 11.6022 12.158 11.2206 12.4393 10.9393C12.7206 10.658 13.1022 10.5 13.5 10.5H20.379C20.7768 10.5001 21.1583 10.6582 21.4395 10.9395L31.9395 21.4395C32.2207 21.7208 32.3787 22.1023 32.3787 22.5C32.3787 22.8977 32.2207 23.2792 31.9395 23.5605L25.0605 30.4395C24.7792 30.7207 24.3977 30.8787 24 30.8787C23.6023 30.8787 23.2208 30.7207 22.9395 30.4395L12.4395 19.9395C12.1582 19.6583 12.0001 19.2768 12 18.879V12Z" fill="white"/>
<path d="M17.25 16.5C17.0511 16.5 16.8603 16.421 16.7197 16.2803C16.579 16.1397 16.5 15.9489 16.5 15.75C16.5 15.5511 16.579 15.3603 16.7197 15.2197C16.8603 15.079 17.0511 15 17.25 15C17.4489 15 17.6397 15.079 17.7803 15.2197C17.921 15.3603 18 15.5511 18 15.75C18 15.9489 17.921 16.1397 17.7803 16.2803C17.6397 16.421 17.4489 16.5 17.25 16.5ZM17.25 18C17.8467 18 18.419 17.7629 18.841 17.341C19.2629 16.919 19.5 16.3467 19.5 15.75C19.5 15.1533 19.2629 14.581 18.841 14.159C18.419 13.7371 17.8467 13.5 17.25 13.5C16.6533 13.5 16.081 13.7371 15.659 14.159C15.2371 14.581 15 15.1533 15 15.75C15 16.3467 15.2371 16.919 15.659 17.341C16.081 17.7629 16.6533 18 17.25 18V18ZM10.5 19.629C10.5001 20.0268 10.6582 20.4083 10.9395 20.6895L22.125 31.875L22.0605 31.9395C21.7792 32.2207 21.3977 32.3787 21 32.3787C20.6023 32.3787 20.2208 32.2207 19.9395 31.9395L9.4395 21.4395C9.15818 21.1583 9.00008 20.7768 9 20.379V13.5C9 13.1022 9.15804 12.7206 9.43934 12.4393C9.72064 12.158 10.1022 12 10.5 12V19.629Z" fill="white"/>
</svg>
