<svg width="95" height="75" viewBox="0 0 95 75" fill="none" xmlns="http://www.w3.org/2000/svg">
<path fill-rule="evenodd" clip-rule="evenodd" d="M44.42 53.6299C44.92 53.5999 46.3 53.2299 46.76 53.0999C47.55 52.8899 48.2 52.7199 49.02 52.4999C51.24 51.9199 50.56 51.9699 52.88 53.4299C54.02 54.1499 55.07 54.8199 56.21 55.5599L59.6 57.6399V59.8099C58.36 59.1499 55.93 55.6999 52.86 58.0399C50.19 60.0799 52.04 61.3499 53.55 62.5399L57.44 65.6399C59.95 67.5999 59.6 66.1399 59.6 70.0999L45.62 59.7299C45.19 59.3799 44.83 59.0699 44.39 58.7499C44.09 58.5299 44 58.5199 43.7 58.3199C42.83 57.6999 42.51 57.2999 41.18 56.4199L39.36 54.9299C39.77 54.8999 42.56 54.1999 42.92 54.0599C43.11 54.2999 46.6 57.2099 47.02 57.2099C48.27 57.2099 47.98 56.5799 47.67 56.2599C47.19 55.7599 45.01 54.3299 44.42 53.6299ZM24.73 55.1499C24.73 57.2899 28.19 53.5799 29.11 53.0899C30.13 53.2799 31.22 53.6599 32.25 53.8499C31.04 55.2899 25.83 58.4199 26.04 59.2199C26.13 59.5599 26.36 59.6599 26.76 59.6399C27.42 59.5999 29.78 57.4899 30.24 57.1299C31.09 56.4499 33.2 54.9399 33.76 54.2799C34.57 54.4299 35.9 54.8799 36.63 54.9299C35.99 55.6799 30.45 59.5399 29.07 60.6499C28.63 60.9999 28.29 61.2699 27.85 61.6199L24.01 64.4399C23.57 64.7899 23.23 65.0599 22.79 65.4199L18.96 68.2299C18.22 68.8199 17.23 69.6599 16.39 70.0999C16.39 69.4499 16.4 68.7999 16.39 68.1499C16.38 67.0799 16.35 67.2099 17.11 66.6599C17.4 66.4499 17.51 66.4299 17.79 66.2299L22.38 62.5999C23.62 61.6099 25.95 60.2899 23.27 58.1499C22.66 57.6699 21.84 57.1399 20.71 57.2599C18.61 57.4899 17.79 59.0699 16.39 59.8099V57.6399C16.87 57.5399 16.7 57.5399 17.06 57.2999C17.31 57.1499 17.5 57.0199 17.74 56.8699L24.26 52.7199C25.78 51.7699 25.03 52.1799 27.6 52.6599C27.2 53.1399 24.73 54.7499 24.73 55.1499ZM12.7 30.3299C13.32 30.3699 13.68 30.5699 14.26 30.7199C21.62 32.7199 30.16 32.7499 33.4 33.9799C33.89 34.1599 34.3 34.3499 34.71 34.5599C35.83 35.1399 37.31 36.4399 37.31 37.5899V42.8999C34.34 42.8999 34.58 42.7199 34.58 43.5499C34.58 44.0799 35.57 43.8799 37.31 43.8799V44.4199C35.88 44.4199 33.24 44.2899 31.98 44.5299C31.85 44.7399 31.73 44.9199 31.8 45.1199C31.87 45.3199 32.09 45.4999 32.39 45.4999H37.31V49.5099C36.85 49.2699 36.62 48.9699 36.18 48.6799C32.75 46.3799 27.22 46.7899 22.88 46.3199C18.14 45.8099 13.89 45.1999 9.44 44.0799C8.95 43.9599 8.21 43.6999 7.64 43.6599C7.72 43.4099 7.77 43.3399 7.78 43.0099H11.75C12.31 43.0099 12.29 42.6099 12.29 42.3599C12.29 41.6399 9.28 41.9299 8.33 41.9299C8.38 41.4299 9.08 39.9199 9.28 39.2199H16.8C18.21 39.2199 18.85 39.4399 18.85 38.5699C18.85 37.8899 15.94 38.1299 14.62 38.1299C12.98 38.1299 11.34 38.1299 9.69 38.1299C9.88 37.8199 10.27 36.7799 10.38 36.3999C11.86 36.3999 14.34 36.7499 14.34 35.7499C14.34 35.0799 12.26 35.3199 10.79 35.3199L12.7 30.3299ZM58.64 33.9099C58.64 34.6599 60.41 34.4499 61.38 34.4499C62.56 34.4499 63.74 34.4499 64.93 34.4499C64.96 34.7799 65.06 34.9699 65.2 35.2099C63.96 35.2099 63.7 35.1799 63.7 35.8599C63.7 36.4699 64.86 36.2899 65.61 36.2899C65.66 36.7099 65.89 37.0899 66.02 37.4799L67.39 41.0599H60.96C60.78 41.2699 60.72 41.3599 60.55 41.5999C60.72 41.8399 60.78 41.9299 60.96 42.1399H67.8C67.95 42.6599 68.18 43.1099 68.35 43.6599L64.87 44.4799C63.58 44.7799 62.53 44.9799 61.16 45.2199C57.98 45.7799 54.53 46.2299 51.13 46.4899C50.57 46.5299 49.64 46.5599 48.99 46.6299C47.78 46.7799 46.24 46.7599 44.77 46.9699C43.59 47.1499 42.14 47.4999 41.3 47.8999C39.07 48.9699 39.52 49.0699 38.68 49.5099V40.0799H47.84C48.59 40.0799 48.59 38.9999 47.84 38.9999H38.68C38.68 37.2499 38.42 36.8499 40.15 35.2899C42.19 33.4499 46.62 33.0899 49.54 32.7599L56.75 31.8599C58.62 31.6199 61.83 30.8799 63.29 30.3299C63.48 30.6399 64.37 32.9799 64.38 33.3599H59.19C58.82 33.3599 58.64 33.6499 58.64 33.9099ZM38.68 34.8799C38.7 34.0699 39.53 33.2999 40.03 32.8099C41.79 31.0499 46.12 30.4799 48.94 30.2299C52.69 29.8999 57.37 29.4099 60.92 28.4499C61.49 28.2899 61.85 28.0999 62.47 28.0499C62.59 28.4599 62.84 28.9599 62.88 29.3599C62.26 29.3999 60.9 29.8899 59.98 30.0899C56.4 30.8799 53.92 31.2499 50.14 31.6099C46.64 31.9499 42.35 32.2499 39.74 34.0999C39.34 34.3799 39.11 34.6499 38.68 34.8799ZM13.52 28.0499C14.05 28.0899 15.57 28.6099 16.53 28.8099C19.87 29.5099 23.42 29.9199 26.92 30.2199C29.25 30.4199 31.77 30.7399 33.49 31.4099C33.9 31.5699 34.39 31.7799 34.79 31.9999C35.9 32.6099 37.19 33.7599 37.31 34.8799C36.65 34.5299 36.54 34.1399 35.22 33.5099C34.26 33.0499 33.64 32.8499 32.48 32.5399C29.95 31.8699 23.19 31.4199 19.19 30.7199C18.03 30.5199 17.16 30.2999 16.07 30.0399C15.01 29.7999 14.11 29.4299 13.11 29.2499C13.23 28.8499 13.4 28.4799 13.52 28.0499ZM64.25 28.8099C64.74 28.7799 64.9 28.6799 65.34 28.5999C66.19 31.4699 68.78 37.9799 69.96 41.2999L71.49 45.6099L38.68 53.9599C38.68 52.0499 38.58 51.5699 39.67 50.4099C40.48 49.5499 41.49 48.9399 42.8 48.5499C45.7 47.6799 49.28 47.7799 52.38 47.4699C57.92 46.9199 60.95 46.5099 66.1 45.3499L69.2 44.5499C70.38 44.2099 69.75 43.5399 69.23 42.0999L67.07 36.4399C66.58 35.1199 66.16 33.9899 65.66 32.6799C65.41 31.9999 65.15 31.4099 64.93 30.7599C64.72 30.1599 64.35 29.4499 64.25 28.8099ZM6.14 43.8799C6.14 44.5499 6.65 44.4999 7.73 44.7899C8.47 44.9799 9.04 45.1499 9.78 45.3299C13.69 46.2399 22.05 47.5899 25.96 47.6699C28.37 47.7199 30.96 47.9199 33.09 48.5199C34.9 49.0299 36.66 50.2799 37.2 51.7699C37.39 52.2999 37.31 53.2499 37.31 53.9599L4.5 45.6099L9.1 32.8899C9.63 31.4399 10.23 30.0399 10.65 28.5999C11.09 28.6799 11.25 28.7799 11.75 28.8099C11.66 29.5899 6.14 43.3999 6.14 43.8799ZM12.16 27.8399C9.24 26.7299 9.74 27.1099 8.11 31.6799C7.82 32.5099 7.54 33.2499 7.25 34.0299C6.66 35.6199 3 45.2399 3 46.0399C3 46.5499 4.59 46.8199 5.23 46.9799C6.17 47.2199 6.91 47.3899 7.83 47.6299L18.17 50.2699C19.41 50.5399 22.62 51.5099 23.5 51.5699C23.32 52.0999 19.99 53.9499 19.23 54.4699C18.5 54.9899 17.81 55.3899 17.05 55.8799C14.46 57.5599 15.03 56.3499 15.03 61.3299C15.03 61.5699 15.48 62.1299 16.5 61.2999C16.73 61.1199 16.87 60.9799 17.11 60.8099L19.16 59.2899C19.88 58.7299 19.98 58.3999 21.04 58.3999C21.78 58.3999 23.09 59.4699 23.09 60.0199C23.09 60.9399 20.09 62.7899 19.16 63.5199C18.42 64.0999 17.78 64.6099 17.04 65.1999C14.42 67.2799 15.03 65.8399 15.03 71.6199C15.03 71.9699 15.35 72.0499 15.71 72.0499C16.13 72.0499 20.45 68.6399 21.28 68.0199L22.65 67.0399C23.09 66.6899 23.56 66.2599 24.03 65.9699L30.99 60.7599C31.25 60.5499 31.41 60.3999 31.69 60.2299C32.02 60.0099 32.1 59.9899 32.43 59.7299L37.27 56.0899C37.59 55.8799 37.66 55.7599 38 55.5799L49.04 63.8399C49.33 64.0499 49.43 64.0599 49.72 64.2799C49.98 64.4699 50.15 64.6199 50.4 64.8199L57.38 70.0199C57.84 70.3899 59.75 72.0499 60.42 72.0499C60.74 72.0499 60.96 71.8699 60.96 71.6199V66.9599C60.96 66.6199 56.17 62.9799 55.85 62.7799C55.31 62.4499 53.56 61.1399 53.22 60.7399C52.8 60.2299 52.88 59.7299 53.34 59.2899C55.44 57.2699 56.34 59.0999 58.11 60.2299C58.81 60.6599 59.73 61.6299 60.2 61.7199C60.56 61.7799 60.96 61.6499 60.96 61.3299V57.5299C60.96 56.9799 59.91 56.4699 59.03 55.9199L54.64 53.1199C54.13 52.7499 52.66 52.0899 52.49 51.5699C53.22 51.5199 69.17 47.3799 70.66 47.0099C73.96 46.1799 73.32 46.7599 71.39 41.2499C71.1 40.4399 70.82 39.7099 70.52 38.8999L66.66 28.3099C66.31 27.3199 66.33 26.8899 63.84 27.8399C63.01 26.4699 64.04 26.4199 59.93 27.5599C53.25 29.3999 44.84 28.4899 40.06 31.3199C39.52 31.6499 38.31 32.5099 38.13 33.0399C37.44 32.8899 37.7 32.3899 36.08 31.4099C32.28 29.1199 27.77 29.3599 23.05 28.7399C20.77 28.4399 18.47 28.1699 16.27 27.6099C12.01 26.5299 13.1 26.2799 12.16 27.8399Z" fill="#F47920"/>
<path fill-rule="evenodd" clip-rule="evenodd" d="M18.99 35.4199C18.96 35.7199 18.93 35.7199 18.85 35.9699C18.88 35.9899 18.9 35.9899 18.91 36.0299C18.93 36.0799 19.24 36.3999 19.81 36.3999H24.19C25.43 36.3999 25.3 35.3199 24.6 35.3199C23.62 35.3199 19.67 35.2199 18.99 35.4199Z" fill="#F47920"/>
<path fill-rule="evenodd" clip-rule="evenodd" d="M46.3399 27.9199L46.3499 26.6499C48.7499 25.1299 48.4199 25.6399 49.0499 23.7499L49.4999 22.1299C58.9199 23.5799 61.2699 23.2599 70.5199 22.1399L71.0499 25.3199C72.4899 25.6499 72.3599 25.3299 73.5599 26.3399C73.8199 35.5999 73.1299 32.7999 71.1199 33.6199L72.1699 36.4999L72.1799 36.4099C75.7699 34.9799 76.2999 34.5399 76.3099 30.0399C76.3099 20.7399 74.0799 25.0999 73.5499 22.1399L73.5699 13.2099L81.7299 11.2499C81.7299 15.7299 82.0799 20.2599 81.0899 24.3499C80.4099 27.1799 78.8999 32.4999 79.1899 34.9899L86.3199 35.1599C86.7799 34.2699 86.6599 34.7899 86.8199 33.6199C87.0899 31.6899 85.3199 26.0799 84.9299 23.6099L84.4099 20.3199C84.3999 19.8499 84.4099 19.4099 84.4299 18.9899L84.5099 12.8799C83.9899 8.1999 86.2199 12.8099 86.8599 8.1299L81.9199 6.9299C75.0899 5.8799 69.0299 4.5699 62.5399 3.2699C58.8299 2.5199 56.3199 3.4899 52.6399 4.2699C49.2399 4.9999 45.9199 5.5899 42.6099 6.2499C41.0799 6.5599 39.4599 6.9299 37.7199 7.2499C34.8799 7.7599 34.3299 7.3299 33.8199 9.7099C35.3299 11.1699 43.2899 12.2899 46.3099 12.7899C46.9499 27.0399 45.8099 22.2199 44.1099 25.6499C43.7799 26.3099 43.6199 27.3799 43.5599 28.5199C44.4499 28.3199 45.3899 28.1199 46.3399 27.9199ZM77.6799 51.5299C82.9599 51.7599 87.5299 53.9099 89.1899 58.6399C90.1699 61.4499 89.0899 62.5399 91.0099 63.7399C92.9399 63.0299 93.0899 61.8399 91.6799 57.7199C89.3399 50.8699 83.5099 49.1799 76.7099 48.8999L77.6799 51.5299ZM60.0099 15.5099C63.7599 15.4899 67.0999 13.7199 70.8799 13.7299C70.8399 17.1399 71.9299 18.9099 69.1399 19.6599C64.3399 20.9499 53.8899 20.9399 49.3999 19.1499C48.8299 17.6199 49.0799 15.6399 49.0599 13.5699C52.5799 13.9399 56.9699 15.5299 60.0099 15.5099ZM42.5299 9.0199C63.0999 4.7999 57.0699 4.4099 77.9699 9.0499C75.7999 10.1799 62.9999 12.7999 60.0099 12.8199C56.6399 12.8399 45.0699 10.3399 42.5299 9.0199Z" fill="#F47920"/>
</svg>
