<svg width="484" height="346" viewBox="0 0 484 346" fill="none" xmlns="http://www.w3.org/2000/svg">
<path opacity="0.1" d="M476.346 232.494C465.139 255.612 442.384 271.071 418.802 281.265C387.054 294.994 352.092 300.439 317.612 298.136C311.569 297.734 305.544 297.092 299.538 296.209C278.678 293.166 258.342 287.244 239.109 278.612C233.559 276.112 228.12 273.383 222.795 270.425C213.899 265.495 205.376 259.921 197.294 253.748C195.261 252.196 193.256 250.604 191.279 248.973C189.908 247.843 188.55 246.687 187.171 245.565C184.261 243.199 181.266 240.951 177.925 239.268C176.917 238.76 175.884 238.304 174.829 237.901C164.251 233.878 152.053 235.396 141.04 238.534C132.664 240.921 124.498 244.19 116.13 246.523C112.408 247.592 108.615 248.398 104.78 248.935C96.217 250.019 87.5214 249.256 79.2787 246.696L78.5743 246.476C77.3933 246.105 76.2221 245.699 75.0608 245.257L74.3564 244.987C73.2317 244.554 72.1308 244.089 71.0539 243.591L70.3495 243.271C69.2247 242.748 68.1239 242.195 67.0469 241.613C66.6589 241.411 66.2751 241.191 65.8955 240.985C59.7681 237.563 54.1984 233.226 49.3784 228.125C49.2392 227.985 49.1085 227.842 48.9566 227.703C48.286 226.977 47.628 226.239 46.9911 225.484C46.7549 225.206 46.5187 224.927 46.2868 224.641C45.5304 223.718 44.8007 222.775 44.0977 221.81C43.9923 221.671 43.891 221.528 43.7898 221.389C40.9097 217.404 38.5219 213.086 36.6785 208.528C36.6195 208.389 36.5646 208.246 36.514 208.107C35.9517 206.659 35.4385 205.187 34.9745 203.691C34.7847 203.066 34.6034 202.425 34.4431 201.801C34.3882 201.615 34.3376 201.426 34.2912 201.24C31.963 192.075 31.6973 182.547 31.6973 173.073C31.6973 171.968 31.6973 170.865 31.6973 169.762C31.7648 154.439 32.0009 138.854 34.2617 123.742C34.2617 123.636 34.2912 123.531 34.3081 123.429C35.0648 118.342 36.094 113.298 37.3913 108.321C38.7491 103.099 40.4844 97.9816 42.5835 93.0104C47.7841 80.7787 55.3467 69.6478 63.7444 59.331C84.8968 33.3702 112.638 11.5767 145.106 3.41938C180.093 -5.36637 218.978 3.05243 247.199 25.5208C255.803 32.3706 263.535 40.4815 273.198 45.7327C281.634 50.3048 291.507 52.1986 300.542 48.6008C308.008 45.6273 312.867 44.151 321.252 44.6023C338.611 45.5843 355.724 49.1687 372.017 55.2355C372.675 55.4759 373.333 55.7248 373.987 55.9736C416.465 72.2249 452.979 104.512 471.959 146.003C472.462 147.1 472.95 148.205 473.423 149.319C484.739 175.752 488.83 206.732 476.346 232.494Z" fill="#F47920"/>
<path opacity="0.1" d="M51.5551 313.38C72.1195 313.38 88.7902 310.702 88.7902 307.399C88.7902 304.096 72.1195 301.418 51.5551 301.418C30.9908 301.418 14.3201 304.096 14.3201 307.399C14.3201 310.702 30.9908 313.38 51.5551 313.38Z" fill="#F47920"/>
<path opacity="0.1" d="M385.591 345.823C422.053 345.823 451.612 342.953 451.612 339.412C451.612 335.871 422.053 333.001 385.591 333.001C349.128 333.001 319.569 335.871 319.569 339.412C319.569 342.953 349.128 345.823 385.591 345.823Z" fill="#F47920"/>
<path d="M445.366 45.4458H55.0684C52.1589 45.4458 49.8003 47.8044 49.8003 50.7139V267.236C49.8003 270.146 52.1589 272.505 55.0684 272.505H445.366C448.275 272.505 450.634 270.146 450.634 267.236V50.7139C450.634 47.8044 448.275 45.4458 445.366 45.4458Z" fill="url(#paint0_linear)"/>
<path d="M444.775 48.6387H55.7053C52.7959 48.6387 50.4373 50.9973 50.4373 53.9067V266.481C50.4373 269.391 52.7959 271.749 55.7053 271.749H444.775C447.685 271.749 450.043 269.391 450.043 266.481V53.9067C450.043 50.9973 447.685 48.6387 444.775 48.6387Z" fill="white"/>
<path d="M444.775 48.6387H55.7053C52.7959 48.6387 50.4373 50.9973 50.4373 53.9067V266.481C50.4373 269.391 52.7959 271.749 55.7053 271.749H444.775C447.685 271.749 450.043 269.391 450.043 266.481V53.9067C450.043 50.9973 447.685 48.6387 444.775 48.6387Z" fill="white"/>
<path opacity="0.04" d="M444.775 48.6387H55.7053C52.7959 48.6387 50.4373 50.9973 50.4373 53.9067V266.481C50.4373 269.391 52.7959 271.749 55.7053 271.749H444.775C447.685 271.749 450.043 269.391 450.043 266.481V53.9067C450.043 50.9973 447.685 48.6387 444.775 48.6387Z" fill="white"/>
<path d="M448.015 46.0786H52.466C51.928 46.0786 51.4119 46.2924 51.0315 46.6728C50.651 47.0533 50.4373 47.5693 50.4373 48.1074V56.6823H450.026V48.1074C450.027 47.5722 449.815 47.0587 449.438 46.6788C449.061 46.2988 448.55 46.0831 448.015 46.0786Z" fill="#5A5773"/>
<path d="M58.4174 54.1219C59.9315 54.1219 61.159 52.8944 61.159 51.3803C61.159 49.8661 59.9315 48.6387 58.4174 48.6387C56.9032 48.6387 55.6758 49.8661 55.6758 51.3803C55.6758 52.8944 56.9032 54.1219 58.4174 54.1219Z" fill="white"/>
<path d="M65.7987 54.1219C67.3129 54.1219 68.5403 52.8944 68.5403 51.3803C68.5403 49.8661 67.3129 48.6387 65.7987 48.6387C64.2846 48.6387 63.0571 49.8661 63.0571 51.3803C63.0571 52.8944 64.2846 54.1219 65.7987 54.1219Z" fill="white"/>
<path d="M73.1796 54.1219C74.6937 54.1219 75.9212 52.8944 75.9212 51.3803C75.9212 49.8661 74.6937 48.6387 73.1796 48.6387C71.6654 48.6387 70.438 49.8661 70.438 51.3803C70.438 52.8944 71.6654 54.1219 73.1796 54.1219Z" fill="white"/>
<path opacity="0.2" d="M190.588 76.624H83.3491V85.7261H190.588V76.624Z" fill="#FFA667"/>
<path opacity="0.1" d="M417.132 113.121H83.3491V253.136H417.132V113.121Z" fill="#FFA667"/>
<path opacity="0.1" d="M278.782 122.253H273.067V111.151C273.067 98.6244 263.079 88.2106 250.552 88.0208C247.532 87.9891 244.535 88.5554 241.734 89.6873C238.933 90.8191 236.384 92.4941 234.233 94.6156C232.083 96.7371 230.373 99.2632 229.204 102.048C228.034 104.834 227.427 107.823 227.418 110.844V122.253H221.715C219.195 122.261 216.78 123.265 214.998 125.047C213.216 126.829 212.212 129.244 212.204 131.764V177.409C212.212 179.93 213.216 182.344 214.998 184.126C216.78 185.908 219.195 186.913 221.715 186.921H278.782C281.302 186.913 283.716 185.908 285.498 184.126C287.279 182.344 288.283 179.929 288.289 177.409V131.764C288.283 129.244 287.279 126.83 285.498 125.047C283.716 123.265 281.302 122.261 278.782 122.253ZM253.581 151.925V168.274C253.586 169.139 253.263 169.975 252.675 170.61C252.088 171.246 251.281 171.635 250.417 171.698C249.967 171.72 249.516 171.649 249.094 171.491C248.671 171.333 248.285 171.091 247.958 170.78C247.632 170.468 247.372 170.094 247.194 169.679C247.017 169.264 246.925 168.818 246.925 168.366V151.917C245.382 151.164 244.14 149.911 243.401 148.362C242.661 146.812 242.469 145.058 242.855 143.385C243.242 141.712 244.183 140.22 245.527 139.151C246.87 138.083 248.536 137.501 250.253 137.501C251.97 137.501 253.636 138.083 254.979 139.151C256.323 140.22 257.264 141.712 257.65 143.385C258.037 145.058 257.844 146.812 257.105 148.362C256.366 149.911 255.124 151.164 253.581 151.917V151.925ZM266.42 122.253H234.073V110.844C234.073 106.556 235.777 102.444 238.809 99.4117C241.84 96.3798 245.953 94.6765 250.24 94.6765C254.528 94.6765 258.64 96.3798 261.672 99.4117C264.704 102.444 266.407 106.556 266.407 110.844L266.42 122.253Z" fill="black"/>
<path d="M278.782 121.409H273.067V110.308C273.067 97.7807 263.079 87.3668 250.552 87.177C247.532 87.1453 244.535 87.7117 241.734 88.8435C238.933 89.9754 236.384 91.6503 234.233 93.7718C232.083 95.8933 230.373 98.4195 229.204 101.205C228.034 103.99 227.427 106.979 227.418 110V121.409H221.715C219.195 121.417 216.78 122.421 214.998 124.203C213.216 125.985 212.212 128.4 212.204 130.92V176.566C212.212 179.086 213.216 181.5 214.998 183.282C216.78 185.064 219.195 186.069 221.715 186.077H278.782C281.302 186.069 283.716 185.064 285.498 183.282C287.279 181.5 288.283 179.085 288.289 176.566V130.92C288.283 128.4 287.279 125.986 285.498 124.204C283.716 122.421 281.302 121.417 278.782 121.409V121.409ZM253.581 151.081V167.43C253.586 168.295 253.263 169.131 252.675 169.767C252.088 170.403 251.281 170.792 250.417 170.855C249.967 170.876 249.516 170.805 249.094 170.647C248.671 170.489 248.285 170.247 247.958 169.936C247.632 169.624 247.372 169.25 247.194 168.835C247.017 168.42 246.925 167.974 246.925 167.523V151.073C245.382 150.321 244.14 149.067 243.401 147.518C242.661 145.968 242.469 144.214 242.855 142.541C243.242 140.869 244.183 139.376 245.527 138.308C246.87 137.239 248.536 136.657 250.253 136.657C251.97 136.657 253.636 137.239 254.979 138.308C256.323 139.376 257.264 140.869 257.65 142.541C258.037 144.214 257.844 145.968 257.105 147.518C256.366 149.067 255.124 150.321 253.581 151.073V151.081ZM266.42 121.409H234.073V110C234.073 105.712 235.777 101.6 238.809 98.568C241.84 95.5361 245.953 93.8328 250.24 93.8328C254.528 93.8328 258.64 95.5361 261.672 98.568C264.704 101.6 266.407 105.712 266.407 110L266.42 121.409Z" fill="#F47920"/>
<path opacity="0.1" d="M417.132 99.645H383.347V107.621H417.132V99.645Z" fill="#FFA667"/>
<path d="M428.63 341.344C428.407 340.226 428.027 339.145 427.499 338.134L422.438 330.576H422.467C422.467 330.576 421.67 326.78 422.467 324.915C423.265 323.051 419.625 318.466 419.625 318.466C419.625 318.466 419.182 317.315 420.337 315.898C421.493 314.48 419.625 310.33 419.625 310.33C419.625 310.33 418.739 301.662 418.65 300.338C418.562 299.014 417.849 291.675 417.849 291.675L416.162 276.115L413.159 234.877L413.104 234.105C413.475 233.924 413.673 233.81 413.673 233.81L413.074 211.009L413.593 210.54C418.123 206.441 428.571 196.951 428.465 196.744C428.36 196.537 427.2 180.897 427.065 176.983C426.949 174.202 426.341 171.463 425.268 168.893C425.007 168.375 424.252 164.954 423.939 163.507C423.855 163.111 423.8 162.862 423.8 162.862C423.8 162.862 420.738 157.024 421.004 154.371C421.27 151.718 421.801 149.732 415.272 148.804C415.272 148.804 409.789 147.986 406.524 145.754C404.593 144.418 402.483 143.361 400.256 142.616C400.256 142.616 398.426 139.242 397.152 140.385C396.613 139.181 396.209 137.921 395.95 136.627L395.912 136.391C398.33 134.705 400.07 132.214 400.821 129.364C400.864 129.204 400.897 129.039 400.935 128.879C401.062 128.922 401.194 128.946 401.328 128.951C402.437 128.951 403.12 127.715 404.158 127.322C404.58 127.158 405.098 127.133 405.423 126.799C405.53 126.671 405.61 126.522 405.658 126.362C405.706 126.202 405.721 126.033 405.701 125.867C405.712 125.752 405.712 125.637 405.701 125.521C405.704 125.481 405.704 125.44 405.701 125.399V125.441C405.419 123.906 404.229 122.544 404.36 120.983C404.487 119.515 405.777 118.225 405.672 116.795C405.671 116.682 405.661 116.569 405.642 116.457V116.508C405.485 115.95 405.196 115.438 404.799 115.015C404.345 114.396 403.749 113.896 403.061 113.555C402.475 113.298 401.796 113.239 401.247 112.931C399.636 112.054 399.64 109.768 398.683 108.207C398.273 107.556 397.691 107.03 397.001 106.689C396.311 106.347 395.54 106.203 394.773 106.271C393.575 106.389 392.491 107.026 391.306 107.233C389.686 107.52 388.037 106.993 386.502 106.389C384.967 105.786 383.41 105.124 381.761 105.124C380.112 105.124 378.328 105.968 377.83 107.524C377.564 108.368 377.695 109.274 377.493 110.131C377.13 111.641 375.806 112.72 374.435 113.471C373.591 113.939 372.587 114.475 372.326 115.361C372.326 115.335 372.326 115.314 372.326 115.293C372.307 115.364 372.293 115.436 372.284 115.508C372.275 115.602 372.275 115.697 372.284 115.791C372.284 116.398 372.604 116.976 372.819 117.554C373.22 118.653 373.211 119.86 372.794 120.954C372.482 121.755 371.95 122.459 371.647 123.256C371.504 123.628 371.41 124.016 371.368 124.412V124.345C371.358 124.525 371.358 124.705 371.368 124.885C371.363 125.501 371.508 126.109 371.79 126.656C371.984 127.034 372.251 127.37 372.576 127.643C372.901 127.916 373.278 128.121 373.684 128.246C374.527 128.44 375.055 127.614 375.945 127.824C376.104 127.863 376.26 127.912 376.413 127.972C376.442 128.162 376.472 128.352 376.506 128.537C377.044 131.376 378.557 133.937 380.783 135.779C380.783 135.88 380.816 135.982 380.829 136.087C381.098 137.769 381.216 139.471 381.179 141.174C381.179 141.174 379.85 139.229 378.028 142.983C378.028 142.983 373.275 145.725 371.634 146.037C369.993 146.349 364.168 148.378 364.168 148.378C363.29 149.013 362.233 149.354 361.149 149.352C359.331 149.352 357.821 153.33 358.04 155.493C358.259 157.657 357.909 159.252 356.218 159.34C354.527 159.429 355.45 162.858 355.463 162.917L355.307 163.655C354.978 165.165 354.261 168.404 354.008 168.91C352.935 171.48 352.326 174.218 352.207 177C352.076 180.914 350.941 196.495 350.811 196.761C350.722 196.934 357.88 203.475 362.912 208.048L363.641 208.706L361.326 230.335C361.393 231.168 361.641 231.977 362.052 232.705C362.462 233.433 363.026 234.064 363.705 234.553C363.705 234.806 363.705 235.063 363.679 235.329C363.578 237.859 363.376 240.921 362.971 241.723C362.262 243.14 362.439 250.741 362.439 250.741C362.439 250.741 361.726 266.212 360.841 267.894C359.955 269.577 359.774 273.108 360.039 273.799C360.305 274.491 359.149 293.071 359.149 293.071L358.264 301.384C358.264 301.384 358.529 309.339 357.728 309.516C356.926 309.693 356.484 315.176 356.484 315.176C356.484 315.176 353.645 319.065 354.885 320.478C356.125 321.891 354.704 322.515 354.573 322.866C354.442 323.216 351.865 324.553 353.729 329.496C353.746 329.545 353.766 329.593 353.788 329.639C352.042 332.065 346.508 339.889 346.846 341.078C347.095 341.835 347.623 342.468 348.322 342.85C349.625 343.63 351.861 343.993 355.416 342.85C361.321 340.947 360.9 339.577 360.9 339.577C360.93 338.936 361.205 338.331 361.668 337.887C362.131 337.443 362.747 337.193 363.388 337.189C365.83 337.012 367.652 334.76 367.652 334.76L367.366 333.693L366.973 332.216C367.02 331.795 367.319 331.057 368.66 330.647C370.706 330.027 370.17 326.139 370.17 326.139C370.17 326.139 369.993 322.073 370.879 321.541C371.765 321.01 371.415 314.291 371.415 314.291C371.415 314.291 372.393 309.428 373.81 306.154C375.228 302.881 376.923 283.437 376.923 283.437C376.923 283.437 378.075 273.888 379.142 271.146C380.209 268.405 381.187 260.716 381.187 260.716C381.187 260.716 387.763 247.982 387.847 245.152C387.847 245.152 388.691 242.499 389.535 245.418C390.378 248.336 392.749 255.321 392.749 255.321L395.056 263.896L397.81 276.714L399.59 287.503C399.59 287.503 399.32 291.569 400.012 292.986C400.703 294.404 401.699 297.668 401.167 298.288C400.636 298.908 402.23 301.827 402.677 302.443C403.124 303.059 402.677 316.147 402.677 316.147C402.677 316.147 404.719 327.286 407.65 329.222C407.855 329.356 408.072 329.469 408.3 329.559C408.258 330.766 408.215 332.381 408.27 333.225C408.264 333.413 408.295 333.601 408.363 333.777C408.629 334.131 411.649 336.519 412.273 336.519C412.897 336.519 415.112 338.067 415.204 338.817C415.297 339.568 421.696 342.748 422.602 342.841C423.509 342.934 427.904 343.723 428.507 342.487C428.657 342.125 428.699 341.729 428.63 341.344ZM412.91 182.028L413.365 182.42C413.365 182.42 413.833 186.068 414.167 187.161C414.5 188.253 414.099 190.379 414.099 190.379C414.13 191.172 414.288 191.956 414.567 192.699C414.964 193.496 413.766 195.23 413.766 195.23H412.699L412.366 181.572L412.91 182.028ZM381.179 141.25V141.17C381.171 141.195 381.166 141.224 381.166 141.25H381.179ZM364.793 193.825C364.629 193.472 364.604 193.069 364.725 192.699C364.82 192.499 364.895 192.29 364.949 192.075C365.08 191.521 365.162 190.956 365.193 190.388C365.194 190.381 365.194 190.373 365.193 190.366C365.155 190.164 364.814 188.207 365.13 187.169C365.446 186.132 365.927 182.428 365.927 182.428L366.231 182.171L366.935 181.56C366.935 181.56 366.935 181.332 366.986 180.956C367.134 184.162 367.252 187.705 367.062 187.882C366.708 188.232 365.417 191.678 365.729 191.813C365.83 191.86 365.691 193.239 365.455 195.095C365.19 194.696 364.968 194.271 364.793 193.825V193.825Z" fill="url(#paint1_linear)"/>
<path d="M398.788 144.62V149.867L388.024 155.278C388.024 155.278 377.336 148.812 379.972 146.239C381.66 144.611 381.335 140.14 380.879 137.066C380.614 135.277 380.306 133.966 380.306 133.966C380.306 133.966 399.505 128.482 396.603 132.645C395.633 134.037 395.557 135.838 395.882 137.622C396.54 141.161 398.788 144.62 398.788 144.62Z" fill="#F47920"/>
<path d="M369.301 195.93L367.914 213.02C367.914 213.02 365.834 211.135 363.143 208.68C358.154 204.129 351.068 197.621 351.152 197.448C351.283 197.182 352.417 181.678 352.54 177.78C352.655 175.014 353.258 172.29 354.32 169.733C354.573 169.226 355.286 166.004 355.585 164.498C355.686 164.03 355.75 163.726 355.75 163.726L358.078 162.79C358.078 162.79 367.779 173.613 367.779 173.811C367.779 174.009 367.117 182.323 367.117 182.323L366.429 182.922L366.13 183.179C366.13 183.179 365.666 186.811 365.337 187.899C365.008 188.987 365.362 190.877 365.4 191.079C365.369 191.647 365.288 192.212 365.16 192.766C365.104 192.979 365.03 193.187 364.936 193.386C364.817 193.755 364.841 194.156 365.003 194.508C365.191 194.997 365.434 195.463 365.729 195.896L369.301 195.93Z" fill="#13263D"/>
<path d="M428.094 197.448C428.195 197.655 417.849 207.099 413.365 211.177L411.332 213.021L409.957 195.93H413.521C413.521 195.93 414.711 194.213 414.314 193.42C414.038 192.681 413.883 191.902 413.855 191.113C413.855 191.113 414.247 189.004 413.918 187.912C413.589 186.819 413.125 183.192 413.125 183.192L412.674 182.804L412.138 182.336C412.138 182.336 411.476 174.022 411.476 173.824C411.476 173.626 421.177 162.803 421.177 162.803L423.488 163.727C423.488 163.727 423.539 163.976 423.623 164.372C423.935 165.81 424.682 169.214 424.939 169.733C426.001 172.29 426.604 175.014 426.719 177.781C426.829 181.678 427.959 197.183 428.094 197.448Z" fill="#13263D"/>
<path d="M428.136 342.516C427.516 343.748 423.163 342.938 422.265 342.871C421.366 342.803 415.023 339.61 414.934 338.864C414.846 338.117 412.648 336.578 412.032 336.578C411.417 336.578 408.426 334.199 408.16 333.849C408.093 333.674 408.063 333.487 408.072 333.3C407.979 331.854 408.16 328.129 408.16 328.129L420.919 328.834L427.12 338.159C427.642 339.166 428.02 340.24 428.242 341.352C428.317 341.743 428.28 342.146 428.136 342.516V342.516Z" fill="#3F3D56"/>
<path opacity="0.1" d="M428.136 342.516C427.516 343.748 423.163 342.938 422.265 342.871C421.366 342.803 415.023 339.61 414.934 338.864C414.846 338.117 412.648 336.578 412.032 336.578C411.417 336.578 408.426 334.199 408.16 333.849C408.093 333.674 408.063 333.487 408.072 333.3C407.979 331.854 408.16 328.129 408.16 328.129L420.919 328.834L427.12 338.159C427.642 339.166 428.02 340.24 428.242 341.352C428.317 341.743 428.28 342.146 428.136 342.516V342.516Z" fill="#13263D"/>
<path opacity="0.1" d="M428.136 342.517C427.516 343.748 423.163 342.939 422.265 342.871C421.366 342.804 415.023 339.611 414.934 338.864C414.846 338.118 412.648 336.578 412.032 336.578C411.417 336.578 408.426 334.199 408.16 333.849C408.093 333.674 408.063 333.488 408.072 333.301L412.205 335.916C412.205 335.916 414.846 337.603 415.55 338.603C416.254 339.602 421.805 341.682 422.265 341.724C422.607 341.758 426.251 341.057 428.242 341.353C428.317 341.743 428.28 342.146 428.136 342.517V342.517Z" fill="black"/>
<path d="M367.821 334.819C367.821 334.819 366.016 337.063 363.603 337.236C362.966 337.24 362.356 337.489 361.897 337.931C361.439 338.373 361.168 338.974 361.14 339.61C361.14 339.61 361.562 340.977 355.728 342.871C352.206 344.005 349.992 343.647 348.701 342.871C348.009 342.489 347.486 341.859 347.238 341.108C346.841 339.703 354.627 329.011 354.627 329.011L361.713 328.589L366.775 330.875L367.551 333.773L367.821 334.819Z" fill="#3F3D56"/>
<path opacity="0.1" d="M367.821 334.819C367.821 334.819 366.016 337.063 363.603 337.236C362.966 337.24 362.356 337.489 361.897 337.931C361.439 338.373 361.168 338.974 361.14 339.61C361.14 339.61 361.562 340.977 355.728 342.871C352.206 344.005 349.992 343.647 348.701 342.871C348.009 342.489 347.486 341.859 347.238 341.108C346.841 339.703 354.627 329.011 354.627 329.011L361.713 328.589L366.775 330.875L367.551 333.773L367.821 334.819Z" fill="#13263D"/>
<path opacity="0.1" d="M367.821 334.819C367.821 334.819 366.016 337.063 363.603 337.236C362.967 337.24 362.356 337.489 361.898 337.931C361.439 338.373 361.168 338.974 361.14 339.61C361.14 339.61 361.562 340.977 355.729 342.871C352.207 344.005 349.992 343.647 348.702 342.871C352.021 342.525 359.356 340.428 360.09 339.703C360.971 338.821 362.072 336.4 362.819 336.358C363.338 336.325 365.974 334.739 367.555 333.756L367.821 334.819Z" fill="black"/>
<path d="M422.151 325.008C421.358 326.856 422.151 330.639 422.151 330.639C422.151 330.639 410.341 331.255 407.456 329.319C404.571 327.383 402.529 316.294 402.529 316.294C402.529 316.294 402.951 303.274 402.529 302.658C402.108 302.042 400.505 299.14 401.032 298.524C401.559 297.909 400.61 294.652 399.889 293.244C399.168 291.835 399.467 287.79 399.467 287.79L397.704 277.051L394.979 264.297L392.664 255.76C392.664 255.76 390.289 248.809 389.484 245.907C388.678 243.005 387.826 245.641 387.826 245.641C387.742 248.459 381.229 261.129 381.229 261.129C381.229 261.129 380.259 268.784 379.205 271.509C378.15 274.234 377.003 283.741 377.003 283.741C377.003 283.741 375.316 303.096 373.924 306.353C372.532 309.609 371.575 314.447 371.575 314.447C371.575 314.447 371.929 321.136 371.047 321.663C370.166 322.191 370.309 326.24 370.309 326.24C370.309 326.24 370.837 330.107 368.812 330.727C366.787 331.347 367.125 332.663 367.125 332.663C367.125 332.663 355.863 334.511 354.016 329.58C352.168 324.65 354.72 323.338 354.859 322.984C354.999 322.629 356.403 322.018 355.172 320.605C353.94 319.192 356.753 315.328 356.753 315.328C356.753 315.328 357.196 309.875 357.985 309.697C358.774 309.52 358.516 301.603 358.516 301.603L359.394 293.332C359.394 293.332 360.541 274.854 360.275 274.149C360.009 273.445 360.187 269.932 361.068 268.244C361.95 266.557 362.65 251.171 362.65 251.171C362.65 251.171 362.473 243.608 363.177 242.199C363.599 241.402 363.776 238.336 363.877 235.835C363.953 233.924 363.97 232.342 363.97 232.342L373.823 228.647L386.476 224.603L397.122 229.706L412.699 232.697L412.893 235.383L415.866 276.427L417.553 291.911C417.553 291.911 418.258 299.212 418.346 300.532C418.435 301.852 419.312 310.478 419.312 310.478C419.312 310.478 421.16 314.611 420.017 316.02C418.873 317.429 419.312 318.551 419.312 318.551C419.312 318.551 422.944 323.161 422.151 325.008Z" fill="#13263D"/>
<path opacity="0.1" d="M396.612 132.646C395.642 134.037 395.566 135.838 395.89 137.623C393.674 139.186 391.005 139.978 388.294 139.877C385.584 139.776 382.981 138.786 380.888 137.062V137.062C380.622 135.273 380.314 133.961 380.314 133.961C380.314 133.961 399.514 128.487 396.612 132.646Z" fill="black"/>
<path d="M401.1 127.263C401.1 129.708 400.375 132.097 399.017 134.129C397.659 136.162 395.729 137.746 393.471 138.681C391.212 139.616 388.728 139.861 386.33 139.384C383.933 138.907 381.731 137.73 380.003 136.002C378.274 134.274 377.097 132.072 376.621 129.674C376.144 127.277 376.388 124.792 377.324 122.534C378.259 120.276 379.843 118.346 381.875 116.988C383.908 115.63 386.297 114.905 388.741 114.905C390.366 114.897 391.977 115.212 393.48 115.83C394.983 116.448 396.348 117.358 397.497 118.507C398.646 119.657 399.556 121.022 400.175 122.525C400.793 124.028 401.107 125.638 401.1 127.263Z" fill="#F47920"/>
<path opacity="0.1" d="M403.672 147.8L399.623 219.904L377.627 215.286L373.27 186.381L377.585 147.577L380.833 147.994L386.56 148.724L392.233 149.074L398.383 148.391L403.672 147.8Z" fill="black"/>
<path d="M403.672 148.327L399.623 220.431L377.627 215.813L373.27 186.908L377.585 148.108L380.833 148.522L386.56 149.251L392.233 149.601L398.383 148.918L403.672 148.327Z" fill="#023E88"/>
<path d="M385.591 150.263L393.512 150.529L391.285 153.646C391.285 153.646 391.441 159.943 392.499 161.748C393.558 163.554 393.246 191.442 393.246 191.442L391.137 195.445L387.531 190.957L387.577 154.135L385.591 150.263Z" fill="#13263D"/>
<path opacity="0.1" d="M385.591 150.263L393.512 150.529L391.285 153.646C391.285 153.646 391.441 159.943 392.499 161.748C393.558 163.554 393.246 191.442 393.246 191.442L391.137 195.445L387.531 190.957L387.577 154.135L385.591 150.263Z" fill="#023E88"/>
<path opacity="0.1" d="M397.995 142.081L390.606 150.263L394.828 154.663L401.825 147.842L397.995 142.081Z" fill="black"/>
<path d="M397.995 141.553L390.606 149.736L394.828 154.135L401.825 147.315L397.995 141.553Z" fill="#023E88"/>
<path opacity="0.1" d="M387.484 149.867L380.002 142.389L379.298 146.303L382.731 154.882L387.484 149.867Z" fill="black"/>
<path d="M387.746 149.34L380.268 141.861L379.563 145.775L382.997 154.355L387.746 149.34Z" fill="#023E88"/>
<path opacity="0.1" d="M412.931 235.396C409.339 237.107 405.493 238.22 401.542 238.69C394.283 239.614 389.534 230.377 389.534 230.377L386.763 233.983C385.882 237.813 372.465 238.779 367.011 237.328C365.879 237.048 364.815 236.545 363.881 235.848C363.957 233.937 363.974 232.355 363.974 232.355L373.827 228.66L386.481 224.615L397.126 229.719L412.703 232.71L412.931 235.396Z" fill="black"/>
<path opacity="0.1" d="M403.673 148.332L399.628 220.431L377.627 215.813L373.262 186.912L377.573 148.108L380.82 148.53C380.737 149.943 380.578 151.351 380.344 152.748C379.816 155.215 383.073 172.723 383.073 172.723C383.073 172.723 389.26 192.357 392.044 189.527C394.828 186.697 398.793 171.753 398.793 171.753C401.479 166.211 398.839 150.664 398.641 150.352C398.503 149.892 398.418 149.418 398.388 148.939L403.673 148.332Z" fill="black"/>
<path opacity="0.1" d="M413.175 204.125L413.361 211.19L411.328 213.033L409.957 195.93H412.994L413.175 204.125Z" fill="black"/>
<path opacity="0.1" d="M365.404 191.092C365.373 191.66 365.293 192.225 365.164 192.779C365.164 192.623 365.164 192.535 365.13 192.522C365.003 192.488 365.155 191.843 365.404 191.092Z" fill="black"/>
<path opacity="0.1" d="M369.302 195.93L367.914 213.021C367.914 213.021 365.835 211.135 363.144 208.68L363.464 205.652C363.464 205.652 364.599 198.212 365.012 194.542C365.199 195.031 365.443 195.497 365.738 195.93H369.302Z" fill="black"/>
<path d="M381.234 142.123C381.234 142.123 379.918 140.187 378.113 143.924C378.113 143.924 373.405 146.653 371.786 146.961C370.166 147.269 364.405 149.293 364.405 149.293C363.534 149.922 362.488 150.26 361.414 150.259C359.609 150.259 358.112 154.22 358.331 156.375C358.55 158.53 358.2 160.116 356.53 160.205C354.86 160.293 355.779 163.765 355.779 163.765L366.91 176.524C366.91 176.524 367.614 188.27 367.264 188.625C366.914 188.979 365.636 192.421 365.944 192.539C366.252 192.657 364.257 205.648 364.257 205.648L361.574 230.858C361.574 230.858 361.574 235.076 367.032 236.531C372.49 237.986 385.916 237.024 386.78 233.194L389.551 229.584C389.551 229.584 394.301 238.825 401.56 237.902C408.818 236.978 413.441 234.338 413.441 234.338L412.648 204.125L412.121 182.348L423.454 163.727C423.454 163.727 420.417 157.919 420.683 155.291C420.949 152.663 421.472 150.673 415.006 149.749C415.006 149.749 409.552 148.935 406.338 146.712C404.428 145.386 402.341 144.335 400.138 143.591C400.138 143.591 398.324 140.217 397.063 141.372C397.063 141.372 398.329 146.143 398.223 146.855C398.118 147.568 398.421 150.791 398.62 151.124C398.818 151.457 401.458 166.983 398.771 172.525C398.771 172.525 394.828 187.469 392.023 190.299C389.218 193.129 383.052 173.495 383.052 173.495C383.052 173.495 379.795 155.983 380.323 153.52C380.85 151.056 381.234 142.123 381.234 142.123Z" fill="#13263D"/>
<path d="M390.648 199.802C391.717 199.802 392.584 198.935 392.584 197.866C392.584 196.796 391.717 195.93 390.648 195.93C389.579 195.93 388.712 196.796 388.712 197.866C388.712 198.935 389.579 199.802 390.648 199.802Z" fill="#3F3D56"/>
<path d="M390.648 208.929C391.717 208.929 392.584 208.062 392.584 206.993C392.584 205.924 391.717 205.057 390.648 205.057C389.579 205.057 388.712 205.924 388.712 206.993C388.712 208.062 389.579 208.929 390.648 208.929Z" fill="#3F3D56"/>
<path opacity="0.1" d="M390.648 199.802C391.717 199.802 392.584 198.935 392.584 197.866C392.584 196.796 391.717 195.93 390.648 195.93C389.579 195.93 388.712 196.796 388.712 197.866C388.712 198.935 389.579 199.802 390.648 199.802Z" fill="black"/>
<path opacity="0.1" d="M390.648 208.929C391.717 208.929 392.584 208.062 392.584 206.993C392.584 205.924 391.717 205.057 390.648 205.057C389.579 205.057 388.712 205.924 388.712 206.993C388.712 208.062 389.579 208.929 390.648 208.929Z" fill="black"/>
<path opacity="0.1" d="M408.046 322.368C408.046 322.368 415.993 322.984 416.782 323.6C417.57 324.215 408.046 322.368 408.046 322.368Z" fill="black" stroke="#6C63FF" stroke-miterlimit="10"/>
<path opacity="0.1" d="M360.735 316.122C360.735 316.122 362.422 318.23 361.705 319.201C360.988 320.171 360.735 316.122 360.735 316.122Z" fill="black" stroke="#6C63FF" stroke-miterlimit="10"/>
<path opacity="0.1" d="M362.759 323.726C362.759 323.726 365.838 321.701 367.07 323.047C368.302 324.392 362.759 323.726 362.759 323.726Z" fill="black" stroke="#6C63FF" stroke-miterlimit="10"/>
<path opacity="0.1" d="M401.1 127.264C401.102 128.318 400.969 129.369 400.703 130.389C400.443 130.27 400.225 130.075 400.079 129.829C399.933 129.584 399.865 129.299 399.885 129.014C399.94 128.512 400.273 128.052 400.201 127.555C400.096 126.787 399.168 126.475 398.679 125.867C398.075 125.134 398.206 124.066 398.257 123.117C398.307 122.168 398.067 121.009 397.177 120.684C396.911 120.587 396.62 120.578 396.363 120.469C395.663 120.173 395.448 119.305 394.98 118.706C394.043 117.499 392.183 117.525 390.762 118.098C390.143 118.395 389.51 118.66 388.864 118.891C388.54 119.005 388.197 119.051 387.855 119.026C387.513 119 387.18 118.904 386.877 118.744C386.599 118.566 386.375 118.322 386.088 118.145C385.135 117.571 383.887 118.145 383.06 118.883C382.233 119.621 381.571 120.612 380.529 121.063C380.061 121.274 379.483 121.401 379.264 121.856C379.155 122.104 379.109 122.375 379.129 122.645C379.129 124.286 379.323 125.952 378.981 127.559C378.762 128.592 378.037 129.765 376.986 129.638C376.855 129.619 376.727 129.586 376.602 129.541C376.286 127.852 376.326 126.115 376.719 124.442C377.112 122.769 377.85 121.196 378.885 119.824C379.92 118.453 381.23 117.312 382.731 116.475C384.232 115.638 385.891 115.123 387.602 114.963C389.313 114.803 391.039 115.003 392.669 115.547C394.299 116.092 395.797 116.971 397.068 118.128C398.339 119.285 399.355 120.694 400.05 122.266C400.746 123.837 401.106 125.537 401.108 127.255L401.1 127.264Z" fill="black"/>
<path d="M376.05 128.841C376.366 128.913 376.666 129.077 376.99 129.12C378.041 129.246 378.766 128.074 378.985 127.04C379.327 125.433 379.15 123.767 379.137 122.126C379.114 121.857 379.159 121.585 379.268 121.338C379.508 120.882 380.086 120.756 380.533 120.545C381.554 120.089 382.221 119.119 383.064 118.364C383.908 117.609 385.135 117.052 386.088 117.626C386.371 117.795 386.599 118.048 386.877 118.225C387.182 118.383 387.515 118.478 387.857 118.503C388.199 118.529 388.543 118.484 388.868 118.373C389.522 118.179 390.133 117.837 390.762 117.58C392.17 117.006 394.035 116.985 394.979 118.183C395.448 118.786 395.663 119.651 396.363 119.946C396.62 120.055 396.911 120.068 397.177 120.165C398.067 120.498 398.295 121.65 398.257 122.599C398.219 123.548 398.092 124.615 398.679 125.349C399.168 125.948 400.096 126.26 400.201 127.036C400.269 127.534 399.94 127.998 399.885 128.495C399.872 128.68 399.897 128.866 399.956 129.042C400.016 129.217 400.11 129.379 400.233 129.518C400.356 129.657 400.505 129.77 400.672 129.851C400.839 129.931 401.02 129.978 401.205 129.988C402.302 129.988 402.981 128.761 404.006 128.369C404.427 128.204 404.938 128.179 405.271 127.846C405.395 127.686 405.482 127.5 405.528 127.303C405.573 127.106 405.574 126.901 405.532 126.703C405.326 125.087 404.031 123.683 404.17 122.063C404.301 120.511 405.739 119.157 405.435 117.63C405.281 117.067 404.991 116.55 404.592 116.124C404.14 115.512 403.55 115.013 402.871 114.669C402.285 114.416 401.606 114.357 401.07 114.049C399.476 113.176 399.48 110.899 398.539 109.346C398.136 108.705 397.563 108.187 396.885 107.849C396.206 107.511 395.448 107.367 394.693 107.432C393.507 107.55 392.432 108.178 391.259 108.389C389.652 108.676 388.024 108.149 386.502 107.545C384.979 106.942 383.439 106.28 381.807 106.28C380.175 106.28 378.408 107.124 377.91 108.667C377.648 109.511 377.779 110.414 377.577 111.261C377.222 112.767 375.89 113.838 374.548 114.585C373.625 115.1 372.515 115.69 372.406 116.74C372.334 117.407 372.701 118.006 372.933 118.651C373.327 119.743 373.318 120.94 372.908 122.025C372.6 122.822 372.085 123.523 371.773 124.315C371.551 124.854 371.447 125.433 371.466 126.014C371.484 126.596 371.627 127.167 371.883 127.69C372.079 128.071 372.352 128.408 372.683 128.68C373.014 128.952 373.398 129.153 373.81 129.271C374.641 129.47 375.164 128.647 376.05 128.841Z" fill="#13263D"/>
<g opacity="0.1">
<path opacity="0.1" d="M378.985 126.12C378.766 127.154 378.036 128.326 376.986 128.2C376.661 128.158 376.366 127.993 376.046 127.922C375.164 127.727 374.641 128.554 373.81 128.343C373.397 128.225 373.013 128.024 372.681 127.752C372.349 127.48 372.076 127.143 371.878 126.762C371.658 126.332 371.524 125.864 371.486 125.382C371.402 126.129 371.538 126.884 371.878 127.555C372.076 127.936 372.349 128.273 372.681 128.545C373.013 128.817 373.397 129.018 373.81 129.136C374.654 129.33 375.164 128.504 376.046 128.714C376.354 128.822 376.668 128.913 376.986 128.989C378.036 129.119 378.766 127.947 378.985 126.913C379.158 126 379.226 125.071 379.188 124.142C379.184 124.807 379.116 125.469 378.985 126.12V126.12Z" fill="black"/>
<path opacity="0.1" d="M373.207 119.768C373.261 119.077 373.166 118.382 372.929 117.731C372.738 117.298 372.576 116.853 372.444 116.398C372.425 116.469 372.411 116.541 372.401 116.613C372.33 117.275 372.701 117.879 372.929 118.524C373.076 118.925 373.169 119.343 373.207 119.768V119.768Z" fill="black"/>
<path opacity="0.1" d="M405.431 117.545C405.233 118.743 404.263 119.869 404.166 121.131C404.142 121.346 404.142 121.564 404.166 121.78C404.377 120.308 405.68 119.005 405.431 117.545Z" fill="black"/>
<path opacity="0.1" d="M405.503 126.445C405.467 126.621 405.384 126.785 405.262 126.917C404.95 127.251 404.419 127.276 403.997 127.44C402.972 127.833 402.31 129.073 401.196 129.06C400.911 129.044 400.638 128.942 400.412 128.767C400.186 128.592 400.018 128.353 399.931 128.082C399.905 128.173 399.886 128.266 399.872 128.36C399.86 128.545 399.885 128.73 399.945 128.905C400.005 129.08 400.099 129.241 400.222 129.38C400.344 129.518 400.493 129.631 400.66 129.711C400.827 129.792 401.007 129.839 401.192 129.849C402.293 129.849 402.968 128.621 403.993 128.233C404.415 128.069 404.929 128.044 405.258 127.71C405.382 127.55 405.47 127.365 405.515 127.168C405.56 126.97 405.562 126.765 405.52 126.567C405.516 126.517 405.507 126.483 405.503 126.445Z" fill="black"/>
<path opacity="0.1" d="M400.214 126.095C400.108 125.327 399.18 125.015 398.691 124.408C398.391 124.009 398.228 123.524 398.227 123.024C398.193 123.809 398.206 124.61 398.691 125.201C399.176 125.791 399.914 126.044 400.15 126.652C400.21 126.473 400.232 126.283 400.214 126.095V126.095Z" fill="black"/>
<path opacity="0.1" d="M398.253 121.679C398.286 120.73 398.058 119.57 397.169 119.245C396.907 119.148 396.616 119.136 396.359 119.03C395.659 118.735 395.439 117.866 394.975 117.267C394.035 116.065 392.175 116.086 390.757 116.66C390.125 116.917 389.522 117.259 388.864 117.453C388.54 117.567 388.197 117.613 387.855 117.587C387.513 117.562 387.18 117.466 386.877 117.305C386.599 117.128 386.371 116.883 386.088 116.706C385.131 116.133 383.882 116.706 383.06 117.444C382.237 118.182 381.571 119.169 380.529 119.625C380.057 119.836 379.483 119.962 379.238 120.418C379.131 120.666 379.086 120.937 379.108 121.207C379.108 121.371 379.108 121.536 379.108 121.7C379.113 121.53 379.155 121.363 379.23 121.211C379.475 120.755 380.048 120.629 380.521 120.418C381.541 119.962 382.208 118.992 383.051 118.237C383.895 117.482 385.122 116.926 386.08 117.499C386.362 117.668 386.59 117.921 386.869 118.094C387.171 118.255 387.504 118.352 387.846 118.377C388.188 118.403 388.532 118.357 388.855 118.241C389.5 118.012 390.132 117.749 390.749 117.453C392.162 116.879 394.022 116.854 394.967 118.056C395.431 118.655 395.65 119.524 396.35 119.819C396.608 119.929 396.899 119.941 397.16 120.038C397.881 120.308 398.168 121.118 398.231 121.919L398.253 121.679Z" fill="black"/>
</g>
<path d="M52.7529 192.834H50.3572V246.78H52.7529V192.834Z" fill="#13263D"/>
<path d="M67.8105 246.616L67.6587 249.045L67.4478 252.474L67.3592 253.904L67.1483 257.337L67.0556 258.767L66.8447 262.196L64.4278 301.199C64.3247 302.877 63.5853 304.453 62.3603 305.605C61.1353 306.757 59.517 307.399 57.8354 307.399H45.2747C43.5934 307.399 41.9756 306.757 40.7513 305.605C39.527 304.453 38.7885 302.877 38.6864 301.199L36.2569 262.196L36.046 258.767L35.9575 257.337L35.7508 253.896L35.6622 252.466L35.4513 249.037L35.2995 246.607C35.2707 246.141 35.3377 245.674 35.4964 245.234C35.6551 244.795 35.9021 244.393 36.2222 244.052C36.5423 243.712 36.9287 243.441 37.3576 243.256C37.7865 243.071 38.2488 242.975 38.7159 242.976H64.3983C64.8661 242.975 65.3289 243.071 65.7582 243.257C66.1875 243.442 66.574 243.714 66.8939 244.055C67.2138 244.397 67.4602 244.8 67.6179 245.24C67.7756 245.681 67.8411 246.149 67.8105 246.616V246.616Z" fill="#023E88"/>
<path d="M67.6586 249.045L67.4477 252.474H35.6579L35.447 249.045H67.6586Z" fill="#9D9CB5"/>
<path d="M67.3593 253.904L67.1484 257.337H35.9617L35.7466 253.904H67.3593Z" fill="#9D9CB5"/>
<path d="M67.0556 258.767L66.8447 262.196H36.2654L36.0503 258.767H67.0556Z" fill="#9D9CB5"/>
<path d="M31.7902 213.054C45.7428 223.148 51.555 238.939 51.555 238.939C51.555 238.939 34.7385 238.361 20.7648 228.268C6.79109 218.175 1 202.383 1 202.383C1 202.383 17.8334 202.961 31.7902 213.054Z" fill="#F47920"/>
<path d="M1.02124 202.383C1.02124 202.383 18.4746 212.084 24.0717 220.098C29.6688 228.112 51.5551 238.943 51.5551 238.943" stroke="#13263D" stroke-width="2" stroke-miterlimit="10"/>
<path d="M40.7951 192.737C48.3872 198.22 51.5548 206.824 51.5548 206.824C51.5548 206.824 42.4021 206.512 34.8058 201.017C27.2095 195.521 24.0503 186.929 24.0503 186.929C24.0503 186.929 33.203 187.22 40.7951 192.737Z" fill="#F47920"/>
<path d="M24.0503 186.908C24.0503 186.908 33.5489 192.18 36.5941 196.546C39.6394 200.911 51.5548 206.803 51.5548 206.803" stroke="#13263D" stroke-width="2" stroke-miterlimit="10"/>
<path d="M62.5931 206.369C53.8664 215.956 52.0232 228.483 52.0232 228.483C52.0232 228.483 64.3224 225.467 73.0449 215.88C81.7674 206.293 83.6148 193.762 83.6148 193.762C83.6148 193.762 71.3156 196.778 62.5931 206.369Z" fill="#F47920"/>
<path d="M83.6148 193.762C83.6148 193.762 72.2519 203.59 69.3627 210.363C66.4735 217.137 52.0232 228.5 52.0232 228.5" stroke="#13263D" stroke-width="2" stroke-miterlimit="10"/>
<defs>
<linearGradient id="paint0_linear" x1="250.215" y1="272.505" x2="250.215" y2="45.4458" gradientUnits="userSpaceOnUse">
<stop stop-color="#808080" stop-opacity="0.25"/>
<stop offset="0.54" stop-color="#808080" stop-opacity="0.12"/>
<stop offset="1" stop-color="#808080" stop-opacity="0.1"/>
</linearGradient>
<linearGradient id="paint1_linear" x1="77623.1" y1="203904" x2="77623.1" y2="69087.2" gradientUnits="userSpaceOnUse">
<stop stop-color="#808080" stop-opacity="0.25"/>
<stop offset="0.54" stop-color="#808080" stop-opacity="0.12"/>
<stop offset="1" stop-color="#808080" stop-opacity="0.1"/>
</linearGradient>
</defs>
</svg>
