<svg width="677" height="343" viewBox="0 0 677 343" fill="none" xmlns="http://www.w3.org/2000/svg">
<path d="M0 0H677V334.5L0 227V0Z" fill="url(#paint0_linear)"/>
<path d="M482.981 202.892C482.981 249.903 455.419 291.493 413.168 316.811C386.078 333.046 352.945 342.593 317.171 342.593C269.513 342.593 233.159 324.581 205.812 296.989C180.606 271.564 163.055 237.997 151.361 202.892C99.1541 46.1523 186.366 3.39175 317.171 63.1904C400.455 101.269 482.981 125.739 482.981 202.892Z" fill="white" fill-opacity="0.3"/>
<path d="M413.168 120.838V317.182C386.078 333.418 352.946 342.964 317.171 342.964C269.513 342.964 233.159 324.953 205.812 297.361V120.838H413.168Z" fill="#F2F2F2"/>
<path d="M225.757 216.508C236.613 213.055 247.878 211.046 259.259 210.535C264.962 210.292 270.675 210.516 276.342 211.203C281.954 211.946 287.498 213.133 292.921 214.753C298.28 216.305 303.565 218.097 308.906 219.708C314.331 221.365 319.847 222.711 325.425 223.739C330.975 224.743 336.58 225.411 342.211 225.74C347.786 226.064 353.416 226.127 358.975 225.533C364.168 225.033 369.255 223.744 374.059 221.709C378.539 219.754 382.68 217.098 386.326 213.841C387.236 213.029 388.111 212.181 388.952 211.298C389.448 210.779 388.66 209.99 388.163 210.509C381.056 217.938 371.715 222.545 361.583 224.083C356.064 224.921 350.439 224.97 344.871 224.754C339.178 224.534 333.505 223.961 327.883 223.037C322.33 222.116 316.836 220.866 311.43 219.292C306.121 217.754 300.884 215.981 295.593 214.382C290.256 212.706 284.807 211.407 279.287 210.497C273.752 209.654 268.157 209.265 262.558 209.336C251.371 209.514 240.255 211.161 229.496 214.232C228.144 214.611 226.799 215.012 225.46 215.433C224.778 215.647 225.069 216.723 225.757 216.508H225.757Z" fill="#F47920"/>
<path d="M225.757 244.75C236.613 241.297 247.878 239.288 259.259 238.777C264.962 238.534 270.675 238.758 276.342 239.445C281.954 240.188 287.498 241.375 292.921 242.995C298.28 244.547 303.565 246.339 308.906 247.95C314.331 249.607 319.847 250.953 325.425 251.981C330.975 252.985 336.58 253.653 342.211 253.982C347.786 254.306 353.416 254.369 358.975 253.775C364.168 253.275 369.255 251.986 374.059 249.951C378.539 247.996 382.68 245.34 386.326 242.083C387.236 241.271 388.111 240.423 388.952 239.54C389.448 239.021 388.66 238.232 388.163 238.751C381.056 246.18 371.715 250.787 361.583 252.325C356.064 253.163 350.439 253.212 344.871 252.996C339.178 252.776 333.505 252.203 327.883 251.279C322.33 250.358 316.836 249.108 311.43 247.534C306.121 245.996 300.884 244.223 295.593 242.623C290.256 240.948 284.807 239.649 279.287 238.739C273.752 237.896 268.157 237.507 262.558 237.578C251.371 237.756 240.255 239.403 229.496 242.474C228.144 242.853 226.799 243.254 225.46 243.675C224.778 243.889 225.069 244.965 225.757 244.75H225.757Z" fill="#F47920"/>
<path d="M225.757 190.867C236.613 187.414 247.878 185.406 259.259 184.894C264.962 184.652 270.675 184.875 276.342 185.563C281.954 186.305 287.498 187.492 292.921 189.112C298.28 190.664 303.565 192.456 308.906 194.067C314.331 195.724 319.847 197.07 325.425 198.098C330.975 199.103 336.58 199.771 342.211 200.099C347.786 200.423 353.416 200.486 358.975 199.892C364.168 199.392 369.255 198.103 374.059 196.069C378.539 194.113 382.68 191.457 386.326 188.201C387.236 187.388 388.111 186.541 388.952 185.657C389.448 185.138 388.66 184.349 388.163 184.869C381.056 192.298 371.715 196.904 361.583 198.442C356.064 199.28 350.439 199.329 344.871 199.113C339.178 198.893 333.505 198.32 327.883 197.396C322.33 196.475 316.836 195.225 311.43 193.651C306.121 192.113 300.884 190.34 295.593 188.741C290.256 187.065 284.807 185.767 279.287 184.856C273.752 184.013 268.157 183.625 262.558 183.695C251.371 183.874 240.255 185.52 229.496 188.591C228.144 188.97 226.799 189.371 225.46 189.792C224.778 190.006 225.069 191.083 225.757 190.867H225.757Z" fill="#F47920"/>
<path d="M224.428 142.388C227.125 141.193 230.215 141.401 233.014 142.094C236.033 142.841 238.875 144.141 241.846 145.039C247.165 146.624 252.814 146.731 258.189 145.349C261.214 144.577 264.102 143.339 266.747 141.68C267.353 141.3 266.794 140.335 266.185 140.718C261.469 143.662 256.018 145.216 250.458 145.201C247.67 145.197 244.897 144.789 242.226 143.989C239.277 143.105 236.457 141.821 233.469 141.059C230.303 140.252 226.908 140.077 223.865 141.425C223.211 141.715 223.777 142.676 224.428 142.388Z" fill="#F47920"/>
<path d="M307.26 313.329C316.701 313.329 324.354 305.676 324.354 296.235C324.354 286.795 316.701 279.141 307.26 279.141C297.82 279.141 290.167 286.795 290.167 296.235C290.167 305.676 297.82 313.329 307.26 313.329Z" fill="#F47920"/>
<path d="M215.102 85.9067C220.233 85.9067 224.393 81.7473 224.393 76.6165C224.393 71.4857 220.233 67.3264 215.102 67.3264C209.972 67.3264 205.812 71.4857 205.812 76.6165C205.812 81.7473 209.972 85.9067 215.102 85.9067Z" fill="#FFA667"/>
<path d="M296.484 109.318C299.973 109.318 302.801 106.489 302.801 103C302.801 99.5115 299.973 96.6832 296.484 96.6832C292.995 96.6832 290.167 99.5115 290.167 103C290.167 106.489 292.995 109.318 296.484 109.318Z" fill="#FFA667"/>
<path d="M193.921 169.889C197.41 169.889 200.238 167.061 200.238 163.572C200.238 160.083 197.41 157.255 193.921 157.255C190.432 157.255 187.604 160.083 187.604 163.572C187.604 167.061 190.432 169.889 193.921 169.889Z" fill="#FFA667"/>
<path d="M168.486 116.641H167.79V241.22H168.486V116.641Z" fill="#F47920"/>
<path d="M168.272 230.543C175.775 230.543 181.857 216.664 181.857 199.542C181.857 182.421 175.775 168.542 168.272 168.542C160.77 168.542 154.688 182.421 154.688 199.542C154.688 216.664 160.77 230.543 168.272 230.543Z" fill="#F47920"/>
<path d="M168.272 159.833C175.775 159.833 181.857 145.954 181.857 128.833C181.857 111.711 175.775 97.8317 168.272 97.8317C160.77 97.8317 154.688 111.711 154.688 128.833C154.688 145.954 160.77 159.833 168.272 159.833Z" fill="#F47920"/>
<path d="M168.606 103.505L167.939 103.305C167.981 103.164 172.076 89.1292 165.351 80.0942C161.553 74.9914 155.036 72.404 145.979 72.404V71.7073C155.269 71.7073 161.976 74.39 165.912 79.6809C172.845 88.9991 168.649 103.361 168.606 103.505Z" fill="#F47920"/>
<path d="M145.979 80.7638C150.789 80.7638 154.687 76.865 154.687 72.0557C154.687 67.2463 150.789 63.3475 145.979 63.3475C141.17 63.3475 137.271 67.2463 137.271 72.0557C137.271 76.865 141.17 80.7638 145.979 80.7638Z" fill="#F47920"/>
<path d="M422.41 269.45L415.895 329.39H460.85L462.804 324.829L465.411 329.39H507.759C507.759 329.39 504.502 267.496 498.638 265.541C492.774 263.586 422.41 269.45 422.41 269.45Z" fill="#023E88"/>
<path d="M460.85 137.844C473.444 137.844 483.653 127.634 483.653 115.041C483.653 102.447 473.444 92.2374 460.85 92.2374C448.256 92.2374 438.047 102.447 438.047 115.041C438.047 127.634 448.256 137.844 460.85 137.844Z" fill="#FFA667"/>
<path d="M447.82 129.374C447.82 129.374 449.775 150.222 447.82 151.525C445.865 152.828 479.093 152.177 479.093 152.177C479.093 152.177 474.532 133.283 479.093 124.162L447.82 129.374Z" fill="#FFA667"/>
<path d="M459.547 146.965C459.547 146.965 476.311 149.576 477.702 144.361L486.259 156.086L486.911 273.359C486.911 273.359 417.198 281.829 414.592 268.147C411.986 254.465 441.304 146.313 441.304 146.313L448.685 145.835C448.685 145.835 458.244 146.965 459.547 146.965Z" fill="#D0CDE1"/>
<path d="M448.575 140.485L437.396 144.359L405.471 152.177L406.774 230.359C406.774 230.359 379.411 308.541 391.79 314.405C404.168 320.268 421.759 306.586 426.971 296.814C432.184 287.041 450.426 151.525 450.426 148.919C450.426 146.313 448.575 140.485 448.575 140.485Z" fill="#13263D"/>
<path d="M477.283 140.485L481.699 144.359L512.972 158.692L497.335 237.526C497.335 237.526 518.184 309.193 510.366 313.102C502.547 317.011 490.82 328.087 488.214 321.571C485.608 315.056 470.262 147.687 477.283 140.485Z" fill="#13263D"/>
<path d="M495.381 244.692C495.381 244.692 466.062 232.314 465.411 243.389C464.759 254.465 498.638 262.283 498.638 259.026C498.638 255.768 495.381 244.692 495.381 244.692Z" fill="#FFA667"/>
<path d="M423.714 240.132C423.714 240.132 457.593 265.541 444.562 272.056C431.532 278.571 414.593 249.253 414.593 249.253L423.714 240.132Z" fill="#FFA667"/>
<path d="M470.974 81.6375C471.081 81.4108 471.253 81.2212 471.469 81.0933C471.685 80.9653 471.934 80.9047 472.184 80.9193C461.744 80.2948 450.748 81.5116 442.014 87.2645C439.568 88.8757 437.284 90.8459 434.499 91.7539L436.76 93.5265L434.059 94.3498L438.034 96.9185C437.632 97.3748 437.117 97.7168 436.541 97.9098C435.965 98.1029 435.348 98.1401 434.753 98.0176C436.48 98.5223 437.752 100.059 438.398 101.739C439.044 103.419 439.16 105.248 439.269 107.044C439.936 104.452 442.765 102.927 445.437 102.772C448.109 102.617 450.714 103.498 453.314 104.132C458.978 105.508 464.86 105.734 470.612 104.797C468.659 108.717 470.306 113.393 471.964 117.447L475.275 125.541C477.113 125.726 478.412 123.898 479.797 122.675C481.059 121.561 476.034 131.362 476.812 131.003C477.823 130.536 488.489 118.761 488.988 117.766C491.267 113.227 492.634 108.164 492.428 103.09C492.223 98.0152 490.366 92.9381 486.868 89.2558C484.493 86.756 481.208 86.3182 478.787 84.2405C477.834 83.4227 477.831 82.7839 476.521 82.3071C476.087 82.1488 471.046 81.4779 470.974 81.6375Z" fill="#13263D"/>
<path d="M410.032 154.132L405.472 152.177L368.987 212.117C368.987 212.117 362.471 227.753 374.199 234.92C385.926 242.086 413.29 263.586 413.29 263.586L428.926 239.48C428.926 239.48 397.002 224.495 398.956 218.632C400.911 212.768 411.335 197.132 411.335 197.132L410.032 154.132Z" fill="#13263D"/>
<path d="M504.502 157.389L512.972 158.692C512.972 158.692 548.154 227.753 539.684 240.783C531.214 253.814 496.684 272.056 496.684 272.056C496.684 272.056 496.032 250.556 490.169 242.738L510.366 234.92L499.29 191.92L504.502 157.389Z" fill="#13263D"/>
<defs>
<linearGradient id="paint0_linear" x1="165.875" y1="15.7314" x2="377.91" y2="353.835" gradientUnits="userSpaceOnUse">
<stop offset="0.237423" stop-color="#023E88"/>
<stop offset="1" stop-color="#0256BD"/>
</linearGradient>
</defs>
</svg>
