<svg width="60" height="54" viewBox="0 0 60 54" fill="none" xmlns="http://www.w3.org/2000/svg">
<path fill-rule="evenodd" clip-rule="evenodd" d="M32.2074 38.4031C32.2074 37.9723 32.7648 37.4022 33.1956 37.4022C33.9178 37.4022 34.488 38.4158 33.8545 39.0619C33.221 39.6954 32.2074 39.1126 32.2074 38.4031ZM6.94317 5.95495C7.60201 5.7649 7.01919 5.67621 8.18484 4.95401C8.59028 4.71328 9.31248 4.51056 9.90797 4.45988V2.97748H56.4833V35.1722H27.7475V41.6213H58.0924C58.8146 41.6213 59.4481 40.9751 59.4481 40.2529V1.36837C59.4481 0.646175 58.8146 0 58.0924 0H8.29887C6.9305 0 6.9305 1.36837 6.94317 2.22994C6.94317 3.47161 6.94317 4.71328 6.94317 5.95495Z" fill="#F47920"/>
<path fill-rule="evenodd" clip-rule="evenodd" d="M27.7476 25.7709H50.5411V13.8737H27.7476V25.7709Z" fill="#F47920"/>
<path fill-rule="evenodd" clip-rule="evenodd" d="M1.98921 9.90804H23.7818V41.6213H1.98921V9.90804ZM8.42562 7.9315H0.747536C0.443454 7.9315 0 8.37495 0 8.67904V42.863C0 43.2558 0.544815 43.5979 0.988268 43.5979H24.7701C25.3782 43.5979 25.7583 43.2051 25.7583 42.6096V8.91977C25.7583 8.46364 25.4289 7.9315 25.0235 7.9315H17.3454C17.32 7.09527 16.7879 6.4491 15.977 6.4491H9.78132C8.98311 6.4491 8.43829 7.09527 8.42562 7.9315Z" fill="#F47920"/>
<path fill-rule="evenodd" clip-rule="evenodd" d="M29.2299 51.0353H20.6903C18.8658 51.0353 18.8658 54.0001 20.6903 54.0001H45.7011C47.5256 54.0001 47.5256 51.0353 45.7011 51.0353H37.1614V43.5979H29.2299V51.0353Z" fill="#F47920"/>
<path fill-rule="evenodd" clip-rule="evenodd" d="M27.7475 9.17304V11.8971H50.541V5.95483L25.3148 6.03085C26.5438 6.49965 27.7475 7.04446 27.7475 9.17304Z" fill="#F47920"/>
<path fill-rule="evenodd" clip-rule="evenodd" d="M9.90796 23.0342C9.90796 23.6804 10.06 24.2759 10.8962 24.2759H21.0577C21.9826 24.2759 22.2106 22.2993 20.8043 22.2993H10.6555C10.3514 22.2993 9.90796 22.7428 9.90796 23.0342Z" fill="#F47920"/>
<path fill-rule="evenodd" clip-rule="evenodd" d="M9.90799 17.092C9.90799 17.5102 9.85731 18.3337 10.8963 18.3337H20.8043C22.2487 18.3337 21.9066 16.3572 21.0577 16.3572H10.6555C10.3514 16.3572 9.90799 16.8006 9.90799 17.092Z" fill="#F47920"/>
<path fill-rule="evenodd" clip-rule="evenodd" d="M9.90796 28.9892C9.90796 29.5721 10.1234 30.2182 10.6555 30.2182H20.8043C22.1093 30.2182 22.198 28.2417 20.8043 28.2417H10.6555C10.3514 28.2417 9.90796 28.6852 9.90796 28.9892Z" fill="#F47920"/>
<path fill-rule="evenodd" clip-rule="evenodd" d="M5.94224 23.6551C5.71417 23.4904 5.41009 23.1103 5.33407 22.7935C4.64988 22.8442 4.57386 23.1103 3.9657 23.161C4.07973 23.5918 4.14308 23.5537 4.45983 23.7818L5.65082 24.8334C5.99292 25.1122 5.90422 25.1628 6.32234 25.2642C6.4237 24.8588 8.08348 22.3247 8.42558 21.8053C8.67898 21.4125 8.94505 20.9817 9.17311 20.5636H7.31061L5.94224 23.6551Z" fill="#F47920"/>
<path fill-rule="evenodd" clip-rule="evenodd" d="M5.8282 17.7128C5.66349 17.092 5.49878 17.4721 5.33407 16.8513C4.64988 16.902 4.57386 17.168 3.9657 17.2187C4.07973 17.6495 5.87888 19.2079 6.32234 19.3219C6.4237 18.9418 6.76579 18.4857 6.99385 18.131L9.17311 14.6213H7.31061C7.28527 14.9761 6.1703 17.4594 5.8282 17.7128Z" fill="#F47920"/>
<path fill-rule="evenodd" clip-rule="evenodd" d="M5.8282 29.6102C5.66349 28.9767 5.49878 29.3568 5.33407 28.7359C4.64988 28.7993 4.57386 29.0527 3.9657 29.1034C4.07973 29.5468 4.35847 29.5975 5.04266 30.2563C5.33407 30.5351 5.99292 31.1306 6.32234 31.2193C6.46171 30.6871 8.70432 27.3929 9.17311 26.506H7.31061C7.28527 26.8607 6.19564 29.3314 5.8282 29.6102Z" fill="#F47920"/>
<path fill-rule="evenodd" clip-rule="evenodd" d="M31.7134 29.1031C31.7134 31.2824 34.6782 31.2824 34.6782 29.1031C34.6782 27.2913 31.7134 27.2913 31.7134 29.1031Z" fill="#F47920"/>
<path fill-rule="evenodd" clip-rule="evenodd" d="M36.6672 29.1031C36.6672 31.2824 39.632 31.2824 39.632 29.1031C39.632 27.2913 36.6672 27.2913 36.6672 29.1031Z" fill="#F47920"/>
<path fill-rule="evenodd" clip-rule="evenodd" d="M27.7476 30.725C28.7612 30.725 29.7241 30.6363 29.7241 29.1033C29.7241 27.8109 28.5204 27.7476 27.7476 27.7476V30.725Z" fill="#F47920"/>
</svg>
