<svg width="338" height="339" viewBox="0 0 338 339" fill="none" xmlns="http://www.w3.org/2000/svg">
<path d="M32.503 285.578L29.5263 273.838C24.2484 271.601 18.8486 269.664 13.3526 268.035L12.9769 273.491L11.4531 267.48C4.63706 265.532 0 264.675 0 264.675C0 264.675 6.262 288.492 19.4004 306.701L34.7078 309.39L22.8159 311.105C24.4686 313.094 26.2447 314.976 28.1336 316.742C47.2441 334.481 68.5299 342.619 75.6763 334.92C82.8227 327.22 73.1239 306.599 54.0134 288.862C48.089 283.363 40.6468 278.95 33.1968 275.476L32.503 285.578Z" fill="#FFA667"/>
<path d="M60.8119 272.826L64.3323 261.238C60.9707 256.595 57.3499 252.146 53.4872 247.91L50.3453 252.387L52.1477 246.453C47.3191 241.264 43.7929 238.134 43.7929 238.134C43.7929 238.134 36.8434 261.76 38.6766 284.138L50.3907 294.353L39.3224 289.673C39.7096 292.23 40.2573 294.761 40.9623 297.249C48.1527 322.312 62.1673 340.282 72.2646 337.385C82.3618 334.488 84.7187 311.822 77.5283 286.758C75.2994 278.989 71.2091 271.364 66.6274 264.54L60.8119 272.826Z" fill="#FFA667"/>
<path d="M235.847 80.3093H233.99V29.4419C233.99 25.5755 233.229 21.747 231.749 18.175C230.269 14.6029 228.101 11.3573 225.367 8.62332C222.633 5.88939 219.387 3.72072 215.815 2.24113C212.243 0.761534 208.415 0 204.548 0H96.7751C88.9666 0 81.478 3.1019 75.9566 8.62332C70.4352 14.1447 67.3333 21.6334 67.3333 29.4419V308.51C67.3333 312.376 68.0948 316.204 69.5744 319.776C71.054 323.348 73.2226 326.594 75.9566 329.328C78.6905 332.062 81.9361 334.231 85.5082 335.71C89.0803 337.19 92.9088 337.951 96.7751 337.951H204.548C212.357 337.951 219.845 334.849 225.367 329.328C230.888 323.806 233.99 316.318 233.99 308.51V116.518H235.847L235.847 80.3093Z" fill="#13263D"/>
<path d="M205.736 7.65674H191.669C192.316 9.24293 192.563 10.9639 192.388 12.668C192.213 14.3721 191.622 16.0071 190.666 17.4288C189.711 18.8506 188.42 20.0155 186.908 20.8209C185.396 21.6264 183.709 22.0476 181.996 22.0476H120.254C118.541 22.0475 116.855 21.6261 115.343 20.8206C113.831 20.0151 112.541 18.8502 111.585 17.4284C110.63 16.0067 110.038 14.3718 109.864 12.6678C109.689 10.9637 109.936 9.24286 110.583 7.65674H97.4434C91.6122 7.65674 86.0197 9.97321 81.8964 14.0966C77.773 18.2199 75.4565 23.8124 75.4565 29.6436V308.306C75.4565 314.137 77.773 319.73 81.8964 323.853C86.0197 327.976 91.6122 330.293 97.4434 330.293H205.736C211.567 330.293 217.16 327.976 221.283 323.853C225.406 319.73 227.723 314.137 227.723 308.306V308.306V29.6432C227.723 23.812 225.406 18.2196 221.283 14.0964C217.159 9.97314 211.567 7.65674 205.736 7.65674V7.65674Z" fill="white"/>
<path d="M198.349 202.881H99.1768V203.81H198.349V202.881Z" fill="#CCCCCC"/>
<path d="M102.309 197.081C104.038 197.081 105.441 195.679 105.441 193.95C105.441 192.22 104.038 190.818 102.309 190.818C100.579 190.818 99.1768 192.22 99.1768 193.95C99.1768 195.679 100.579 197.081 102.309 197.081Z" fill="#F47920"/>
<path d="M198.349 234.198H99.1768V235.127H198.349V234.198Z" fill="#CCCCCC"/>
<path d="M102.309 228.4C104.038 228.4 105.441 226.997 105.441 225.268C105.441 223.538 104.038 222.136 102.309 222.136C100.579 222.136 99.1768 223.538 99.1768 225.268C99.1768 226.997 100.579 228.4 102.309 228.4Z" fill="#F47920"/>
<path d="M196.534 269.861H165.193C164.651 269.86 164.132 269.645 163.749 269.262C163.367 268.879 163.151 268.36 163.151 267.819V256.834C163.151 256.293 163.367 255.774 163.749 255.391C164.132 255.008 164.651 254.793 165.193 254.792H196.534C197.075 254.793 197.594 255.008 197.977 255.391C198.36 255.774 198.575 256.293 198.576 256.834V267.819C198.575 268.36 198.36 268.879 197.977 269.262C197.594 269.645 197.075 269.86 196.534 269.861V269.861Z" fill="#F47920"/>
<path d="M112.525 197.081C114.254 197.081 115.657 195.679 115.657 193.95C115.657 192.22 114.254 190.818 112.525 190.818C110.795 190.818 109.393 192.22 109.393 193.95C109.393 195.679 110.795 197.081 112.525 197.081Z" fill="#F47920"/>
<path d="M122.741 197.081C124.471 197.081 125.873 195.679 125.873 193.95C125.873 192.22 124.471 190.818 122.741 190.818C121.011 190.818 119.609 192.22 119.609 193.95C119.609 195.679 121.011 197.081 122.741 197.081Z" fill="#F47920"/>
<path d="M112.525 228.4C114.254 228.4 115.657 226.997 115.657 225.268C115.657 223.538 114.254 222.136 112.525 222.136C110.795 222.136 109.393 223.538 109.393 225.268C109.393 226.997 110.795 228.4 112.525 228.4Z" fill="#F47920"/>
<path d="M122.741 228.4C124.471 228.4 125.873 226.997 125.873 225.268C125.873 223.538 124.471 222.136 122.741 222.136C121.011 222.136 119.609 223.538 119.609 225.268C119.609 226.997 121.011 228.4 122.741 228.4Z" fill="#F47920"/>
<path d="M336.726 339H10.9269C10.2295 339 9.66455 338.752 9.66455 338.447C9.66455 338.142 10.2295 337.894 10.9269 337.894H336.726C337.423 337.894 337.989 338.142 337.989 338.447C337.989 338.753 337.423 339 336.726 339Z" fill="#13263D"/>
<path d="M256.232 222.102C256.455 222.204 256.669 222.323 256.873 222.459L277.225 213.773L277.952 208.412L286.084 208.362L285.603 220.658L258.74 227.762C258.684 227.949 258.616 228.132 258.537 228.311C258.149 229.139 257.524 229.835 256.742 230.31C255.96 230.785 255.054 231.018 254.14 230.98C253.226 230.942 252.343 230.635 251.602 230.097C250.862 229.559 250.297 228.814 249.978 227.956C249.66 227.098 249.602 226.165 249.812 225.274C250.022 224.384 250.49 223.575 251.159 222.949C251.827 222.324 252.665 221.91 253.567 221.759C254.47 221.608 255.397 221.728 256.232 222.102V222.102Z" fill="#FFA667"/>
<path d="M289.041 333.529H283.478L280.832 312.071L289.042 312.072L289.041 333.529Z" fill="#FFA667"/>
<path d="M279.505 331.94H290.234V338.695H272.75C272.75 336.903 273.461 335.185 274.728 333.918C275.995 332.651 277.713 331.94 279.505 331.94Z" fill="#023E88"/>
<path d="M310.677 331.957L305.141 332.503L300.403 311.408L308.574 310.603L310.677 331.957Z" fill="#FFA667"/>
<path d="M301.031 331.31L311.708 330.259L312.37 336.982L294.971 338.695C294.884 337.812 294.971 336.921 295.229 336.072C295.486 335.223 295.909 334.433 296.471 333.748C297.034 333.062 297.726 332.494 298.509 332.076C299.291 331.657 300.148 331.397 301.031 331.31Z" fill="#023E88"/>
<path d="M290.59 185.652C296.746 185.652 301.735 180.663 301.735 174.507C301.735 168.352 296.746 163.362 290.59 163.362C284.435 163.362 279.445 168.352 279.445 174.507C279.445 180.663 284.435 185.652 290.59 185.652Z" fill="#FFA667"/>
<path d="M282.235 329.19C281.757 329.191 281.294 329.024 280.928 328.717C280.561 328.41 280.315 327.983 280.232 327.512C277.353 311.528 267.94 259.263 267.715 257.815C267.71 257.782 267.708 257.748 267.708 257.715V253.818C267.708 253.676 267.752 253.537 267.835 253.422L269.078 251.681C269.138 251.597 269.215 251.528 269.305 251.479C269.395 251.429 269.495 251.402 269.597 251.397C276.686 251.065 299.902 250.091 301.023 251.492C302.15 252.9 301.752 257.167 301.661 258.008L301.665 258.096L312.095 324.798C312.177 325.33 312.046 325.872 311.73 326.308C311.415 326.744 310.94 327.039 310.409 327.128L303.895 328.201C303.41 328.279 302.913 328.18 302.494 327.923C302.076 327.665 301.764 327.266 301.615 326.798C299.6 320.359 292.844 298.701 290.502 290.321C290.488 290.267 290.454 290.222 290.408 290.191C290.362 290.161 290.307 290.149 290.252 290.156C290.198 290.164 290.148 290.191 290.112 290.233C290.076 290.275 290.057 290.328 290.057 290.384C290.174 298.372 290.457 318.755 290.554 325.794L290.565 326.552C290.569 327.066 290.381 327.562 290.037 327.943C289.693 328.324 289.219 328.563 288.708 328.611L282.426 329.182C282.362 329.187 282.298 329.19 282.235 329.19Z" fill="#023E88"/>
<path d="M283.517 190.035C281.572 191.191 280.408 193.316 279.74 195.478C278.504 199.481 277.76 203.619 277.524 207.802L276.818 220.326L268.081 253.528C275.654 259.936 280.022 258.48 290.216 253.238C300.41 247.997 301.575 254.986 301.575 254.986L303.613 226.735L306.526 195.864C305.872 195.077 305.132 194.365 304.32 193.743C301.628 191.65 298.496 190.195 295.16 189.488C291.823 188.781 288.37 188.84 285.061 189.661L283.517 190.035Z" fill="#13263D"/>
<path d="M280.679 228.808C280.914 228.896 281.141 229.003 281.36 229.127L301.483 219.055L301.817 213.598L310.119 213.026L310.563 225.465L283.67 234.358C283.451 235.3 282.95 236.153 282.234 236.803C281.518 237.453 280.621 237.87 279.662 237.998C278.704 238.126 277.729 237.959 276.867 237.519C276.006 237.08 275.299 236.388 274.84 235.537C274.381 234.685 274.192 233.715 274.298 232.753C274.405 231.792 274.801 230.886 275.435 230.156C276.069 229.425 276.91 228.905 277.847 228.664C278.783 228.424 279.771 228.474 280.679 228.808Z" fill="#FFA667"/>
<path d="M306.379 196.005C311.331 197.753 312.203 216.685 312.203 216.685C306.378 213.481 299.388 218.724 299.388 218.724C299.388 218.724 297.932 213.773 296.184 207.365C295.656 205.563 295.593 203.656 296.001 201.823C296.408 199.99 297.273 198.29 298.514 196.88C298.514 196.88 301.428 194.257 306.379 196.005Z" fill="#13263D"/>
<path d="M300.583 177.455C299.194 176.344 297.3 178.363 297.3 178.363L296.189 168.365C296.189 168.365 289.246 169.197 284.802 168.087C280.359 166.978 279.664 172.115 279.664 172.115C279.435 170.04 279.389 167.949 279.526 165.866C279.803 163.366 283.414 160.867 289.801 159.2C296.189 157.534 299.521 164.755 299.521 164.755C303.965 166.976 301.971 178.566 300.583 177.455Z" fill="#13263D"/>
<path d="M151.369 128.372L135.277 119.08V111.583H140.654V115.978L151.369 122.161L162.084 115.978V111.583H167.461V119.08L151.369 128.372Z" fill="#EE7B1D"/>
<path d="M135.277 108V100.499L151.369 91.2075L167.461 100.499V108H162.084V103.606L151.369 97.4177L140.654 103.606V108H135.277Z" fill="#194189"/>
<path d="M153.877 108.979L157.2 112.302L153.877 115.621L150.558 112.302L153.877 108.979Z" fill="#194189"/>
<path d="M148.861 103.958L152.18 107.282L148.861 110.601L145.538 107.282L148.861 103.958Z" fill="#194189"/>
<path fill-rule="evenodd" clip-rule="evenodd" d="M155.525 132.973H156.821V136.217H158.258V132.973H159.553V131.823H155.525V132.973Z" fill="#194189"/>
<path fill-rule="evenodd" clip-rule="evenodd" d="M162.203 134.723H161.295L161.74 133.145L162.203 134.723ZM160.854 136.217L161.021 135.635H162.454L162.626 136.217H164.058L162.485 131.823H161.021L159.444 136.217H160.854Z" fill="#194189"/>
<path fill-rule="evenodd" clip-rule="evenodd" d="M168.307 136.217V135.19H166.085L168.223 132.841V131.823H164.432V132.845H166.451L164.344 135.172V136.217H168.307Z" fill="#194189"/>
<path fill-rule="evenodd" clip-rule="evenodd" d="M168.986 136.217H170.427V134.824L170.766 134.463L171.824 136.217H173.552L171.776 133.475L173.38 131.823H171.692L170.427 133.242V131.823H168.986V136.217Z" fill="#194189"/>
<path fill-rule="evenodd" clip-rule="evenodd" d="M175.513 136.217V131.823H174.072V136.217H175.513Z" fill="#194189"/>
<path fill-rule="evenodd" clip-rule="evenodd" d="M178.819 134.723H177.907L178.352 133.145L178.819 134.723ZM177.466 136.217L177.634 135.635H179.066L179.238 136.217H180.675L179.097 131.823H177.634L176.06 136.217H177.466Z" fill="#194189"/>
<path fill-rule="evenodd" clip-rule="evenodd" d="M123.505 136.218V131.823H122.063V136.218H123.505Z" fill="#194189"/>
<path fill-rule="evenodd" clip-rule="evenodd" d="M125.753 131.823H124.404V136.217H125.784V134.824L125.731 133.824L127.3 136.217H128.648V131.823H127.269V133.22L127.322 134.22L125.753 131.823Z" fill="#194189"/>
<path fill-rule="evenodd" clip-rule="evenodd" d="M133.148 133.096C133.1 132.7 132.928 132.374 132.628 132.114C132.328 131.849 131.874 131.717 131.266 131.704C130.896 131.704 130.57 131.757 130.283 131.862C130.001 131.964 129.776 132.122 129.613 132.329C129.45 132.537 129.367 132.797 129.362 133.11C129.371 133.44 129.455 133.7 129.627 133.885C129.794 134.07 130.001 134.211 130.252 134.308C130.504 134.401 130.75 134.476 131.002 134.529C131.249 134.582 131.46 134.639 131.628 134.705C131.795 134.771 131.883 134.868 131.892 134.996C131.888 135.102 131.835 135.181 131.725 135.234C131.619 135.291 131.473 135.318 131.293 135.318C131.222 135.318 131.147 135.309 131.077 135.291C131.006 135.274 130.94 135.247 130.883 135.208C130.821 135.172 130.768 135.124 130.728 135.067C130.689 135.009 130.658 134.939 130.645 134.859H129.265C129.278 135.128 129.362 135.375 129.525 135.595C129.688 135.816 129.913 135.992 130.2 136.129C130.486 136.261 130.825 136.327 131.213 136.332C131.826 136.332 132.32 136.208 132.694 135.957C133.069 135.706 133.258 135.327 133.267 134.82C133.263 134.502 133.175 134.256 133.007 134.075C132.84 133.894 132.628 133.758 132.381 133.665C132.13 133.572 131.879 133.497 131.632 133.445C131.381 133.387 131.174 133.326 131.006 133.259C130.834 133.193 130.75 133.096 130.742 132.969C130.742 132.889 130.777 132.828 130.852 132.783C130.927 132.739 131.041 132.717 131.2 132.717C131.271 132.717 131.337 132.722 131.398 132.735C131.464 132.748 131.522 132.77 131.57 132.797C131.623 132.823 131.672 132.863 131.707 132.911C131.742 132.96 131.769 133.021 131.782 133.096H133.148Z" fill="#194189"/>
<path fill-rule="evenodd" clip-rule="evenodd" d="M133.655 132.973H134.951V136.217H136.388V132.973H137.684V131.823H133.655V132.973Z" fill="#194189"/>
<path fill-rule="evenodd" clip-rule="evenodd" d="M139.773 136.217V131.823H138.331V136.217H139.773Z" fill="#194189"/>
<path fill-rule="evenodd" clip-rule="evenodd" d="M140.438 132.973H141.734V136.217H143.17V132.973H144.466V131.823H140.438V132.973Z" fill="#194189"/>
<path fill-rule="evenodd" clip-rule="evenodd" d="M145.08 134.3C145.084 135.044 145.265 135.573 145.626 135.882C145.992 136.19 146.512 136.34 147.195 136.331C147.922 136.336 148.456 136.173 148.8 135.847C149.143 135.52 149.311 135.005 149.311 134.304V131.823H147.87V134.454C147.874 134.692 147.825 134.886 147.729 135.036C147.627 135.181 147.451 135.256 147.195 135.256C146.909 135.252 146.724 135.172 146.635 135.018C146.547 134.864 146.512 134.674 146.521 134.454V131.823H145.08V134.3Z" fill="#194189"/>
<path fill-rule="evenodd" clip-rule="evenodd" d="M149.919 132.973H151.215V136.217H152.656V132.973H153.952V131.823H149.919V132.973Z" fill="#194189"/>
<path fill-rule="evenodd" clip-rule="evenodd" d="M122.438 137.922H122.063V139.716H122.438V137.922Z" fill="#EE7B1D"/>
<path fill-rule="evenodd" clip-rule="evenodd" d="M123.857 138.791C123.844 138.668 123.809 138.575 123.747 138.513C123.685 138.447 123.61 138.407 123.522 138.385C123.434 138.363 123.346 138.35 123.258 138.355C123.121 138.355 123.015 138.381 122.936 138.425C122.856 138.469 122.804 138.526 122.768 138.597C122.737 138.663 122.724 138.729 122.724 138.795C122.724 138.897 122.755 138.972 122.808 139.025C122.865 139.077 122.931 139.117 123.011 139.144C123.094 139.166 123.174 139.188 123.258 139.201C123.337 139.214 123.407 139.232 123.46 139.254C123.513 139.271 123.544 139.307 123.544 139.346C123.548 139.377 123.535 139.404 123.504 139.434C123.469 139.465 123.412 139.483 123.324 139.487C123.218 139.483 123.139 139.465 123.099 139.43C123.055 139.395 123.033 139.346 123.033 139.289H122.676C122.68 139.408 122.715 139.501 122.777 139.567C122.843 139.633 122.923 139.681 123.015 139.708C123.112 139.739 123.213 139.752 123.315 139.747C123.385 139.752 123.469 139.739 123.557 139.717C123.645 139.694 123.725 139.65 123.791 139.584C123.857 139.518 123.892 139.421 123.897 139.293C123.892 139.196 123.866 139.122 123.809 139.069C123.751 139.016 123.685 138.976 123.601 138.95C123.522 138.923 123.438 138.906 123.359 138.888C123.275 138.875 123.205 138.857 123.152 138.839C123.094 138.817 123.068 138.787 123.064 138.747C123.064 138.716 123.072 138.69 123.099 138.659C123.13 138.632 123.187 138.619 123.28 138.619C123.372 138.619 123.434 138.637 123.46 138.672C123.491 138.707 123.509 138.747 123.513 138.791H123.857Z" fill="#EE7B1D"/>
<path fill-rule="evenodd" clip-rule="evenodd" d="M124.51 137.923H124.157V139.717H124.51V137.923Z" fill="#EE7B1D"/>
<path fill-rule="evenodd" clip-rule="evenodd" d="M125.919 138.738C125.915 138.628 125.884 138.549 125.822 138.491C125.761 138.438 125.69 138.399 125.611 138.381C125.527 138.359 125.457 138.35 125.391 138.355C125.298 138.35 125.21 138.363 125.126 138.385C125.038 138.403 124.967 138.447 124.91 138.518C124.848 138.584 124.813 138.685 124.796 138.817H125.135C125.135 138.773 125.153 138.734 125.179 138.694C125.205 138.654 125.263 138.637 125.346 138.632C125.395 138.628 125.448 138.637 125.496 138.654C125.545 138.672 125.571 138.716 125.576 138.787C125.576 138.822 125.562 138.848 125.536 138.866C125.51 138.879 125.483 138.888 125.457 138.892L125.139 138.941C125.029 138.954 124.937 138.998 124.866 139.064C124.796 139.135 124.756 139.236 124.756 139.364C124.756 139.452 124.778 139.527 124.813 139.584C124.853 139.642 124.906 139.686 124.963 139.712C125.025 139.739 125.091 139.747 125.157 139.747C125.276 139.747 125.364 139.725 125.43 139.686C125.496 139.642 125.549 139.602 125.589 139.558C125.589 139.593 125.593 139.62 125.598 139.642C125.602 139.659 125.611 139.686 125.62 139.717H125.994V139.664C125.972 139.655 125.955 139.642 125.941 139.611C125.928 139.584 125.919 139.531 125.919 139.456V138.738ZM125.576 139.241C125.576 139.32 125.54 139.386 125.479 139.43C125.417 139.474 125.346 139.501 125.267 139.501C125.227 139.501 125.192 139.492 125.161 139.465C125.126 139.443 125.104 139.399 125.104 139.342C125.104 139.271 125.13 139.223 125.175 139.196C125.219 139.17 125.272 139.152 125.342 139.139C125.413 139.13 125.465 139.117 125.501 139.108C125.536 139.095 125.562 139.082 125.576 139.069V139.241Z" fill="#EE7B1D"/>
<path fill-rule="evenodd" clip-rule="evenodd" d="M128.128 138.795C128.124 138.65 128.079 138.54 127.996 138.465C127.908 138.39 127.797 138.355 127.665 138.355C127.595 138.355 127.537 138.368 127.489 138.394C127.445 138.421 127.405 138.447 127.379 138.483C127.348 138.513 127.326 138.544 127.313 138.566C127.268 138.496 127.22 138.443 127.167 138.408C127.11 138.372 127.039 138.355 126.942 138.355C126.828 138.359 126.74 138.386 126.682 138.434C126.625 138.487 126.585 138.535 126.568 138.584H126.563V138.39H126.228V139.717H126.576V138.906C126.576 138.831 126.59 138.773 126.625 138.725C126.656 138.676 126.713 138.65 126.792 138.646C126.863 138.65 126.911 138.663 126.942 138.694C126.969 138.721 126.991 138.756 126.995 138.795C127.004 138.84 127.004 138.879 127.004 138.914V139.717H127.352V138.919C127.352 138.84 127.37 138.773 127.405 138.725C127.44 138.676 127.502 138.65 127.59 138.646C127.643 138.646 127.687 138.663 127.722 138.703C127.758 138.743 127.775 138.813 127.78 138.91V139.717H128.128V138.795Z" fill="#EE7B1D"/>
<path fill-rule="evenodd" clip-rule="evenodd" d="M128.455 138.39V139.717H128.803V138.39H128.455ZM128.803 137.905H128.455V138.231H128.803V137.905Z" fill="#EE7B1D"/>
<path fill-rule="evenodd" clip-rule="evenodd" d="M129.931 139.232C129.931 139.254 129.922 139.285 129.908 139.32C129.891 139.355 129.869 139.386 129.834 139.417C129.798 139.448 129.75 139.461 129.693 139.461C129.604 139.461 129.543 139.434 129.503 139.382C129.468 139.333 129.441 139.276 129.432 139.21C129.424 139.139 129.419 139.082 129.424 139.033C129.424 138.976 129.428 138.919 129.446 138.857C129.463 138.8 129.49 138.751 129.529 138.712C129.569 138.672 129.626 138.65 129.701 138.645H129.715C129.789 138.65 129.842 138.676 129.873 138.725C129.904 138.769 129.926 138.817 129.931 138.861H130.283C130.27 138.725 130.23 138.619 130.164 138.544C130.098 138.474 130.023 138.421 129.935 138.394C129.851 138.363 129.772 138.35 129.701 138.355C129.477 138.359 129.313 138.425 129.212 138.562C129.111 138.694 129.062 138.87 129.062 139.091C129.062 139.183 129.08 139.285 129.111 139.386C129.146 139.483 129.208 139.571 129.296 139.642C129.384 139.708 129.512 139.747 129.675 139.747C129.838 139.747 129.961 139.712 130.045 139.646C130.133 139.58 130.195 139.505 130.226 139.426C130.261 139.346 130.279 139.28 130.283 139.232H129.931Z" fill="#EE7B1D"/>
<path fill-rule="evenodd" clip-rule="evenodd" d="M132.566 137.923H131.248V139.717H132.61V139.399H131.614V138.932H132.487V138.619H131.614V138.24H132.566V137.923Z" fill="#EE7B1D"/>
<path fill-rule="evenodd" clip-rule="evenodd" d="M133.672 139.232C133.672 139.254 133.668 139.285 133.65 139.32C133.637 139.355 133.611 139.386 133.575 139.417C133.544 139.448 133.496 139.461 133.439 139.461C133.35 139.461 133.289 139.434 133.249 139.382C133.209 139.333 133.187 139.276 133.179 139.21C133.17 139.139 133.165 139.082 133.165 139.033C133.165 138.976 133.174 138.919 133.192 138.857C133.205 138.8 133.236 138.751 133.276 138.712C133.315 138.672 133.373 138.65 133.443 138.645H133.461C133.536 138.65 133.588 138.676 133.619 138.725C133.65 138.769 133.672 138.817 133.677 138.861H134.029C134.016 138.725 133.976 138.619 133.91 138.544C133.844 138.474 133.769 138.421 133.681 138.394C133.597 138.363 133.518 138.35 133.443 138.355C133.223 138.359 133.06 138.425 132.958 138.562C132.857 138.694 132.808 138.87 132.808 139.091C132.808 139.183 132.822 139.285 132.857 139.386C132.892 139.483 132.954 139.571 133.042 139.642C133.13 139.708 133.258 139.747 133.421 139.747C133.584 139.747 133.707 139.712 133.791 139.646C133.879 139.58 133.941 139.505 133.972 139.426C134.007 139.346 134.025 139.28 134.029 139.232H133.672Z" fill="#EE7B1D"/>
<path fill-rule="evenodd" clip-rule="evenodd" d="M135.55 139.051C135.55 138.892 135.515 138.76 135.453 138.659C135.391 138.553 135.307 138.478 135.206 138.43C135.105 138.377 134.995 138.355 134.871 138.355C134.752 138.355 134.642 138.377 134.536 138.43C134.435 138.478 134.355 138.553 134.289 138.659C134.228 138.76 134.197 138.892 134.197 139.051C134.197 139.21 134.228 139.342 134.289 139.443C134.355 139.549 134.435 139.624 134.536 139.677C134.642 139.725 134.752 139.748 134.871 139.748C134.995 139.748 135.105 139.725 135.206 139.677C135.307 139.624 135.391 139.549 135.453 139.443C135.515 139.342 135.55 139.21 135.55 139.051ZM135.193 139.051C135.193 139.108 135.184 139.17 135.171 139.232C135.153 139.294 135.122 139.346 135.074 139.391C135.03 139.43 134.959 139.452 134.871 139.457C134.783 139.452 134.717 139.43 134.668 139.391C134.624 139.346 134.593 139.294 134.576 139.232C134.558 139.17 134.554 139.108 134.554 139.051C134.554 138.994 134.558 138.932 134.576 138.87C134.593 138.809 134.624 138.756 134.668 138.716C134.717 138.672 134.783 138.65 134.871 138.646C134.959 138.65 135.03 138.672 135.074 138.716C135.122 138.756 135.153 138.809 135.171 138.87C135.184 138.932 135.193 138.994 135.193 139.051Z" fill="#EE7B1D"/>
<path fill-rule="evenodd" clip-rule="evenodd" d="M136.996 138.795C136.992 138.65 136.948 138.54 136.864 138.465C136.776 138.39 136.67 138.355 136.534 138.355C136.454 138.355 136.384 138.368 136.331 138.394C136.278 138.421 136.234 138.452 136.203 138.487C136.177 138.522 136.15 138.553 136.137 138.584H136.133V138.39H135.798V139.717H136.146V138.954C136.15 138.853 136.177 138.778 136.225 138.725C136.278 138.672 136.34 138.646 136.419 138.646C136.494 138.65 136.547 138.663 136.578 138.694C136.609 138.725 136.631 138.756 136.639 138.8C136.644 138.84 136.648 138.875 136.648 138.91V139.717H136.996V138.795Z" fill="#EE7B1D"/>
<path fill-rule="evenodd" clip-rule="evenodd" d="M138.6 139.051C138.6 138.892 138.565 138.76 138.503 138.659C138.442 138.553 138.358 138.478 138.256 138.43C138.155 138.377 138.045 138.355 137.921 138.355C137.802 138.355 137.692 138.377 137.586 138.43C137.485 138.478 137.406 138.553 137.34 138.659C137.278 138.76 137.247 138.892 137.243 139.051C137.247 139.21 137.278 139.342 137.34 139.443C137.406 139.549 137.485 139.624 137.586 139.677C137.692 139.725 137.802 139.748 137.921 139.748C138.045 139.748 138.155 139.725 138.256 139.677C138.358 139.624 138.442 139.549 138.503 139.443C138.565 139.342 138.6 139.21 138.6 139.051ZM138.243 139.051C138.243 139.108 138.234 139.17 138.221 139.232C138.204 139.294 138.173 139.346 138.124 139.391C138.08 139.43 138.01 139.452 137.921 139.457C137.833 139.452 137.767 139.43 137.719 139.391C137.675 139.346 137.644 139.294 137.626 139.232C137.609 139.17 137.604 139.108 137.604 139.051C137.604 138.994 137.609 138.932 137.626 138.87C137.644 138.809 137.675 138.756 137.719 138.716C137.767 138.672 137.833 138.65 137.921 138.646C138.01 138.65 138.08 138.672 138.124 138.716C138.173 138.756 138.204 138.809 138.221 138.87C138.234 138.932 138.243 138.994 138.243 139.051Z" fill="#EE7B1D"/>
<path fill-rule="evenodd" clip-rule="evenodd" d="M140.742 138.795C140.742 138.65 140.698 138.54 140.61 138.465C140.526 138.39 140.416 138.355 140.284 138.355C140.213 138.355 140.151 138.368 140.107 138.394C140.059 138.421 140.024 138.447 139.993 138.483C139.966 138.513 139.944 138.544 139.927 138.566C139.887 138.496 139.838 138.443 139.781 138.408C139.728 138.372 139.653 138.355 139.561 138.355C139.446 138.359 139.358 138.386 139.301 138.434C139.243 138.487 139.204 138.535 139.182 138.584H139.177V138.39H138.842V139.717H139.195V138.906C139.19 138.831 139.208 138.773 139.239 138.725C139.27 138.676 139.327 138.65 139.411 138.646C139.477 138.65 139.525 138.663 139.556 138.694C139.587 138.721 139.605 138.756 139.614 138.795C139.618 138.84 139.622 138.879 139.618 138.914V139.717H139.966V138.919C139.966 138.84 139.984 138.773 140.019 138.725C140.059 138.676 140.12 138.65 140.204 138.646C140.257 138.646 140.301 138.663 140.336 138.703C140.376 138.743 140.394 138.813 140.394 138.91V139.717H140.742V138.795Z" fill="#EE7B1D"/>
<path fill-rule="evenodd" clip-rule="evenodd" d="M141.073 138.39V139.717H141.421V138.39H141.073ZM141.421 137.905H141.073V138.231H141.421V137.905Z" fill="#EE7B1D"/>
<path fill-rule="evenodd" clip-rule="evenodd" d="M142.545 139.232C142.545 139.254 142.536 139.285 142.523 139.32C142.509 139.355 142.483 139.386 142.448 139.417C142.412 139.448 142.368 139.461 142.307 139.461C142.223 139.461 142.157 139.434 142.122 139.382C142.082 139.333 142.06 139.276 142.051 139.21C142.042 139.139 142.038 139.082 142.038 139.033C142.038 138.976 142.047 138.919 142.06 138.857C142.078 138.8 142.104 138.751 142.148 138.712C142.188 138.672 142.245 138.65 142.316 138.645H142.333C142.408 138.65 142.461 138.676 142.492 138.725C142.523 138.769 142.54 138.817 142.549 138.861H142.902C142.889 138.725 142.849 138.619 142.783 138.544C142.717 138.474 142.637 138.421 142.554 138.394C142.465 138.363 142.386 138.35 142.316 138.355C142.091 138.359 141.932 138.425 141.831 138.562C141.729 138.694 141.676 138.87 141.681 139.091C141.676 139.183 141.694 139.285 141.729 139.386C141.76 139.483 141.822 139.571 141.914 139.642C142.003 139.708 142.13 139.747 142.293 139.747C142.452 139.747 142.576 139.712 142.664 139.646C142.752 139.58 142.809 139.505 142.844 139.426C142.88 139.346 142.897 139.28 142.897 139.232H142.545Z" fill="#EE7B1D"/>
<path fill-rule="evenodd" clip-rule="evenodd" d="M144.233 138.791C144.224 138.668 144.189 138.575 144.127 138.513C144.065 138.447 143.991 138.407 143.902 138.385C143.814 138.363 143.726 138.35 143.638 138.355C143.501 138.355 143.396 138.381 143.316 138.425C143.237 138.469 143.184 138.526 143.149 138.597C143.118 138.663 143.1 138.729 143.105 138.795C143.105 138.897 143.135 138.972 143.188 139.025C143.246 139.077 143.312 139.117 143.391 139.144C143.475 139.166 143.554 139.188 143.638 139.201C143.717 139.214 143.783 139.232 143.841 139.254C143.894 139.271 143.924 139.307 143.924 139.346C143.929 139.377 143.911 139.404 143.88 139.434C143.85 139.465 143.792 139.483 143.704 139.487C143.594 139.483 143.519 139.465 143.475 139.43C143.435 139.395 143.413 139.346 143.413 139.289H143.056C143.061 139.408 143.096 139.501 143.158 139.567C143.224 139.633 143.303 139.681 143.396 139.708C143.492 139.739 143.589 139.752 143.695 139.747C143.766 139.752 143.845 139.739 143.938 139.717C144.026 139.694 144.105 139.65 144.171 139.584C144.237 139.518 144.273 139.421 144.273 139.293C144.273 139.196 144.242 139.122 144.189 139.069C144.132 139.016 144.065 138.976 143.982 138.95C143.902 138.923 143.819 138.906 143.735 138.888C143.656 138.875 143.585 138.857 143.532 138.839C143.475 138.817 143.448 138.787 143.444 138.747C143.44 138.716 143.453 138.69 143.479 138.659C143.506 138.632 143.567 138.619 143.66 138.619C143.753 138.619 143.81 138.637 143.841 138.672C143.872 138.707 143.889 138.747 143.894 138.791H144.233Z" fill="#EE7B1D"/>
<path fill-rule="evenodd" clip-rule="evenodd" d="M146.031 138.337C146.027 138.381 146.014 138.421 145.983 138.461C145.952 138.496 145.912 138.527 145.864 138.558C145.824 138.513 145.789 138.469 145.767 138.434C145.745 138.394 145.736 138.364 145.736 138.333C145.736 138.284 145.749 138.249 145.78 138.227C145.807 138.201 145.842 138.187 145.882 138.187C145.926 138.187 145.961 138.201 145.987 138.227C146.014 138.249 146.027 138.284 146.031 138.337ZM146.485 139.324C146.547 139.245 146.591 139.17 146.626 139.086C146.657 139.003 146.679 138.901 146.693 138.787H146.38C146.375 138.853 146.362 138.91 146.349 138.959C146.331 139.003 146.313 139.047 146.287 139.078L146.036 138.765C146.062 138.751 146.098 138.725 146.146 138.69C146.19 138.654 146.234 138.61 146.269 138.553C146.309 138.491 146.331 138.421 146.331 138.337C146.331 138.245 146.305 138.165 146.261 138.104C146.217 138.042 146.159 137.998 146.093 137.967C146.027 137.94 145.961 137.923 145.895 137.923C145.749 137.927 145.635 137.963 145.551 138.037C145.463 138.112 145.419 138.214 145.419 138.337C145.419 138.412 145.436 138.487 145.472 138.549C145.503 138.615 145.538 138.668 145.577 138.712L145.542 138.734C145.445 138.791 145.37 138.853 145.322 138.91C145.269 138.967 145.238 139.025 145.22 139.082C145.203 139.139 145.194 139.197 145.198 139.254C145.198 139.342 145.22 139.426 145.265 139.505C145.313 139.58 145.375 139.642 145.458 139.69C145.542 139.734 145.639 139.761 145.754 139.761C145.89 139.761 145.996 139.739 146.071 139.703C146.15 139.664 146.217 139.615 146.265 139.562L146.388 139.717H146.812L146.485 139.324ZM146.089 139.342C146.058 139.373 146.018 139.399 145.97 139.426C145.921 139.452 145.868 139.465 145.811 139.47C145.741 139.465 145.688 139.452 145.648 139.421C145.608 139.395 145.582 139.36 145.569 139.324C145.551 139.285 145.547 139.254 145.547 139.232C145.547 139.161 145.564 139.108 145.595 139.069C145.63 139.029 145.683 138.981 145.758 138.932L146.089 139.342Z" fill="#EE7B1D"/>
<path fill-rule="evenodd" clip-rule="evenodd" d="M147.746 139.717H148.504C148.623 139.712 148.72 139.708 148.791 139.695C148.861 139.681 148.919 139.664 148.958 139.637C148.998 139.615 149.038 139.584 149.069 139.554C149.117 139.505 149.157 139.452 149.183 139.386C149.21 139.324 149.223 139.254 149.223 139.183C149.227 139.095 149.205 139.007 149.17 138.932C149.13 138.853 149.055 138.791 148.945 138.751C148.972 138.738 149.002 138.721 149.038 138.694C149.073 138.672 149.099 138.632 149.126 138.584C149.152 138.535 149.166 138.469 149.166 138.381C149.17 138.32 149.152 138.253 149.121 138.183C149.091 138.112 149.033 138.051 148.954 138.002C148.875 137.954 148.76 137.927 148.615 137.923H147.746V139.717ZM148.103 138.928H148.579C148.65 138.928 148.712 138.941 148.764 138.976C148.817 139.012 148.848 139.064 148.848 139.144C148.848 139.236 148.826 139.302 148.773 139.342C148.725 139.386 148.654 139.408 148.562 139.404H148.103V138.928ZM148.103 138.236H148.535C148.619 138.231 148.685 138.245 148.734 138.275C148.782 138.302 148.809 138.355 148.809 138.425C148.804 138.496 148.782 138.549 148.729 138.58C148.681 138.61 148.619 138.628 148.544 138.624H148.103V138.236Z" fill="#EE7B1D"/>
<path fill-rule="evenodd" clip-rule="evenodd" d="M150.712 138.39H150.364V139.153C150.359 139.272 150.329 139.351 150.271 139.395C150.214 139.439 150.157 139.457 150.095 139.457C150.038 139.457 149.985 139.444 149.941 139.408C149.892 139.377 149.87 139.311 149.866 139.21V138.39H149.518V139.263C149.522 139.43 149.562 139.554 149.645 139.633C149.729 139.712 149.835 139.752 149.967 139.748C150.06 139.748 150.143 139.73 150.21 139.69C150.28 139.655 150.333 139.598 150.373 139.527H150.377V139.717H150.712V138.39Z" fill="#EE7B1D"/>
<path fill-rule="evenodd" clip-rule="evenodd" d="M152.131 138.791C152.122 138.668 152.083 138.575 152.021 138.513C151.959 138.447 151.889 138.407 151.801 138.385C151.712 138.363 151.624 138.35 151.536 138.355C151.4 138.355 151.289 138.381 151.214 138.425C151.135 138.469 151.078 138.526 151.047 138.597C151.016 138.663 150.998 138.729 150.998 138.795C151.003 138.897 151.029 138.972 151.087 139.025C151.139 139.077 151.21 139.117 151.289 139.144C151.369 139.166 151.452 139.188 151.532 139.201C151.615 139.214 151.682 139.232 151.739 139.254C151.792 139.271 151.823 139.307 151.823 139.346C151.823 139.377 151.809 139.404 151.779 139.434C151.748 139.465 151.69 139.483 151.602 139.487C151.492 139.483 151.417 139.465 151.373 139.43C151.329 139.395 151.311 139.346 151.311 139.289H150.954C150.959 139.408 150.994 139.501 151.056 139.567C151.117 139.633 151.197 139.681 151.294 139.708C151.391 139.739 151.488 139.752 151.589 139.747C151.664 139.752 151.743 139.739 151.831 139.717C151.924 139.694 151.999 139.65 152.065 139.584C152.131 139.518 152.166 139.421 152.171 139.293C152.171 139.196 152.14 139.122 152.087 139.069C152.03 139.016 151.959 138.976 151.88 138.95C151.796 138.923 151.717 138.906 151.633 138.888C151.549 138.875 151.483 138.857 151.426 138.839C151.373 138.817 151.342 138.787 151.342 138.747C151.338 138.716 151.351 138.69 151.377 138.659C151.404 138.632 151.466 138.619 151.554 138.619C151.646 138.619 151.708 138.637 151.739 138.672C151.77 138.707 151.787 138.747 151.792 138.791H152.131Z" fill="#EE7B1D"/>
<path fill-rule="evenodd" clip-rule="evenodd" d="M152.435 138.39V139.717H152.783V138.39H152.435ZM152.783 137.905H152.435V138.231H152.783V137.905Z" fill="#EE7B1D"/>
<path fill-rule="evenodd" clip-rule="evenodd" d="M154.322 138.795C154.318 138.65 154.274 138.54 154.186 138.465C154.102 138.39 153.992 138.355 153.859 138.355C153.776 138.355 153.709 138.368 153.657 138.394C153.599 138.421 153.56 138.452 153.529 138.487C153.498 138.522 153.476 138.553 153.463 138.584H153.454V138.39H153.123V139.717H153.471V138.954C153.471 138.853 153.498 138.778 153.551 138.725C153.599 138.672 153.665 138.646 153.745 138.646C153.82 138.65 153.868 138.663 153.903 138.694C153.934 138.725 153.956 138.756 153.961 138.8C153.97 138.84 153.974 138.875 153.974 138.91V139.717H154.322V138.795Z" fill="#EE7B1D"/>
<path fill-rule="evenodd" clip-rule="evenodd" d="M155.428 139.324C155.411 139.373 155.384 139.408 155.34 139.434C155.3 139.456 155.252 139.47 155.203 139.47C155.111 139.47 155.04 139.447 154.996 139.408C154.957 139.368 154.926 139.324 154.912 139.276C154.899 139.223 154.89 139.183 154.89 139.148H155.798V139.082C155.798 138.883 155.763 138.729 155.697 138.623C155.631 138.517 155.552 138.447 155.455 138.407C155.362 138.368 155.269 138.35 155.177 138.354C155.031 138.354 154.917 138.381 154.833 138.434C154.749 138.487 154.683 138.553 154.644 138.628C154.6 138.703 154.573 138.778 154.56 138.852C154.547 138.923 154.542 138.98 154.542 139.024C154.547 139.293 154.608 139.483 154.732 139.593C154.855 139.699 155.009 139.752 155.203 139.747C155.278 139.752 155.358 139.738 155.433 139.712C155.512 139.685 155.582 139.637 155.644 139.575C155.706 139.514 155.754 139.43 155.785 139.324H155.428ZM154.899 138.919C154.908 138.83 154.939 138.764 154.983 138.716C155.027 138.663 155.089 138.641 155.173 138.641C155.23 138.637 155.287 138.659 155.34 138.698C155.397 138.742 155.428 138.813 155.441 138.919H154.899Z" fill="#EE7B1D"/>
<path fill-rule="evenodd" clip-rule="evenodd" d="M157.125 138.791C157.112 138.668 157.077 138.575 157.015 138.513C156.953 138.447 156.878 138.407 156.79 138.385C156.706 138.363 156.618 138.35 156.53 138.355C156.389 138.355 156.283 138.381 156.204 138.425C156.129 138.469 156.072 138.526 156.041 138.597C156.006 138.663 155.992 138.729 155.992 138.795C155.992 138.897 156.023 138.972 156.076 139.025C156.133 139.077 156.199 139.117 156.283 139.144C156.363 139.166 156.446 139.188 156.526 139.201C156.605 139.214 156.675 139.232 156.728 139.254C156.786 139.271 156.812 139.307 156.817 139.346C156.817 139.377 156.803 139.404 156.772 139.434C156.742 139.465 156.68 139.483 156.592 139.487C156.486 139.483 156.411 139.465 156.367 139.43C156.323 139.395 156.301 139.346 156.305 139.289H155.944C155.948 139.408 155.984 139.501 156.05 139.567C156.111 139.633 156.191 139.681 156.288 139.708C156.38 139.739 156.482 139.752 156.583 139.747C156.653 139.752 156.737 139.739 156.825 139.717C156.914 139.694 156.993 139.65 157.059 139.584C157.125 139.518 157.16 139.421 157.165 139.293C157.16 139.196 157.134 139.122 157.077 139.069C157.024 139.016 156.953 138.976 156.869 138.95C156.79 138.923 156.706 138.906 156.627 138.888C156.543 138.875 156.477 138.857 156.42 138.839C156.363 138.817 156.336 138.787 156.332 138.747C156.332 138.716 156.341 138.69 156.371 138.659C156.398 138.632 156.455 138.619 156.548 138.619C156.64 138.619 156.702 138.637 156.733 138.672C156.759 138.707 156.777 138.747 156.781 138.791H157.125Z" fill="#EE7B1D"/>
<path fill-rule="evenodd" clip-rule="evenodd" d="M158.509 138.791C158.5 138.668 158.461 138.575 158.399 138.513C158.337 138.447 158.267 138.407 158.179 138.385C158.09 138.363 158.002 138.35 157.914 138.355C157.777 138.355 157.667 138.381 157.592 138.425C157.513 138.469 157.456 138.526 157.425 138.597C157.394 138.663 157.376 138.729 157.376 138.795C157.381 138.897 157.407 138.972 157.465 139.025C157.517 139.077 157.588 139.117 157.667 139.144C157.747 139.166 157.83 139.188 157.91 139.201C157.993 139.214 158.06 139.232 158.117 139.254C158.17 139.271 158.201 139.307 158.201 139.346C158.201 139.377 158.187 139.404 158.156 139.434C158.126 139.465 158.068 139.483 157.98 139.487C157.87 139.483 157.795 139.465 157.751 139.43C157.707 139.395 157.689 139.346 157.689 139.289H157.332C157.337 139.408 157.372 139.501 157.434 139.567C157.495 139.633 157.575 139.681 157.672 139.708C157.769 139.739 157.866 139.752 157.967 139.747C158.042 139.752 158.121 139.739 158.209 139.717C158.302 139.694 158.377 139.65 158.443 139.584C158.509 139.518 158.544 139.421 158.549 139.293C158.549 139.196 158.518 139.122 158.465 139.069C158.408 139.016 158.337 138.976 158.258 138.95C158.174 138.923 158.095 138.906 158.011 138.888C157.932 138.875 157.861 138.857 157.804 138.839C157.751 138.817 157.72 138.787 157.72 138.747C157.716 138.716 157.729 138.69 157.755 138.659C157.782 138.632 157.844 138.619 157.932 138.619C158.024 138.619 158.086 138.637 158.117 138.672C158.148 138.707 158.165 138.747 158.17 138.791H158.509Z" fill="#EE7B1D"/>
<path d="M159.311 139.161C159.311 138.853 159.562 138.606 159.871 138.606C160.179 138.606 160.43 138.853 160.43 139.161C160.43 139.47 160.179 139.721 159.871 139.721C159.562 139.721 159.311 139.47 159.311 139.161Z" fill="#EE7B1D"/>
<path fill-rule="evenodd" clip-rule="evenodd" d="M161.788 137.923H161.413V139.717H162.678V139.391H161.788V137.923Z" fill="#EE7B1D"/>
<path fill-rule="evenodd" clip-rule="evenodd" d="M164.027 138.738C164.027 138.628 163.996 138.549 163.935 138.491C163.873 138.438 163.802 138.399 163.723 138.381C163.639 138.359 163.564 138.35 163.503 138.355C163.41 138.35 163.322 138.363 163.234 138.385C163.15 138.403 163.079 138.447 163.018 138.518C162.96 138.584 162.921 138.685 162.908 138.817H163.243C163.247 138.773 163.26 138.734 163.291 138.694C163.318 138.654 163.375 138.637 163.459 138.632C163.507 138.628 163.556 138.637 163.608 138.654C163.657 138.672 163.683 138.716 163.688 138.787C163.688 138.822 163.675 138.848 163.648 138.866C163.622 138.879 163.595 138.888 163.564 138.892L163.251 138.941C163.137 138.954 163.044 138.998 162.974 139.064C162.903 139.135 162.868 139.236 162.864 139.364C162.868 139.452 162.886 139.527 162.925 139.584C162.965 139.642 163.013 139.686 163.075 139.712C163.137 139.739 163.203 139.747 163.269 139.747C163.384 139.747 163.476 139.725 163.542 139.686C163.608 139.642 163.661 139.602 163.697 139.558C163.701 139.593 163.705 139.62 163.71 139.642C163.714 139.659 163.719 139.686 163.732 139.717H164.106V139.664C164.084 139.655 164.067 139.642 164.054 139.611C164.036 139.584 164.032 139.531 164.027 139.456V138.738ZM163.688 139.241C163.683 139.32 163.652 139.386 163.591 139.43C163.529 139.474 163.459 139.501 163.375 139.501C163.34 139.501 163.304 139.492 163.269 139.465C163.234 139.443 163.216 139.399 163.212 139.342C163.216 139.271 163.238 139.223 163.282 139.196C163.326 139.17 163.384 139.152 163.45 139.139C163.52 139.13 163.573 139.117 163.608 139.108C163.648 139.095 163.67 139.082 163.688 139.069V139.241Z" fill="#EE7B1D"/>
<path fill-rule="evenodd" clip-rule="evenodd" d="M166.063 138.39H165.706L165.499 139.342H165.495L165.297 138.39H164.944L164.759 139.342H164.75L164.543 138.39H164.173L164.547 139.717H164.904L165.111 138.747H165.12L165.327 139.717H165.684L166.063 138.39Z" fill="#EE7B1D"/>
<path d="M166.764 139.161C166.764 138.853 167.011 138.606 167.32 138.606C167.628 138.606 167.879 138.853 167.879 139.161C167.879 139.47 167.628 139.721 167.32 139.721C167.011 139.721 166.764 139.47 166.764 139.161Z" fill="#EE7B1D"/>
<path fill-rule="evenodd" clip-rule="evenodd" d="M170.18 137.923H168.862V139.717H170.22V139.399H169.228V138.932H170.101V138.619H169.228V138.24H170.18V137.923Z" fill="#EE7B1D"/>
<path fill-rule="evenodd" clip-rule="evenodd" d="M171.71 137.923H171.361V138.562H171.357C171.331 138.513 171.286 138.469 171.229 138.425C171.167 138.381 171.084 138.355 170.974 138.355C170.872 138.355 170.784 138.377 170.7 138.43C170.617 138.478 170.55 138.553 170.498 138.655C170.449 138.756 170.423 138.884 170.423 139.038C170.423 139.161 170.44 139.276 170.48 139.382C170.52 139.492 170.577 139.58 170.661 139.646C170.744 139.712 170.85 139.748 170.978 139.748C171.053 139.752 171.123 139.734 171.194 139.703C171.264 139.673 171.322 139.62 171.366 139.549H171.37V139.717H171.71V137.923ZM170.78 139.06C170.78 138.954 170.802 138.857 170.846 138.778C170.89 138.699 170.969 138.659 171.079 138.655C171.154 138.655 171.216 138.677 171.26 138.721C171.304 138.76 171.335 138.813 171.353 138.875C171.37 138.941 171.379 139.012 171.375 139.082C171.379 139.183 171.353 139.272 171.304 139.346C171.256 139.421 171.176 139.461 171.066 139.461C170.991 139.461 170.934 139.439 170.894 139.395C170.85 139.351 170.824 139.298 170.806 139.236C170.788 139.175 170.78 139.117 170.78 139.06Z" fill="#EE7B1D"/>
<path fill-rule="evenodd" clip-rule="evenodd" d="M173.221 138.39H172.873V139.153C172.869 139.272 172.838 139.351 172.781 139.395C172.723 139.439 172.662 139.457 172.6 139.457C172.547 139.457 172.494 139.444 172.45 139.408C172.401 139.377 172.379 139.311 172.375 139.21V138.39H172.027V139.263C172.027 139.43 172.071 139.554 172.155 139.633C172.234 139.712 172.344 139.752 172.476 139.748C172.569 139.748 172.648 139.73 172.719 139.69C172.785 139.655 172.842 139.598 172.882 139.527H172.886V139.717H173.221V138.39Z" fill="#EE7B1D"/>
<path fill-rule="evenodd" clip-rule="evenodd" d="M174.336 139.232C174.336 139.254 174.328 139.285 174.314 139.32C174.301 139.355 174.275 139.386 174.239 139.417C174.204 139.448 174.16 139.461 174.098 139.461C174.015 139.461 173.949 139.434 173.913 139.382C173.874 139.333 173.852 139.276 173.843 139.21C173.834 139.139 173.83 139.082 173.83 139.033C173.83 138.976 173.838 138.919 173.852 138.857C173.869 138.8 173.896 138.751 173.94 138.712C173.979 138.672 174.032 138.65 174.107 138.645H174.125C174.2 138.65 174.253 138.676 174.284 138.725C174.314 138.769 174.332 138.817 174.341 138.861H174.693C174.68 138.725 174.641 138.619 174.574 138.544C174.508 138.474 174.429 138.421 174.345 138.394C174.257 138.363 174.178 138.35 174.107 138.355C173.882 138.359 173.724 138.425 173.622 138.562C173.521 138.694 173.468 138.87 173.473 139.091C173.468 139.183 173.486 139.285 173.521 139.386C173.552 139.483 173.614 139.571 173.706 139.642C173.794 139.708 173.922 139.747 174.085 139.747C174.244 139.747 174.367 139.712 174.455 139.646C174.544 139.58 174.601 139.505 174.636 139.426C174.671 139.346 174.689 139.28 174.689 139.232H174.336Z" fill="#EE7B1D"/>
<path fill-rule="evenodd" clip-rule="evenodd" d="M176.007 138.738C176.007 138.628 175.971 138.549 175.914 138.491C175.852 138.438 175.782 138.399 175.698 138.381C175.619 138.359 175.544 138.35 175.482 138.355C175.39 138.35 175.297 138.363 175.213 138.385C175.13 138.403 175.059 138.447 174.997 138.518C174.94 138.584 174.9 138.685 174.887 138.817H175.222C175.226 138.773 175.24 138.734 175.271 138.694C175.297 138.654 175.354 138.637 175.438 138.632C175.487 138.628 175.535 138.637 175.588 138.654C175.636 138.672 175.663 138.716 175.667 138.787C175.667 138.822 175.654 138.848 175.628 138.866C175.601 138.879 175.575 138.888 175.544 138.892L175.231 138.941C175.116 138.954 175.024 138.998 174.953 139.064C174.883 139.135 174.847 139.236 174.843 139.364C174.847 139.452 174.865 139.527 174.905 139.584C174.944 139.642 174.993 139.686 175.055 139.712C175.116 139.739 175.182 139.747 175.249 139.747C175.363 139.747 175.456 139.725 175.522 139.686C175.588 139.642 175.641 139.602 175.676 139.558C175.68 139.593 175.685 139.62 175.689 139.642C175.694 139.659 175.698 139.686 175.711 139.717H176.086V139.664C176.064 139.655 176.046 139.642 176.033 139.611C176.015 139.584 176.011 139.531 176.007 139.456V138.738ZM175.667 139.241C175.663 139.32 175.632 139.386 175.57 139.43C175.509 139.474 175.438 139.501 175.354 139.501C175.319 139.501 175.284 139.492 175.249 139.465C175.213 139.443 175.196 139.399 175.191 139.342C175.196 139.271 175.218 139.223 175.262 139.196C175.306 139.17 175.363 139.152 175.429 139.139C175.5 139.13 175.553 139.117 175.588 139.108C175.623 139.095 175.65 139.082 175.667 139.069V139.241Z" fill="#EE7B1D"/>
<path fill-rule="evenodd" clip-rule="evenodd" d="M176.712 138.029H176.364V138.39H176.183V138.637H176.364V139.443C176.36 139.532 176.382 139.598 176.426 139.651C176.474 139.703 176.571 139.73 176.717 139.73H176.765C176.818 139.73 176.875 139.725 176.928 139.725V139.461C176.915 139.461 176.902 139.461 176.893 139.465C176.88 139.465 176.867 139.465 176.858 139.465C176.787 139.465 176.748 139.457 176.73 139.439C176.717 139.426 176.708 139.395 176.712 139.36V138.637H176.928V138.39H176.712V138.029Z" fill="#EE7B1D"/>
<path fill-rule="evenodd" clip-rule="evenodd" d="M177.157 138.39V139.717H177.51V138.39H177.157ZM177.51 137.905H177.157V138.231H177.51V137.905Z" fill="#EE7B1D"/>
<path fill-rule="evenodd" clip-rule="evenodd" d="M179.123 139.051C179.123 138.892 179.088 138.76 179.026 138.659C178.964 138.553 178.881 138.478 178.779 138.43C178.678 138.377 178.568 138.355 178.444 138.355C178.325 138.355 178.215 138.377 178.109 138.43C178.008 138.478 177.929 138.553 177.863 138.659C177.801 138.76 177.77 138.892 177.766 139.051C177.77 139.21 177.801 139.342 177.863 139.443C177.929 139.549 178.008 139.624 178.109 139.677C178.215 139.725 178.325 139.748 178.444 139.748C178.568 139.748 178.678 139.725 178.779 139.677C178.881 139.624 178.964 139.549 179.026 139.443C179.088 139.342 179.123 139.21 179.123 139.051ZM178.766 139.051C178.766 139.108 178.757 139.17 178.744 139.232C178.726 139.294 178.696 139.346 178.647 139.391C178.603 139.43 178.533 139.452 178.444 139.457C178.356 139.452 178.29 139.43 178.242 139.391C178.198 139.346 178.167 139.294 178.149 139.232C178.131 139.17 178.127 139.108 178.127 139.051C178.127 138.994 178.131 138.932 178.149 138.87C178.167 138.809 178.198 138.756 178.242 138.716C178.29 138.672 178.356 138.65 178.444 138.646C178.533 138.65 178.603 138.672 178.647 138.716C178.696 138.756 178.726 138.809 178.744 138.87C178.757 138.932 178.766 138.994 178.766 139.051Z" fill="#EE7B1D"/>
<path fill-rule="evenodd" clip-rule="evenodd" d="M180.568 138.795C180.564 138.65 180.52 138.54 180.436 138.465C180.348 138.39 180.242 138.355 180.106 138.355C180.026 138.355 179.956 138.368 179.903 138.394C179.85 138.421 179.806 138.452 179.775 138.487C179.744 138.522 179.722 138.553 179.709 138.584H179.705V138.39H179.37V139.717H179.718V138.954C179.722 138.853 179.749 138.778 179.797 138.725C179.85 138.672 179.912 138.646 179.991 138.646C180.066 138.65 180.119 138.663 180.15 138.694C180.181 138.725 180.203 138.756 180.211 138.8C180.216 138.84 180.22 138.875 180.22 138.91V139.717H180.568V138.795Z" fill="#EE7B1D"/>
<path d="M104.001 170.163V174.027C103.999 174.563 103.83 175.001 103.494 175.342C103.161 175.683 102.708 175.874 102.136 175.916L101.937 175.924C101.315 175.924 100.819 175.756 100.45 175.42C100.08 175.085 99.8929 174.623 99.8877 174.035V170.163H100.629V174.011C100.629 174.422 100.742 174.742 100.969 174.971C101.195 175.198 101.518 175.311 101.937 175.311C102.361 175.311 102.685 175.198 102.908 174.971C103.135 174.745 103.248 174.426 103.248 174.015V170.163H104.001Z" fill="black"/>
<path d="M108.646 173.781C108.646 174.426 108.497 174.945 108.201 175.338C107.904 175.728 107.506 175.924 107.006 175.924C106.473 175.924 106.061 175.735 105.769 175.358L105.734 175.846H105.071V169.851H105.793V172.087C106.084 171.725 106.486 171.545 106.999 171.545C107.511 171.545 107.913 171.738 108.205 172.126C108.499 172.514 108.646 173.045 108.646 173.719V173.781ZM107.924 173.699C107.924 173.207 107.829 172.827 107.639 172.559C107.449 172.291 107.176 172.157 106.819 172.157C106.343 172.157 106.001 172.379 105.793 172.821V174.647C106.014 175.09 106.359 175.311 106.827 175.311C107.173 175.311 107.442 175.177 107.635 174.909C107.827 174.641 107.924 174.238 107.924 173.699Z" fill="black"/>
<path d="M112.166 175.846C112.124 175.762 112.091 175.614 112.064 175.401C111.729 175.749 111.328 175.924 110.862 175.924C110.446 175.924 110.104 175.807 109.836 175.572C109.571 175.336 109.438 175.036 109.438 174.675C109.438 174.235 109.604 173.894 109.937 173.652C110.273 173.408 110.744 173.285 111.35 173.285H112.053V172.954C112.053 172.701 111.977 172.501 111.826 172.353C111.676 172.202 111.453 172.126 111.159 172.126C110.901 172.126 110.685 172.191 110.511 172.321C110.337 172.451 110.25 172.609 110.25 172.794H109.524C109.524 172.583 109.598 172.38 109.746 172.185C109.897 171.987 110.1 171.831 110.355 171.716C110.613 171.602 110.895 171.545 111.202 171.545C111.689 171.545 112.07 171.667 112.345 171.912C112.621 172.153 112.764 172.488 112.775 172.915V174.858C112.775 175.246 112.824 175.554 112.923 175.783V175.846H112.166ZM110.968 175.295C111.194 175.295 111.409 175.237 111.612 175.12C111.815 175.003 111.962 174.85 112.053 174.663V173.797H111.487C110.602 173.797 110.16 174.055 110.16 174.573C110.16 174.8 110.235 174.977 110.386 175.104C110.537 175.232 110.731 175.295 110.968 175.295Z" fill="black"/>
<path d="M114.629 172.134C114.949 171.741 115.365 171.545 115.878 171.545C116.77 171.545 117.22 172.048 117.228 173.055V175.846H116.506V173.051C116.503 172.747 116.433 172.522 116.295 172.376C116.16 172.23 115.948 172.157 115.659 172.157C115.425 172.157 115.219 172.22 115.042 172.345C114.865 172.47 114.728 172.634 114.629 172.836V175.846H113.907V169.851H114.629V172.134Z" fill="black"/>
<path d="M121.154 173.621V175.846H120.405V170.163H122.501C123.122 170.163 123.609 170.322 123.96 170.639C124.314 170.957 124.491 171.377 124.491 171.9C124.491 172.451 124.318 172.877 123.972 173.176C123.629 173.473 123.135 173.621 122.493 173.621H121.154ZM121.154 173.008H122.501C122.901 173.008 123.208 172.915 123.422 172.727C123.635 172.537 123.742 172.264 123.742 171.908C123.742 171.569 123.635 171.299 123.422 171.096C123.208 170.893 122.916 170.788 122.544 170.78H121.154V173.008Z" fill="black"/>
<path d="M127.894 175.846C127.853 175.762 127.819 175.614 127.793 175.401C127.457 175.749 127.057 175.924 126.591 175.924C126.174 175.924 125.832 175.807 125.564 175.572C125.299 175.336 125.166 175.036 125.166 174.675C125.166 174.235 125.333 173.894 125.666 173.652C126.001 173.408 126.472 173.285 127.079 173.285H127.781V172.954C127.781 172.701 127.706 172.501 127.555 172.353C127.404 172.202 127.181 172.126 126.887 172.126C126.63 172.126 126.414 172.191 126.24 172.321C126.065 172.451 125.978 172.609 125.978 172.794H125.252C125.252 172.583 125.326 172.38 125.475 172.185C125.625 171.987 125.828 171.831 126.083 171.716C126.341 171.602 126.623 171.545 126.93 171.545C127.417 171.545 127.798 171.667 128.074 171.912C128.35 172.153 128.493 172.488 128.503 172.915V174.858C128.503 175.246 128.553 175.554 128.651 175.783V175.846H127.894ZM126.696 175.295C126.923 175.295 127.137 175.237 127.34 175.12C127.543 175.003 127.69 174.85 127.781 174.663V173.797H127.215C126.331 173.797 125.888 174.055 125.888 174.573C125.888 174.8 125.964 174.977 126.115 175.104C126.266 175.232 126.459 175.295 126.696 175.295Z" fill="black"/>
<path d="M132.094 174.725C132.094 174.53 132.02 174.379 131.871 174.273C131.726 174.163 131.469 174.07 131.102 173.992C130.738 173.914 130.448 173.82 130.232 173.711C130.019 173.601 129.86 173.471 129.756 173.32C129.655 173.17 129.604 172.99 129.604 172.782C129.604 172.436 129.749 172.143 130.041 171.904C130.335 171.664 130.71 171.545 131.165 171.545C131.644 171.545 132.031 171.668 132.328 171.915C132.627 172.163 132.777 172.479 132.777 172.864H132.051C132.051 172.666 131.966 172.496 131.797 172.353C131.631 172.209 131.42 172.138 131.165 172.138C130.902 172.138 130.697 172.195 130.548 172.31C130.4 172.424 130.326 172.574 130.326 172.758C130.326 172.933 130.395 173.064 130.533 173.153C130.671 173.241 130.919 173.326 131.278 173.406C131.64 173.487 131.932 173.583 132.156 173.695C132.38 173.807 132.545 173.942 132.652 174.101C132.761 174.257 132.816 174.448 132.816 174.675C132.816 175.052 132.665 175.355 132.363 175.584C132.061 175.81 131.67 175.924 131.188 175.924C130.85 175.924 130.551 175.864 130.291 175.744C130.03 175.624 129.826 175.458 129.678 175.245C129.532 175.029 129.459 174.796 129.459 174.546H130.181C130.194 174.788 130.291 174.98 130.47 175.124C130.652 175.264 130.892 175.334 131.188 175.334C131.462 175.334 131.68 175.28 131.844 175.17C132.011 175.058 132.094 174.91 132.094 174.725Z" fill="black"/>
<path d="M136.215 174.725C136.215 174.53 136.141 174.379 135.993 174.273C135.847 174.163 135.591 174.07 135.224 173.992C134.86 173.914 134.569 173.82 134.353 173.711C134.14 173.601 133.981 173.471 133.877 173.32C133.776 173.17 133.725 172.99 133.725 172.782C133.725 172.436 133.871 172.143 134.162 171.904C134.456 171.664 134.831 171.545 135.286 171.545C135.765 171.545 136.153 171.668 136.449 171.915C136.749 172.163 136.898 172.479 136.898 172.864H136.172C136.172 172.666 136.088 172.496 135.919 172.353C135.752 172.209 135.541 172.138 135.286 172.138C135.023 172.138 134.818 172.195 134.67 172.31C134.521 172.424 134.447 172.574 134.447 172.758C134.447 172.933 134.516 173.064 134.654 173.153C134.792 173.241 135.04 173.326 135.399 173.406C135.761 173.487 136.054 173.583 136.278 173.695C136.501 173.807 136.667 173.942 136.773 174.101C136.883 174.257 136.937 174.448 136.937 174.675C136.937 175.052 136.786 175.355 136.484 175.584C136.183 175.81 135.791 175.924 135.31 175.924C134.971 175.924 134.672 175.864 134.412 175.744C134.152 175.624 133.948 175.458 133.799 175.245C133.654 175.029 133.581 174.796 133.581 174.546H134.303C134.316 174.788 134.412 174.98 134.592 175.124C134.774 175.264 135.013 175.334 135.31 175.334C135.583 175.334 135.801 175.28 135.965 175.17C136.132 175.058 136.215 174.91 136.215 174.725Z" fill="black"/>
<path d="M141.617 174.85L142.428 171.623H143.15L141.921 175.846H141.336L140.309 172.645L139.31 175.846H138.725L137.499 171.623H138.217L139.049 174.784L140.032 171.623H140.614L141.617 174.85Z" fill="black"/>
<path d="M143.697 173.695C143.697 173.281 143.778 172.909 143.939 172.579C144.103 172.248 144.329 171.993 144.618 171.814C144.909 171.634 145.241 171.545 145.613 171.545C146.188 171.545 146.653 171.744 147.006 172.142C147.363 172.54 147.541 173.069 147.541 173.73V173.781C147.541 174.192 147.462 174.562 147.303 174.889C147.147 175.215 146.922 175.468 146.628 175.65C146.336 175.833 146.001 175.924 145.621 175.924C145.049 175.924 144.584 175.725 144.228 175.326C143.874 174.928 143.697 174.402 143.697 173.746V173.695ZM144.423 173.781C144.423 174.249 144.531 174.625 144.747 174.909C144.965 175.192 145.257 175.334 145.621 175.334C145.988 175.334 146.279 175.191 146.495 174.905C146.711 174.616 146.819 174.213 146.819 173.695C146.819 173.232 146.709 172.857 146.487 172.571C146.269 172.282 145.977 172.138 145.613 172.138C145.257 172.138 144.969 172.28 144.751 172.563C144.532 172.847 144.423 173.253 144.423 173.781Z" fill="black"/>
<path d="M150.488 172.271C150.378 172.252 150.26 172.243 150.133 172.243C149.659 172.243 149.338 172.445 149.169 172.848V175.846H148.447V171.623H149.149L149.161 172.111C149.398 171.733 149.733 171.545 150.168 171.545C150.308 171.545 150.415 171.563 150.488 171.599V172.271Z" fill="black"/>
<path d="M150.901 173.699C150.901 173.051 151.055 172.531 151.362 172.138C151.669 171.742 152.071 171.545 152.568 171.545C153.062 171.545 153.454 171.714 153.743 172.052V169.851H154.465V175.846H153.801L153.766 175.393C153.477 175.747 153.075 175.924 152.56 175.924C152.071 175.924 151.672 175.723 151.362 175.323C151.055 174.922 150.901 174.399 150.901 173.754V173.699ZM151.623 173.781C151.623 174.26 151.722 174.634 151.92 174.905C152.118 175.176 152.391 175.311 152.74 175.311C153.198 175.311 153.532 175.105 153.743 174.694V172.755C153.527 172.356 153.195 172.157 152.747 172.157C152.394 172.157 152.118 172.294 151.92 172.567C151.722 172.84 151.623 173.245 151.623 173.781Z" fill="black"/>
</svg>
